<svg width="756" height="793" viewBox="0 0 756 793" fill="none" xmlns="http://www.w3.org/2000/svg">
<mask id="mask0" mask-type="alpha" maskUnits="userSpaceOnUse" x="152" y="129" width="475" height="502">
<path d="M153.538 518.182C148.345 450.063 164.129 395.729 200.889 355.18C237.649 314.631 138.543 183.858 182.5 164C226.458 144.142 396.833 123.944 458.898 130.5C520.963 137.056 584.283 286.295 604.653 349.983C625.024 413.671 638.556 469.827 611.5 531.5C599.543 558.755 589.239 590.96 566.5 608C537.785 629.518 537.602 626 497.5 626C418.102 626 330.017 634.048 262.541 628.573C195.066 623.097 158.731 586.3 153.538 518.182Z" fill="#3639A6"/>
</mask>
<g mask="url(#mask0)">
<path d="M153.538 518.182C148.345 450.063 164.129 395.729 200.889 355.18C237.649 314.631 278.007 284.427 321.965 264.57C365.922 244.712 418.934 238.061 480.999 244.617C543.065 251.173 584.283 286.295 604.653 349.983C625.024 413.671 621.681 476.352 594.625 538.024C567.568 599.697 522.326 631.575 458.898 633.659C395.469 635.743 330.017 634.048 262.541 628.573C195.065 623.097 158.731 586.3 153.538 518.182Z" fill="#F8F8FA"/>
<path fill-rule="evenodd" clip-rule="evenodd" d="M540.046 376.648C535.941 365.341 539.024 351.025 530.563 341.668C528.06 340.147 526.733 340.993 525.703 343.646C525.081 347.136 523.624 359.154 528.864 359.149C529.523 366.655 529.111 374.215 527.497 381.581C523.63 380.961 520.81 382.948 517.989 384.427C515.886 385.529 513.781 386.348 511.241 385.591C500.753 383.743 497.764 394.757 497.636 403.747C497.482 408.134 497.07 418.359 495.138 422.616C486.393 404.504 468.028 396.258 450.528 392.187C447.785 391.428 445.444 390.391 443.685 388.619C428.941 382.797 436.024 363.722 429.241 352.76C418.624 339.727 405.873 335.978 389.809 338.211C375.755 339.765 366.201 354.043 367.068 367.52C367.328 370.27 365.677 373.162 364.706 375.992C355.005 387.601 339.91 392.795 326.926 399.81C283.621 420.976 268.614 437.152 251.785 482.192C243.912 499.138 234.491 515.584 231.362 534.247C227.685 556.24 227.673 578.753 228.953 600.962C226.564 601.249 229.164 618.322 231.26 624.236C231.979 626.263 233.699 627.725 235.844 627.691C240.157 629.787 250.283 638.236 254.795 637.955C269.37 637.058 283.539 638.446 297.582 637.728C312.774 636.951 327.82 634.117 343.078 634.485C369.685 635.126 350.636 636.705 378.164 637.955C395.541 638.757 458.94 629.265 476.268 630.815C490.363 633.78 496.793 628.781 494.643 614.056C493.848 608.411 491.31 595.858 499.661 595.325C503.611 595.783 506.881 599.731 509.84 602.037C535.981 621.501 562.686 607.486 564.79 575.49C568.752 548.654 574.307 542.314 562.232 515.515C524.027 415.753 581.587 429.307 542.723 382.579C539.689 385.222 540.46 378.169 540.046 376.648Z" fill="#EDB98A"/>
<path fill-rule="evenodd" clip-rule="evenodd" d="M356.609 397.938C381.508 410.638 401.199 416.988 415.682 416.988C430.164 416.988 455.672 419.945 492.205 425.86L510.245 465.507L550.052 473.285L550.228 474.321C552.168 485.448 555.873 498.912 562.232 515.515C574.307 542.314 568.752 548.654 564.791 575.49C562.686 607.486 535.981 621.501 509.841 602.037C506.881 599.731 503.611 595.783 499.661 595.325C491.477 595.847 493.751 607.913 494.594 613.709L494.643 614.056C496.794 628.781 490.363 633.78 476.269 630.815C458.94 629.265 395.542 638.757 378.164 637.955C350.636 636.705 369.686 635.126 343.078 634.485C327.821 634.117 312.775 636.951 297.582 637.728C284.278 638.408 270.861 637.198 257.092 637.832L235.844 627.691C227.986 571.419 229.18 534.523 239.426 517.002C249.621 499.568 263.272 470.909 280.38 431.025C280.642 430.745 280.906 430.467 281.173 430.191L356.609 397.938Z" fill="#FFE37D"/>
<path fill-rule="evenodd" clip-rule="evenodd" d="M525.527 340.921C527.612 338.872 530.927 339.382 532.96 341.204C535.029 343.054 536.274 345.963 537.337 348.47C542.103 359.743 540.993 372.086 543.405 383.88C547.817 386.263 551.8 389.375 554.621 393.561C558.906 399.92 560.939 407.325 558.791 414.861C557.681 418.761 555.795 422.374 554.45 426.19C553.014 430.253 552.134 434.474 551.712 438.764C551.299 442.974 551.243 447.208 551.362 451.433C551.426 453.622 551.541 455.807 551.657 457.991C551.76 459.949 552.107 461.992 551.639 463.91L551.581 464.131C551.764 464.103 551.943 464.067 552.122 464.028C553.659 463.685 555.011 463.152 556.614 463.363C557.864 463.526 558.512 464.569 557.983 465.746C557.752 466.26 557.446 466.689 557.076 467.055C560.299 490.891 565.929 514.343 569.633 538.103C571.312 548.883 572.335 559.694 571.758 570.608L571.697 571.691C571.109 581.711 569.664 592.754 564.572 601.518C562.193 605.621 558.922 609.261 554.959 611.884C553.144 613.085 551.199 614.024 549.086 614.494C538.137 618.855 526.558 617.785 516.233 612.019C511.59 609.429 506.958 606.408 503.166 602.66C501.324 600.838 499.546 598.518 498.455 595.983C498.459 596.552 498.356 597.134 498.471 597.695L498.701 598.803C500.42 607.04 506.975 637.481 507.062 640.036C507.109 641.415 495.504 641.382 494.245 641.423L494.21 641.425C475.415 642.208 456.609 641.79 437.824 641.013L436.341 640.951C418.124 640.18 398.3 639.143 380.063 638.612L380.101 638.307C380.319 636.668 381.382 629.384 381.5 628.826L381.504 628.807C382.021 626.724 383.018 620.244 382.493 618.095C381.142 612.558 375.05 613.823 370.764 614.41L369.861 614.528C369.168 614.624 367.479 614.871 367.495 614.888C367.04 614.414 368.123 613.068 368.39 612.708L368.603 612.411C369.755 610.799 370.797 609.125 370.683 607.049C370.406 601.976 363.158 602.262 359.596 602.614C359.345 602.638 359.242 603.031 359.531 603.089L360.234 603.236C362.494 603.721 367.513 604.957 367.4 606.827C367.335 607.889 366.204 608.673 365.513 609.342C364.751 610.08 363.994 610.875 363.431 611.781C362.349 613.525 362.103 615.878 363.174 617.693C364.409 619.787 366.6 620.032 368.794 619.841L368.918 619.83C369.401 619.785 369.884 619.738 370.367 619.691L373.264 619.408C373.981 619.338 376.286 618.735 376.959 619.151C377.913 619.741 376.766 622.358 376.551 623.22L376.539 623.281C376.354 624.529 376.243 637.606 376.225 638.47C362.013 638.14 347.798 634.98 333.587 635.723C322.296 636.312 311.036 637.332 299.767 638.217L299.483 635.798C296.359 609.454 291.462 574.693 293.812 548.637C293.996 546.597 290.812 546.609 290.629 548.637C288.199 575.581 293.519 611.775 296.613 638.46C291.816 638.824 287.016 639.155 282.211 639.408L280.986 639.47C264.636 640.288 247.76 640.336 231.759 636.586C231.266 636.471 231.099 635.977 231.202 635.567C231.043 635.659 230.804 635.607 230.737 635.384C228.873 629.239 227.926 613.594 227.081 606.824L227.024 606.381C226.157 599.803 225.66 593.15 225.302 586.533C224.577 573.294 224.665 560.04 225.644 546.817C228.759 504.642 241.165 462.034 267.203 428.14C273.498 419.947 280.664 412.45 289.262 406.652C297.697 400.963 307.159 396.955 316.76 393.701C323.106 391.548 329.552 389.705 335.998 387.867C336.242 387.745 336.486 387.625 336.731 387.506L337.1 387.33C339.392 386.243 341.648 385.054 343.995 384.087L344.514 383.876C347.916 382.511 351.879 381.304 355.562 381.345C361.526 378.341 366.536 373.801 366.05 366.519C365.851 363.527 370.546 363.531 370.714 366.519C371.151 374.469 366.254 380.108 360.01 383.892L360.04 383.922L360.07 383.955C361.045 385.062 362.087 386.088 363.213 387.043C369.954 392.781 378.48 397.545 387.003 400.68C397.002 404.36 406.993 405.463 417.334 402.487C422.741 400.93 427.846 398.531 432.537 395.427C433.97 394.48 435.342 393.466 436.659 392.379C435.414 390.676 434.419 388.842 433.584 386.896C431.905 382.981 430.516 377.676 432.231 373.542C432.653 372.523 434.328 371.895 434.913 373.192C436.524 376.741 437.197 380.577 439.075 384.047C439.791 385.368 440.614 386.621 441.537 387.803C441.537 387.867 448.588 389.073 448.588 389.073C457.111 389.069 465.136 392.343 472.676 396.434C477.133 398.853 481.513 401.424 485.881 404L494.417 409.036C495.045 409.406 495.75 409.764 496.454 410.146C495.63 406.079 495.228 401.933 495.499 397.823C495.909 391.623 498.32 384.843 504.706 382.634C507.726 381.588 511.219 381.91 514.152 383.072C515.505 383.609 516.977 384.322 518.234 385.273C518.843 382.535 521.409 380.482 523.988 379.575C524.823 379.28 525.679 379.093 526.546 379.001C526.521 378.562 526.518 378.118 526.524 377.66L526.53 377.314C526.57 375.285 526.554 373.256 526.51 371.23C526.431 367.39 526.248 363.63 525.858 359.802C525.532 356.633 524.967 353.501 524.547 350.345L524.373 348.988C524.018 346.315 523.424 342.987 525.527 340.921ZM269.151 600.037L268.44 599.615C266.11 598.24 263.71 596.972 260.887 597.608C258.198 598.214 256.291 600.398 255.289 602.858C254.815 604.02 254.568 605.192 254.385 606.431C254.283 607.124 254.214 607.823 254.092 608.513L254.051 608.727C253.996 609.002 253.912 609.385 253.835 609.717C253.101 609.394 252.362 608.882 251.762 608.578L251.278 608.334C250.141 607.769 248.959 607.23 247.72 606.968C245.038 606.401 242.062 607.221 240.529 609.625C239.217 611.68 239.244 614.102 239.746 616.406L239.781 616.566C239.999 617.522 241.124 621.349 242.76 620.791C244.351 620.248 244.564 618.133 244.684 616.723L244.693 616.589C244.747 615.526 244.537 613.293 245.74 612.889C247.244 612.386 250.137 614.687 251.446 615.289C253.788 616.364 256.36 616.682 258.266 614.59C259.974 612.714 260.118 609.968 260.56 607.589L260.675 606.99C260.909 605.781 261.363 603.85 262.7 603.899C263.793 603.94 264.994 605.072 265.894 605.61C266.889 606.204 267.921 606.698 269 607.12C271.518 608.104 274.318 608.419 276.997 608.128C278.55 607.96 279.56 607.219 280.109 605.759C280.295 605.331 280.436 604.889 280.534 604.432C281.404 601.164 276.652 598.831 274.899 601.754C272.878 601.678 270.996 601.133 269.151 600.037ZM561.635 578.183C560.186 577.149 558.218 577.372 556.923 578.536L556.845 578.608C556.486 578.955 555.677 579.858 555.153 580.651L554.989 580.524C554.962 580.503 554.937 580.483 554.912 580.463L554.841 580.404C553.77 579.499 552.651 578.669 551.273 578.3C547.681 577.334 544.417 579.739 542.849 582.822C542.106 584.284 541.787 585.794 541.417 587.371L541.385 587.516C541.235 588.251 541.041 589.741 540.397 590.105C540.16 590.239 539.623 589.975 539.091 589.668C537.879 588.968 536.791 588.077 535.603 587.339C532.815 585.609 529.647 584.895 526.517 586.142C523.418 587.376 521.197 590.288 521.145 593.682C521.107 596.184 522.782 600.549 525.934 600.244C526.566 600.183 527.379 599.794 527.481 599.067C527.753 597.135 526.23 594.762 527.976 593.167C529.665 591.625 531.415 592.922 532.944 593.992L534.04 594.76C535.819 595.996 537.652 597.128 539.905 597.263C542.755 597.434 545.387 595.859 546.821 593.433C548.118 591.239 548.137 588.758 549.151 586.506C549.373 586.013 549.944 585.56 549.754 585.333C550.522 585.734 551.513 586.887 551.992 587.21C554.375 588.818 557.562 588.806 559.651 586.674C560.483 585.826 561.013 584.778 561.63 583.779C561.852 583.418 562.13 583.084 562.334 582.712C562.408 582.576 562.531 582.068 562.631 581.616L562.785 580.897L562.802 580.779C562.934 579.691 562.549 578.835 561.635 578.183ZM469.836 568.684C467.098 567.246 463.723 567.793 461.257 569.535C458.491 571.488 457.134 574.489 456.21 577.66C455.539 579.969 455.217 583.153 453.287 584.826C451.04 586.771 447.274 584.706 444.903 583.939C442.034 583.011 438.586 582.631 435.787 584.003C433.043 585.349 431.721 588.092 431.438 591.032C431.173 593.775 431.566 597.388 433.131 599.683C433.285 599.909 433.579 599.851 433.677 599.612C434.705 597.079 434.507 594.181 435.342 591.56C436.234 588.762 438.323 588.17 440.977 588.923C443.744 589.708 446.278 591.177 449.124 591.7C452.158 592.257 455.163 591.683 457.555 589.677C459.567 587.99 460.786 585.533 461.61 583.084C462.412 580.697 462.543 577.502 464.253 575.52C464.684 575.02 465.436 574.416 466.133 574.352C467.17 574.256 467.545 575.027 468.383 575.617C470.592 577.176 474.119 577.208 475.472 574.465C475.915 573.567 476.134 572.292 475.472 571.413C474.31 569.873 473.357 569.886 471.824 570.219C471.775 570.178 471.721 570.125 471.66 570.054L471.613 569.996C471.207 569.483 470.42 568.991 469.836 568.684ZM361.398 552.498C361.307 550.436 358.825 548.458 356.868 549.898C356.552 550.128 356.241 550.364 355.936 550.608L355.811 550.743C355.447 550.742 355.108 550.646 354.748 550.531L354.119 550.329C352.467 549.805 350.879 549.383 349.115 549.77C346.081 550.436 344.156 553.053 343.168 555.832C342.247 558.421 342.549 561.063 342.117 563.718C341.708 566.235 340.414 567.218 337.986 566.678L337.861 566.65C333.03 565.493 327.526 562.258 323.291 566.693C318.716 571.484 321.709 579.094 326.717 582.173C326.936 582.307 327.178 582.086 327.128 581.857C326.463 578.762 324.522 575.81 325.172 572.525C325.623 570.248 327.205 569.171 329.462 569.533C334.211 570.297 338.652 574.082 343.522 571.335C345.955 569.962 347.295 567.385 347.901 564.744C348.447 562.367 348.292 559.687 349.339 557.446C350.483 554.992 352.41 556.771 354.487 557.106C357.426 557.58 361.554 556.039 361.398 552.498ZM520.703 479.189C520.713 477.141 517.53 477.139 517.52 479.189C517.403 505.142 505.262 529.13 503.081 554.825C502.909 556.866 506.093 556.854 506.265 554.825C508.446 529.123 520.586 505.183 520.703 479.189ZM257.858 521.671C256.182 519.773 253.727 520.362 251.733 521.313C248.738 522.741 245.871 524.347 243.124 526.203C242.448 526.659 242.874 527.651 243.67 527.498C245.685 527.111 247.646 526.676 249.602 526.048C251.071 525.576 252.6 524.89 254.133 524.647C254.037 525 253.92 525.345 253.783 525.684C253.532 526.38 253.239 527.06 252.992 527.758C252.498 529.148 252.054 530.557 251.623 531.968L251.409 532.673C250.513 535.631 249.643 539.935 253.776 540.845C255.31 541.183 256.83 540.515 258.256 539.989L258.55 539.883L263.754 538.038C264.374 537.819 265.522 537.666 266.036 537.28L265.954 537.676C265.847 538.2 265.743 538.714 265.517 539.237L265.391 539.525C264.099 542.455 262.469 545.387 263.976 548.627C265.268 551.402 268.321 552.719 271.263 551.932C274.059 551.183 276.082 548.034 274.635 545.296C274.095 544.274 272.517 543.775 271.514 544.413L271.245 544.592C270.929 544.798 270.385 545.152 270.372 545.218C270.297 545.237 270.219 545.257 270.139 545.276C270.308 544.78 270.422 544.016 270.57 543.678L271.114 542.441C272.128 540.118 273.006 537.753 272.233 535.147C270.019 527.684 262.513 531.927 256.976 534.057C257.057 533.741 257.137 533.43 257.204 533.125C257.443 532.044 257.704 530.969 257.963 529.894L258.492 527.674C258.969 525.628 259.34 523.35 257.858 521.671ZM541.148 513.341C541.153 513.164 540.936 513.029 540.783 513.132C537.243 515.512 534.875 520.481 536.205 524.714C536.851 526.77 538.225 528.573 540.153 529.571C542.55 530.811 545.197 530.339 547.716 529.808L548.786 529.579C549.54 529.421 550.284 529.304 551.051 529.516C551.315 529.589 551.62 529.819 551.871 529.868C551.767 530.044 551.657 530.349 551.602 530.462L551.419 530.829C551.236 531.201 551.057 531.588 550.945 531.979C550.569 533.29 550.662 534.698 551.271 535.922C552.407 538.201 554.789 539.486 557.268 539.704C558.746 539.835 562.468 538.541 563.348 540.109C565.095 543.219 570.069 541.127 569.102 537.683C568.448 535.354 566.594 533.849 564.296 533.219C563.072 532.883 561.804 532.929 560.559 533.066C560.072 533.12 559.585 533.195 559.097 533.247L558.731 533.281C558.826 533.273 557.719 533.247 557.274 533.217L557.369 532.962C557.383 532.926 557.396 532.894 557.407 532.87C557.902 531.811 558.269 530.756 558.239 529.573C558.184 527.44 556.804 525.579 554.99 524.552C553.317 523.605 551.326 523.227 549.425 523.438C547.335 523.67 544.365 525.326 542.31 524.454C540.762 523.796 540.236 521.504 540.212 520.002C540.177 517.739 541.085 515.595 541.148 513.341ZM396.964 498.502C391.269 495.946 386.378 500.311 383.036 504.489C382.863 504.704 383.08 505.067 383.352 504.899L383.796 504.623C386.525 502.911 389.55 500.889 392.932 501.472C395.994 502 396.752 504.003 396.142 506.733L395.963 507.501C395.316 510.312 394.819 513.222 396.432 515.836C397.955 518.305 400.926 519.384 403.708 519.45C406.918 519.526 409.688 518.033 412.623 516.992L412.855 516.91C414.101 516.48 418.648 515.356 418.711 517.917C418.74 519.087 417.487 520.463 417.005 521.515C416.374 522.891 415.954 524.337 415.962 525.866C415.981 529.679 419.161 532.775 422.925 530.926C424.388 530.206 424.765 528.143 424.002 526.817C422.927 524.948 422.492 525.046 423.245 523.083L423.463 522.531C424.389 520.166 425.127 517.732 424.086 515.25C422.007 510.293 415.772 509.693 411.317 511.334L411.155 511.396C408.382 512.47 400.079 516.774 400.651 510.688C400.876 508.29 401.604 505.991 401.095 503.568C400.623 501.317 399.052 499.439 396.964 498.502ZM369.521 478.145C368.481 476.314 364.991 476.969 365.28 479.293L365.372 480.017C365.491 481.007 365.517 481.937 364.833 482.818C364.003 483.886 362.582 484.209 361.292 484.046C358.562 483.7 356.821 481.169 353.816 481.76C351.377 482.24 349.693 484.236 348.717 486.412C347.685 488.717 347.707 491.215 346.938 493.588C346.052 496.318 344.163 496.192 341.805 495.237L341.297 495.028C339.04 494.09 336.776 493.048 334.262 493.496C330.086 494.241 326.49 500.662 330.403 503.763C331.109 504.322 332.343 504.03 332.313 502.972L332.309 502.771C332.29 500.845 332.776 498.36 334.983 497.906C337.324 497.424 339.968 499.56 342.142 500.175C347.772 501.768 350.979 497.53 351.935 492.519L351.97 492.327C352.275 490.572 352.516 487.326 354.351 486.505C355.329 486.067 356.373 487.145 357.19 487.579C358.461 488.253 359.824 488.681 361.261 488.791C366.578 489.196 372.619 483.604 369.521 478.145ZM502.562 471.222C500.811 470.464 498.198 470.886 497.77 473.172L497.51 474.611C497.001 477.39 496.191 480.865 493.459 481.866C491.751 482.492 489.789 481.395 488.256 480.726C486.416 479.921 484.622 479.232 482.607 479.041C478.518 478.653 475.472 481.019 474.026 484.717L473.899 485.046C472.733 488.153 471.156 494.095 473.71 496.615C474.083 496.983 474.835 497.162 475.292 496.819C476.801 495.687 477.183 493.826 477.701 492.081L477.746 491.931C478.296 490.119 478.747 488.123 479.74 486.49C481.585 483.455 486.4 486.92 488.716 487.721C492.519 489.035 496.464 488.267 499.37 485.456C501.206 483.68 502.292 481.432 503.038 479.053C503.515 479.299 504.009 479.512 504.542 479.656C506.571 480.206 508.978 479.916 510.523 478.379C513.423 475.494 511.85 470.318 507.429 471.155C506.558 471.319 505.987 472.151 505.884 473.001L505.824 473.135C504.712 472.767 503.496 471.626 502.562 471.222ZM297.684 445.444C293.553 441.194 286.385 443.498 283.559 448.006C282.973 448.941 283.941 450.126 284.97 449.842C287.429 449.164 290.9 446.497 293.499 448.195C295.425 449.453 294.377 452.743 294.201 454.583L294.176 454.857C293.953 457.363 293.902 460.79 295.853 462.665C296.976 463.745 298.699 463.599 300.18 463.445L300.65 463.396C302.396 463.22 304.131 462.913 305.803 462.375C307.34 461.882 308.797 461.211 310.242 460.501L310.603 460.323C311.242 460.006 313.374 458.748 314.013 459.538C314.346 459.95 313.521 461.756 313.349 462.159C312.702 463.673 311.878 465.099 311.284 466.641C310.237 469.357 310.15 472.421 311.62 475.012C313.044 477.523 316.131 479.558 318.866 477.629C320.432 476.524 320.428 474.515 318.866 473.409C318.04 472.825 317.206 472.439 316.865 471.458C316.419 470.178 316.993 468.821 317.548 467.637L318.213 466.228C319.685 463.082 321.156 459.463 319.099 456.247C316.975 452.926 312.658 452.874 309.393 454.257C307.529 455.047 305.829 456.105 303.886 456.716C302.543 457.139 301.194 457.422 299.818 457.576C299.511 455.92 299.945 454.067 299.949 452.421C299.956 449.922 299.491 447.303 297.684 445.444ZM510.699 386.323C503.728 385.3 500.353 391.536 499.872 397.54C499.438 402.992 500.322 408.459 501.702 413.76C502.22 415.725 502.8 417.667 503.409 419.577C504.388 422.645 505.45 425.708 506.744 428.661C507.137 429.552 507.535 430.448 507.981 431.307C509.507 432.559 510.814 434.245 512.001 435.865L512.781 436.935L512.99 437.224C515.008 439.986 516.73 442.851 518.139 445.966C519.48 448.933 520.479 452.027 521.255 455.185L521.446 455.974C522.043 458.404 522.923 461.305 521.859 463.566C523.948 464.21 526.025 464.795 528.245 465.106C531.309 465.536 534.496 465.563 537.588 465.452C540.575 465.343 543.559 465.109 546.533 464.792L548.676 464.556C548.898 464.531 549.12 464.505 549.341 464.477C549.258 464.374 549.186 464.258 549.134 464.131C548.371 462.301 548.469 460.178 548.385 458.209L548.374 457.991C548.263 455.807 548.195 453.622 548.168 451.433C548.116 447.327 548.227 443.209 548.677 439.122C549.066 435.545 549.676 431.968 550.627 428.494C551.585 424.972 553.05 421.666 554.402 418.283C555.739 414.941 556.842 411.507 556.722 407.862C556.647 405.546 556.137 403.294 555.274 401.165C555.234 401.197 555.183 401.221 555.123 401.217C552.413 401.117 549.847 400.334 547.229 399.673C544.451 398.969 541.606 398.392 538.766 398.05L538.162 397.979C535.794 397.713 533.214 397.583 531.027 398.599C528.659 399.701 527.167 402.152 526.268 404.504L526.168 404.775C524.57 409.233 524.936 415.183 529.877 417.293C531.409 417.949 534.906 418.351 535.694 416.274C536.048 415.327 535.32 413.927 535.045 413.031C534.723 411.965 534.512 410.914 534.536 409.8C534.555 408.823 535.302 408.086 536.251 408.007L536.338 408.001C538.065 407.926 541.626 405.937 541.972 408.801C542.04 409.358 541.614 409.943 541.165 410.214C540.258 410.751 539.311 411.109 538.324 411.328C538.459 411.925 538.65 412.51 538.838 413.091C538.949 413.035 539.072 413 539.203 412.987C540.663 412.868 542.108 413.099 543.568 413.115L544.366 413.12C545.5 413.131 546.488 413.192 547.587 413.779C548.601 414.32 548.422 415.677 547.587 416.258C545.394 417.778 541.682 416.887 539.398 415.343C539.498 416.127 539.45 416.927 539.116 417.766C538.129 420.257 535.3 421.499 532.77 421.606C530.521 421.701 528.373 420.993 526.578 419.752C526.212 421.061 525.623 422.318 525.369 423.676C525.034 425.458 525.432 427.543 524.812 429.218C524.191 430.906 521.792 432.035 520.403 430.38C518.37 427.961 519.002 424.129 520.789 421.678C521.74 420.38 523.467 418.892 525.225 418.657C524.004 417.508 523.025 416.087 522.408 414.519C522.365 414.539 522.313 414.543 522.257 414.527C516.54 412.964 513.428 407.782 513.237 402.343C512.815 402.645 512.378 402.916 511.92 403.159C510.826 403.748 509.421 403.23 509.083 402.009C508.773 400.871 509.676 399.467 510.945 399.562C511.669 399.621 512.397 399.625 513.118 399.506C513.217 399.49 513.313 399.47 513.412 399.45C513.476 399.032 513.559 398.615 513.663 398.201C511.502 398.447 509.242 398.093 507.153 397.632C505.355 397.238 505.773 394.377 507.583 394.444L507.874 394.457C510.249 394.571 513.756 394.955 515.791 393.45C516.15 392.932 516.547 392.443 516.977 391.981C517.033 391.866 517.081 391.743 517.124 391.615C518.219 388.464 513.034 386.665 510.699 386.323ZM448.122 430.658C445.408 429.932 442.552 430.921 440.686 432.97C439.117 434.693 438.305 436.808 437.579 438.97L437.165 440.214C436.561 441.976 435.868 443.373 433.712 442.702C430.948 441.841 428.553 440.342 425.547 440.46C422.816 440.568 420.142 441.743 418.24 443.712C416.295 445.727 415.366 448.534 415.779 451.3L415.806 451.469C416.021 452.743 417.885 457.29 419.86 455.197C420.741 454.263 420.567 453.23 420.776 452.044C420.975 450.914 421.401 449.806 422.099 448.889C423.335 447.265 425.324 446.632 427.269 447.206C429.833 447.964 432.099 449.527 434.862 449.564C437.768 449.603 440.236 448.095 441.839 445.729C443.133 443.819 443.595 441.583 444.506 439.506L444.593 439.308C445.358 437.598 445.879 436.981 447.631 437.799L448.243 438.092C450.865 439.338 453.815 440.479 456.526 438.722C459.045 437.09 460.119 433.81 458 431.422C456.831 430.104 454.125 430.329 453.366 432.02C453.232 432.311 453.109 432.605 452.987 432.901C452.755 432.83 452.529 432.744 452.315 432.624C450.894 431.984 449.66 431.07 448.122 430.658ZM368.894 411.351C365.799 409.683 363.214 412.965 363.709 415.928L363.733 416.058C363.751 416.147 363.793 416.342 363.845 416.566C363.687 416.547 363.531 416.519 363.375 416.479L362.655 416.391C361.525 416.26 360.429 416.191 359.297 416.554C356.626 417.411 355.313 420.008 355.248 422.668C355.184 425.32 356.556 427.459 356.959 429.992C357.371 432.583 354.69 431.843 352.94 431.653L352.871 431.646C350.436 431.4 347.876 431.395 345.852 432.983C343.762 434.622 342.836 437.454 343.132 440.047C343.398 442.389 344.864 445.994 347.518 446.364C347.781 446.401 348.079 446.343 348.213 446.081C349.287 443.994 347.793 441.689 347.962 439.486C348.148 437.064 349.692 436.661 351.821 436.818C353.887 436.97 355.948 437.408 357.989 436.792C360.203 436.123 361.81 434.223 362.264 431.982C362.765 429.512 361.844 427.214 361.247 424.867C361.048 424.087 360.951 423.303 361.088 422.506C361.117 422.334 361.267 422.175 361.321 422.107C361.661 422.043 362.169 422.206 362.46 422.237L362.873 422.277C365.115 422.48 367.275 422.344 368.877 420.491C369.698 419.542 370.001 418.382 369.919 417.158L369.878 416.663C369.834 416.187 369.75 415.56 369.503 415.298L369.5 415.285C369.583 415.174 369.662 415.059 369.734 414.941L369.804 414.82C370.49 413.676 370.092 411.997 368.894 411.351ZM527.497 382.308C524.413 382.308 521.5 383.315 519.169 386.056C520 386.848 520.665 387.767 521.031 388.846C522.173 388.221 523.382 387.732 524.62 387.385C528.396 386.331 533.56 386.347 536.736 388.937C538.399 390.29 536.572 392.717 534.782 392.3C533.178 391.926 531.786 391.233 530.103 391.154C528.643 391.082 527.21 391.273 525.81 391.695C523.673 392.34 521.731 393.561 520.303 395.244C519.825 395.809 519.408 396.422 519.057 397.083C516.392 402.144 518.401 409.402 522.081 413.568C520.637 408.769 522.077 403.111 524.954 399.136C528.418 394.35 533.598 393.808 539.055 394.555L539.235 394.58C544.514 395.324 551.052 396.625 554.999 400.505C554.605 399.609 554.151 398.742 553.641 397.902C550.65 392.976 545.688 389.132 540.539 386.391C539.676 385.925 538.805 385.495 537.937 385.097C534.639 383.581 530.962 382.308 527.497 382.308ZM529.184 344.713L529.172 344.769C529.17 344.78 529.167 344.79 529.164 344.801C528.982 346.419 529.412 348.276 529.632 349.909L529.662 350.141C530.123 353.857 530.732 357.578 530.931 361.322C531.125 364.923 531.05 368.658 530.617 372.243L530.553 372.754C530.298 374.708 530.147 377 529.487 379.005C532.025 379.248 534.564 380.064 536.871 380.932C537.699 381.246 538.523 381.576 539.342 381.927C538.316 376.471 537.767 370.936 536.652 365.496L536.433 364.414C535.222 358.397 534.085 352.341 530.955 346.958C530.537 346.241 530.087 345.641 529.578 345C529.467 344.853 529.335 344.758 529.184 344.713Z" fill="black"/>
<path fill-rule="evenodd" clip-rule="evenodd" d="M459.841 278.618C458.898 266.384 460.36 253.562 455.653 241.934C447.447 222.641 424.436 216.209 406.596 208.864C399.449 206.747 375.4 206.451 367.032 203.65C348.093 197.311 343.568 189.758 328.519 201.828C325.979 203.89 324.389 206.131 323.23 209.193L323.277 209.206C322.946 210.483 323.301 211.756 324.047 212.729C317.522 219.413 314.792 229.435 318.14 238.332C329.065 261.486 328.551 274.006 325.031 298.898C320.434 322.136 330.939 330.624 348.336 343.269C347.628 344.645 347.481 346.474 348.404 347.689C368.521 376.02 406.453 389.546 438.952 375.167C452.144 369.282 458.033 355.203 461.395 342.499C465.31 328.274 466.513 313.284 463.325 298.794C462.04 292.092 460.365 285.439 459.841 278.618Z" fill="#EDB98A"/>
<path fill-rule="evenodd" clip-rule="evenodd" d="M315.754 243.914L327.716 251.9L370.533 206.663L356.285 195.424C356.285 195.424 330.434 214.57 325.351 219.624C320.269 224.677 315.754 243.914 315.754 243.914Z" fill="#72E2EE"/>
<path fill-rule="evenodd" clip-rule="evenodd" d="M343.801 143.081C346.243 142.714 348.087 144.232 348.964 146.372L349.01 146.487C349.292 147.215 349.606 147.924 349.943 148.62C356.054 145.616 364.773 146.388 368.64 152.472C371.4 156.817 369.716 161.974 368.676 166.582L367.993 169.618C369.313 170.46 370.308 171.967 370.262 173.529L370.256 173.649L369.978 177.882C370.86 176.987 371.666 176.012 372.384 174.974C372.881 174.063 373.417 173.167 373.992 172.3C377.379 167.195 384.983 171.631 382.187 177.099C381.651 178.153 381.048 179.152 380.401 180.115C379.67 181.535 379.071 182.996 378.61 184.496C379.932 185.073 380.949 186.354 381.056 188.288C381.306 192.804 378.94 196.572 375.176 198.94C374.068 199.636 372.924 199.772 371.888 199.513C371.705 199.76 371.523 200.006 371.348 200.257C372.849 201.479 374.203 202.871 375.366 204.415C378.868 203.89 382.39 203.643 385.912 203.635C390.216 201.522 395.369 201.566 399.995 202.358C402.973 202.867 405.832 203.858 408.762 204.57C411.851 205.319 414.988 205.346 418.112 205.856C422.051 206.496 425.505 208.319 427.677 211.228C430.063 211.299 432.573 212.278 434.653 213.607C439.497 216.703 444.313 219.842 449.146 222.958C451 224.154 451.693 226.064 451.352 228.194L451.329 228.33L451.167 229.213L451.549 229.757C453.028 231.85 454.637 234.042 455.594 236.352C457.364 238.91 458.965 241.592 460.382 244.358C462.292 248.074 463.868 252.014 464.936 256.056C465.202 257.079 465.468 258.11 465.643 259.152C465.893 260.624 465.508 261.766 465.297 263.179C465.035 264.97 464.94 266.784 464.662 268.579C464.476 269.768 463.467 270.353 462.411 270.385C462.808 273.413 463.094 276.461 463.368 279.486C463.753 283.807 464.015 288.14 464.241 292.473C465.409 294.172 467.795 295.517 469.518 295.983C471.904 296.624 474.406 295.927 476.661 295.112C478.078 294.598 479.242 296.385 478.551 297.579C476.379 301.327 471.734 301.311 468.216 299.652C466.727 298.951 465.421 297.937 464.452 296.616C464.511 297.873 464.575 299.13 464.638 300.392L464.698 301.534C465.413 314.877 466.957 328.679 464.456 341.89C460.124 364.774 441.227 382.198 418.144 383.552C406.031 384.262 395.944 380.676 390.928 378.676C385.912 376.676 387.861 372.597 391.343 373.763C397.342 375.771 408.362 378.763 418.223 377.471C441.467 374.426 461.176 362.784 459.151 312.64C458.864 305.529 457.98 298.414 457.789 291.304C457.607 284.352 457.674 277.396 457.368 270.449L457.266 268.078C457.147 265.309 457.019 262.526 456.813 259.753C456.562 258.679 456.356 257.588 456.05 256.534C455.22 253.665 454.136 250.876 452.79 248.214C452.493 248.44 452.159 248.604 451.798 248.667C449.054 249.161 446.481 249.021 443.912 247.875C442.713 247.346 441.657 246.642 440.673 245.77C440.204 245.361 439.89 244.963 439.644 244.549C438.401 244.569 437.159 244.195 436.38 243.299C435.493 242.279 435.345 241.225 435.693 240.249L435.729 240.152L435.642 240.12C434.594 242.838 432.505 245.229 430.214 246.845C426.593 249.407 422.063 250.147 417.719 250.215C412.923 250.287 407.864 249.547 403.132 248.791C401.881 248.592 400.638 248.365 399.419 248.058C399.372 248.106 399.324 248.162 399.272 248.21C395.211 252.105 389.497 253.108 384.343 250.884C381.365 249.598 378.868 247.529 376.66 245.158C376.629 246.399 376.565 247.641 376.458 248.87L376.414 249.358C376.194 251.648 375.771 254.077 374.044 255.73C371.253 258.408 367.203 257.334 363.983 255.591C363.987 255.674 363.987 255.762 363.987 255.849C364.856 258.81 365.73 261.774 366.603 264.739L366.791 265.37C367.427 267.475 368.123 269.583 368.315 271.786C368.68 275.996 365.885 280.154 361.215 278.741C358.766 278.003 356.804 275.939 354.921 274.286L353.735 273.258C356.804 283.313 358.932 293.727 359.131 304.22C359.143 304.789 358.654 305.219 358.114 305.238C356.852 305.29 355.494 305.039 354.223 304.534C354.152 304.53 354.08 304.526 354.005 304.514C351.837 304.2 349.824 303.416 348.049 302.258C348.458 303.559 348.641 304.956 348.534 306.416C348.506 306.77 347.954 306.894 347.874 306.504C346.85 301.454 340.954 297.638 335.872 298.605C330.416 299.644 326.398 304.347 325.413 309.699C324.357 315.449 326.378 322.098 330.122 326.535C331.846 328.58 334.113 330.287 336.805 330.717C338.036 330.912 339.314 330.844 340.509 330.494C341.017 330.343 341.494 330.132 341.978 329.933C342.685 329.646 343.511 329.603 344.178 329.3C345.691 328.62 347.211 330.016 346.445 331.572C345.778 332.929 345.179 333.844 344.071 334.545C344.968 335.643 345.782 337.171 346.084 337.581C347.624 339.666 349.189 341.635 350.944 343.541C352.73 345.475 354.68 347.242 356.741 348.877L357.607 349.563C359.592 351.141 361.32 352.603 362.72 354.866C363.824 356.653 362.395 359.076 360.326 359.048C353.854 358.957 349.149 353.259 345.798 348.281C345.321 347.568 344.873 346.816 344.456 346.044C344.305 346.287 344.138 346.514 343.952 346.721L344.321 347.716C345.417 350.644 340.696 352.558 339.326 349.825C338.329 347.843 337.174 345.957 335.888 344.174C335.129 344.067 334.387 343.605 333.974 343.008C332.93 341.492 331.758 339.96 330.77 338.345C330.222 337.823 329.658 337.322 329.082 336.833C328.915 336.98 328.745 337.127 328.582 337.282C327.859 338.934 326.966 340.442 325.858 341.862L325.621 342.165C323.499 344.846 320.734 347.589 317.314 348.245C316.269 348.444 315.265 347.143 316.19 346.311C318.584 344.154 321.415 342.686 323.623 340.279C324.71 339.093 325.709 337.786 326.568 336.417L326.763 336.101C326.906 335.866 327.053 335.631 327.204 335.392C326.208 334.712 325.211 334.027 324.214 333.343C321.471 335.692 317.898 336.766 314.864 338.712L314.562 338.91C311.819 340.748 308.928 336.681 311.128 334.449C313.552 331.998 315.577 329.074 317.725 326.349C316.715 324.485 316.237 322.28 316.057 320.052C315.987 319.421 315.932 318.79 315.876 318.159C314.336 318.183 312.787 317.653 311.477 316.742L310.981 316.388C309.389 316.897 307.717 317.144 306.117 317.1C302.353 316.989 300.812 312.679 303.167 309.954C305.569 307.168 309.774 306.559 313.105 307.912C313.212 307.857 313.323 307.797 313.431 307.737C313.272 307.005 313.307 306.341 313.488 305.758L313.435 305.402C312.703 304.275 312.221 302.989 312.039 301.631C311.894 300.554 311.923 299.487 312.172 298.425C312.255 298.071 312.426 297.704 312.558 297.335C312.287 296.65 312.128 295.942 312.079 295.23C312.003 295.139 311.927 295.047 311.856 294.946C310.203 292.621 310.537 289.818 312.11 287.936C312.117 287.816 312.128 287.696 312.145 287.577C312.052 287.37 311.968 287.16 311.891 286.948C310.354 285.394 309.225 283.524 309.436 281.207C309.559 279.844 310.118 278.617 310.965 277.7C310.814 277.255 310.8 276.74 310.982 276.309C309.632 272.71 309.802 268.375 310.774 264.349C310.56 263.736 310.449 263.072 310.473 262.367C310.584 259.379 313.165 256.633 316.222 256.669C316.59 256.672 316.935 256.721 317.266 256.791L317.27 256.72C317.387 255.823 317.633 254.994 317.993 254.25C317.816 254.186 317.652 254.094 317.509 253.972C315.55 255.019 313.477 255.82 311.304 256.366C309.705 256.767 308.068 254.946 309.062 253.443C309.523 252.745 310.031 252.119 310.579 251.547C309.8 251.551 309.009 251.604 308.209 251.707C306.772 251.894 305.168 250.911 304.235 249.582C303.076 250.712 301.912 251.839 300.749 252.965C297.803 255.826 293.352 253.721 292.887 249.948C292.01 249.714 291.192 249.316 290.473 248.747C285.828 250.768 280.829 251.878 275.719 252.089C272.05 252.24 269.906 247.959 271.621 244.935C272.773 242.905 274.202 241.083 275.85 239.499C273.293 240.283 270.653 240.848 267.957 241.21C266.5 241.405 264.439 240.196 263.855 238.855C261.624 233.698 261.814 228.322 264.383 223.304C264.483 223.105 264.594 222.914 264.701 222.723C264.967 222.059 265.257 221.402 265.57 220.758C262.41 217.455 262.136 212.545 263.839 208.434C263.156 207.324 262.894 205.987 263.359 204.777C264.681 201.296 266.587 198.081 268.993 195.319C268.763 194.873 268.56 194.4 268.389 193.891C267.036 189.772 268.604 184.802 271.768 181.933C273.758 180.127 276.045 179.044 278.486 178.352C279.515 176.53 280.837 174.886 282.377 173.501C282.437 173.37 282.497 173.239 282.564 173.108C284.962 168.579 289.33 166.152 294.011 165.591C294.194 163.82 295.385 162.129 297.116 161.58C297.592 160.048 298.303 158.584 299.28 157.255C300.816 155.162 303.369 154.175 305.776 155.548C307.094 156.3 308.356 157.163 309.54 158.118C310.071 157.868 310.673 157.707 311.353 157.655L311.525 157.645L315.44 157.446C317.079 156.718 318.715 155.954 320.355 155.209C321.34 154.394 322.44 153.713 323.639 153.208C324.997 152.639 326.386 152.317 327.78 152.209C328.911 151.839 330.051 151.513 331.21 151.258C333.934 150.661 336.785 150.327 339.612 150.355C339.67 149.622 339.698 148.88 339.693 148.129L339.687 147.753C339.624 145.345 341.542 143.423 343.801 143.081ZM341.056 335.691C340.667 335.774 340.274 335.842 339.881 335.89C340 336.184 340.119 336.478 340.234 336.773C340.552 336.952 340.873 337.123 341.195 337.282C341.1 336.741 341.044 336.196 341.056 335.691ZM320.657 329.616L320.393 330.103C320.351 330.183 320.308 330.261 320.267 330.339C320.827 330.295 321.391 330.307 321.947 330.371L321.945 330.311C321.874 330.287 321.802 330.265 321.734 330.231C321.35 330.047 320.994 329.84 320.657 329.616ZM331.682 307.391C335.195 307.596 338.171 308.136 341.365 309.676L341.64 309.811C344.463 311.215 349.132 313.81 348.739 317.53C348.628 318.589 347.861 319.703 346.654 319.619C343.347 319.392 341.457 316.05 339.218 313.965C336.959 311.864 334.183 309.703 331.447 308.259C331.061 308.055 331.213 307.412 331.634 307.391L331.682 307.391ZM315.753 258.372C314.911 258.4 315.193 259.22 315.626 258.535C315.662 258.48 315.705 258.424 315.753 258.372ZM361.189 203.65C353.217 203.861 345.194 208.578 339.222 213.346C334.027 217.494 329.541 222.428 325.568 227.746C324.546 230.395 323.669 233.099 322.927 235.822C322.439 237.621 322.133 239.44 321.724 241.254L321.597 241.81C321.276 242.412 321.037 243.059 320.864 243.728C321.587 244.456 322.526 244.976 323.56 245.224C323.893 245.303 324.17 245.475 324.389 245.704C325.221 244.312 325.949 242.843 326.372 241.285L326.387 241.213C327.987 238.588 329.724 236.043 331.587 233.586C336.725 226.802 342.383 220.618 349.184 215.473C354.342 211.574 360.107 208.518 366.237 206.532C364.737 205.319 363.033 204.359 361.189 203.65Z" fill="black"/>
<path fill-rule="evenodd" clip-rule="evenodd" d="M396.791 334.342C401.137 331.726 417.38 333.644 430.14 334.342C440.272 334.897 447.509 333.798 449.825 335.357C455.059 338.879 452.517 355.912 443.499 358.242C434.482 360.571 401.054 363.824 395.291 358.242C389.527 352.659 388.995 339.037 396.791 334.342Z" fill="white"/>
<path fill-rule="evenodd" clip-rule="evenodd" d="M402.42 329.837C409.24 329.009 415.852 331.097 422.519 332.15C426.04 332.706 429.565 333.12 433.127 333.274C433.844 333.306 434.561 333.324 435.278 333.339C435.345 332.707 435.698 332.128 436.464 331.781C438.033 331.069 439.288 330.748 441.011 330.817C442.588 330.879 444.171 331.041 445.724 331.326C448.543 331.843 451.376 333.016 453.438 335.054C458.212 339.771 457.485 347.347 453.797 352.484C446.176 363.099 432.268 363.592 420.356 363.453L419.257 363.439C408.411 363.284 392.893 364.901 387.966 352.56C386.154 348.022 386.405 342.762 388.624 338.41C391.27 333.218 396.841 330.514 402.42 329.837ZM436.299 347.512L436.202 347.516C431.201 347.708 426.202 347.844 421.198 347.932C421.348 349.217 421.501 350.503 421.675 351.785C421.812 352.794 421.959 353.802 422.112 354.808C422.177 355.235 422.414 355.896 422.347 356.319L422.323 356.486C422.58 356.602 422.813 356.789 422.986 357.06C423.047 357.154 423.09 357.249 423.134 357.343C427.019 357.374 431.199 357.299 435.159 356.593L435.167 356.507C435.239 356.001 435.449 355.66 435.729 355.427C436.007 353.813 435.982 352.094 436.089 350.494C436.156 349.499 436.229 348.506 436.299 347.512ZM417.377 348.001C413.772 348.062 410.166 348.109 406.563 348.065L404.927 348.04C405.272 349.893 405.648 351.741 405.961 353.606C406.287 355.551 404.575 356.787 403.094 356.737C403.26 356.765 403.426 356.793 403.593 356.816C408.221 357.471 413.026 357.297 417.723 357.292C417.471 355.817 417.573 354.153 417.535 352.922L417.528 352.731C417.456 351.153 417.406 349.577 417.377 348.001ZM392.894 347.66C393.019 348.624 393.263 349.568 393.627 350.446C395.165 354.156 398.692 355.887 402.424 356.617C401.777 356.393 401.263 355.856 401.133 354.935C400.809 352.647 400.693 350.321 400.684 347.998C398.083 347.974 395.465 347.918 392.894 347.66ZM449.863 346.868C448.011 347.305 445.859 347.105 444.042 347.187C442.34 347.265 440.637 347.332 438.935 347.401C439.016 348.563 439.094 349.725 439.179 350.886C439.288 352.387 439.299 353.973 439.586 355.468C443.012 354.299 446.081 352.424 448.384 349.426C448.958 348.679 449.471 347.802 449.863 346.868ZM401.637 335.925C398.554 336.655 395.637 338.197 394.069 341.017C393.138 342.691 392.729 344.675 392.808 346.63C395.413 346.327 398.063 346.212 400.701 346.117C400.709 345.642 400.721 345.168 400.735 344.694L400.776 343.481C400.847 341.166 400.884 338.26 401.637 335.925ZM417.592 336.207L416.235 336.054C412.466 335.625 408.699 335.174 404.93 335.432C404.384 335.47 403.83 335.53 403.275 335.611C403.941 338.015 403.886 340.839 404.164 343.219C404.271 344.139 404.407 345.052 404.558 345.961L405.212 345.93C409.256 345.711 413.305 345.576 417.352 345.416C417.352 344.656 417.356 343.895 417.368 343.135L417.383 342.374C417.429 340.431 417.304 338.242 417.592 336.207ZM436.52 335.898C432.573 336.535 428.493 336.671 424.615 336.676C423.066 336.678 421.518 336.583 419.971 336.445C420.072 337.269 420.124 338.103 420.2 338.915C420.353 340.557 420.527 342.196 420.717 343.834L420.887 345.267C425.862 345.041 430.837 344.797 435.811 344.545L436.513 344.507L436.709 341.753C436.843 339.917 436.991 338.081 437.199 336.253L437.043 336.196C436.859 336.121 436.685 336.017 436.52 335.898ZM438.235 336.582C438.452 339.179 438.572 341.786 438.732 344.387L442.011 344.212C442.558 344.182 443.104 344.151 443.651 344.12C445.776 343.997 448.506 343.354 450.607 343.954C450.767 342.044 450.221 340.184 448.498 338.901C445.472 336.647 441.619 337.45 438.235 336.582ZM427.032 313.37C431.914 310.574 444.166 307.716 444.942 316.503C445.298 320.547 442.292 323.898 438.782 325.393L438.65 325.449C435.357 326.802 429.522 328.331 426.672 325.396C424.301 322.952 427.446 318.572 430.393 320.573C431.907 321.602 435.095 320.844 436.785 320.355L436.89 320.324C438.714 319.788 441.145 318.072 440.391 315.827C439.724 313.841 436.884 313.478 435.106 313.413C432.452 313.318 429.869 313.935 427.239 314.135C426.822 314.167 426.694 313.564 427.032 313.37ZM447.257 299.239C453.884 298.929 458.007 306.165 456.483 312.095C456.219 313.118 455.075 314.122 453.97 314.007L453.692 313.981C453.551 313.968 453.409 313.95 453.278 313.914C452.229 313.624 451.289 312.532 451.365 311.402L451.386 311.072C451.54 308.271 451.237 305.044 447.908 304.366C445.085 303.79 443.509 306.508 443.476 309.009C443.469 309.453 442.97 309.763 442.578 309.524C440.537 308.282 440.184 305.812 440.963 303.684C441.951 300.988 444.423 299.372 447.257 299.239ZM398.078 300.791C402.901 299.182 408.104 301.753 410.439 306.017C411.258 306.254 412.076 306.886 411.962 307.853C411.798 309.244 411.551 310.121 410.586 311.176C409.078 312.826 406.252 311.982 405.625 309.951L405.599 309.859C404.886 307.233 401.996 305.501 399.363 306.42C396.288 307.493 396.377 310.742 394.22 312.634C393.966 312.857 393.662 312.892 393.358 312.745C391.067 311.638 391.478 308.305 392.295 306.397C393.367 303.894 395.449 301.668 398.078 300.791ZM391.509 286.145C395.417 282.157 405.608 278.298 408.281 285.663C408.791 287.065 407.707 288.956 406.246 289.247C403.855 289.723 401.733 288.685 399.358 288.871C397.435 289.023 395.429 289.666 393.892 290.857C389.634 294.156 388.697 299.737 385.73 303.937C385.586 304.141 385.305 304.055 385.278 303.814C384.603 297.7 387.229 290.513 391.509 286.145ZM442.476 282.219C445.07 281.303 448.007 281.382 450.614 282.194C453.24 283.013 455.651 284.568 457.508 286.6C458.351 287.522 459.13 288.54 459.756 289.624C460.088 290.198 460.438 291.384 460.815 292.09C462.858 293.27 463.731 295.958 461.902 297.87L461.82 297.954L461.575 298.197C460.592 299.17 459.109 299.592 457.767 299.203C454.764 298.334 454.399 295.969 453.359 293.458C452.673 291.799 451.496 290.332 450.07 289.254C446.698 286.707 441.171 285.896 437.112 287.096C436.896 287.16 436.642 286.885 436.796 286.685C437.565 285.688 438.008 284.871 439.038 284.067C440.083 283.251 441.224 282.662 442.476 282.219Z" fill="black"/>
</g>
<path d="M547.082 260.354C541.072 266.364 541.823 278.492 541.823 278.492H511.344C511.344 278.492 511.988 266.364 506.085 260.354C499.539 254.559 495.353 246.188 495.353 236.851C495.353 219.68 509.305 205.728 526.476 205.728C543.648 205.728 557.6 219.68 557.6 236.851C557.6 246.188 553.521 254.559 547.082 260.354Z" fill="#FFD517"/>
<path d="M542.682 288.043C542.682 289.653 541.394 290.941 539.784 290.941H513.276C511.666 290.941 510.378 289.653 510.378 288.043C510.378 286.433 511.666 285.146 513.276 285.146H539.677C541.287 285.146 542.682 286.433 542.682 288.043Z" fill="#E5E5E5"/>
<path d="M538.711 300.063C538.711 301.673 537.423 302.961 535.813 302.961H517.247C515.637 302.961 514.349 301.673 514.349 300.063C514.349 298.453 515.637 297.166 517.247 297.166H535.813C537.423 297.166 538.711 298.453 538.711 300.063Z" fill="#E5E5E5"/>
<path d="M548.692 261.428C555.668 255.096 559.639 246.188 559.639 236.851C559.639 218.607 544.721 203.689 526.476 203.689C508.232 203.689 493.314 218.607 493.314 236.851C493.314 246.403 497.5 255.525 504.583 261.75C509.842 267.008 509.305 278.17 509.305 278.277C509.305 278.814 509.52 279.35 509.842 279.78C510.271 280.209 510.807 280.424 511.344 280.424H541.716C542.253 280.424 542.789 280.209 543.218 279.78C543.648 279.35 543.755 278.814 543.755 278.277C543.755 278.17 543.218 267.008 548.477 261.75C548.585 261.642 548.692 261.535 548.692 261.428ZM545.687 258.745C545.472 258.852 545.365 259.067 545.258 259.281C540.535 264.325 539.784 272.589 539.677 276.453H513.383C513.276 272.482 512.417 263.896 507.373 258.852C501.041 253.271 497.392 245.33 497.392 236.959C497.392 220.86 510.486 207.874 526.476 207.874C542.575 207.874 555.56 220.968 555.56 236.959C555.56 245.222 552.019 253.271 545.687 258.745Z" fill="#210B20"/>
<path d="M526.476 212.275C525.403 212.275 524.437 213.133 524.437 214.314C524.437 215.387 525.296 216.353 526.476 216.353C538.496 216.353 548.263 226.119 548.263 238.139C548.263 239.212 549.121 240.178 550.302 240.178C551.375 240.178 552.341 239.32 552.341 238.139C552.341 223.865 540.75 212.275 526.476 212.275Z" fill="#210B20"/>
<path d="M544.721 288.043C544.721 285.253 542.467 283.106 539.784 283.106H513.276C510.486 283.106 508.339 285.36 508.339 288.043C508.339 290.834 510.593 292.98 513.276 292.98H539.677C542.467 292.98 544.721 290.834 544.721 288.043ZM539.677 288.902H513.276C512.739 288.902 512.417 288.472 512.417 288.043C512.417 287.507 512.847 287.185 513.276 287.185H539.677C540.213 287.185 540.535 287.614 540.535 288.043C540.643 288.58 540.213 288.902 539.677 288.902Z" fill="#210B20"/>
<path d="M535.813 295.126H517.247C514.456 295.126 512.31 297.38 512.31 300.063C512.31 302.854 514.564 305 517.247 305H535.813C538.604 305 540.75 302.746 540.75 300.063C540.75 297.38 538.496 295.126 535.813 295.126ZM535.813 300.922H517.247C516.71 300.922 516.388 300.493 516.388 300.063C516.388 299.527 516.817 299.205 517.247 299.205H535.813C536.35 299.205 536.672 299.634 536.672 300.063C536.672 300.6 536.35 300.922 535.813 300.922Z" fill="#210B20"/>
<path d="M528.515 191.776V178.039C528.515 176.966 527.657 176 526.476 176C525.403 176 524.437 176.859 524.437 178.039V191.884C524.437 192.957 525.296 193.923 526.476 193.923C527.657 193.815 528.515 192.957 528.515 191.776Z" fill="#210B20"/>
<path d="M560.283 186.195C559.317 185.551 558.136 185.873 557.492 186.732L549.872 198.215C549.228 199.181 549.55 200.362 550.409 201.006C550.731 201.22 551.16 201.328 551.482 201.328C552.126 201.328 552.77 201.006 553.199 200.469L560.819 188.986C561.463 188.127 561.141 186.839 560.283 186.195Z" fill="#210B20"/>
<path d="M502.222 200.899C502.544 200.899 502.973 200.791 503.295 200.577C504.261 199.933 504.476 198.752 503.939 197.786L496.534 186.196C495.89 185.23 494.709 185.015 493.743 185.552C492.778 186.196 492.563 187.376 493.1 188.342L500.505 199.933C500.934 200.577 501.578 200.899 502.222 200.899Z" fill="#210B20"/>
<path d="M473.782 210.557L485.909 217.104C486.231 217.319 486.553 217.319 486.875 217.319C487.626 217.319 488.27 216.889 488.699 216.245C489.236 215.28 488.914 213.992 487.841 213.455L475.713 206.908C474.748 206.372 473.46 206.694 472.923 207.767C472.494 208.84 472.816 210.021 473.782 210.557Z" fill="#210B20"/>
<path d="M566.078 217.426C566.4 217.426 566.722 217.319 567.044 217.211L579.171 210.665C580.137 210.128 580.566 208.948 580.03 207.874C579.493 206.908 578.312 206.479 577.239 207.016L565.112 213.562C564.146 214.099 563.717 215.279 564.253 216.353C564.575 216.997 565.327 217.426 566.078 217.426Z" fill="#210B20"/>
<path d="M174.697 409.466C187.937 409.589 200.308 415 211.813 425.701C223.317 436.401 224.526 448.024 215.44 460.57C206.354 473.116 197.646 484.597 189.317 495.013C180.987 505.43 170.559 508.113 158.031 503.063C145.503 498.012 136.714 490.326 131.664 480.004C126.614 469.682 123.922 458.568 123.589 446.661C123.255 434.755 128.38 425.548 138.963 419.041C149.546 412.534 161.458 409.342 174.697 409.466Z" fill="#868AD8"/>
</svg>
