<svg width="535" height="539" viewBox="0 0 535 539" fill="none" xmlns="http://www.w3.org/2000/svg">
<g clip-path="url(#clip0)">
<mask id="mask0" mask-type="alpha" maskUnits="userSpaceOnUse" x="-13" y="21" width="530" height="502">
<path d="M43.5379 410.182C-10 374.5 -30.2601 300.549 6.49994 260C43.2599 219.451 28.5429 75.858 72.4999 56C116.458 36.142 286.833 15.944 348.898 22.5C410.963 29.056 520.5 40.5 494.653 241.983C515.024 305.671 528.556 361.827 501.5 423.5C489.543 450.755 479.239 482.96 456.5 500C427.785 521.518 427.602 518 387.5 518C308.102 518 220.017 526.048 152.541 520.573C85.0659 515.097 48.7309 478.3 43.5379 410.182Z" fill="#3639A6"/>
</mask>
<g mask="url(#mask0)">
<path d="M43.5379 410.182C38.3449 342.063 54.1289 287.729 90.8889 247.18C127.649 206.631 168.007 176.427 211.965 156.57C255.922 136.712 308.934 130.061 370.999 136.617C433.065 143.173 474.283 178.295 494.653 241.983C515.024 305.671 511.681 368.352 484.625 430.024C457.568 491.697 412.326 523.575 348.898 525.659C285.469 527.743 220.017 526.048 152.541 520.573C85.0649 515.097 48.7309 478.3 43.5379 410.182Z" fill="#F8F8FA"/>
<path fill-rule="evenodd" clip-rule="evenodd" d="M430.046 268.648C425.941 257.341 429.024 243.025 420.563 233.668C418.06 232.147 416.733 232.993 415.703 235.646C415.081 239.136 413.624 251.154 418.864 251.149C419.523 258.655 419.111 266.215 417.497 273.581C413.63 272.961 410.81 274.948 407.989 276.427C405.886 277.529 403.781 278.348 401.241 277.591C390.753 275.743 387.764 286.757 387.636 295.747C387.482 300.134 387.07 310.359 385.138 314.616C376.393 296.504 358.028 288.258 340.528 284.187C337.785 283.428 335.444 282.391 333.685 280.619C318.941 274.797 326.024 255.722 319.241 244.76C308.624 231.727 295.873 227.978 279.809 230.211C265.755 231.765 256.201 246.043 257.068 259.52C257.328 262.27 255.677 265.162 254.706 267.992C245.005 279.601 229.91 284.795 216.926 291.81C173.621 312.976 158.614 329.152 141.785 374.192C133.912 391.138 124.491 407.584 121.362 426.247C117.685 448.24 117.673 470.753 118.953 492.962C116.564 493.249 119.164 510.322 121.26 516.236C121.979 518.263 123.699 519.725 125.844 519.691C130.157 521.787 140.283 530.236 144.795 529.955C159.37 529.058 173.539 530.446 187.582 529.728C202.774 528.951 217.82 526.117 233.078 526.485C259.685 527.126 240.636 528.705 268.164 529.955C285.541 530.757 348.94 521.265 366.268 522.815C380.363 525.78 386.793 520.781 384.643 506.056C383.848 500.411 381.31 487.858 389.661 487.325C393.611 487.783 396.881 491.731 399.84 494.037C425.981 513.501 452.686 499.486 454.79 467.49C458.752 440.654 464.307 434.314 452.232 407.515C414.027 307.753 471.587 321.307 432.723 274.579C429.689 277.222 430.46 270.169 430.046 268.648Z" fill="#EDB98A"/>
<path fill-rule="evenodd" clip-rule="evenodd" d="M246.609 289.938C271.508 302.638 291.199 308.988 305.682 308.988C320.164 308.988 345.672 311.945 382.205 317.86L400.245 357.507L440.052 365.285L440.228 366.321C442.168 377.448 445.873 390.912 452.232 407.515C464.307 434.314 458.752 440.654 454.791 467.49C452.686 499.486 425.981 513.501 399.841 494.037C396.881 491.731 393.611 487.783 389.661 487.325C381.477 487.847 383.751 499.913 384.594 505.709L384.643 506.056C386.794 520.781 380.363 525.78 366.269 522.815C348.94 521.265 285.542 530.757 268.164 529.955C240.636 528.705 259.686 527.126 233.078 526.485C217.821 526.117 202.775 528.951 187.582 529.728C174.278 530.408 160.861 529.198 147.092 529.832L125.844 519.691C117.986 463.419 119.18 426.523 129.426 409.002C139.621 391.568 153.272 362.909 170.38 323.025C170.642 322.745 170.906 322.467 171.173 322.191L246.609 289.938Z" fill="#FFE37D"/>
<path fill-rule="evenodd" clip-rule="evenodd" d="M415.527 232.921C417.612 230.872 420.927 231.382 422.96 233.204C425.029 235.054 426.274 237.963 427.337 240.47C432.103 251.743 430.993 264.086 433.405 275.88C437.817 278.263 441.8 281.375 444.621 285.561C448.906 291.92 450.939 299.325 448.791 306.861C447.681 310.761 445.795 314.374 444.45 318.19C443.014 322.253 442.134 326.474 441.712 330.764C441.299 334.974 441.243 339.208 441.362 343.433C441.426 345.622 441.541 347.807 441.657 349.991C441.76 351.949 442.107 353.992 441.639 355.91L441.581 356.131C441.764 356.103 441.943 356.067 442.122 356.028C443.659 355.685 445.011 355.152 446.614 355.363C447.864 355.526 448.512 356.569 447.983 357.746C447.752 358.26 447.446 358.689 447.076 359.055C450.299 382.891 455.929 406.343 459.633 430.103C461.312 440.883 462.335 451.694 461.758 462.608L461.697 463.691C461.109 473.711 459.664 484.754 454.572 493.518C452.193 497.621 448.922 501.261 444.959 503.884C443.144 505.085 441.199 506.024 439.086 506.494C428.137 510.855 416.558 509.785 406.233 504.019C401.59 501.429 396.958 498.408 393.166 494.66C391.324 492.838 389.546 490.518 388.455 487.983C388.459 488.552 388.356 489.134 388.471 489.695L388.701 490.803C390.42 499.04 396.975 529.481 397.062 532.036C397.109 533.415 385.504 533.382 384.245 533.423L384.21 533.425C365.415 534.208 346.609 533.79 327.824 533.013L326.341 532.951C308.124 532.18 288.3 531.143 270.063 530.612L270.101 530.307C270.319 528.668 271.382 521.384 271.5 520.826L271.504 520.807C272.021 518.724 273.018 512.244 272.493 510.095C271.142 504.558 265.05 505.823 260.764 506.41L259.861 506.528C259.168 506.624 257.479 506.871 257.495 506.888C257.04 506.414 258.123 505.068 258.39 504.708L258.603 504.411C259.755 502.799 260.797 501.125 260.683 499.049C260.406 493.976 253.158 494.262 249.596 494.614C249.345 494.638 249.242 495.031 249.531 495.089L250.234 495.236C252.494 495.721 257.513 496.957 257.4 498.827C257.335 499.889 256.204 500.673 255.513 501.342C254.751 502.08 253.994 502.875 253.431 503.781C252.349 505.525 252.103 507.878 253.174 509.693C254.409 511.787 256.6 512.032 258.794 511.841L258.918 511.83C259.401 511.785 259.884 511.738 260.367 511.691L263.264 511.408C263.981 511.338 266.286 510.735 266.959 511.151C267.913 511.741 266.766 514.358 266.551 515.22L266.539 515.281C266.354 516.529 266.243 529.606 266.225 530.47C252.013 530.14 237.798 526.98 223.587 527.723C212.296 528.312 201.036 529.332 189.767 530.217L189.483 527.798C186.359 501.454 181.462 466.693 183.812 440.637C183.996 438.597 180.812 438.609 180.629 440.637C178.199 467.581 183.519 503.775 186.613 530.46C181.816 530.824 177.016 531.155 172.211 531.408L170.986 531.47C154.636 532.288 137.76 532.336 121.759 528.586C121.266 528.471 121.099 527.977 121.202 527.567C121.043 527.659 120.804 527.607 120.737 527.384C118.873 521.239 117.926 505.594 117.081 498.824L117.024 498.381C116.157 491.803 115.66 485.15 115.302 478.533C114.577 465.294 114.665 452.04 115.644 438.817C118.759 396.642 131.165 354.034 157.203 320.14C163.498 311.947 170.664 304.45 179.262 298.652C187.697 292.963 197.159 288.955 206.76 285.701C213.106 283.548 219.552 281.705 225.998 279.867C226.242 279.745 226.486 279.625 226.731 279.506L227.1 279.33C229.392 278.243 231.648 277.054 233.995 276.087L234.514 275.876C237.916 274.511 241.879 273.304 245.562 273.345C251.526 270.341 256.536 265.801 256.05 258.519C255.851 255.527 260.546 255.531 260.714 258.519C261.151 266.469 256.254 272.108 250.01 275.892L250.04 275.922L250.07 275.955C251.045 277.062 252.087 278.088 253.213 279.043C259.954 284.781 268.48 289.545 277.003 292.68C287.002 296.36 296.993 297.463 307.334 294.487C312.741 292.93 317.846 290.531 322.537 287.427C323.97 286.48 325.342 285.466 326.659 284.379C325.414 282.676 324.419 280.842 323.584 278.896C321.905 274.981 320.516 269.676 322.231 265.542C322.653 264.523 324.328 263.895 324.913 265.192C326.524 268.741 327.197 272.577 329.075 276.047C329.791 277.368 330.614 278.621 331.537 279.803C331.537 279.867 338.588 281.073 338.588 281.073C347.111 281.069 355.136 284.343 362.676 288.434C367.133 290.853 371.513 293.424 375.881 296L384.417 301.036C385.045 301.406 385.75 301.764 386.454 302.146C385.63 298.079 385.228 293.933 385.499 289.823C385.909 283.623 388.32 276.843 394.706 274.634C397.726 273.588 401.219 273.91 404.152 275.072C405.505 275.609 406.977 276.322 408.234 277.273C408.843 274.535 411.409 272.482 413.988 271.575C414.823 271.28 415.679 271.093 416.546 271.001C416.521 270.562 416.518 270.118 416.524 269.66L416.53 269.314C416.57 267.285 416.554 265.256 416.51 263.23C416.431 259.39 416.248 255.63 415.858 251.802C415.532 248.633 414.967 245.501 414.547 242.345L414.373 240.988C414.018 238.315 413.424 234.987 415.527 232.921ZM159.151 492.037L158.44 491.615C156.11 490.24 153.71 488.972 150.887 489.608C148.198 490.214 146.291 492.398 145.289 494.858C144.815 496.02 144.568 497.192 144.385 498.431C144.283 499.124 144.214 499.823 144.092 500.513L144.051 500.727C143.996 501.002 143.912 501.385 143.835 501.717C143.101 501.394 142.362 500.882 141.762 500.578L141.278 500.334C140.141 499.769 138.959 499.23 137.72 498.968C135.038 498.401 132.062 499.221 130.529 501.625C129.217 503.68 129.244 506.102 129.746 508.406L129.781 508.566C129.999 509.522 131.124 513.349 132.76 512.791C134.351 512.248 134.564 510.133 134.684 508.723L134.693 508.589C134.747 507.526 134.537 505.293 135.74 504.889C137.244 504.386 140.137 506.687 141.446 507.289C143.788 508.364 146.36 508.682 148.266 506.59C149.974 504.714 150.118 501.968 150.56 499.589L150.675 498.99C150.909 497.781 151.363 495.85 152.7 495.899C153.793 495.94 154.994 497.072 155.894 497.61C156.889 498.204 157.921 498.698 159 499.12C161.518 500.104 164.318 500.419 166.997 500.128C168.55 499.96 169.56 499.219 170.109 497.759C170.295 497.331 170.436 496.889 170.534 496.432C171.404 493.164 166.652 490.831 164.899 493.754C162.878 493.678 160.996 493.133 159.151 492.037ZM451.635 470.183C450.186 469.149 448.218 469.372 446.923 470.536L446.845 470.608C446.486 470.955 445.677 471.858 445.153 472.651L444.989 472.524C444.962 472.503 444.937 472.483 444.912 472.463L444.841 472.404C443.77 471.499 442.651 470.669 441.273 470.3C437.681 469.334 434.417 471.739 432.849 474.822C432.106 476.284 431.787 477.794 431.417 479.371L431.385 479.516C431.235 480.251 431.041 481.741 430.397 482.105C430.16 482.239 429.623 481.975 429.091 481.668C427.879 480.968 426.791 480.077 425.603 479.339C422.815 477.609 419.647 476.895 416.517 478.142C413.418 479.376 411.197 482.288 411.145 485.682C411.107 488.184 412.782 492.549 415.934 492.244C416.566 492.183 417.379 491.794 417.481 491.067C417.753 489.135 416.23 486.762 417.976 485.167C419.665 483.625 421.415 484.922 422.944 485.992L424.04 486.76C425.819 487.996 427.652 489.128 429.905 489.263C432.755 489.434 435.387 487.859 436.821 485.433C438.118 483.239 438.137 480.758 439.151 478.506C439.373 478.013 439.944 477.56 439.754 477.333C440.522 477.734 441.513 478.887 441.992 479.21C444.375 480.818 447.562 480.806 449.651 478.674C450.483 477.826 451.013 476.778 451.63 475.779C451.852 475.418 452.13 475.084 452.334 474.712C452.408 474.576 452.531 474.068 452.631 473.616L452.785 472.897L452.802 472.779C452.934 471.691 452.549 470.835 451.635 470.183ZM359.836 460.684C357.098 459.246 353.723 459.793 351.257 461.535C348.491 463.488 347.134 466.489 346.21 469.66C345.539 471.969 345.217 475.153 343.287 476.826C341.04 478.771 337.274 476.706 334.903 475.939C332.034 475.011 328.586 474.631 325.787 476.003C323.043 477.349 321.721 480.092 321.438 483.032C321.173 485.775 321.566 489.388 323.131 491.683C323.285 491.909 323.579 491.851 323.677 491.612C324.705 489.079 324.507 486.181 325.342 483.56C326.234 480.762 328.323 480.17 330.977 480.923C333.744 481.708 336.278 483.177 339.124 483.7C342.158 484.257 345.163 483.683 347.555 481.677C349.567 479.99 350.786 477.533 351.61 475.084C352.412 472.697 352.543 469.502 354.253 467.52C354.684 467.02 355.436 466.416 356.133 466.352C357.17 466.256 357.545 467.027 358.383 467.617C360.592 469.176 364.119 469.208 365.472 466.465C365.915 465.567 366.134 464.292 365.472 463.413C364.31 461.873 363.357 461.886 361.824 462.219C361.775 462.178 361.721 462.125 361.66 462.054L361.613 461.996C361.207 461.483 360.42 460.991 359.836 460.684ZM251.398 444.498C251.307 442.436 248.825 440.458 246.868 441.898C246.552 442.128 246.241 442.364 245.936 442.608L245.811 442.743C245.447 442.742 245.108 442.646 244.748 442.531L244.119 442.329C242.467 441.805 240.879 441.383 239.115 441.77C236.081 442.436 234.156 445.053 233.168 447.832C232.247 450.421 232.549 453.063 232.117 455.718C231.708 458.235 230.414 459.218 227.986 458.678L227.861 458.65C223.03 457.493 217.526 454.258 213.291 458.693C208.716 463.484 211.709 471.094 216.717 474.173C216.936 474.307 217.178 474.086 217.128 473.857C216.463 470.762 214.522 467.81 215.172 464.525C215.623 462.248 217.205 461.171 219.462 461.533C224.211 462.297 228.652 466.082 233.522 463.335C235.955 461.962 237.295 459.385 237.901 456.744C238.447 454.367 238.292 451.687 239.339 449.446C240.483 446.992 242.41 448.771 244.487 449.106C247.426 449.58 251.554 448.039 251.398 444.498ZM410.703 371.189C410.713 369.141 407.53 369.139 407.52 371.189C407.403 397.142 395.262 421.13 393.081 446.825C392.909 448.866 396.093 448.854 396.265 446.825C398.446 421.123 410.586 397.183 410.703 371.189ZM147.858 413.671C146.182 411.773 143.727 412.362 141.733 413.313C138.738 414.741 135.871 416.347 133.124 418.203C132.448 418.659 132.874 419.651 133.67 419.498C135.685 419.111 137.646 418.676 139.602 418.048C141.071 417.576 142.6 416.89 144.133 416.647C144.037 417 143.92 417.345 143.783 417.684C143.532 418.38 143.239 419.06 142.992 419.758C142.498 421.148 142.054 422.557 141.623 423.968L141.409 424.673C140.513 427.631 139.643 431.935 143.776 432.845C145.31 433.183 146.83 432.515 148.256 431.989L148.55 431.883L153.754 430.038C154.374 429.819 155.522 429.666 156.036 429.28L155.954 429.676C155.847 430.2 155.743 430.714 155.517 431.237L155.391 431.525C154.099 434.455 152.469 437.387 153.976 440.627C155.268 443.402 158.321 444.719 161.263 443.932C164.059 443.183 166.082 440.034 164.635 437.296C164.095 436.274 162.517 435.775 161.514 436.413L161.245 436.592C160.929 436.798 160.385 437.152 160.372 437.218C160.297 437.237 160.219 437.257 160.139 437.276C160.308 436.78 160.422 436.016 160.57 435.678L161.114 434.441C162.128 432.118 163.006 429.753 162.233 427.147C160.019 419.684 152.513 423.927 146.976 426.057C147.057 425.741 147.137 425.43 147.204 425.125C147.443 424.044 147.704 422.969 147.963 421.894L148.492 419.674C148.969 417.628 149.34 415.35 147.858 413.671ZM431.148 405.341C431.153 405.164 430.936 405.029 430.783 405.132C427.243 407.512 424.875 412.481 426.205 416.714C426.851 418.77 428.225 420.573 430.153 421.571C432.55 422.811 435.197 422.339 437.716 421.808L438.786 421.579C439.54 421.421 440.284 421.304 441.051 421.516C441.315 421.589 441.62 421.819 441.871 421.868C441.767 422.044 441.657 422.349 441.602 422.462L441.419 422.829C441.236 423.201 441.057 423.588 440.945 423.979C440.569 425.29 440.662 426.698 441.271 427.922C442.407 430.201 444.789 431.486 447.268 431.704C448.746 431.835 452.468 430.541 453.348 432.109C455.095 435.219 460.069 433.127 459.102 429.683C458.448 427.354 456.594 425.849 454.296 425.219C453.072 424.883 451.804 424.929 450.559 425.066C450.072 425.12 449.585 425.195 449.097 425.247L448.731 425.281C448.826 425.273 447.719 425.247 447.274 425.217L447.369 424.962C447.383 424.926 447.396 424.894 447.407 424.87C447.902 423.811 448.269 422.756 448.239 421.573C448.184 419.44 446.804 417.579 444.99 416.552C443.317 415.605 441.326 415.227 439.425 415.438C437.335 415.67 434.365 417.326 432.31 416.454C430.762 415.796 430.236 413.504 430.212 412.002C430.177 409.739 431.085 407.595 431.148 405.341ZM286.964 390.502C281.269 387.946 276.378 392.311 273.036 396.489C272.863 396.704 273.08 397.067 273.352 396.899L273.796 396.623C276.525 394.911 279.55 392.889 282.932 393.472C285.994 394 286.752 396.003 286.142 398.733L285.963 399.501C285.316 402.312 284.819 405.222 286.432 407.836C287.955 410.305 290.926 411.384 293.708 411.45C296.918 411.526 299.688 410.033 302.623 408.992L302.855 408.91C304.101 408.48 308.648 407.356 308.711 409.917C308.74 411.087 307.487 412.463 307.005 413.515C306.374 414.891 305.954 416.337 305.962 417.866C305.981 421.679 309.161 424.775 312.925 422.926C314.388 422.206 314.765 420.143 314.002 418.817C312.927 416.948 312.492 417.046 313.245 415.083L313.463 414.531C314.389 412.166 315.127 409.732 314.086 407.25C312.007 402.293 305.772 401.693 301.317 403.334L301.155 403.396C298.382 404.47 290.079 408.774 290.651 402.688C290.876 400.29 291.604 397.991 291.095 395.568C290.623 393.317 289.052 391.439 286.964 390.502ZM259.521 370.145C258.481 368.314 254.991 368.969 255.28 371.293L255.372 372.017C255.491 373.007 255.517 373.937 254.833 374.818C254.003 375.886 252.582 376.209 251.292 376.046C248.562 375.7 246.821 373.169 243.816 373.76C241.377 374.24 239.693 376.236 238.717 378.412C237.685 380.717 237.707 383.215 236.938 385.588C236.052 388.318 234.163 388.192 231.805 387.237L231.297 387.028C229.04 386.09 226.776 385.048 224.262 385.496C220.086 386.241 216.49 392.662 220.403 395.763C221.109 396.322 222.343 396.03 222.313 394.972L222.309 394.771C222.29 392.845 222.776 390.36 224.983 389.906C227.324 389.424 229.968 391.56 232.142 392.175C237.772 393.768 240.979 389.53 241.935 384.519L241.97 384.327C242.275 382.572 242.516 379.326 244.351 378.505C245.329 378.067 246.373 379.145 247.19 379.579C248.461 380.253 249.824 380.681 251.261 380.791C256.578 381.196 262.619 375.604 259.521 370.145ZM392.562 363.222C390.811 362.464 388.198 362.886 387.77 365.172L387.51 366.611C387.001 369.39 386.191 372.865 383.459 373.866C381.751 374.492 379.789 373.395 378.256 372.726C376.416 371.921 374.622 371.232 372.607 371.041C368.518 370.653 365.472 373.019 364.026 376.717L363.899 377.046C362.733 380.153 361.156 386.095 363.71 388.615C364.083 388.983 364.835 389.162 365.292 388.819C366.801 387.687 367.183 385.826 367.701 384.081L367.746 383.931C368.296 382.119 368.747 380.123 369.74 378.49C371.585 375.455 376.4 378.92 378.716 379.721C382.519 381.035 386.464 380.267 389.37 377.456C391.206 375.68 392.292 373.432 393.038 371.053C393.515 371.299 394.009 371.512 394.542 371.656C396.571 372.206 398.978 371.916 400.523 370.379C403.423 367.494 401.85 362.318 397.429 363.155C396.558 363.319 395.987 364.151 395.884 365.001L395.824 365.135C394.712 364.767 393.496 363.626 392.562 363.222ZM187.684 337.444C183.553 333.194 176.385 335.498 173.559 340.006C172.973 340.941 173.941 342.126 174.97 341.842C177.429 341.164 180.9 338.497 183.499 340.195C185.425 341.453 184.377 344.743 184.201 346.583L184.176 346.857C183.953 349.363 183.902 352.79 185.853 354.665C186.976 355.745 188.699 355.599 190.18 355.445L190.65 355.396C192.396 355.22 194.131 354.913 195.803 354.375C197.34 353.882 198.797 353.211 200.242 352.501L200.603 352.323C201.242 352.006 203.374 350.748 204.013 351.538C204.346 351.95 203.521 353.756 203.349 354.159C202.702 355.673 201.878 357.099 201.284 358.641C200.237 361.357 200.15 364.421 201.62 367.012C203.044 369.523 206.131 371.558 208.866 369.629C210.432 368.524 210.428 366.515 208.866 365.409C208.04 364.825 207.206 364.439 206.865 363.458C206.419 362.178 206.993 360.821 207.548 359.637L208.213 358.228C209.685 355.082 211.156 351.463 209.099 348.247C206.975 344.926 202.658 344.874 199.393 346.257C197.529 347.047 195.829 348.105 193.886 348.716C192.543 349.139 191.194 349.422 189.818 349.576C189.511 347.92 189.945 346.067 189.949 344.421C189.956 341.922 189.491 339.303 187.684 337.444ZM400.699 278.323C393.728 277.3 390.353 283.536 389.872 289.54C389.438 294.992 390.322 300.459 391.702 305.76C392.22 307.725 392.8 309.667 393.409 311.577C394.388 314.645 395.45 317.708 396.744 320.661C397.137 321.552 397.535 322.448 397.981 323.307C399.507 324.559 400.814 326.245 402.001 327.865L402.781 328.935L402.99 329.224C405.008 331.986 406.73 334.851 408.139 337.966C409.48 340.933 410.479 344.027 411.255 347.185L411.446 347.974C412.043 350.404 412.923 353.305 411.859 355.566C413.948 356.21 416.025 356.795 418.245 357.106C421.309 357.536 424.496 357.563 427.588 357.452C430.575 357.343 433.559 357.109 436.533 356.792L438.676 356.556C438.898 356.531 439.12 356.505 439.341 356.477C439.258 356.374 439.186 356.258 439.134 356.131C438.371 354.301 438.469 352.178 438.385 350.209L438.374 349.991C438.263 347.807 438.195 345.622 438.168 343.433C438.116 339.327 438.227 335.209 438.677 331.122C439.066 327.545 439.676 323.968 440.627 320.494C441.585 316.972 443.05 313.666 444.402 310.283C445.739 306.941 446.842 303.507 446.722 299.862C446.647 297.546 446.137 295.294 445.274 293.165C445.234 293.197 445.183 293.221 445.123 293.217C442.413 293.117 439.847 292.334 437.229 291.673C434.451 290.969 431.606 290.392 428.766 290.05L428.162 289.979C425.794 289.713 423.214 289.583 421.027 290.599C418.659 291.701 417.167 294.152 416.268 296.504L416.168 296.775C414.57 301.233 414.936 307.183 419.877 309.293C421.409 309.949 424.906 310.351 425.694 308.274C426.048 307.327 425.32 305.927 425.045 305.031C424.723 303.965 424.512 302.914 424.536 301.8C424.555 300.823 425.302 300.086 426.251 300.007L426.338 300.001C428.065 299.926 431.626 297.937 431.972 300.801C432.04 301.358 431.614 301.943 431.165 302.214C430.258 302.751 429.311 303.109 428.324 303.328C428.459 303.925 428.65 304.51 428.838 305.091C428.949 305.035 429.072 305 429.203 304.987C430.663 304.868 432.108 305.099 433.568 305.115L434.366 305.12C435.5 305.131 436.488 305.192 437.587 305.779C438.601 306.32 438.422 307.677 437.587 308.258C435.394 309.778 431.682 308.887 429.398 307.343C429.498 308.127 429.45 308.927 429.116 309.766C428.129 312.257 425.3 313.499 422.77 313.606C420.521 313.701 418.373 312.993 416.578 311.752C416.212 313.061 415.623 314.318 415.369 315.676C415.034 317.458 415.432 319.543 414.812 321.218C414.191 322.906 411.792 324.035 410.403 322.38C408.37 319.961 409.002 316.129 410.789 313.678C411.74 312.38 413.467 310.892 415.225 310.657C414.004 309.508 413.025 308.087 412.408 306.519C412.365 306.539 412.313 306.543 412.257 306.527C406.54 304.964 403.428 299.782 403.237 294.343C402.815 294.645 402.378 294.916 401.92 295.159C400.826 295.748 399.421 295.23 399.083 294.009C398.773 292.871 399.676 291.467 400.945 291.562C401.669 291.621 402.397 291.625 403.118 291.506C403.217 291.49 403.313 291.47 403.412 291.45C403.476 291.032 403.559 290.615 403.663 290.201C401.502 290.447 399.242 290.093 397.153 289.632C395.355 289.238 395.773 286.377 397.583 286.444L397.874 286.457C400.249 286.571 403.756 286.955 405.791 285.45C406.15 284.932 406.547 284.443 406.977 283.981C407.033 283.866 407.081 283.743 407.124 283.615C408.219 280.464 403.034 278.665 400.699 278.323ZM338.122 322.658C335.408 321.932 332.552 322.921 330.686 324.97C329.117 326.693 328.305 328.808 327.579 330.97L327.165 332.214C326.561 333.976 325.868 335.373 323.712 334.702C320.948 333.841 318.553 332.342 315.547 332.46C312.816 332.568 310.142 333.743 308.24 335.712C306.295 337.727 305.366 340.534 305.779 343.3L305.806 343.469C306.021 344.743 307.885 349.29 309.86 347.197C310.741 346.263 310.567 345.23 310.776 344.044C310.975 342.914 311.401 341.806 312.099 340.889C313.335 339.265 315.324 338.632 317.269 339.206C319.833 339.964 322.099 341.527 324.862 341.564C327.768 341.603 330.236 340.095 331.839 337.729C333.133 335.819 333.595 333.583 334.506 331.506L334.593 331.308C335.358 329.598 335.879 328.981 337.631 329.799L338.243 330.092C340.865 331.338 343.815 332.479 346.526 330.722C349.045 329.09 350.119 325.81 348 323.422C346.831 322.104 344.125 322.329 343.366 324.02C343.232 324.311 343.109 324.605 342.987 324.901C342.755 324.83 342.529 324.744 342.315 324.624C340.894 323.984 339.66 323.07 338.122 322.658ZM258.894 303.351C255.799 301.683 253.214 304.965 253.709 307.928L253.733 308.058C253.751 308.147 253.793 308.342 253.845 308.566C253.687 308.547 253.531 308.519 253.375 308.479L252.655 308.391C251.525 308.26 250.429 308.191 249.297 308.554C246.626 309.411 245.313 312.008 245.248 314.668C245.184 317.32 246.556 319.459 246.959 321.992C247.371 324.583 244.69 323.843 242.94 323.653L242.871 323.646C240.436 323.4 237.876 323.395 235.852 324.983C233.762 326.622 232.836 329.454 233.132 332.047C233.398 334.389 234.864 337.994 237.518 338.364C237.781 338.401 238.079 338.343 238.213 338.081C239.287 335.994 237.793 333.689 237.962 331.486C238.148 329.064 239.692 328.661 241.821 328.818C243.887 328.97 245.948 329.408 247.989 328.792C250.203 328.123 251.81 326.223 252.264 323.982C252.765 321.512 251.844 319.214 251.247 316.867C251.048 316.087 250.951 315.303 251.088 314.506C251.117 314.334 251.267 314.175 251.321 314.107C251.661 314.043 252.169 314.206 252.46 314.237L252.873 314.277C255.115 314.48 257.275 314.344 258.877 312.491C259.698 311.542 260.001 310.382 259.919 309.158L259.878 308.663C259.834 308.187 259.75 307.56 259.503 307.298L259.5 307.285C259.583 307.174 259.662 307.059 259.734 306.941L259.804 306.82C260.49 305.676 260.092 303.997 258.894 303.351ZM417.497 274.308C414.413 274.308 411.5 275.315 409.169 278.056C410 278.848 410.665 279.767 411.031 280.846C412.173 280.221 413.382 279.732 414.62 279.385C418.396 278.331 423.56 278.347 426.736 280.937C428.399 282.29 426.572 284.717 424.782 284.3C423.178 283.926 421.786 283.233 420.103 283.154C418.643 283.082 417.21 283.273 415.81 283.695C413.673 284.34 411.731 285.561 410.303 287.244C409.825 287.809 409.408 288.422 409.057 289.083C406.392 294.144 408.401 301.402 412.081 305.568C410.637 300.769 412.077 295.111 414.954 291.136C418.418 286.35 423.598 285.808 429.055 286.555L429.235 286.58C434.514 287.324 441.052 288.625 444.999 292.505C444.605 291.609 444.151 290.742 443.641 289.902C440.65 284.976 435.688 281.132 430.539 278.391C429.676 277.925 428.805 277.495 427.937 277.097C424.639 275.581 420.962 274.308 417.497 274.308ZM419.184 236.713L419.172 236.769C419.17 236.78 419.167 236.79 419.164 236.801C418.982 238.419 419.412 240.276 419.632 241.909L419.662 242.141C420.123 245.857 420.732 249.578 420.931 253.322C421.125 256.923 421.05 260.658 420.617 264.243L420.553 264.754C420.298 266.708 420.147 269 419.487 271.005C422.025 271.248 424.564 272.064 426.871 272.932C427.699 273.246 428.523 273.576 429.342 273.927C428.316 268.471 427.767 262.936 426.652 257.496L426.433 256.414C425.222 250.397 424.085 244.341 420.955 238.958C420.537 238.241 420.087 237.641 419.578 237C419.467 236.853 419.335 236.758 419.184 236.713Z" fill="black"/>
<path fill-rule="evenodd" clip-rule="evenodd" d="M349.841 170.618C348.898 158.384 350.36 145.562 345.653 133.934C337.447 114.641 314.436 108.209 296.596 100.864C289.449 98.7468 265.4 98.4508 257.032 95.6498C238.093 89.3108 233.568 81.7578 218.519 93.8278C215.979 95.8898 214.389 98.1308 213.23 101.193L213.277 101.206C212.946 102.483 213.301 103.756 214.047 104.729C207.522 111.413 204.792 121.435 208.14 130.332C219.065 153.486 218.551 166.006 215.031 190.898C210.434 214.136 220.939 222.624 238.336 235.269C237.628 236.645 237.481 238.474 238.404 239.689C258.521 268.02 296.453 281.546 328.952 267.167C342.144 261.282 348.033 247.203 351.395 234.499C355.31 220.274 356.513 205.284 353.325 190.794C352.04 184.092 350.365 177.439 349.841 170.618Z" fill="#EDB98A"/>
<path fill-rule="evenodd" clip-rule="evenodd" d="M205.754 135.914L217.716 143.9L260.533 98.6628L246.285 87.4238C246.285 87.4238 220.434 106.57 215.351 111.624C210.269 116.677 205.754 135.914 205.754 135.914Z" fill="#72E2EE"/>
<path fill-rule="evenodd" clip-rule="evenodd" d="M233.801 35.0809C236.243 34.7139 238.087 36.2319 238.964 38.3719L239.01 38.4869C239.292 39.2149 239.606 39.9239 239.943 40.6199C246.054 37.6159 254.773 38.3879 258.64 44.4719C261.4 48.8169 259.716 53.9739 258.676 58.5819L257.993 61.6179C259.313 62.4599 260.308 63.967 260.262 65.529L260.256 65.6489L259.978 69.882C260.86 68.987 261.666 68.0119 262.384 66.9739C262.881 66.0629 263.417 65.1669 263.992 64.2999C267.379 59.1949 274.983 63.6309 272.187 69.0989C271.651 70.1529 271.048 71.152 270.401 72.115C269.67 73.535 269.071 74.9959 268.61 76.4959C269.932 77.0729 270.949 78.3539 271.056 80.2879C271.306 84.8039 268.94 88.5719 265.176 90.9399C264.068 91.6359 262.924 91.7719 261.888 91.5129C261.705 91.7599 261.523 92.006 261.348 92.257C262.849 93.479 264.203 94.8709 265.366 96.4149C268.868 95.8899 272.39 95.6429 275.912 95.6349C280.216 93.5219 285.369 93.5659 289.995 94.3579C292.973 94.8669 295.832 95.858 298.762 96.57C301.851 97.319 304.988 97.3459 308.112 97.8559C312.051 98.4959 315.505 100.319 317.677 103.228C320.063 103.299 322.573 104.278 324.653 105.607C329.497 108.703 334.313 111.842 339.146 114.958C341 116.154 341.693 118.064 341.352 120.194L341.329 120.33L341.167 121.213L341.549 121.757C343.028 123.85 344.637 126.042 345.594 128.352C347.364 130.91 348.965 133.592 350.382 136.358C352.292 140.074 353.868 144.014 354.936 148.056C355.202 149.079 355.468 150.11 355.643 151.152C355.893 152.624 355.508 153.766 355.297 155.179C355.035 156.97 354.94 158.784 354.662 160.579C354.476 161.768 353.467 162.353 352.411 162.385C352.808 165.413 353.094 168.461 353.368 171.486C353.753 175.807 354.015 180.14 354.241 184.473C355.409 186.172 357.795 187.517 359.518 187.983C361.904 188.624 364.406 187.927 366.661 187.112C368.078 186.598 369.242 188.385 368.551 189.579C366.379 193.327 361.734 193.311 358.216 191.652C356.727 190.951 355.421 189.937 354.452 188.616C354.511 189.873 354.575 191.13 354.638 192.392L354.698 193.534C355.413 206.877 356.957 220.679 354.456 233.89C350.124 256.774 331.227 274.198 308.144 275.552C296.031 276.262 285.944 272.676 280.928 270.676C275.912 268.676 277.861 264.597 281.343 265.763C287.342 267.771 298.362 270.763 308.223 269.471C331.467 266.426 351.176 254.784 349.151 204.64C348.864 197.529 347.98 190.414 347.789 183.304C347.607 176.352 347.674 169.396 347.368 162.449L347.266 160.078C347.147 157.309 347.019 154.526 346.813 151.753C346.562 150.679 346.356 149.588 346.05 148.534C345.22 145.665 344.136 142.876 342.79 140.214C342.493 140.44 342.159 140.604 341.798 140.667C339.054 141.161 336.481 141.021 333.912 139.875C332.713 139.346 331.657 138.642 330.673 137.77C330.204 137.361 329.89 136.963 329.644 136.549C328.401 136.569 327.159 136.195 326.38 135.299C325.493 134.279 325.345 133.225 325.693 132.249L325.729 132.152L325.642 132.12C324.594 134.838 322.505 137.229 320.214 138.845C316.593 141.407 312.063 142.147 307.719 142.215C302.923 142.287 297.864 141.547 293.132 140.791C291.881 140.592 290.638 140.365 289.419 140.058C289.372 140.106 289.324 140.162 289.272 140.21C285.211 144.105 279.497 145.108 274.343 142.884C271.365 141.598 268.868 139.529 266.66 137.158C266.629 138.399 266.565 139.641 266.458 140.87L266.414 141.358C266.194 143.648 265.771 146.077 264.044 147.73C261.253 150.408 257.203 149.334 253.983 147.591C253.987 147.674 253.987 147.762 253.987 147.849C254.856 150.81 255.73 153.774 256.603 156.739L256.791 157.37C257.427 159.475 258.123 161.583 258.315 163.786C258.68 167.996 255.885 172.154 251.215 170.741C248.766 170.003 246.804 167.939 244.921 166.286L243.735 165.258C246.804 175.313 248.932 185.727 249.131 196.22C249.143 196.789 248.654 197.219 248.114 197.238C246.852 197.29 245.494 197.039 244.223 196.534C244.152 196.53 244.08 196.526 244.005 196.514C241.837 196.2 239.824 195.416 238.049 194.258C238.458 195.559 238.641 196.956 238.534 198.416C238.506 198.77 237.954 198.894 237.874 198.504C236.85 193.454 230.954 189.638 225.872 190.605C220.416 191.644 216.398 196.347 215.413 201.699C214.357 207.449 216.378 214.098 220.122 218.535C221.846 220.58 224.113 222.287 226.805 222.717C228.036 222.912 229.314 222.844 230.509 222.494C231.017 222.343 231.494 222.132 231.978 221.933C232.685 221.646 233.511 221.603 234.178 221.3C235.691 220.62 237.211 222.016 236.445 223.572C235.778 224.929 235.179 225.844 234.071 226.545C234.968 227.643 235.782 229.171 236.084 229.581C237.624 231.666 239.189 233.635 240.944 235.541C242.73 237.475 244.68 239.242 246.741 240.877L247.607 241.563C249.592 243.141 251.32 244.603 252.72 246.866C253.824 248.653 252.395 251.076 250.326 251.048C243.854 250.957 239.149 245.259 235.798 240.281C235.321 239.568 234.873 238.816 234.456 238.044C234.305 238.287 234.138 238.514 233.952 238.721L234.321 239.716C235.417 242.644 230.696 244.558 229.326 241.825C228.329 239.843 227.174 237.957 225.888 236.174C225.129 236.067 224.387 235.605 223.974 235.008C222.93 233.492 221.758 231.96 220.77 230.345C220.222 229.823 219.658 229.322 219.082 228.833C218.915 228.98 218.745 229.127 218.582 229.282C217.859 230.934 216.966 232.442 215.858 233.862L215.621 234.165C213.499 236.846 210.734 239.589 207.314 240.245C206.269 240.444 205.265 239.143 206.19 238.311C208.584 236.154 211.415 234.686 213.623 232.279C214.71 231.093 215.709 229.786 216.568 228.417L216.763 228.101C216.906 227.866 217.053 227.631 217.204 227.392C216.208 226.712 215.211 226.027 214.214 225.343C211.471 227.692 207.898 228.766 204.864 230.712L204.562 230.91C201.819 232.748 198.928 228.681 201.128 226.449C203.552 223.998 205.577 221.074 207.725 218.349C206.715 216.485 206.237 214.28 206.057 212.052C205.987 211.421 205.932 210.79 205.876 210.159C204.336 210.183 202.787 209.653 201.477 208.742L200.981 208.388C199.389 208.897 197.717 209.144 196.117 209.1C192.353 208.989 190.812 204.679 193.167 201.954C195.569 199.168 199.774 198.559 203.105 199.912C203.212 199.857 203.323 199.797 203.431 199.737C203.272 199.005 203.307 198.341 203.488 197.758L203.435 197.402C202.703 196.275 202.221 194.989 202.039 193.631C201.894 192.554 201.923 191.487 202.172 190.425C202.255 190.071 202.426 189.704 202.558 189.335C202.287 188.65 202.128 187.942 202.079 187.23C202.003 187.139 201.927 187.047 201.856 186.946C200.203 184.621 200.537 181.818 202.11 179.936C202.117 179.816 202.128 179.696 202.145 179.577C202.052 179.37 201.968 179.16 201.891 178.948C200.354 177.394 199.225 175.524 199.436 173.207C199.559 171.844 200.118 170.617 200.965 169.7C200.814 169.255 200.8 168.74 200.982 168.309C199.632 164.71 199.802 160.375 200.774 156.349C200.56 155.736 200.449 155.072 200.473 154.367C200.584 151.379 203.165 148.633 206.222 148.669C206.59 148.672 206.935 148.721 207.266 148.791L207.27 148.72C207.387 147.823 207.633 146.994 207.993 146.25C207.816 146.186 207.652 146.094 207.509 145.972C205.55 147.019 203.477 147.82 201.304 148.366C199.705 148.767 198.068 146.946 199.062 145.443C199.523 144.745 200.031 144.119 200.579 143.547C199.8 143.551 199.009 143.604 198.209 143.707C196.772 143.894 195.168 142.911 194.235 141.582C193.076 142.712 191.912 143.839 190.749 144.965C187.803 147.826 183.352 145.721 182.887 141.948C182.01 141.714 181.192 141.316 180.473 140.747C175.828 142.768 170.829 143.878 165.719 144.089C162.05 144.24 159.906 139.959 161.621 136.935C162.773 134.905 164.202 133.083 165.85 131.499C163.293 132.283 160.653 132.848 157.957 133.21C156.5 133.405 154.439 132.196 153.855 130.855C151.624 125.698 151.814 120.322 154.383 115.304C154.483 115.105 154.594 114.914 154.701 114.723C154.967 114.059 155.257 113.402 155.57 112.758C152.41 109.455 152.136 104.545 153.839 100.434C153.156 99.324 152.894 97.9869 153.359 96.7769C154.681 93.2959 156.587 90.0809 158.993 87.3189C158.763 86.8729 158.56 86.4 158.389 85.891C157.036 81.772 158.604 76.8019 161.768 73.9329C163.758 72.1269 166.045 71.044 168.486 70.352C169.515 68.53 170.837 66.886 172.377 65.501C172.437 65.37 172.497 65.2389 172.564 65.1079C174.962 60.5789 179.33 58.1519 184.011 57.5909C184.194 55.8199 185.385 54.1289 187.116 53.5799C187.592 52.0479 188.303 50.584 189.28 49.255C190.816 47.162 193.369 46.1749 195.776 47.5479C197.094 48.2999 198.356 49.1629 199.54 50.1179C200.071 49.8679 200.673 49.7069 201.353 49.6549L201.525 49.6449L205.44 49.4459C207.079 48.7179 208.715 47.9539 210.355 47.2089C211.34 46.3939 212.44 45.7129 213.639 45.2079C214.997 44.6389 216.386 44.3169 217.78 44.2089C218.911 43.8389 220.051 43.5129 221.21 43.2579C223.934 42.6609 226.785 42.3269 229.612 42.3549C229.67 41.6219 229.698 40.8799 229.693 40.1289L229.687 39.753C229.624 37.345 231.542 35.4229 233.801 35.0809ZM231.056 227.691C230.667 227.774 230.274 227.842 229.881 227.89C230 228.184 230.119 228.478 230.234 228.773C230.552 228.952 230.873 229.123 231.195 229.282C231.1 228.741 231.044 228.196 231.056 227.691ZM210.657 221.616L210.393 222.103C210.351 222.183 210.308 222.261 210.267 222.339C210.827 222.295 211.391 222.307 211.947 222.371L211.945 222.311C211.874 222.287 211.802 222.265 211.734 222.231C211.35 222.047 210.994 221.84 210.657 221.616ZM221.682 199.391C225.195 199.596 228.171 200.136 231.365 201.676L231.64 201.811C234.463 203.215 239.132 205.81 238.739 209.53C238.628 210.589 237.861 211.703 236.654 211.619C233.347 211.392 231.457 208.05 229.218 205.965C226.959 203.864 224.183 201.703 221.447 200.259C221.061 200.055 221.213 199.412 221.634 199.391H221.682ZM205.753 150.372C204.911 150.4 205.193 151.22 205.626 150.535C205.662 150.48 205.705 150.424 205.753 150.372ZM251.189 95.6499C243.217 95.8609 235.194 100.578 229.222 105.346C224.027 109.494 219.541 114.428 215.568 119.746C214.546 122.395 213.669 125.099 212.927 127.822C212.439 129.621 212.133 131.44 211.724 133.254L211.597 133.81C211.276 134.412 211.037 135.059 210.864 135.728C211.587 136.456 212.526 136.976 213.56 137.224C213.893 137.303 214.17 137.475 214.389 137.704C215.221 136.312 215.949 134.843 216.372 133.285L216.387 133.213C217.987 130.588 219.724 128.043 221.587 125.586C226.725 118.802 232.383 112.618 239.184 107.473C244.342 103.574 250.107 100.518 256.237 98.5319C254.737 97.3189 253.033 96.3589 251.189 95.6499Z" fill="black"/>
<path fill-rule="evenodd" clip-rule="evenodd" d="M286.791 226.342C291.137 223.726 307.38 225.644 320.14 226.342C330.272 226.897 337.509 225.798 339.825 227.357C345.059 230.879 342.517 247.912 333.499 250.242C324.482 252.571 291.054 255.824 285.291 250.242C279.527 244.659 278.995 231.037 286.791 226.342Z" fill="white"/>
<path fill-rule="evenodd" clip-rule="evenodd" d="M292.42 221.837C299.24 221.009 305.852 223.097 312.519 224.15C316.04 224.706 319.565 225.12 323.127 225.274C323.844 225.306 324.561 225.324 325.278 225.339C325.345 224.707 325.698 224.128 326.464 223.781C328.033 223.069 329.288 222.748 331.011 222.817C332.588 222.879 334.171 223.041 335.724 223.326C338.543 223.843 341.376 225.016 343.438 227.054C348.212 231.771 347.485 239.347 343.797 244.484C336.176 255.099 322.268 255.592 310.356 255.453L309.257 255.439C298.411 255.284 282.893 256.901 277.966 244.56C276.154 240.022 276.405 234.762 278.624 230.41C281.27 225.218 286.841 222.514 292.42 221.837ZM326.299 239.512L326.202 239.516C321.201 239.708 316.202 239.844 311.198 239.932C311.348 241.217 311.501 242.503 311.675 243.785C311.812 244.794 311.959 245.802 312.112 246.808C312.177 247.235 312.414 247.896 312.347 248.319L312.323 248.486C312.58 248.602 312.813 248.789 312.986 249.06C313.047 249.154 313.09 249.249 313.134 249.343C317.019 249.374 321.199 249.299 325.159 248.593L325.167 248.507C325.239 248.001 325.449 247.66 325.729 247.427C326.007 245.813 325.982 244.094 326.089 242.494C326.156 241.499 326.229 240.506 326.299 239.512ZM307.377 240.001C303.772 240.062 300.166 240.109 296.563 240.065L294.927 240.04C295.272 241.893 295.648 243.741 295.961 245.606C296.287 247.551 294.575 248.787 293.094 248.737C293.26 248.765 293.426 248.793 293.593 248.816C298.221 249.471 303.026 249.297 307.723 249.292C307.471 247.817 307.573 246.153 307.535 244.922L307.528 244.731C307.456 243.153 307.406 241.577 307.377 240.001ZM282.894 239.66C283.019 240.624 283.263 241.568 283.627 242.446C285.165 246.156 288.692 247.887 292.424 248.617C291.777 248.393 291.263 247.856 291.133 246.935C290.809 244.647 290.693 242.321 290.684 239.998C288.083 239.974 285.465 239.918 282.894 239.66ZM339.863 238.868C338.011 239.305 335.859 239.105 334.042 239.187C332.34 239.265 330.637 239.332 328.935 239.401C329.016 240.563 329.094 241.725 329.179 242.886C329.288 244.387 329.299 245.973 329.586 247.468C333.012 246.299 336.081 244.424 338.384 241.426C338.958 240.679 339.471 239.802 339.863 238.868ZM291.637 227.925C288.554 228.655 285.637 230.197 284.069 233.017C283.138 234.691 282.729 236.675 282.808 238.63C285.413 238.327 288.063 238.212 290.701 238.117C290.709 237.642 290.721 237.168 290.735 236.694L290.776 235.481C290.847 233.166 290.884 230.26 291.637 227.925ZM307.592 228.207L306.235 228.054C302.466 227.625 298.699 227.174 294.93 227.432C294.384 227.47 293.83 227.53 293.275 227.611C293.941 230.015 293.886 232.839 294.164 235.219C294.271 236.139 294.407 237.052 294.558 237.961L295.212 237.93C299.256 237.711 303.305 237.576 307.352 237.416C307.352 236.656 307.356 235.895 307.368 235.135L307.383 234.374C307.429 232.431 307.304 230.242 307.592 228.207ZM326.52 227.898C322.573 228.535 318.493 228.671 314.615 228.676C313.066 228.678 311.518 228.583 309.971 228.445C310.072 229.269 310.124 230.103 310.2 230.915C310.353 232.557 310.527 234.196 310.717 235.834L310.887 237.267C315.862 237.041 320.837 236.797 325.811 236.545L326.513 236.507L326.709 233.753C326.843 231.917 326.991 230.081 327.199 228.253L327.043 228.196C326.859 228.121 326.685 228.017 326.52 227.898ZM328.235 228.582C328.452 231.179 328.572 233.786 328.732 236.387L332.011 236.212C332.558 236.182 333.104 236.151 333.651 236.12C335.776 235.997 338.506 235.354 340.607 235.954C340.767 234.044 340.221 232.184 338.498 230.901C335.472 228.647 331.619 229.45 328.235 228.582ZM317.032 205.37C321.914 202.574 334.166 199.716 334.942 208.503C335.298 212.547 332.292 215.898 328.782 217.393L328.65 217.449C325.357 218.802 319.522 220.331 316.672 217.396C314.301 214.952 317.446 210.572 320.393 212.573C321.907 213.602 325.095 212.844 326.785 212.355L326.89 212.324C328.714 211.788 331.145 210.072 330.391 207.827C329.724 205.841 326.884 205.478 325.106 205.413C322.452 205.318 319.869 205.935 317.239 206.135C316.822 206.167 316.694 205.564 317.032 205.37ZM337.257 191.239C343.884 190.929 348.007 198.165 346.483 204.095C346.219 205.118 345.075 206.122 343.97 206.007L343.692 205.981C343.551 205.968 343.409 205.95 343.278 205.914C342.229 205.624 341.289 204.532 341.365 203.402L341.386 203.072C341.54 200.271 341.237 197.044 337.908 196.366C335.085 195.79 333.509 198.508 333.476 201.009C333.469 201.453 332.97 201.763 332.578 201.524C330.537 200.282 330.184 197.812 330.963 195.684C331.951 192.988 334.423 191.372 337.257 191.239ZM288.078 192.791C292.901 191.182 298.104 193.753 300.439 198.017C301.258 198.254 302.076 198.886 301.962 199.853C301.798 201.244 301.551 202.121 300.586 203.176C299.078 204.826 296.252 203.982 295.625 201.951L295.599 201.859C294.886 199.233 291.996 197.501 289.363 198.42C286.288 199.493 286.377 202.742 284.22 204.634C283.966 204.857 283.662 204.892 283.358 204.745C281.067 203.638 281.478 200.305 282.295 198.397C283.367 195.894 285.449 193.668 288.078 192.791ZM281.509 178.145C285.417 174.157 295.608 170.298 298.281 177.663C298.791 179.065 297.707 180.956 296.246 181.247C293.855 181.723 291.733 180.685 289.358 180.871C287.435 181.023 285.429 181.666 283.892 182.857C279.634 186.156 278.697 191.737 275.73 195.937C275.586 196.141 275.305 196.055 275.278 195.814C274.603 189.7 277.229 182.513 281.509 178.145ZM332.476 174.219C335.07 173.303 338.007 173.382 340.614 174.194C343.24 175.013 345.651 176.568 347.508 178.6C348.351 179.522 349.13 180.54 349.756 181.624C350.088 182.198 350.438 183.384 350.815 184.09C352.858 185.27 353.731 187.958 351.902 189.87L351.82 189.954L351.575 190.197C350.592 191.17 349.109 191.592 347.767 191.203C344.764 190.334 344.399 187.969 343.359 185.458C342.673 183.799 341.496 182.332 340.07 181.254C336.698 178.707 331.171 177.896 327.112 179.096C326.896 179.16 326.642 178.885 326.796 178.685C327.565 177.688 328.008 176.871 329.038 176.067C330.083 175.251 331.224 174.662 332.476 174.219Z" fill="black"/>
<path d="M437.082 152.354C431.072 158.364 431.823 170.492 431.823 170.492H401.344C401.344 170.492 401.988 158.364 396.085 152.354C389.539 146.559 385.353 138.188 385.353 128.851C385.353 111.68 399.305 97.728 416.476 97.728C433.648 97.728 447.6 111.68 447.6 128.851C447.6 138.188 443.521 146.559 437.082 152.354Z" fill="#FFD517"/>
<path d="M432.682 180.043C432.682 181.653 431.394 182.941 429.784 182.941H403.276C401.666 182.941 400.378 181.653 400.378 180.043C400.378 178.433 401.666 177.146 403.276 177.146H429.677C431.287 177.146 432.682 178.433 432.682 180.043Z" fill="#E5E5E5"/>
<path d="M428.711 192.063C428.711 193.673 427.423 194.961 425.813 194.961H407.247C405.637 194.961 404.349 193.673 404.349 192.063C404.349 190.453 405.637 189.166 407.247 189.166H425.813C427.423 189.166 428.711 190.453 428.711 192.063Z" fill="#E5E5E5"/>
<path d="M438.692 153.428C445.668 147.096 449.639 138.188 449.639 128.851C449.639 110.607 434.721 95.689 416.476 95.689C398.232 95.689 383.314 110.607 383.314 128.851C383.314 138.403 387.5 147.525 394.583 153.75C399.842 159.008 399.305 170.17 399.305 170.277C399.305 170.814 399.52 171.35 399.842 171.78C400.271 172.209 400.807 172.424 401.344 172.424H431.716C432.253 172.424 432.789 172.209 433.218 171.78C433.648 171.35 433.755 170.814 433.755 170.277C433.755 170.17 433.218 159.008 438.477 153.75C438.585 153.642 438.692 153.535 438.692 153.428ZM435.687 150.745C435.472 150.852 435.365 151.067 435.258 151.281C430.535 156.325 429.784 164.589 429.677 168.453H403.383C403.276 164.482 402.417 155.896 397.373 150.852C391.041 145.271 387.392 137.33 387.392 128.959C387.392 112.86 400.486 99.874 416.476 99.874C432.575 99.874 445.56 112.968 445.56 128.959C445.56 137.222 442.019 145.271 435.687 150.745Z" fill="#210B20"/>
<path d="M416.476 104.275C415.403 104.275 414.437 105.133 414.437 106.314C414.437 107.387 415.296 108.353 416.476 108.353C428.496 108.353 438.263 118.119 438.263 130.139C438.263 131.212 439.121 132.178 440.302 132.178C441.375 132.178 442.341 131.32 442.341 130.139C442.341 115.865 430.75 104.275 416.476 104.275Z" fill="#210B20"/>
<path d="M434.721 180.043C434.721 177.253 432.467 175.106 429.784 175.106H403.276C400.486 175.106 398.339 177.36 398.339 180.043C398.339 182.834 400.593 184.98 403.276 184.98H429.677C432.467 184.98 434.721 182.834 434.721 180.043ZM429.677 180.902H403.276C402.739 180.902 402.417 180.472 402.417 180.043C402.417 179.507 402.847 179.185 403.276 179.185H429.677C430.213 179.185 430.535 179.614 430.535 180.043C430.643 180.58 430.213 180.902 429.677 180.902Z" fill="#210B20"/>
<path d="M425.813 187.126H407.247C404.456 187.126 402.31 189.38 402.31 192.063C402.31 194.854 404.564 197 407.247 197H425.813C428.604 197 430.75 194.746 430.75 192.063C430.75 189.38 428.496 187.126 425.813 187.126ZM425.813 192.922H407.247C406.71 192.922 406.388 192.493 406.388 192.063C406.388 191.527 406.817 191.205 407.247 191.205H425.813C426.35 191.205 426.672 191.634 426.672 192.063C426.672 192.6 426.35 192.922 425.813 192.922Z" fill="#210B20"/>
<path d="M418.515 83.776V70.039C418.515 68.966 417.657 68 416.476 68C415.403 68 414.437 68.859 414.437 70.039V83.884C414.437 84.957 415.296 85.923 416.476 85.923C417.657 85.815 418.515 84.957 418.515 83.776Z" fill="#210B20"/>
<path d="M450.283 78.195C449.317 77.551 448.136 77.8729 447.492 78.7319L439.872 90.2149C439.228 91.1809 439.55 92.3619 440.409 93.0059C440.731 93.2199 441.16 93.3279 441.482 93.3279C442.126 93.3279 442.77 93.0059 443.199 92.4689L450.819 80.9859C451.463 80.1269 451.141 78.839 450.283 78.195Z" fill="#210B20"/>
<path d="M392.222 92.8991C392.544 92.8991 392.973 92.791 393.295 92.577C394.261 91.933 394.476 90.752 393.939 89.786L386.534 78.196C385.89 77.23 384.709 77.0151 383.743 77.5521C382.778 78.1961 382.563 79.376 383.1 80.342L390.505 91.933C390.934 92.577 391.578 92.8991 392.222 92.8991Z" fill="#210B20"/>
<path d="M363.782 102.557L375.909 109.104C376.231 109.319 376.553 109.319 376.875 109.319C377.626 109.319 378.27 108.889 378.699 108.245C379.236 107.28 378.914 105.992 377.841 105.455L365.713 98.9081C364.748 98.3721 363.46 98.6941 362.923 99.7671C362.494 100.84 362.816 102.021 363.782 102.557Z" fill="#210B20"/>
<path d="M456.078 109.426C456.4 109.426 456.722 109.319 457.044 109.211L469.171 102.665C470.137 102.128 470.566 100.948 470.03 99.874C469.493 98.908 468.312 98.4791 467.239 99.0161L455.112 105.562C454.146 106.099 453.717 107.279 454.253 108.353C454.575 108.997 455.327 109.426 456.078 109.426Z" fill="#210B20"/>
<path d="M64.6971 301.466C77.9371 301.589 90.3081 307 101.813 317.701C113.317 328.401 114.526 340.024 105.44 352.57C96.3541 365.116 87.6461 376.597 79.3171 387.013C70.9871 397.43 60.5591 400.113 48.0311 395.063C35.5031 390.012 26.7141 382.326 21.6641 372.004C16.6141 361.682 13.9221 350.568 13.5891 338.661C13.2551 326.755 18.3801 317.548 28.9631 311.041C39.5461 304.534 51.4581 301.342 64.6971 301.466Z" fill="#868AD8"/>
</g>
</g>
<defs>
<clipPath id="clip0">
<rect width="535" height="539" fill="white"/>
</clipPath>
</defs>
</svg>
