<svg width="672" height="671" viewBox="0 0 672 671" fill="none" xmlns="http://www.w3.org/2000/svg">
<mask id="mask0" mask-type="alpha" maskUnits="userSpaceOnUse" x="106" y="91" width="490" height="461">
<path d="M124.914 431.557C98.5694 361.186 100.98 290.903 132.146 220.708C163.312 150.514 218.121 108.805 296.575 95.5841C375.028 82.3628 439.739 103.587 490.708 159.256C541.678 214.925 600.623 301.017 595 371.5C589.377 441.983 521.693 471.98 464.49 507.523C407.288 543.066 342.977 556.883 271.559 548.975C200.14 541.068 151.259 501.928 124.914 431.557Z" fill="#F8F8FA"/>
</mask>
<g mask="url(#mask0)">
<path d="M124.914 431.557C98.5693 361.186 100.98 290.903 132.146 220.708C163.312 150.513 218.121 108.805 296.574 95.5841C375.028 82.3628 439.739 103.587 490.708 159.256C541.678 214.925 564.351 278.001 558.728 348.484C553.106 418.967 521.693 471.98 464.49 507.523C407.288 543.066 342.977 556.883 271.559 548.975C200.14 541.068 151.258 501.928 124.914 431.557Z" fill="#F8F8FA"/>
<path fill-rule="evenodd" clip-rule="evenodd" d="M529.543 357.963C524.415 358.467 519.286 358.97 514.158 359.474C489.596 361.352 465.043 365.274 440.67 367.628C440.063 366.639 438.875 366.802 438.154 367.489C435.722 367.276 432.996 365.416 430.793 367.351C430.721 367.341 430.649 367.329 430.577 367.322C426.654 359.787 423.943 351.751 421.311 343.704C419.632 338.756 417.372 333.967 413.196 330.645C406.068 325.694 389.738 315.654 381.37 316.076C381.231 314.577 380.532 313.031 379.385 312.033C381.913 307.72 371.806 304.906 371.093 305.406C371.55 290.997 364.777 278.484 349.844 275.615C336.465 272.825 317.436 272.356 310.241 286.348C309.45 286.259 301.365 286.217 300.583 286.305C299.366 284.763 286.009 299.371 291.484 304.457C242.541 326.124 214.712 323.538 201.165 384.45C199.334 390.172 199.2 396.433 197.267 402.028C190.386 418.105 184.806 435.225 183.417 452.719C180.063 453.579 179.677 459.498 183.562 460.354C185.047 460.681 186.288 461.129 187.37 461.977C186.524 476.313 189.989 509.061 192.172 508.96C196.623 523.137 216.477 527.138 230.534 522.156C228.111 526.718 230.534 529.587 230.534 532.024C281.113 533.939 336.415 532.837 386.98 535.463C393.448 535.371 400.251 537.053 406.631 536.085C410.521 535.151 410.528 529.029 406.582 528.272L423.826 524.524C423.44 524.379 430.934 519.391 436.597 510.07C441.869 499.643 438.281 487.056 440.67 475.714C459.326 474.187 478.29 473.535 496.742 470.373C499.258 477.906 510.149 468.897 513.611 465.272C513.606 465.267 513.602 465.261 513.598 465.256C515.273 464.797 516.617 463.226 516.662 461.365C517.836 459.685 518.083 457.317 516.956 455.694C522.121 425.873 529.993 395.425 532.839 365.324C533.845 365.101 534.792 364.66 535.595 363.98L535.53 363.915C536.891 362.396 537.156 359.776 534.887 358.486C533.057 357.444 531.529 357.767 529.543 357.963Z" fill="#D08B5B"/>
<path fill-rule="evenodd" clip-rule="evenodd" d="M334.493 469.575L338.444 472.091L370.768 482.514L390.521 485.03L406.683 482.514V510.19L409.916 536.069C408.479 538.704 396.627 554.682 370.768 552.046C354.283 550.366 311.545 552.405 297.828 552.046H274.873C258.755 551.581 240.726 549.535 225 550L229.979 523.489L274.873 501.204L315.099 478.56L334.493 469.575ZM311.589 284.086L314.558 286.305L308.076 296.962L339.651 322.521V342.936L349.647 352.398L355.361 342.936L363.412 332.221L369.133 314.852L367.185 303.409L371.103 303.04C371.122 303.822 371.119 304.611 371.094 305.406C371.807 304.906 381.914 307.72 379.386 312.033C380.533 313.031 381.231 314.577 381.37 316.076C389.739 315.654 406.069 325.694 413.196 330.645C417.372 333.967 419.632 338.756 421.312 343.704L421.707 344.911L422.116 346.15L422.527 347.388C424.8 354.194 427.254 360.938 430.578 367.322C430.65 367.329 430.721 367.341 430.793 367.351C432.996 365.416 435.722 367.276 438.154 367.489C438.859 366.818 440.008 366.647 440.627 367.561L440.67 367.628L410.368 373.602L390.377 443.778L372.968 429.636L363.623 431.026L338.946 439.933L310.245 447.394L244.724 465.472H236.38L187.828 453.738L183.452 452.293C184.897 434.947 190.443 417.975 197.267 402.028C199.201 396.433 199.334 390.172 201.166 384.45C214.712 323.538 242.541 326.123 291.484 304.457C286.01 299.371 299.367 284.763 300.583 286.305L300.66 286.298L300.825 286.289L301.039 286.282C302.948 286.226 309.532 286.268 310.241 286.348C310.653 285.548 311.103 284.795 311.589 284.086Z" fill="#3639A6"/>
<path fill-rule="evenodd" clip-rule="evenodd" d="M534.386 360.094L533.483 365.127C533.269 365.198 533.05 365.257 532.829 365.306C532.546 368.307 532.212 371.311 531.836 374.318L526.24 405.53C525.275 411.052 524.359 416.586 523.449 422.122L522.244 428.068L521.497 431.763C519.886 439.766 518.321 447.743 516.947 455.676C517.154 455.975 517.315 456.299 517.432 456.639L517.327 457.086L517.253 457.384L517.178 457.679C516.094 461.848 514.208 465.892 509.764 467.119C506.411 468.044 502.733 468.128 499.271 468.493L498.887 468.534L438.313 475.352C430.993 476.175 423.678 477.024 416.362 477.881L410.021 478.625C401.182 479.65 392.292 480.456 383.584 482.31C383.264 482.378 382.999 482.506 382.782 482.674C384.536 476.031 386.215 469.396 387.736 462.686C389.449 455.133 391.074 447.566 392.905 440.041C396.595 424.88 400.732 409.819 405.26 394.887C406.21 391.753 407.182 388.626 408.176 385.505L408.873 383.324L409.41 381.586C410.24 378.936 411.268 376.212 413.702 374.75C416.552 373.039 420.437 372.755 423.669 372.164L425.857 371.752C429.132 371.141 432.41 370.553 435.692 369.988C451.407 367.283 467.212 365.113 483.074 363.483C499.58 361.787 516.144 360.685 532.727 360.146L534.386 360.094ZM384.038 464.163L384.193 464.176L381.93 482.277C381.568 482.024 381.109 481.869 380.548 481.87C373.126 481.892 366.012 479.518 359.13 476.908L358.083 476.509L355.161 475.385C352.191 474.246 349.205 473.133 346.164 472.209L344.935 471.838L344.31 471.653C342.007 470.98 339.585 470.369 337.19 470.217L336.863 470.199L337.561 469.832C337.663 469.779 337.752 469.719 337.831 469.654C339.15 469.752 340.471 469.725 341.861 469.474C344.477 469.003 347.02 468.093 349.355 466.825L350.398 466.259L350.825 466.033L351.107 465.886L351.388 465.744C353.393 464.744 355.311 464.117 357.844 464.65C360.718 465.256 363.237 466.806 365.829 468.116L366.289 468.346L366.598 468.495L366.913 468.644L367.232 468.789C370.737 470.367 376.314 472.071 377.657 467.302C378.197 465.387 377.774 463.593 376.838 462.02C378.583 461.869 381.702 463.928 384.038 464.163ZM471.269 404.524L471.311 404.741C471.807 407.411 470.564 409.965 468.684 411.827C467.141 413.353 464.411 414.202 463.638 416.399C463.198 417.648 463.666 418.833 464.57 419.66L464.362 419.763L464.158 419.867L463.959 419.972L463.766 420.078L463.577 420.185C460.505 421.951 458.003 424.823 460.774 428.293C463.917 432.229 470.485 432.356 475.112 432.049L475.424 432.027C479.911 431.69 485.226 430.182 487.659 426.035C488.775 424.133 488.652 421.833 487.097 420.205C486.158 419.223 484.484 418.215 482.949 418.095C483.016 417.23 482.913 416.394 482.609 415.688C481.951 414.163 480.2 413.136 478.512 413.099C478.648 409.861 476.057 406.665 474.148 404.076L473.953 403.81L473.764 403.549C472.889 402.33 471.015 403.013 471.269 404.524ZM473.829 407.971L475.568 414.489L475.538 414.542C474.925 415.706 476.531 417.027 477.483 416.05L477.579 415.946C478.709 414.778 480.444 416.348 480.465 417.591C480.496 419.342 479.358 420.695 478.001 421.589L477.907 421.65L477.656 421.806C476.543 422.542 477.386 424.081 478.61 423.894C480.124 423.662 481.365 422.46 482.13 420.96C482.947 421.194 483.877 421.165 484.738 421.647C486.908 422.862 485.66 424.986 484.247 426.269L484.19 426.321L484.075 426.421C481.483 428.633 477.955 429.401 474.628 429.566L474.437 429.575C471.077 429.719 466.699 429.767 463.82 427.789C462.028 426.559 461.509 424.813 463.025 423.16C463.883 422.226 464.749 421.284 465.64 420.373C466.975 421.01 468.166 420.752 469.531 420.149C469.706 420.071 469.609 419.803 469.437 419.803C468.684 419.803 465.922 418.404 465.788 417.51C465.664 416.683 467.192 415.986 467.935 415.587L468.043 415.528L468.136 415.473C468.913 415.002 469.645 414.454 470.314 413.838C472.011 412.274 473.244 410.313 473.782 408.167L473.829 407.971Z" fill="#D5DCF2"/>
<path fill-rule="evenodd" clip-rule="evenodd" d="M311.174 283.099C312.698 279.266 317.849 280.756 317.275 284.782C316.931 287.194 315.611 289.741 314.426 291.855C313.46 293.575 312.359 295.255 310.866 296.544C313.524 299.026 316.282 301.417 319.111 303.687C322.198 306.164 325.443 308.447 328.798 310.545C331.74 312.385 334.815 314.016 337.588 316.115C340.166 318.067 342.515 320.415 343.71 323.48C344.984 326.744 344.43 330.114 343.493 333.376L343.385 333.745C342.427 336.976 340.769 340.871 343.068 343.915C344.239 345.465 345.94 346.563 347.41 347.802C348.715 348.903 349.941 350.101 351.065 351.387C353.517 354.191 355.51 357.347 356.768 360.863L356.881 361.182C357.959 364.294 358.747 368.107 357.29 371.163C356.872 372.039 355.524 371.754 355.29 370.901C354.76 368.969 354.788 366.945 354.344 364.986C353.882 362.948 353.114 361.013 352.11 359.183C350.168 355.643 347.537 352.618 344.429 350.061L343.499 349.304C341.075 347.313 338.847 345.201 338.355 341.906C337.829 338.38 339.24 335.022 340.148 331.685C340.78 329.359 340.987 327.13 340.303 325.028C339.468 326.392 338.329 327.687 337.428 328.842C335.633 331.143 333.822 333.429 332.015 335.72C330.162 338.07 328.355 340.456 326.635 342.904C325.865 343.999 325.104 345.101 324.345 346.203C323.774 347.032 322.978 347.86 322.356 348.706C322.507 349.158 322.496 349.679 322.222 350.049C318.923 354.51 314.23 345.203 313.006 342.851C310.513 338.063 308.658 332.975 306.157 328.188C303.566 323.225 300.615 318.394 297.326 313.863C295.337 311.123 293.107 308.548 291.288 305.721C287 309.611 281.359 312.219 276.177 314.584C270.483 317.182 264.568 319.305 258.731 321.559L257.007 322.229C246.949 326.157 236.645 330.473 228.285 337.451C218.461 345.65 212.649 357.078 208.322 368.913C203.341 382.537 199.221 396.529 195.38 410.511C193.414 417.666 191.549 424.853 189.795 432.062C188.25 438.414 186.97 444.829 185.181 451.115C188.809 450.987 192.946 452.393 196.043 452.798C210.157 454.647 224.081 457.594 237.407 462.697C239.053 463.328 239.529 464.973 239.171 466.306C240.12 466.038 241.069 465.766 242.018 465.5C240.978 463.905 241.474 461.054 241.556 459.286L241.561 459.165C241.645 456.809 241.901 454.452 242.066 452.101C242.381 447.619 242.792 443.17 243.338 438.714L243.477 437.6C244.095 432.752 244.553 427.876 245.227 423.036L245.307 422.482C244.984 421.244 244.607 420.021 244.211 418.803C243.158 415.559 241.67 412.506 240.367 409.364C240.213 408.994 240.74 408.782 240.986 409.004C243.193 410.991 244.947 413.512 246.355 416.149C246.38 416.024 246.401 415.9 246.427 415.775L246.587 414.984C246.984 413.053 247.466 411.021 248.649 409.455C248.776 409.289 249.025 409.254 249.144 409.455C250.277 411.373 250.404 413.803 250.578 415.986C250.775 418.455 250.8 420.955 250.765 423.431C250.697 428.27 250.356 433.123 250.085 437.954C249.818 442.701 249.295 447.388 248.621 452.089L248.493 452.971C248.163 455.208 247.894 457.474 247.459 459.696L247.336 460.301C247.104 461.403 246.961 462.956 246.498 464.247C258.4 460.925 270.32 457.679 282.262 454.489C290.894 452.184 299.535 449.913 308.172 447.628C308.627 446.806 309.195 446.038 309.903 445.352C312.236 443.091 315.329 442.082 318.165 443.822C318.396 443.964 318.415 444.326 318.165 444.463C317.622 444.76 317.077 445.065 316.542 445.383L321.729 443.977C325.605 442.926 329.528 441.612 333.495 440.879C340.803 437.27 348.663 434.658 356.361 432.076L357.268 431.769C361.21 430.424 365.287 428.919 369.359 428.173C372.34 427.627 375.84 428.286 377.039 431.342C378.557 432.343 379.985 433.52 381.363 434.677C382.359 435.513 383.314 436.402 384.285 437.267L384.464 437.424C385.258 438.114 385.887 438.576 386.082 439.673C386.183 440.24 385.823 441.006 385.124 440.931C382.987 440.702 381.249 438.222 379.799 436.742C378.679 435.598 377.551 434.414 376.528 433.157C375.933 433.481 375.116 433.423 374.737 432.704C372.77 428.977 367.382 431.56 364.401 432.444L360.131 433.709C357.996 434.342 355.862 434.978 353.731 435.626C347.875 437.406 342.048 439.397 336.14 441.031C336.668 441.613 336.595 442.647 335.591 443.041C330.966 444.857 325.892 445.796 321.087 447.042C318.053 447.83 315.021 448.622 311.99 449.419C311.47 450.261 311.096 451.215 310.939 452.324C310.361 456.404 311.476 461.111 312.563 465.057L312.727 465.645C313.62 468.818 314.934 472.707 317.669 474.71C318.337 475.198 319.187 475.538 320.044 475.615C325.398 472.857 330.751 470.1 336.108 467.347C337.1 466.837 338.017 467.528 338.24 468.349C340.129 468.039 342.013 467.55 343.73 466.967C346.614 465.987 348.866 464.117 351.569 462.824C356.801 460.324 362.143 463.396 366.827 465.731L367.907 466.262C370.007 467.282 374.377 469.241 375.385 466.452C376.36 463.753 373.278 460.869 371.287 459.655C368.915 458.207 366.152 457.432 363.471 456.786C361.94 456.417 360.39 456.117 358.831 455.897C357.062 455.648 355.236 455.685 353.533 455.111C352.687 454.827 352.557 453.482 353.533 453.259C356.154 452.662 359.282 453.314 362.018 453.979L363.447 454.332C366.203 455.008 368.985 455.858 371.496 457.208C373.321 458.19 375.247 459.681 376.506 461.507C377.599 460.491 378.959 460.526 380.376 460.902L381.145 461.116C382.415 461.469 383.444 461.711 384.68 461.467C384.845 460.567 385.012 459.667 385.192 458.767C386.953 449.92 388.884 441.107 391.015 432.341C394.69 417.221 398.943 402.267 403.738 387.466L404.219 385.986C405.325 382.601 406.215 378.912 407.998 375.802C409.684 372.861 412.386 371.167 415.596 370.27C419.238 369.252 423.066 368.72 426.781 368.032C427.61 367.879 428.441 367.733 429.271 367.583C428.57 366.316 428.047 364.878 427.575 363.774L427.493 363.583C426.48 361.272 425.57 358.92 424.692 356.555L424.034 354.777C422.448 350.496 420.811 346.286 418.581 342.282C416.233 338.068 413.119 334.623 409.237 331.771C401.322 325.957 391.782 322.992 384.105 316.778C383.79 316.524 384.194 316.088 384.513 316.249C389.697 318.856 395.292 320.628 400.684 322.75L401.748 323.17C406.009 324.861 410.337 326.701 414.026 329.439C418.138 332.491 421.377 336.281 423.811 340.789C426.21 345.232 427.745 350.206 429.438 354.951L429.89 356.216C430.573 358.112 431.278 360.003 432.086 361.848C432.728 363.313 433.925 364.985 434.469 366.659C435.958 366.401 437.446 366.141 438.936 365.892C471.212 360.499 503.849 357.331 536.559 356.404C537.838 356.368 538.5 357.59 538.312 358.707C535.173 377.282 532.383 395.921 529.322 414.511C527.986 422.624 526.624 430.731 525.229 438.835C524.523 442.94 523.706 447.029 523.037 451.141C522.497 454.461 522.104 457.808 521.177 461.051C520.345 463.959 519.069 466.763 516.972 468.982C514.713 471.374 511.559 472.531 508.384 473.079C500.324 474.467 492.057 475.033 483.932 475.958L440.672 480.883C441.305 486.634 441.352 492.295 441.062 498.112L440.896 501.288C440.761 503.842 440.6 506.4 440.233 508.928C439.773 512.099 438.324 514.785 436.189 517.153C434.228 519.328 431.846 521.184 429.529 522.963C427.124 524.81 424.639 526.592 421.812 527.734L421.445 527.88C418.964 528.849 414.311 530.35 410.92 529.801C411.363 532.024 412.221 534.413 411.461 536.612C411.108 537.633 409.774 538.143 408.956 537.274C407.337 535.552 407.21 533.277 406.827 531.031C406.428 528.693 406.084 526.347 405.778 523.996C405.187 519.448 404.727 514.86 404.586 510.274C404.442 505.565 404.498 500.849 404.751 496.145C404.882 493.729 405.043 491.315 405.35 488.915C405.48 487.891 405.614 486.867 405.767 485.846C405.822 485.473 405.884 485.103 405.95 484.733L402.068 485.171C396.114 485.836 390.158 486.437 384.162 486.53C383.452 486.541 382.906 486.218 382.549 485.747C382.168 486.367 381.506 486.81 380.557 486.806C372.184 486.775 364.387 484.035 356.772 480.806C352.933 479.178 349.154 477.415 345.31 475.801C341.721 474.294 337.885 473.219 334.383 471.522L325.182 476.352C325.114 476.59 325.028 476.814 324.936 477.002C324.337 478.226 323.155 478.89 321.949 479.39C320.791 479.871 319.592 480.02 318.424 479.899C311.445 483.559 304.465 487.215 297.48 490.863L290.494 494.507C276.575 501.76 262.71 509.132 248.703 516.214L247.672 516.734C242.834 519.162 237.639 521.623 232.27 523.459C232.174 524.819 232.234 526.142 232.348 527.581L232.376 527.895C229.64 532.5 229.244 537.274 229.64 540C228.931 540.63 227.482 540.95 227 540C226.125 538.278 228.967 528.184 229.244 526.313C229.343 525.648 229.463 524.964 229.64 524.301C223.485 526.134 217.143 527.024 210.88 525.994C204.781 524.992 200.058 521.147 196.25 516.445C192.232 511.482 189.376 505.699 187.844 499.499C186.1 492.444 185.986 485.158 186.027 477.932C186.071 470.237 186.355 462.504 187.29 454.861C186.266 454.62 185.129 454.411 184.094 454.483C183.581 455.305 182.586 455.65 181.687 455.544C179.732 457.701 184.691 459.906 186.275 460.458C186.826 460.65 186.767 461.545 186.132 461.518L185.732 461.499C183.284 461.368 180.754 460.95 179.315 458.673C178.161 456.848 178.508 454.685 179.883 453.197C180.791 444.602 182.963 436.233 184.984 427.849C186.967 419.62 189.172 411.444 191.51 403.309L192.558 399.668C196.239 386.912 200.086 374.054 205.163 361.805C207.699 355.689 210.619 349.686 214.578 344.353C218.269 339.382 222.625 335.128 227.634 331.495C236.97 324.721 247.925 320.628 258.689 316.729L259.171 316.555C264.749 314.535 270.313 312.492 275.827 310.304C280.704 308.369 285.377 305.916 290.231 303.952C290.073 303.666 289.921 303.376 289.774 303.083L289.684 303.159C289.669 303.171 289.653 303.183 289.637 303.194C289.149 303.533 288.43 303.366 288.028 302.986C286.892 301.914 287.277 300.723 288.035 299.611L288.134 299.469C289.061 298.169 289.888 296.795 290.744 295.448L291.28 294.605C292.716 292.355 294.226 290.089 296.142 288.229C297.029 287.367 298 286.722 299.029 286.242C298.941 286.056 299.712 285.675 299.931 285.866C303.191 284.672 306.942 284.923 310.496 285.252M438.579 481.121L434.046 481.637C429.06 482.205 424.071 482.754 419.082 483.298L408.246 484.476C408.218 485.095 408.143 485.699 408.129 486.166C408.058 488.573 408.006 490.981 407.956 493.389C407.855 498.215 407.965 503.046 408.283 507.863C408.591 512.531 408.996 517.199 409.626 521.835L409.755 522.762L409.829 523.249C410.343 523.299 410.848 523.543 411.268 524.046C412.185 525.141 415.504 524.076 416.8 523.615C418.931 522.856 420.939 521.573 422.791 520.287C424.6 519.031 426.228 517.567 427.794 516.025L429.074 514.757C430.348 513.49 431.623 512.141 432.404 510.547C433.462 508.386 433.599 505.734 433.909 503.38C434.291 500.486 434.746 497.591 435.227 494.711M307.001 450.735L306.531 450.859C289.453 455.4 272.4 460.075 255.27 464.416C246.792 466.565 238.275 468.557 229.787 470.664L228.413 471.008C221.716 472.702 214.94 474.74 209.812 479.601C209.623 479.78 209.348 479.505 209.526 479.315C215.053 473.427 222.913 470.935 230.459 468.775C231.854 468.375 233.251 467.985 234.646 467.588C224.383 463.927 213.958 460.741 203.292 458.469C200.545 457.884 197.767 457.454 195.023 456.867C193.109 456.457 191.24 455.865 189.346 455.373L187.856 454.998L187.837 459.71C187.812 466.382 187.824 473.05 188.164 479.722L188.228 480.957C188.625 488.382 189.245 495.961 191.878 502.962C194.017 508.651 197.427 514.01 201.887 518.154C204.143 520.251 206.57 521.883 209.568 522.689C212.353 523.437 215.27 523.524 218.133 523.325C231.863 522.366 244.085 514.902 256.012 508.722C275.52 498.614 295.03 488.511 314.558 478.442C314.03 478.08 313.533 477.664 313.081 477.197C310.463 474.49 309.081 470.785 308.174 467.197C307.208 463.378 306.631 459.284 306.564 455.341M331.848 482.344C332.02 482.251 332.22 482.367 332.228 482.562C332.288 484.054 331.464 485.526 330.848 486.871L330.783 487.015C330.035 488.68 329.216 490.323 328.369 491.941C326.675 495.173 324.915 498.37 323.079 501.521C319.385 507.862 315.281 513.936 310.429 519.456C309.333 520.704 307.531 519.105 308.234 517.762C311.625 511.288 315.577 505.176 319.646 499.118C321.682 496.084 323.718 493.048 325.775 490.028C326.633 488.768 327.502 487.512 328.394 486.275L328.933 485.536M534.396 360.111C517.258 360.629 500.141 361.748 483.084 363.501C467.222 365.131 451.418 367.301 435.702 370.006C432.42 370.571 429.142 371.159 425.868 371.77L423.904 372.14C420.629 372.761 416.628 373.017 413.713 374.768C410.638 376.613 409.808 380.471 408.785 383.652C407.582 387.393 406.411 391.144 405.27 394.905C400.742 409.837 396.606 424.898 392.916 440.058C391.084 447.583 389.459 455.151 387.746 462.703C386.225 469.414 384.546 476.049 382.792 482.692C383.009 482.524 383.274 482.396 383.594 482.327C392.302 480.473 401.192 479.667 410.031 478.643L410.886 478.543C420.03 477.467 429.174 476.399 438.323 475.369L498.898 468.552C502.47 468.15 506.297 468.096 509.774 467.136C515.685 465.504 517.07 458.891 518.062 453.624L518.092 453.465C521.082 437.552 523.462 421.501 526.251 405.548M384.201 464.193C381.85 464.038 378.631 461.883 376.847 462.037C377.783 463.61 378.206 465.404 377.666 467.32C376.164 472.651 369.37 469.893 366.097 468.264C363.414 466.928 360.823 465.293 357.852 464.668C354.487 463.959 352.207 465.299 349.364 466.842C347.029 468.11 344.486 469.021 341.87 469.492C340.48 469.743 339.159 469.769 337.84 469.671C337.761 469.736 337.672 469.796 337.57 469.85L336.872 470.216C340.026 470.361 343.238 471.335 346.173 472.226C349.214 473.15 352.2 474.263 355.17 475.402L358.092 476.526C365.298 479.288 372.758 481.91 380.557 481.887C381.118 481.886 381.577 482.041 381.939 482.295M371.044 447.489C373.368 447.205 375.512 447.51 377.369 449.023C379.608 450.849 381.112 453.876 384.331 454.074C385.269 454.132 385.487 455.453 384.554 455.729C382.158 456.439 380.219 455.142 378.586 453.457L377.489 452.31C375.876 450.638 374.388 449.346 371.651 449.446C368.719 449.553 365.783 450.231 362.87 450.576C359.571 450.966 356.273 451.299 352.963 451.586C352.809 451.599 352.783 451.357 352.927 451.321L356.634 450.398M368.801 437.984L369.185 437.946C372.558 437.618 375.644 437.605 378.657 439.422L379.235 439.771C381.951 441.424 384.908 443.37 386.607 446.046C386.885 446.484 386.426 446.999 385.961 446.888C382.696 446.103 380.309 443.706 377.563 441.912C374.481 439.898 371.298 440.23 367.785 440.543C364.383 440.846 360.983 441.262 357.614 441.83C354.449 442.362 351.273 443.203 348.076 443.472L348.077 443.465C347.712 443.464 347.503 442.916 347.876 442.729C351.12 441.108 354.878 440.341 358.408 439.6M471.291 404.613C470.965 403.052 472.884 402.328 473.773 403.567L473.962 403.828C475.884 406.462 478.662 409.767 478.521 413.117C480.209 413.154 481.96 414.181 482.618 415.706C482.922 416.411 483.025 417.248 482.958 418.113C484.493 418.232 486.167 419.241 487.106 420.223C488.661 421.851 488.784 424.151 487.668 426.053C485.235 430.199 479.92 431.708 475.433 432.044L475.273 432.056C470.638 432.376 463.96 432.29 460.783 428.311C457.717 424.472 461.105 421.365 464.579 419.677C463.675 418.851 463.206 417.666 463.647 416.416C464.42 414.22 467.15 413.371 468.693 411.844C470.573 409.983 471.816 407.429 471.32 404.759M473.838 407.989C473.327 410.211 472.071 412.244 470.323 413.855C469.654 414.471 468.922 415.02 468.145 415.491L468.052 415.545C467.362 415.933 465.666 416.659 465.797 417.528C465.931 418.422 468.693 419.82 469.446 419.821C469.617 419.821 469.714 420.089 469.54 420.166C468.175 420.77 466.983 421.028 465.649 420.391C464.758 421.301 463.892 422.244 463.034 423.178C461.517 424.831 462.036 426.576 463.829 427.807C466.708 429.785 471.086 429.736 474.446 429.593C477.827 429.448 481.442 428.693 484.084 426.439L484.199 426.339C485.635 425.061 486.946 422.896 484.747 421.665C483.886 421.183 482.956 421.212 482.139 420.977C481.374 422.478 480.133 423.68 478.619 423.912C477.395 424.099 476.552 422.56 477.665 421.823L477.915 421.668C479.313 420.775 480.506 419.4 480.474 417.609C480.453 416.366 478.718 414.796 477.588 415.964L477.536 416.02C476.59 417.086 474.925 415.742 475.547 414.56L475.577 414.507M253.274 346.175C253.27 345.908 253.645 345.808 253.777 346.039C255.972 349.904 257.119 354.641 258.289 358.9C259.513 363.36 260.502 367.866 261.39 372.405C263.189 381.596 264.148 390.734 264.213 400.101C264.222 401.438 262.045 401.794 261.832 400.424C260.418 391.312 259.063 382.191 257.638 373.081C256.921 368.5 256.087 363.936 255.289 359.368M275.006 352.907C274.844 352.374 275.619 352.195 275.818 352.683C280.223 363.505 281.715 375.769 278.887 387.186C278.454 388.933 275.898 388.176 276.224 386.451M331.831 343.291C331.809 342.892 332.326 342.829 332.521 343.103C334.609 346.047 335.475 349.989 339.137 351.51C340.965 352.269 343.023 352.137 344.638 353.42C345.718 354.278 346.547 355.632 345.736 356.931C345.475 357.351 344.743 357.561 344.388 357.105C343.87 356.441 343.596 355.645 342.892 355.147C341.9 354.444 340.562 354.401 339.424 354.07C337.952 353.643 336.655 352.896 335.592 351.786M366.704 294.199C366.919 294.089 367.126 294.159 367.263 294.346C367.46 294.611 367.436 294.869 367.195 295.051C367.517 295.708 367.896 297.355 367.95 297.595C368.17 298.567 368.404 299.533 368.649 300.498C369.142 302.445 369.574 304.407 370.068 306.355C370.592 308.42 371.216 310.462 371.91 312.475C371.955 312.606 372.004 312.739 372.056 312.874L372.135 313.078L372.154 313.047C372.295 312.824 372.589 312.98 372.554 313.215C372.522 313.43 372.479 313.644 372.442 313.859L372.515 314.052C372.969 315.275 373.28 316.563 372.447 317.642C372.135 318.046 371.792 318.285 371.365 318.356C370.679 320.617 369.819 322.836 368.899 324.966L368.629 325.589C367.275 328.698 365.831 331.766 363.675 334.413C361.321 337.303 358.083 339.276 356.033 342.442C355.079 343.915 354.415 345.464 353.877 347.128L353.674 347.759C353.291 348.936 352.85 350.076 351.747 350.766C351.395 350.986 350.868 350.916 350.584 350.616C348.323 348.222 350.69 343.751 352.054 341.433C353.95 338.21 356.693 336.148 359.441 333.716C362.402 331.095 364.291 327.588 366.118 324.134C367.237 322.017 368.317 319.855 369.455 317.73C368.266 316.679 367.886 314.591 367.483 313.14L367.447 313.009C366.781 310.685 366.252 308.301 365.918 305.906C365.597 303.603 365.463 301.334 365.548 299.018L365.572 298.428M371.122 305.158C370.86 304.798 371.294 304.39 371.654 304.465C373.845 304.919 375.986 306.245 377.952 307.318L378.162 307.432C379.731 308.279 381.31 309.316 382.133 310.961C383.03 312.749 382.956 314.809 382.833 316.752L382.822 316.933C382.672 319.264 382.648 321.685 382.155 323.973C381.903 325.144 380.843 325.474 379.937 325.197C378.859 328.604 375.83 331.114 373.618 333.803C370.797 337.23 371.328 341.858 371.623 345.986C371.742 347.657 369.665 348.132 368.595 347.241L366.129 345.191C365.718 344.849 365.308 344.506 364.899 344.162C364.549 343.867 364.202 343.57 363.858 343.269L363.344 342.815C363.115 342.61 362.109 341.486 361.815 341.439C361.103 341.326 359.41 343.205 358.831 343.794L358.757 343.868C357.667 344.938 356.682 346.089 355.764 347.31C355.595 347.534 355.265 347.348 355.386 347.089C356.208 345.326 357.164 343.641 358.3 342.064L358.529 341.75C359.284 340.731 360.298 338.932 361.631 338.632C363.259 338.265 364.885 339.898 366.069 340.805L366.144 340.862C366.708 341.285 367.265 341.715 367.821 342.149C367.763 339.076 368.15 335.97 369.736 333.321C370.854 331.454 372.529 330.07 373.963 328.465C375.558 326.677 376.392 324.481 377.836 322.619C378.022 322.38 378.279 322.251 378.556 322.21C378.612 320.713 378.832 319.202 379.002 317.722L379.052 317.278C379.224 315.67 379.63 313.705 378.843 312.199C378.1 310.776 376.394 309.772 375.131 308.807L374.1 308.006M300.04 288.151C299.381 288.533 298.764 289.008 298.205 289.601C296.445 291.47 295.186 293.795 293.962 296.032C293.302 297.237 292.667 298.455 292.002 299.657C291.713 300.18 291.415 300.697 291.115 301.214C290.976 301.452 290.563 301.925 290.358 302.216C290.585 302.535 290.821 302.849 291.061 303.16C291.152 303.278 297.466 310.162 299.667 312.856C303.038 316.982 306.05 321.341 308.626 326.007C311.148 330.575 313.068 335.412 315.404 340.069C316.573 342.401 317.879 344.716 319.544 346.734C319.608 346.813 319.676 346.887 319.742 346.965C320.377 345.247 322.005 343.408 322.805 342.352L322.879 342.252C324.693 339.806 326.608 337.433 328.565 335.101C330.352 332.971 332.184 330.888 334.061 328.838L334.767 328.071C336.075 326.658 337.736 324.543 339.65 323.533C339.445 323.167 339.208 322.805 338.935 322.447C337.141 320.102 334.606 318.4 332.104 316.864L330.482 315.876C324.366 312.146 318.345 308.244 313.036 303.398C310.227 300.834 307.457 298.148 305.096 295.157L304.261 294.1M310.244 286.305C307.38 286.545 304.288 286.488 301.641 287.422C303.994 289.648 306.23 292.051 308.528 294.314C308.732 292.784 309.15 291.272 309.505 289.779" fill="black"/>
<path fill-rule="evenodd" clip-rule="evenodd" d="M406.861 169.398C406.741 165.1 400.507 163.316 398.706 167.572C398.594 167.686 398.473 167.796 398.359 167.894C398.923 167.409 397.744 168.212 397.552 168.311C397.388 168.396 397.22 168.472 397.053 168.551C395.894 157.663 391.962 145.925 381.801 140.459C367.628 133.567 351.252 132.221 335.704 132.906C327.827 133.375 318.732 134.638 311.734 130.642C309.554 129.397 307.806 127.437 305.342 126.667C297.564 124.557 294.035 132.567 295.095 139.154C291.777 139.181 288.486 141.023 287.054 144.056C286.213 145.851 286.228 147.788 285.503 149.589C283.279 154.157 280.096 157.441 281.895 162.98C278.73 166.592 280.535 172.06 283.089 175.518C284.35 177.316 285.852 179.043 286.776 181.056C287.672 182.984 286.319 185.27 285.565 187.097C279.996 200.341 280.314 214.927 283.311 228.742C277.297 231.359 275.492 239.54 279.414 244.691C280.763 246.511 282.409 247.187 284.276 248.307C286.639 249.611 284.709 254.835 285.466 257.357C286.494 263.515 292.085 267.307 297.613 263.308C301.121 262.776 303.951 273.012 306.498 275.581C308.067 277.652 309.81 279.511 311.704 281.226C317.349 295.792 346.274 303.178 360.575 302.335C375.55 300.762 385.653 288.008 394.066 276.688C398.385 270.657 401.195 263.906 402.217 256.543C403.243 249.143 402.794 241.73 402.1 234.321C400.643 218.58 398.343 195.901 396.858 179.99C402.224 179.547 407.024 174.965 406.861 169.398Z" fill="#D08B5B"/>
<path fill-rule="evenodd" clip-rule="evenodd" d="M299.881 128.762C300.924 127.731 302.631 128.789 303.761 129.618L304.01 129.804L304.726 130.35C306.349 131.604 307.868 132.968 309.621 134.053C311.535 135.239 313.613 136.181 315.723 136.954C319.816 138.452 324.219 139.125 328.558 139.337C346.312 140.206 366.975 130.852 383.088 142.023C386.908 144.671 389.544 148.542 390.904 152.97C392.438 157.964 391.913 163.135 393.168 168.146C393.712 170.321 397.465 170.623 397.884 168.233L397.912 168.047L398.24 167.841L398.37 167.763C398.503 167.686 398.564 167.664 398.449 167.773L398.423 167.796L398.474 167.751C398.513 167.716 398.553 167.68 398.591 167.644L398.706 167.531C399.506 165.641 401.18 164.942 402.805 165.126L402.759 165.238L402.275 166.488L402.121 166.881C401.552 168.313 400.926 169.668 399.844 170.895C398.312 172.632 396.408 174.047 394.262 174.918C393.821 175.097 393.887 175.697 394.374 175.746C399.167 176.224 404.566 173.304 406.821 168.877C406.843 169.033 406.856 169.194 406.861 169.357C406.876 169.896 406.846 170.426 406.772 170.944C406.506 171.044 406.247 171.191 406.007 171.391C404.451 172.688 403.686 174.809 402.223 176.256C400.689 177.773 398.806 179.179 396.762 179.884C396.729 179.895 396.703 179.911 396.679 179.929C396.525 179.342 396.362 178.759 396.176 178.185C396.103 177.959 395.803 178.015 395.78 178.239C395.739 178.637 390.116 174.626 385.785 175.274C377.644 176.492 375.764 181.259 364.066 180.555C358.357 180.211 346.3 174.848 335.753 174.445C326.184 174.079 309.084 179.556 304.572 182.712C302.227 184.352 308.85 189.77 307.65 192.233C304.247 199.219 305.626 208.462 302.068 213.987L301.93 214.195C299.652 217.552 301.074 226.487 300.187 229.242C298.584 234.215 295.931 232.037 296.332 232.703C296.458 232.914 296.798 232.777 296.731 232.534C295.637 228.545 292.643 225.533 288.837 224.434C289.002 223.488 288.702 222.301 288.116 221.526L287.876 220.403L287.655 219.352C287.145 216.901 286.688 214.453 286.443 211.935C286.075 208.159 286.062 204.354 286.304 200.569C286.621 195.595 287.643 190.803 288.766 186.014L288.886 185.501L289.77 181.777C291.977 182.407 294.243 182.805 296.444 183.002C299.007 183.232 301.545 183.21 304.063 183.007C306.295 189.087 306.21 196.01 303.452 201.948C300.226 208.894 292.317 215.528 294.488 223.951C295.435 227.623 300.973 226.874 301.104 223.166L301.106 223.053C301.127 219.389 302.369 216.373 304.009 213.224L304.235 212.794L304.61 212.092C306.574 208.409 308.237 204.774 308.79 200.584C309.592 194.497 308.334 188.212 305.328 182.89C316.036 181.77 326.399 177.519 336.853 175.235L337.333 175.133L337.814 175.033C345.538 173.471 354.05 173.287 361.052 177.365C361.185 177.442 361.291 177.248 361.17 177.161C351.008 169.81 337.846 170.854 326.193 173.444L325.521 173.595L324.862 173.746C314.083 176.243 302.791 179.91 291.773 176.68C288.909 175.84 286.129 174.461 283.887 172.464L283.7 172.295C282.752 171.437 281.67 170.327 281.487 169.024C281.423 168.565 281.443 168.251 281.713 167.888C281.994 167.51 282.485 167.512 282.203 167.375C285.503 168.97 288.332 164.387 285.232 162.401L285.013 162.265C281.047 159.745 283.028 154.011 287.578 154.038L287.811 154.042C290.388 154.05 291.177 150.998 289.791 149.211L289.658 149.044C287.094 145.732 291.41 141.737 294.769 143.609L294.953 143.715C296.547 144.599 298.223 143.615 298.826 142.054C300.12 138.703 299.458 135.244 299.382 131.777L299.378 131.55L299.372 131.173L299.371 130.875L299.374 130.678C299.391 129.947 299.485 129.154 299.881 128.762ZM396.8 180.406L396.832 180.413L396.901 180.416L396.964 181.091L396.883 180.748L396.8 180.406ZM286.701 180.854L286.623 180.696L286.874 180.797L286.753 180.967L286.701 180.854ZM357.003 161.575C356.736 161.498 356.543 161.915 356.809 162.036C363.401 165.061 368.402 169.887 372.305 175.935C372.675 176.507 373.233 176.675 373.875 176.575C374.19 176.526 374.367 176.373 374.535 176.162L374.577 176.109L374.706 175.935C374.984 175.551 374.947 174.914 374.706 174.527C370.744 168.182 364.114 163.611 357.003 161.575ZM372.695 159.594C372.406 159.595 372.251 160.04 372.473 160.229C374.366 161.845 376.214 163.636 377.559 165.75C378.212 166.776 378.757 167.87 379.152 169.022C379.583 170.28 379.722 171.583 380.337 172.772C381.367 174.765 384.127 173.651 384.266 171.704C384.475 168.768 382.029 165.465 380.091 163.464C378.125 161.433 375.712 160.032 372.929 159.623L372.734 159.596L372.695 159.594ZM300.027 157.295C299.219 157.09 298.558 158.124 299.193 158.731C302.683 162.065 307.4 163.612 312.097 164.287L312.335 164.321C316.732 164.925 323.128 165.268 326.443 161.681C327.145 160.922 326.925 159.466 325.798 159.232C324.255 158.91 322.671 159.029 321.106 159.222L320.659 159.279L319.549 159.427C317.356 159.714 315.156 159.889 312.942 159.824C308.51 159.693 304.289 158.377 300.027 157.295ZM376.827 146.685C376.362 146.505 375.871 147.145 376.163 147.551C377.5 149.411 379.102 151.037 380.472 152.869C381.846 154.706 382.994 156.636 384.619 158.27C385.492 159.147 386.977 158.255 386.669 157.074C385.502 152.602 381.062 148.327 376.827 146.685ZM307.25 148.704C306.762 148.53 306.42 149.208 306.76 149.549C311.26 154.054 319.356 156.414 325.317 153.812C326.658 153.226 325.837 151.343 324.63 151.269C321.647 151.084 318.651 151.43 315.684 150.975C312.787 150.53 310.008 149.683 307.25 148.704ZM314.814 142.664C314.17 142.395 313.9 143.359 314.374 143.711C316.92 145.599 320.045 146.417 323.161 145.737C324.175 145.516 323.956 143.875 322.915 143.917C320.097 144.03 317.441 143.76 314.814 142.664ZM335.703 132.865C339.561 132.695 343.47 132.65 347.384 132.784L345.647 133.015L344.489 133.167C340.05 133.741 335.604 134.227 331.122 134.207C328.093 134.194 325.068 133.949 322.11 133.35C326.641 133.624 331.358 133.124 335.703 132.865Z" fill="black"/>
<path fill-rule="evenodd" clip-rule="evenodd" d="M289.885 159.934C289.88 159.957 289.888 159.973 289.893 159.997C289.894 159.99 289.895 159.987 289.897 159.978C289.892 159.961 289.889 159.949 289.885 159.934Z" fill="#4F66AF"/>
<path fill-rule="evenodd" clip-rule="evenodd" d="M289.884 160.163C289.864 160.142 289.836 160.127 289.808 160.106C289.807 160.107 289.807 160.107 289.807 160.108C289.833 160.125 289.858 160.145 289.884 160.163Z" fill="#4F66AF"/>
<path fill-rule="evenodd" clip-rule="evenodd" d="M406.007 171.432C407.77 169.964 410.546 171.316 409.949 173.734C409.299 176.367 406.485 178.166 404.162 179.248C401.771 180.361 399.441 180.576 396.833 180.454L396.8 180.447C397.525 183.36 397.936 186.387 398.49 189.317C399.193 193.034 399.884 196.753 400.566 200.474C401.225 204.07 402.058 207.671 402.565 211.286C403.075 214.934 403.566 218.585 404.067 222.235C404.905 228.331 405.581 234.454 406.293 240.567L406.633 243.461C407.347 249.585 407.921 255.717 406.569 261.812C405.301 267.524 402.445 272.852 399.133 277.62C395.889 282.289 392.265 286.778 388.287 290.839C380.615 298.672 371.153 304.945 360.058 306.108C355.281 306.609 350.179 306.052 345.688 304.31L345.39 304.194C340.844 302.393 335.276 299.311 334.093 294.254C333.367 291.151 336.555 288.729 339.35 290.201C340.645 290.883 341.619 291.663 342.682 292.64L342.87 292.815C343.739 293.624 344.073 293.873 345.076 294.506C347.132 295.803 348.673 296.417 351.008 297.006C355.314 298.092 359.961 297.92 364.332 296.636C373.613 293.909 380.812 286.792 386.98 279.656C390.329 275.781 393.507 271.717 395.959 267.2C398.531 262.462 399.718 257.487 399.647 252.096C399.566 246.013 398.728 239.906 398.178 233.851C397.617 227.679 397.099 221.508 396.642 215.327C396.215 209.531 396.173 203.708 396.024 197.894L395.994 196.804C395.907 193.717 395.846 190.629 395.776 187.541C395.707 184.463 395.464 181.345 395.78 178.28C395.802 178.057 396.102 178 396.175 178.226C396.362 178.8 396.525 179.384 396.679 179.97C396.703 179.952 396.729 179.936 396.761 179.925C398.806 179.22 400.688 177.814 402.222 176.297C403.686 174.85 404.45 172.73 406.007 171.432ZM294.161 128.302C295.445 123.013 301.224 121.831 305.497 124.379C307.552 125.604 309.198 127.37 311.118 128.774C313.027 130.17 315.136 131.291 317.362 132.083C321.785 133.656 326.45 134.228 331.123 134.248C342.499 134.298 353.642 131.092 365.034 131.45C373.849 131.726 383.206 134.339 389.6 140.73C393.044 144.172 395.264 148.598 396.455 153.297C397.011 155.493 397.426 157.742 397.753 159.986L397.833 160.547C398.016 161.859 398.31 163.247 398.337 164.573C398.362 165.763 398.062 167.009 397.899 168.187C397.556 170.671 393.72 170.388 393.169 168.187C391.914 163.177 392.439 158.005 390.905 153.012C389.545 148.583 386.909 144.712 383.09 142.064C366.976 130.893 346.313 140.248 328.559 139.379C324.22 139.166 319.817 138.494 315.724 136.995C313.614 136.222 311.536 135.28 309.622 134.095C307.869 133.009 306.35 131.646 304.727 130.391L304.011 129.845C302.899 129.006 301.005 127.693 299.882 128.804C299.394 129.287 299.364 130.38 299.373 131.214L299.379 131.592C299.43 135.135 300.15 138.672 298.827 142.095C298.224 143.656 296.548 144.641 294.954 143.756L294.871 143.709C291.499 141.697 287.069 145.74 289.659 149.085L289.74 149.187C291.197 150.963 290.42 154.091 287.812 154.083L287.718 154.082C283.07 153.936 281.008 159.761 285.014 162.306L285.137 162.383C288.39 164.335 285.537 169.028 282.204 167.416C282.486 167.553 281.995 167.551 281.714 167.929C281.444 168.292 281.424 168.606 281.488 169.065C281.683 170.455 282.901 171.626 283.888 172.505C286.131 174.502 288.91 175.881 291.774 176.721C303.246 180.084 315.016 175.97 326.194 173.485C337.847 170.895 351.009 169.851 361.171 177.202C361.292 177.289 361.186 177.483 361.053 177.406C353.759 173.158 344.827 173.535 336.854 175.277C326.4 177.56 316.037 181.811 305.33 182.931C308.335 188.253 309.593 194.538 308.791 200.625C308.238 204.815 306.575 208.45 304.611 212.133L304.236 212.835C302.485 216.141 301.129 219.264 301.107 223.094C301.086 226.899 295.445 227.701 294.489 223.992C292.318 215.569 300.227 208.935 303.453 201.989C306.211 196.051 306.296 189.128 304.064 183.048C301.546 183.252 299.008 183.273 296.445 183.043C294.244 182.846 291.979 182.448 289.771 181.819L288.888 185.542C287.717 190.502 286.633 195.458 286.305 200.61C286.063 204.395 286.076 208.2 286.444 211.976C286.762 215.237 287.434 218.383 288.117 221.567C288.703 222.342 289.003 223.53 288.838 224.475C292.644 225.574 295.638 228.586 296.732 232.576C296.799 232.819 296.46 232.955 296.333 232.744C293.738 228.426 287.055 226.837 282.828 229.69C278.791 232.414 277.198 237.913 279.483 242.266C280.685 244.555 282.467 246.164 284.765 247.272L285.227 247.489C286.432 248.061 287.537 248.683 288.311 249.831C289.316 251.32 289.35 252.894 289.255 254.595L289.214 255.284C289.15 256.425 289.136 257.598 289.475 258.695L289.552 258.939C289.641 259.213 289.735 259.454 289.898 259.715C289.947 259.793 290.404 260.243 290.553 260.406L290.741 260.463L290.951 260.471C291.184 260.475 291.49 260.374 291.39 260.444L291.417 260.428C291.505 260.373 291.587 260.315 291.655 260.263L291.785 260.161C292.09 259.72 292.471 259.355 292.939 259.077L293.386 258.878C294.546 257.649 296.536 258.295 297.368 259.519C297.967 260.4 298.289 261.295 298.315 262.178C298.409 262.028 298.617 261.945 298.749 262.114L299.538 263.122C302.557 266.991 305.524 270.883 308.954 274.41C310.844 276.353 312.877 278.178 315.002 279.86C316.816 281.296 320.257 282.678 320.31 285.293C320.327 286.142 319.726 286.744 318.99 287.032C316.597 287.969 313.639 284.78 311.91 283.228L311.769 283.103C309.653 281.244 307.722 279.204 305.94 277.022C302.479 272.784 299.585 267.906 298.309 262.541C298.249 263.477 297.849 264.394 297.069 265.26C296.031 266.413 294.61 267.221 293.092 267.553C289.653 268.307 286.295 267.066 284.249 264.192C282.52 261.763 282.011 258.555 282.234 255.62L282.261 255.268C282.293 254.797 282.333 253.934 282.454 253.566L281.371 252.97C280.044 252.261 278.814 251.333 277.709 250.312C273.271 246.209 271.045 239.54 273.073 233.705C274.342 230.055 277.009 226.878 280.424 225.227C279.853 223.905 279.663 222.334 279.447 220.944L279.411 220.714C279.046 218.434 278.74 216.125 278.624 213.817C278.406 209.508 278.671 205.158 279.346 200.898C280.442 193.98 282.713 186.642 286.875 180.838C283.7 179.574 280.777 177.743 278.521 175.201C276.164 172.545 274.661 168.743 276.484 165.369C276.949 164.51 277.554 163.787 278.25 163.213C277.043 160.928 276.653 158.228 277.397 155.648C278.287 152.562 280.702 150.156 283.62 149.032C282.911 146.109 283.491 142.965 285.656 140.529C287.803 138.112 291.138 137.232 294.225 137.784C294.392 134.675 293.416 131.368 294.161 128.302ZM285.505 237.46C288.335 236.071 291.688 236.292 294.515 237.608L294.707 237.699C297.793 239.2 301.88 242.706 300.899 246.436C300.325 248.617 297.909 249.361 296.035 248.42C294.47 247.633 294.113 246.227 293.328 244.814C292.773 243.815 292.086 243.034 291.28 242.23C289.581 240.538 287.673 239.281 285.505 238.275C285.192 238.129 285.203 237.608 285.505 237.46ZM356.808 162.078C356.543 161.956 356.735 161.54 357.002 161.616C364.113 163.652 370.743 168.223 374.705 174.568C374.947 174.955 374.984 175.593 374.705 175.976L374.577 176.15C374.395 176.388 374.216 176.563 373.874 176.616C373.232 176.716 372.674 176.548 372.304 175.976C368.401 169.928 363.401 165.102 356.808 162.078ZM404.412 163.275C405.014 162.252 406.612 162.458 406.929 163.605L406.975 163.705C407.147 164.096 407.069 164.176 406.749 163.955C407.542 164.61 407.9 165.585 407.658 166.634C406.349 172.298 399.951 176.343 394.374 175.787C393.887 175.738 393.821 175.138 394.262 174.959C396.408 174.088 398.313 172.673 399.844 170.937C401.332 169.249 401.958 167.318 402.759 165.279C403.059 164.514 403.527 163.963 404.185 163.662C404.272 163.541 404.348 163.413 404.412 163.275ZM372.695 159.635L372.734 159.637C375.599 160.009 378.078 161.427 380.091 163.505C382.029 165.506 384.475 168.809 384.265 171.746C384.127 173.693 381.366 174.806 380.336 172.813C379.722 171.624 379.582 170.321 379.152 169.064C378.757 167.911 378.211 166.817 377.558 165.791C376.214 163.677 374.365 161.886 372.472 160.27C372.251 160.081 372.405 159.636 372.695 159.635ZM299.193 158.772C298.557 158.165 299.218 157.131 300.026 157.336C304.289 158.418 308.51 159.734 312.942 159.865C315.155 159.93 317.356 159.755 319.549 159.468L320.659 159.32C322.369 159.096 324.108 158.921 325.798 159.273C326.925 159.507 327.145 160.963 326.443 161.723C323.127 165.309 316.732 164.966 312.335 164.362C307.56 163.705 302.742 162.163 299.193 158.772ZM376.165 147.592C375.873 147.187 376.364 146.546 376.829 146.726C381.065 148.368 385.504 152.643 386.671 157.115C386.979 158.296 385.494 159.189 384.621 158.312C382.996 156.677 381.848 154.747 380.474 152.91C379.105 151.078 377.502 149.452 376.165 147.592ZM306.759 149.59C306.42 149.249 306.762 148.571 307.25 148.745C310.008 149.724 312.786 150.572 315.684 151.016C318.651 151.471 321.647 151.126 324.629 151.31C325.836 151.384 326.658 153.267 325.317 153.853C319.356 156.455 311.259 154.095 306.759 149.59ZM314.376 143.752C313.902 143.401 314.172 142.436 314.817 142.705C317.443 143.802 320.099 144.071 322.917 143.958C323.959 143.916 324.178 145.557 323.163 145.778C320.047 146.458 316.922 145.64 314.376 143.752Z" fill="black"/>
<path fill-rule="evenodd" clip-rule="evenodd" d="M329.679 244.796C330.928 241.974 336.552 237.592 336.552 237.592C336.552 237.592 338.259 247.288 336.935 250.278C335.844 252.743 331.914 257.192 329.033 255.941C326.151 254.69 327.626 249.434 329.679 244.796Z" fill="white"/>
<path fill-rule="evenodd" clip-rule="evenodd" d="M399.589 242.242C398.562 239.857 393.939 236.154 393.939 236.154C393.939 236.154 392.536 244.349 393.624 246.876C394.521 248.959 397.751 252.719 400.12 251.662C402.489 250.605 401.277 246.163 399.589 242.242Z" fill="white"/>
<path fill-rule="evenodd" clip-rule="evenodd" d="M351.716 256.159H383.263L385.15 261.376C385.15 261.376 361.609 266.844 353.343 263.324L351.716 256.159Z" fill="white"/>
<path fill-rule="evenodd" clip-rule="evenodd" d="M374.987 246.026C377.905 241.936 373.773 238.089 371.06 236.439C370.35 235.929 370.914 234.238 372.432 234.5C386.223 236.871 379.077 260.643 361.47 247.598C359.374 245.906 361.913 242.178 364.172 243.627C364.286 243.715 364.407 243.808 364.532 243.905C367.07 245.869 371.715 249.463 374.987 246.026ZM347.231 204.858L346.556 204.976C344.374 205.356 342.216 206.183 340.243 207.181C336.547 209.049 332.858 212.115 330.954 215.847C330.747 216.252 331.189 216.806 331.622 216.515C334.92 214.301 338.067 212.285 341.928 211.18C343.688 210.677 345.445 210.374 347.272 210.269C347.839 210.237 348.394 210.251 348.938 210.264C350.522 210.303 352.008 210.34 353.386 209.224C354.438 208.373 354.168 206.718 353.386 205.829C351.91 204.15 349.316 204.497 347.231 204.858ZM383.206 203.41L382.689 203.305C382.083 203.183 381.472 203.234 380.936 203.453C380.41 203.667 379.952 204.04 379.632 204.578C379.207 205.294 379.15 205.895 379.347 206.689C379.5 207.303 379.834 207.764 380.271 208.097C380.732 208.449 381.317 208.654 381.923 208.725C384.723 209.054 387.479 209.67 390.159 210.545C391.415 210.955 392.6 211.51 393.775 212.087L394.787 212.586C395.721 213.043 396.686 213.484 397.905 213.803C398.001 213.828 398.095 213.852 398.189 213.874C398.487 213.781 398.567 213.67 398.631 213.581L398.631 213.58C398.64 213.569 398.648 213.557 398.656 213.546L398.685 213.51C398.772 213.4 398.879 213.233 398.778 212.453C396.118 206.932 388.822 204.585 383.206 203.41ZM353.987 230.565C352.896 231.203 351.73 230.894 350.801 230.154C350.226 229.696 349.789 229.111 349.352 228.524C348.84 227.836 348.326 227.147 347.586 226.659C346.425 225.894 344.869 225.854 343.534 226.075C341.531 226.407 339.801 227.353 338.066 228.302L338.066 228.302C337.083 228.839 336.099 229.377 335.063 229.806C334.661 229.972 334.426 229.456 334.561 229.152C336.297 225.247 339.922 221.764 344.234 221.067C348.743 220.337 353.621 223.309 355.196 227.593C355.593 228.674 354.933 230.013 353.987 230.565ZM396.829 226.014C396.922 226.049 397.016 225.944 396.989 225.855C395.849 222.143 391.554 220.581 387.95 220.89C385.72 221.082 383.67 221.898 381.979 223.388C380.366 224.81 379.11 227.5 380.57 229.466C382.071 231.489 385.152 230.835 385.327 228.177C385.441 226.454 388.404 225.39 389.905 225.125C392.237 224.713 394.648 225.205 396.829 226.014ZM355.085 261.614C356.141 262.032 365.069 262.443 370.342 262.202C373.937 262.04 383.263 259.859 383.263 258.924C383.263 257.988 382.865 257.142 382.524 257.178C381.137 257.328 370.089 257.45 362.309 257.535L362.307 257.535H362.306L362.305 257.535L362.304 257.535C358.867 257.573 356.069 257.604 355.024 257.627C354.51 257.638 353.971 257.627 353.425 257.613C353.047 258.784 354.029 261.195 355.085 261.614ZM372.959 254.803C377.11 254.767 382.15 254.723 385.742 254.935C387.024 255.011 387.656 256.844 387.746 257.714C388.597 265.797 382.147 272.245 375.025 274.743C368.417 277.062 359.689 277.5 353.795 273.169C351.235 271.289 349.295 268.683 348.031 265.783C347.348 264.219 346.849 262.598 346.573 260.916C346.546 260.757 346.517 260.591 346.487 260.42C346.274 259.211 346.017 257.748 346.429 256.643C347.026 255.053 348.606 255.035 350.058 255.019C350.178 255.018 350.298 255.017 350.416 255.014C351 255.003 351.584 254.99 352.169 254.977C353.71 254.944 355.251 254.91 356.791 254.892C360.103 254.855 363.416 254.845 366.726 254.835C367.878 254.832 369.029 254.829 370.18 254.824C371.035 254.82 371.972 254.812 372.959 254.803ZM335.723 248.927C335.183 251.001 334.047 253.411 332.121 254.541C331.091 255.146 329.562 255.369 328.968 254.126C327.86 251.808 329.414 248.232 330.357 246.147C331.149 244.397 332.146 242.728 333.355 241.234C334.018 240.414 334.753 239.661 335.492 238.911C335.637 238.764 335.793 238.629 335.947 238.494C336.163 238.306 336.376 238.12 336.552 237.91C336.011 239.126 335.989 240.712 335.984 241.914C335.981 242.564 336.005 243.213 336.03 243.862L336.03 243.862C336.094 245.561 336.158 247.253 335.723 248.927ZM339.268 237.257C339.179 236.55 338.536 236.079 337.849 236.443C337.449 236.654 337.139 236.953 336.893 237.304C336.898 237.288 336.904 237.273 336.909 237.258L336.909 237.258C336.92 237.227 336.931 237.196 336.939 237.162C336.952 237.106 336.922 237.027 336.857 237.017C335.266 236.778 333.228 238.983 332.107 240.196C332.028 240.282 331.953 240.362 331.884 240.437C330.3 242.134 328.886 244.088 327.914 246.202C326.674 248.898 325.335 252.973 327.038 255.767C329.407 259.653 334.371 256.721 336.253 254.037C337.83 251.787 338.645 249.045 338.737 246.314C338.764 245.511 338.732 244.708 338.7 243.905C338.67 243.145 338.64 242.385 338.66 241.624C338.676 240.986 338.828 240.344 338.979 239.705C339.175 238.879 339.369 238.058 339.268 237.257ZM396.027 250.32C397.138 251.338 399.068 251.715 400.359 250.755C402.074 249.479 400.596 247.135 399.65 245.635C399.555 245.483 399.465 245.341 399.384 245.209C398.082 243.079 396.801 240.938 395.527 238.791C395.297 238.402 395.024 237.995 394.742 237.574C394.651 238.18 394.536 238.774 394.431 239.319C394.339 239.796 394.254 240.235 394.199 240.612C393.733 243.789 393.403 247.916 396.027 250.32ZM400.673 241.175C401.932 243.16 403.254 245.244 403.828 247.43C404.943 251.674 401.263 254.789 397.184 253.877C392.928 252.926 391.347 247.973 391.437 244.104C391.479 242.322 391.849 240.517 392.209 238.762C392.258 238.521 392.307 238.282 392.355 238.043C392.453 237.557 392.524 237.053 392.596 236.546C392.696 235.84 392.796 235.128 392.971 234.448C392.772 233.896 392.654 233.338 392.675 232.779C392.708 231.89 393.599 231.418 394.373 231.804C395.472 232.354 396.044 233.374 396.625 234.411C396.744 234.623 396.863 234.836 396.988 235.046L399.533 239.339C399.89 239.941 400.278 240.553 400.673 241.175Z" fill="black"/>
</g>
<g clip-path="url(#clip0)">
<path d="M231.71 207.734L221.665 218.315L230.446 230.777L216.79 234.521L219.893 249.808L205.794 247.436L203.976 262.831L191.124 255.736L185.25 269.735L174.635 259.008L165.347 270.497L157.974 256.926L145.785 264.516L143.013 249.162L128.974 250.915L132.508 236.009L119.29 230.045L129.335 219.463L120.554 207.002L134.21 203.258L131.107 187.97L145.206 190.343L147.024 174.947L159.876 182.043L165.75 168.043L176.365 178.77L185.653 167.281L193.026 180.852L205.215 173.262L207.987 188.616L222.026 186.864L218.492 201.769L231.71 207.734Z" fill="#FEDCF7"/>
<path d="M233.957 207.294C233.814 206.566 233.328 205.952 232.652 205.647L221.156 200.46L224.254 187.393C224.427 186.663 224.231 185.894 223.73 185.336C223.229 184.777 222.486 184.499 221.742 184.593L209.855 186.076L207.468 172.856C207.333 172.109 206.837 171.478 206.144 171.17C205.45 170.862 204.649 170.918 204.005 171.32L193.878 177.625L187.665 166.188C187.299 165.516 186.623 165.071 185.861 165.001C185.1 164.932 184.353 165.247 183.872 165.842L176.193 175.342L167.377 166.433C166.839 165.89 166.065 165.651 165.314 165.796C164.563 165.942 163.935 166.453 163.639 167.158L158.751 178.807L148.131 172.943C147.464 172.574 146.657 172.562 145.979 172.91C145.3 173.259 144.84 173.922 144.75 174.679L143.214 187.686L131.487 185.712C130.743 185.587 129.985 185.836 129.46 186.379C128.936 186.921 128.713 187.687 128.863 188.426L131.54 201.616L119.948 204.794C119.229 204.991 118.651 205.526 118.399 206.228C118.146 206.93 118.252 207.711 118.682 208.321L126.382 219.248L117.629 228.469C117.119 229.006 116.9 229.758 117.043 230.486C117.186 231.213 117.672 231.827 118.348 232.132L129.844 237.32L126.746 250.387C126.573 251.117 126.769 251.885 127.27 252.444C127.771 253.002 128.513 253.28 129.258 253.187L141.145 251.703L143.532 264.923C143.667 265.67 144.163 266.301 144.856 266.609C145.55 266.917 146.351 266.861 146.995 266.46L157.122 260.154L163.336 271.591C164.101 273 166.119 273.185 167.128 271.937L174.807 262.437L183.623 271.346C184.161 271.889 184.935 272.129 185.686 271.983C186.437 271.838 187.065 271.327 187.362 270.621L192.249 258.973L202.869 264.836C203.537 265.205 204.344 265.217 205.022 264.869C205.7 264.52 206.16 263.858 206.25 263.101L207.786 250.093L219.514 252.067C220.258 252.192 221.015 251.943 221.54 251.401C222.064 250.858 222.288 250.093 222.138 249.354L219.46 236.164L231.052 232.986C231.772 232.789 232.35 232.253 232.602 231.551C232.854 230.849 232.748 230.069 232.318 229.459L224.618 218.532L233.371 209.311C233.881 208.773 234.1 208.021 233.957 207.294ZM220.005 216.739C219.253 217.531 219.165 218.742 219.793 219.635L226.697 229.431L216.184 232.313C215.022 232.632 214.306 233.796 214.546 234.977L216.987 246.998L206.174 245.179C205.556 245.075 204.922 245.229 204.421 245.605C203.919 245.981 203.594 246.546 203.52 247.168L202.101 259.182L192.231 253.732C191.662 253.418 190.986 253.36 190.372 253.574C189.758 253.787 189.264 254.251 189.013 254.851L184.465 265.688L176.262 257.398C175.804 256.935 175.17 256.69 174.52 256.722C173.869 256.755 173.263 257.063 172.854 257.57L165.722 266.392L159.985 255.834C159.684 255.28 159.168 254.874 158.558 254.713C158.365 254.662 158.169 254.637 157.973 254.637C157.549 254.637 157.129 254.755 156.763 254.983L147.438 260.79L145.266 248.756C145.049 247.559 143.936 246.739 142.729 246.891L131.962 248.235L134.735 236.538C134.988 235.471 134.449 234.374 133.449 233.923L123.169 229.284L130.995 221.041C131.747 220.249 131.835 219.037 131.206 218.145L124.303 208.349L134.815 205.467C135.977 205.148 136.693 203.984 136.454 202.803L134.013 190.782L144.826 192.601C145.444 192.705 146.077 192.551 146.579 192.175C147.081 191.8 147.406 191.234 147.48 190.612L148.899 178.598L158.769 184.048C159.338 184.362 160.013 184.42 160.628 184.206C161.241 183.993 161.736 183.529 161.987 182.929L166.534 172.092L174.738 180.382C175.196 180.844 175.83 181.09 176.48 181.058C177.131 181.025 177.736 180.717 178.146 180.211L185.278 171.388L191.015 181.946C191.316 182.501 191.832 182.906 192.442 183.067C193.052 183.228 193.701 183.13 194.237 182.797L203.561 176.991L205.734 189.024C205.95 190.221 207.064 191.041 208.271 190.889L219.037 189.545L216.264 201.242C216.011 202.309 216.551 203.406 217.551 203.857L227.831 208.496L220.005 216.739Z" fill="black"/>
<path d="M184.697 211.143C185.366 212.216 186.779 212.543 187.851 211.874C188.924 211.204 189.251 209.792 188.582 208.719L178.36 192.339C178.348 192.32 178.336 192.301 178.324 192.282C177.713 191.365 176.62 190.912 175.54 191.129C174.46 191.346 173.626 192.185 173.417 193.267C173.413 193.285 173.41 193.304 173.407 193.322L170.196 212.382C169.992 213.597 170.82 214.783 172.03 215.012C173.272 215.248 174.502 214.39 174.712 213.143L175.249 209.952L182.989 208.407L184.697 211.143ZM176.063 205.12L177.099 198.968L180.398 204.255L176.063 205.12Z" fill="black"/>
<path d="M162.071 214.835C162.322 216.093 163.605 216.912 164.852 216.613C166.032 216.33 166.799 215.128 166.562 213.939L164.707 204.648V204.647V204.647L162.975 195.972C162.728 194.732 161.522 193.927 160.282 194.175C159.042 194.422 158.237 195.629 158.485 196.868L159.768 203.298L151.826 204.884L150.542 198.454C150.295 197.214 149.088 196.409 147.849 196.657C146.609 196.904 145.804 198.11 146.052 199.35L147.783 208.025V208.026C147.783 208.026 147.784 208.026 147.784 208.027L149.638 217.317C149.889 218.575 151.172 219.395 152.42 219.095C153.6 218.812 154.366 217.61 154.129 216.421L152.722 209.375L160.665 207.789L162.071 214.835Z" fill="black"/>
<path d="M203.028 222.498C201.772 222.353 200.636 223.254 200.491 224.51C200.346 225.767 201.247 226.902 202.504 227.047C203.761 227.191 204.897 226.29 205.042 225.034C205.186 223.778 204.285 222.643 203.028 222.498Z" fill="black"/>
<path d="M130.361 171.846C131.617 171.99 132.754 171.089 132.898 169.833C133.043 168.577 132.141 167.442 130.885 167.297C129.628 167.152 128.492 168.053 128.347 169.31C128.203 170.566 129.104 171.701 130.361 171.846Z" fill="black"/>
<path d="M226.172 178.46C227.429 178.605 228.565 177.704 228.709 176.448C228.854 175.192 227.953 174.056 226.696 173.911C225.439 173.767 224.303 174.668 224.159 175.924C224.014 177.18 224.915 178.316 226.172 178.46Z" fill="black"/>
<path d="M217.772 169.555C219.029 169.7 220.165 168.799 220.31 167.543C220.454 166.286 219.553 165.151 218.296 165.006C217.04 164.862 215.904 165.763 215.759 167.019C215.614 168.275 216.516 169.411 217.772 169.555Z" fill="black"/>
<path d="M130.173 259.238C128.917 259.093 127.782 259.995 127.637 261.251C127.492 262.507 128.393 263.642 129.649 263.787C130.906 263.932 132.041 263.031 132.186 261.774C132.33 260.518 131.429 259.383 130.173 259.238Z" fill="black"/>
<path d="M210.049 268.223C208.792 268.079 207.656 268.98 207.511 270.236C207.367 271.492 208.268 272.627 209.525 272.772C210.781 272.917 211.918 272.016 212.062 270.76C212.207 269.503 211.306 268.368 210.049 268.223Z" fill="black"/>
<path d="M134.755 269.445C133.498 269.3 132.362 270.201 132.217 271.457C132.072 272.713 132.974 273.849 134.231 273.994C135.487 274.138 136.623 273.237 136.768 271.981C136.913 270.725 136.011 269.589 134.755 269.445Z" fill="black"/>
<path d="M225.932 256.947C224.676 256.803 223.54 257.704 223.395 258.96C223.25 260.216 224.152 261.352 225.408 261.496C226.665 261.641 227.801 260.74 227.946 259.484C228.091 258.228 227.189 257.092 225.932 256.947Z" fill="black"/>
<path d="M205.68 197.895C204.421 197.752 203.288 198.652 203.144 199.908L201.489 214.277C201.346 215.516 202.262 216.671 203.502 216.814C204.741 216.956 205.896 216.04 206.038 214.801L207.693 200.432C207.837 199.176 206.936 198.04 205.68 197.895Z" fill="black"/>
<path d="M191.317 226.972C191.31 226.951 191.303 226.929 191.295 226.908C190.928 225.869 189.98 225.163 188.879 225.108C187.779 225.053 186.765 225.662 186.297 226.66C186.289 226.677 186.281 226.694 186.274 226.711L178.489 244.403C177.98 245.56 178.505 246.912 179.663 247.421C180.82 247.93 182.171 247.405 182.68 246.247L183.984 243.285L191.866 243.685L192.851 246.756C193.248 247.996 194.643 248.658 195.857 248.192C196.974 247.764 197.576 246.496 197.211 245.358L191.317 226.972ZM185.957 238.8L188.469 233.09L190.372 239.024L185.957 238.8Z" fill="black"/>
<path d="M173.34 224.321C172.075 224.257 171.001 225.229 170.937 226.492L170.605 233.04L162.516 232.63L162.848 226.082C162.912 224.819 161.94 223.743 160.677 223.679C159.411 223.615 158.339 224.587 158.275 225.85L157.827 234.685V234.685C157.827 234.685 157.827 234.685 157.827 234.686L157.348 244.148C157.285 245.394 158.273 246.487 159.519 246.55C160.764 246.613 161.858 245.626 161.921 244.379L162.285 237.204L170.373 237.614L170.01 244.79C169.947 246.035 170.935 247.129 172.181 247.192C173.427 247.255 174.52 246.267 174.583 245.021L175.063 235.56C175.063 235.56 175.063 235.559 175.063 235.558C175.063 235.558 175.063 235.557 175.063 235.557L175.511 226.723C175.574 225.46 174.603 224.385 173.34 224.321Z" fill="black"/>
</g>
<path d="M130.695 384.209C133.179 380.398 136.35 377.027 140.208 374.096C144.065 371.165 148.063 370.936 152.202 373.408C156.34 375.88 159.424 378.872 161.454 382.387C163.485 385.901 164.402 389.676 164.206 393.714C164.01 397.751 162.304 400.912 159.088 403.197C155.872 405.481 152.275 407.322 148.297 408.72C144.32 410.118 139.887 409.933 135 408.164C130.113 406.396 127.552 402.914 127.319 397.718C127.086 392.523 128.212 388.02 130.695 384.209Z" fill="#868AD8"/>
<path d="M582.265 242.275C576.403 251.982 569.145 260.195 560.491 266.916C551.837 273.636 540.81 277.883 527.41 279.656C514.011 281.43 504.054 276.343 497.54 264.396C491.027 252.448 486.467 239.755 483.862 226.314C481.256 212.873 484.56 200.646 493.772 189.632C502.984 178.619 514.197 174.278 527.41 176.612C540.624 178.945 552.023 182.819 561.607 188.232C571.192 193.646 578.496 201.58 583.521 212.033C588.546 222.487 588.127 232.568 582.265 242.275Z" fill="#3639A6"/>
<defs>
<clipPath id="clip0">
<rect width="117" height="117" fill="white" transform="translate(117 161)"/>
</clipPath>
</defs>
</svg>
