<svg width="499" height="589" viewBox="0 0 499 589" fill="none" xmlns="http://www.w3.org/2000/svg">
<path d="M100.531 235.59C112.898 192.582 141.841 165.251 187.36 153.597C232.879 141.944 275.987 147.101 316.682 169.071C357.377 191.041 394.17 225.236 427.062 271.658C459.953 318.08 461.763 368.311 432.492 422.351C403.22 476.392 359.275 510.688 300.655 525.239C242.035 539.791 191.107 529.386 147.872 494.026C104.638 458.665 82.8468 417.505 82.5002 370.544C82.1536 323.583 88.1638 278.598 100.531 235.59Z" fill="#DADBF7"/>
<path d="M297.59 99.3747C355.059 104.035 398.37 131.336 427.523 181.278C456.675 231.221 473.675 284.831 478.523 342.109C483.371 399.387 462.002 443.175 414.415 473.474C366.828 503.774 320.43 514.477 275.22 505.585C230.009 496.693 188.033 484.611 149.289 469.34C110.546 454.069 76.5718 425.316 47.3662 383.081C18.1606 340.846 19.4988 299.412 51.3807 258.779C83.2626 218.146 117.901 180.255 155.294 145.107C192.688 109.959 240.12 94.7147 297.59 99.3747Z" fill="#3639A6"/>
<path d="M447.856 226.498C440.66 230.694 433.264 230.907 425.665 227.137C418.067 223.367 410.379 217.686 402.602 210.093C394.825 202.5 393.376 193.444 398.255 182.924C403.134 172.404 410.831 166.023 421.348 163.782C431.864 161.54 441.855 162.052 451.319 165.319C460.784 168.586 468.335 174.95 473.971 184.412C479.608 193.873 478.463 202.204 470.537 209.405C462.611 216.605 455.051 222.303 447.856 226.498Z" fill="#72E2EE"/>
<path fill-rule="evenodd" clip-rule="evenodd" d="M193.873 275.245C193.903 277.302 194.109 282.025 194.625 284.015C188.877 274.798 180.263 264.724 178.954 253.435C179.362 253.324 181.173 253.157 181.489 252.919C184.463 254.301 183.901 250.048 184.34 248.08C185.527 243.915 188.021 239.818 189.104 235.625C191.953 234.393 186.233 233.871 185.402 233.846C188.857 229.998 190.446 224.709 192.906 220.22C196.52 212.592 199.757 204.793 202.647 196.873C203.279 201.836 203.392 206.852 203.007 211.842C201.819 233.218 193.792 253.77 193.873 275.245ZM393.373 237.275C391.585 237.576 388.605 237.861 386.82 238.007C389.163 236.61 396.086 233.948 391.723 231.556C390.378 231.065 388.934 231.766 387.577 231.983C381.943 232.91 374.987 232.861 369.287 232.394C371.365 230.688 374.1 228.231 376.128 226.465C377.206 225.527 378.25 225.172 377.038 223.771C374.902 221.78 371.081 223.246 368.61 224.121C361.796 227.94 354.102 232.083 346.788 235.022C346.711 233.997 346.758 232.671 345.77 231.983C342.872 230.616 340.739 231.016 337.655 230.652C334.061 230.113 330.866 229.5 327.307 228.549C324.979 226.773 323.559 221.535 319.837 222.12C323.134 213.82 318.108 205.16 316.221 197.213C313.865 189.079 312.627 180.632 312.593 172.174C312.57 158.634 304.731 148.245 293.403 141.297C288.937 138.28 285.938 130.942 280.41 129.472C279.706 126.773 279.664 125.588 279.046 122.868C278.736 122.087 278.506 117.848 277.726 117.992C276.867 113.793 272.486 112.109 268.695 111.23C263.766 110.208 256.887 108.97 252.456 111.854C251.173 112.922 250.609 114.711 250.515 116.309C250.023 118.437 248.998 120.641 247.805 122.488C245.767 121.799 246.92 120.516 244.906 120.217C226.507 117.489 206.085 130.992 194.148 144.164C172.511 166.393 155.225 196.738 158.054 228.419C157.293 228.307 153.92 227.778 153.969 228.844C154.134 233.48 154.987 237.347 155.222 241.98C154.988 248.117 161.362 248.856 165.966 250.37C165.682 268.176 172.148 285.986 182.269 300.622C184.728 303.502 188.417 313.496 192.905 309.515C193.434 308.896 189.332 304.609 188.602 303.55C186.111 300.412 179.511 284.875 184.175 281.772C185.212 285.126 195.253 301.253 197.043 292.1C199.42 293.48 203.349 294.422 206.191 294.279C211.533 297.175 216.732 300.301 221.862 303.55C224.252 308.246 227.757 312.755 230.694 317.264C210.37 364.23 190.532 441.531 164.377 485.768C162.097 488.656 174.642 493.566 176.858 494.627C172.621 501.51 172.09 509.487 168.866 516.899C168.252 516.8 167.633 516.93 167.079 517.227C163.102 519.921 161.601 529.566 161.375 534.322C161.558 536.444 160.772 539.652 162.488 541.214C162.248 541.474 162.069 541.791 161.942 542.115C160.734 543.055 160.883 545.133 161.528 546.421C163.799 551.136 180.397 550.699 185.783 551.707C204.863 553.324 220.877 553.579 239.954 551.811C242.295 551.321 240.524 547.666 239.368 546.675C239.902 546.35 240.244 545.756 240.01 544.994C235.673 532.585 219.998 533.425 210.514 526.799C213.008 525.356 211.398 525.816 209.831 526.377C208.168 525.332 206.55 524.155 205.052 522.855C206.203 522.144 205.635 521.675 204.39 522.27C202.428 520.696 200.899 518.262 198.399 517.499C195.951 516.899 195.951 515.851 195.951 515.191C197.408 509.329 199 503.318 199.818 497.373C200.69 498.661 208.22 488.344 209.831 485.768C216.091 475.849 216.074 466.075 220.455 455.289C229.45 431.799 247.877 382.569 259.115 360.104C285.408 402.968 272.602 460.941 288.822 506.649C289.543 508.023 290.898 513.173 292.776 511.687C293.505 511.858 294.281 511.95 294.976 512.048C294.776 517.045 294.401 522.028 293.571 526.973C292.798 527.177 292.142 527.583 291.801 528.293C290.499 527.337 288.007 541.446 287.794 542.883C287.79 544.737 286.193 548.865 287.652 549.967C285.55 550.828 285.206 554.008 286.685 555.644C291.074 561.546 312.472 559.924 320.367 560.914C330.349 560.666 372.111 564.405 375.01 554.931C375.587 552.768 374.599 550.038 372.589 549.206C373.393 547.327 371.467 545.514 370.289 544.196C363.341 536.966 352.657 535.827 343.407 532.68C343.751 532.326 331.331 525.96 328.639 524.386C328.816 522.248 324.376 524.391 324.363 524.386C322.246 520.642 320.746 514.817 319.327 510.779C321.947 509.967 328.259 509.245 329.429 506.649C333.189 505.388 329.418 499.932 328.639 497.373C306.597 442.199 327.509 372.606 294.976 320.53C300.94 317.113 307.781 309.636 301.89 303.363C300.712 301.855 297.828 297.161 297.875 297.98C296.78 293.51 294.334 285.811 293.571 281.291C290.773 264.695 292.607 249.154 294.976 232.394C298.265 245.005 309.601 255.512 321.133 261.274C325.633 263.131 331.576 266.966 336.517 265.756C340.977 264.436 349.076 255.278 350.03 250.879C363.03 252.425 376.528 251.184 388.952 247.096C390.547 246.492 392.434 246.543 391.941 244.279C391.449 242.357 387.942 242.847 386.434 243.204C388.739 241.926 394.722 241.592 394.677 238.25C394.599 237.553 394.085 237.156 393.373 237.275Z" fill="#EDB98A"/>
<path fill-rule="evenodd" clip-rule="evenodd" d="M221.963 304.918L224.294 306.505L225.12 307.065C230.496 310.698 235.111 313.61 239.673 316.179L240.137 316.439L240.601 316.697C246.928 320.202 252.888 322.869 258.66 324.674C272.19 328.905 284.357 328.277 295.368 321.823L295.701 321.625L296.226 321.312L296.676 322.349L297.103 323.336C299.445 328.776 301.141 333.026 302.599 337.235L302.664 337.424L302.787 337.781C307.029 349.55 309.821 362.167 311.628 376.622L311.749 377.599C312.989 387.772 313.637 397.105 314.425 413.741L314.501 415.356L314.866 423.222C315.181 429.896 315.398 434.019 315.671 438.268L315.741 439.335L315.855 441.026L315.913 441.857C316.439 449.301 317.082 455.916 317.923 462.203L318.035 463.03C320.174 478.621 323.57 492.127 328.81 504.635L328.97 505.014L329.124 505.38L328.82 505.635C328.694 505.74 328.598 505.933 328.581 506.132L328.578 506.172L328.563 506.644L328.093 506.69C326.909 506.804 325.804 507.067 323.95 507.626L322.842 507.962L322.415 508.09C321.327 508.412 320.63 508.594 319.897 508.738L319.759 508.764L319.526 508.807L319.1 508.905L318.668 509.002C311.679 510.55 304.443 511.148 294.328 511.287L293.58 511.296L293.499 511.263L293.492 511.261L293.464 511.257C293.408 511.25 293.322 511.251 293.18 511.262L293.098 511.269L292.355 511.339L292.162 510.587C291.701 508.812 291.229 507.186 290.436 504.615L290.295 504.16L289.326 501.046C287.765 496.003 287.023 493.313 286.416 490.214L286.358 489.909L286.296 489.582L286.292 489.563C284.681 478.796 283.358 468.61 282.101 457.632L281.935 456.178C281.534 452.613 280.827 446.046 280.228 440.45L279.187 430.681L279.105 429.938C276.921 410.096 275.028 398.979 271.452 387.364C268.727 378.514 265.064 369.911 260.017 360.655L259.83 360.311L259.768 360.198L259.603 360.332C257.997 361.639 257.048 362.523 256.822 362.897L256.811 362.915L256.533 363.442L256.298 363.882L254.888 366.492C254.741 366.767 254.613 367.008 254.493 367.234L254.274 367.653L253.96 368.263L253.733 368.709L253.578 369.019L253.402 369.372L253.035 369.921L252.872 370.166L252.562 370.635L252.409 370.873C250.019 374.595 248.147 378.606 245.684 384.948L245.366 385.77L244.862 387.092L243.353 391.085L242.628 392.994L242.28 393.898C241.94 394.778 241.621 395.594 241.305 396.385L241.148 396.778L240.891 397.417L240.488 398.406L240.208 399.097C236.985 407.077 233.655 415.912 230.087 425.865L229.404 427.776L228.907 429.174C226.915 434.784 224.884 440.635 222.534 447.51L221.94 449.25L221.073 451.796L215.166 469.191L214.183 472.074L213.302 474.647L213.047 475.198L212.797 475.732C209.811 482.102 207.038 487.113 203.859 491.624L203.747 491.781L203.684 491.897L203.626 492C203.406 492.375 203.134 492.731 202.69 493.249L202.628 493.321L202.126 493.9L202.013 494.033C201.172 495.033 200.864 495.582 200.824 496.254L200.813 496.51L199.934 497.373L199.588 497.191L199.511 497.153C198.817 496.815 197.653 496.576 195.727 496.335L195.505 496.308L194.992 496.247L193.325 496.058C191.844 495.886 191.011 495.756 190.393 495.576L190.314 495.552L190.232 495.526L189.978 495.476C181.827 493.849 173.962 490.92 166.77 486.828L166.516 486.684L166.263 486.538L165.834 486.289L166.292 485.33C167.514 482.767 168.75 480.109 170.002 477.356C177.974 459.826 186.274 439.211 196.202 412.777L196.503 411.974L197.266 409.939L197.889 408.268C202.929 394.717 215.984 359.018 220.606 346.532L221.414 344.358L221.634 343.768L225.043 335.352L225.248 334.854C225.353 334.599 225.462 334.336 225.578 334.057L225.883 333.329L226.991 330.697L227.45 329.599C228.332 327.477 228.894 326.052 229.427 324.563L229.492 324.381L229.686 323.827C229.889 323.244 229.861 321.394 229.544 319.468L229.512 319.282L229.479 319.092C228.992 316.442 228.055 314.018 226.68 312.226L226.631 312.163L226.614 312.148L226.104 311.404C225.006 309.797 224.192 308.56 223.44 307.339L223.377 307.238L221.963 304.918Z" fill="#868AD8"/>
<path fill-rule="evenodd" clip-rule="evenodd" d="M328.26 523.143C329.06 523.936 335.201 528.651 343.494 532.624C348.563 535.051 354.739 536.306 359.959 538.709C365.59 541.301 370.175 545.045 372.976 547.753L375.86 555.462C375.422 558.257 362.456 560.028 348.848 560.479C328.915 561.14 304.146 559.226 301.78 558.974C297.697 558.599 284.977 559.017 287.322 552.351C287.988 552.561 288.198 548.275 288.667 547.862L289.07 544.595C290.229 535.271 290.908 530.254 291.108 529.544C291.16 529.462 291.214 529.382 291.273 529.306C291.962 528.415 293.129 528.165 294.203 528.231C294.29 528.236 294.378 528.247 294.466 528.26C294.612 528.336 294.753 528.426 294.887 528.533L295 528.549C295.018 528.551 295.037 528.554 295.057 528.557C295.095 528.563 295.13 528.574 295.162 528.587C295.189 528.542 295.213 528.494 295.236 528.446C295.902 528.649 296.579 528.923 297.228 528.955L297.697 529.161L298.305 529.432L300.059 530.221L300.451 530.395C302.712 531.388 308.387 533.516 313.607 532.803C318.661 532.111 322.906 527.087 324.469 525.764C325.605 524.721 327.201 524.235 328.26 523.143ZM197.747 517.13C198.244 517.261 200.439 518.595 202.329 520.403C204.116 522.111 205.534 524.242 208.196 526.18C212.04 528.981 226.803 534.328 234.853 539.462C239.027 542.124 241.688 550.808 241.757 551.209C216.427 552.663 186.216 552.379 161.128 548.373C160.651 548.234 160.854 537.205 161.988 529.804L162.023 529.581C162.841 524.382 163.77 521.524 163.827 521.402L163.891 521.294C164.932 519.595 167.781 517.768 169.626 519.011L169.643 519.026L169.989 519.338C171.637 520.818 178.523 526.748 183.305 525.308C184.87 524.8 186.17 523.783 187.532 522.897C191.197 520.53 193.612 518.554 197.747 517.13ZM198.48 516.802C198.817 517.019 199.137 517.264 199.446 517.526C199.043 517.284 198.617 517.084 198.157 516.941C198.257 516.904 198.355 516.863 198.448 516.818L198.48 516.802Z" fill="white"/>
<path fill-rule="evenodd" clip-rule="evenodd" d="M389.937 240.442C385.782 242.211 381.491 243.911 376.963 244.362C375.93 244.465 375.916 246.093 376.963 245.992C380.725 245.625 384.497 245.277 388.21 244.545C388.677 244.453 391.106 243.592 391.242 244.407C390.706 246.356 380.925 248.348 378.75 248.746C365.868 251.931 352.925 249.418 339.991 249.275C338.7 248.891 337.373 248.911 336.129 249.311C335.442 249.333 334.756 249.363 334.069 249.404C336.587 244.021 340.189 239.223 344.455 235.117C347.566 236.538 356.124 232.265 359.336 230.887C364.7 228.55 369.503 223.457 375.788 224.496C372.757 227.218 369.453 229.591 366.372 232.252C365.582 232.941 366.241 234.226 367.196 234.242C373.889 234.703 380.596 234.747 387.223 233.541C391.921 232.64 391.996 232.787 387.948 235.406C385.807 236.772 383.301 238.067 380.679 237.777C379.247 237.737 379.341 239.769 380.679 239.942C384.564 240.08 388.52 239.967 392.359 239.314C391.549 239.84 390.379 240.246 389.937 240.442ZM333.118 251.992C333.064 252.051 333.009 252.107 332.954 252.162C332.928 252.173 332.902 252.183 332.877 252.195C332.984 251.921 333.089 251.652 333.19 251.39C333.193 251.389 333.197 251.389 333.2 251.388C333.131 251.585 333.106 251.789 333.118 251.992ZM302.243 337.98C321.652 391.822 306.065 452.298 328.436 505.24C328.193 505.444 328.015 505.795 328.003 506.172C325.102 506.452 322.278 507.788 319.379 508.297C310.949 510.266 302.273 510.674 293.644 510.775C293.642 510.774 293.64 510.773 293.637 510.772C293.402 510.697 293.059 510.748 292.722 510.779C290.898 503.655 288.141 496.762 286.785 489.5C272.819 396.209 287.028 386.666 222.166 305.745C243.113 320.126 270.992 337.025 295.938 322.103C298.207 327.324 300.401 332.592 302.243 337.98ZM321.498 522.81C321.811 523.649 322.079 524.52 322.544 525.229C312.914 536.37 308.105 530.795 296.53 527.452C296.824 522.372 296.263 517.338 295.366 512.336C303.108 513.532 311.031 512.975 318.7 511.526C319.067 515.399 320.167 519.167 321.498 522.81ZM328.638 524.386C330.584 526.314 332.688 528.123 335.044 529.558C333.536 530.801 330.159 531.704 329.945 533.837C329.98 535.765 333.071 535.921 332.329 534.11C333.633 532.77 335.282 531.814 336.675 530.558C338.093 531.395 339.547 532.147 341.029 532.84C339.648 533.943 337.597 534.809 337.293 536.709C337.186 537.637 338.202 538.069 338.934 537.959C340.817 537.288 341.857 535.036 343.548 533.954C353.784 538.081 365.526 540.626 372.395 550.039C372.148 550.165 371.97 550.349 371.856 550.565C369.176 550.146 366.431 551.184 363.749 551.436C355.453 552.683 347.082 553.432 338.699 553.735C324.616 554.167 310.492 553.369 296.517 551.65C294.492 551.312 292.469 550.778 290.519 550.076C290.908 545.183 291.466 540.202 291.672 535.243C291.903 535.057 292.04 534.735 291.987 534.408C291.826 533.405 291.869 531.971 292.203 530.786C292.255 530.705 292.308 530.625 292.367 530.549C293.057 529.658 294.223 529.408 295.298 529.473C295.385 529.479 295.473 529.49 295.561 529.503C295.707 529.579 295.848 529.669 295.982 529.776C296.038 529.784 296.093 529.79 296.151 529.8C296.19 529.806 296.225 529.817 296.257 529.83C296.284 529.785 296.307 529.737 296.331 529.688C296.996 529.892 297.673 530.166 298.323 530.197C303.536 532.477 308.791 535.355 314.619 534.267C319.056 533.547 321.638 529.724 324.848 527.007C325.984 525.964 327.58 525.478 328.638 524.386ZM372.759 552.707C386.17 562.481 306.871 558.354 302.517 557.89C298.435 557.515 285.715 557.933 288.059 551.267C288.765 551.49 289.561 551.286 290.021 550.819C304.402 559.37 357.025 558.708 372.759 552.707ZM256.287 362.7C255.377 364.437 254.412 366.145 253.517 367.891C253.308 368.299 253.102 368.709 252.897 369.119C252.62 369.533 252.345 369.946 252.073 370.36C247.082 378.037 244.364 387.393 240.228 397.542C229.93 422.815 220.152 453.007 212.764 474.464C210.034 480.377 207.025 486.196 203.249 491.518C202.413 493.135 200.324 494.449 200.246 496.293C200.224 496.315 200.201 496.337 200.178 496.359C200.052 496.484 199.925 496.609 199.798 496.733C197.831 495.702 192.274 495.673 190.331 495.023C181.961 493.385 173.872 490.362 166.494 486.09C186.076 445.134 205.923 387.205 222.092 343.987C223.184 341.305 224.264 338.617 225.354 335.934C226.96 331.98 228.754 328.052 230.154 324.021C230.591 322.762 230.914 321.413 230.871 320.075C239.888 333.31 249.336 346.334 257.264 360.268C257.06 361.124 256.675 361.959 256.287 362.7ZM197.984 501.482C196.496 506.054 194.906 510.646 193.764 515.32C193.714 515.534 193.703 515.735 193.722 515.922C193.71 515.954 193.698 515.985 193.687 516.016C193.489 516.534 193.227 516.98 193.295 517.475C182.02 522.417 184.048 528.319 172.305 519.491C171.915 519.268 171.501 519.046 171.073 518.855C171.091 518.804 171.108 518.752 171.121 518.694C171.394 517.469 171.572 516.228 171.654 514.977C172.082 513.133 172.491 511.282 172.956 509.446C173.569 507.68 174.191 505.915 174.784 504.146C174.845 503.999 174.906 503.853 174.967 503.706C175.866 501.579 176.736 499.295 176.924 496.99C177.035 496.543 177.14 496.096 177.241 495.648C177.526 495.56 177.723 495.361 177.832 495.119C184.56 497.452 191.631 499.357 198.78 499.449C198.498 500.12 198.222 500.793 197.984 501.482ZM199.201 518.373C201.321 518.932 202.438 521.021 203.777 522.703C202.236 523.769 200.965 525.307 200.082 526.973C199.496 527.515 198.95 528.093 198.464 528.72C197.857 529.629 199.24 530.696 199.979 529.889C201.517 527.865 203.088 525.78 205.226 524.331C206.257 525.46 207.357 526.522 208.5 527.542C207.467 528.282 206.569 529.181 205.857 530.236C204.503 531.248 203.407 532.404 203.968 533.318C204.514 534.199 205.559 533.719 206.068 533.083C207.189 531.518 208.437 529.961 210.018 528.85C213.666 531.95 217.812 534.362 222.314 535.98C228.274 538.196 236.076 539.973 238.367 546.702C228.299 546.824 218.213 546.947 208.147 546.414C193.438 545.931 178.885 543.644 164.246 542.439C164.341 542.316 164.372 542.154 164.262 542.011C163.96 541.615 163.512 541.436 163.198 541.058C163.598 539.426 162.846 536.978 163.128 535.482C163.08 531.078 164.65 522.088 164.745 521.926C165.769 520.168 167.765 518.986 169.648 520.254C169.778 520.342 177.906 528.184 183.326 526.551C184.892 526.043 186.192 525.026 187.554 524.14C191.219 521.773 195.066 519.797 199.201 518.373ZM240.347 551.02C215.016 552.474 189.446 552.149 164.358 548.143C163.534 547.904 162.793 547.506 162.213 546.983C162.158 546.349 162.118 545.714 162.1 545.078C162.09 544.752 161.907 543.651 162.26 543.447C162.458 543.332 162.592 543.185 162.674 543.023C171.647 546.095 181.472 546.606 190.85 547.839C206.89 549.166 223.288 550.591 239.302 549.229C239.738 549.791 240.23 550.346 240.347 551.02ZM162.768 541.967C162.869 542.109 162.984 542.24 163.114 542.349C162.989 542.339 162.864 542.328 162.739 542.318C162.719 542.241 162.691 542.165 162.656 542.093C162.696 542.053 162.733 542.01 162.768 541.967ZM174.245 499.473C174.4 498.803 174.578 498.101 174.739 497.389C174.625 498.285 174.398 499.174 174.11 500.052C174.155 499.859 174.201 499.666 174.245 499.473ZM220.821 304.994C220.847 304.974 220.87 304.952 220.891 304.925C221.095 305.055 221.299 305.184 221.502 305.315C222.15 306.614 222.883 307.898 223.662 309.172C222.712 307.792 221.789 306.369 220.821 304.994ZM197.016 291.053C196.976 290.661 196.91 290.265 196.833 289.872C197.047 290.191 197.281 290.495 197.53 290.779C197.745 291.022 197.973 291.251 198.213 291.467C197.817 291.321 197.419 291.181 197.016 291.053ZM197.062 291.979C197.065 291.77 197.058 291.558 197.043 291.344C197.262 291.489 197.484 291.631 197.707 291.77C197.487 291.823 197.272 291.893 197.062 291.979ZM194.004 266.209C193.519 271.661 192.965 277.28 194.355 282.642C188.607 273.254 181.336 265.768 180.026 254.269C180.434 254.155 180.813 253.985 181.13 253.743C184.104 255.151 184.615 250.818 185.054 248.814C186.241 244.572 187.661 240.398 188.745 236.128C191.592 234.873 185.873 234.341 185.042 234.316C185.076 234.289 185.109 234.26 185.141 234.228C188.5 230.282 190.119 224.984 192.545 220.437C196.16 212.666 199.397 204.723 202.287 196.655C205.095 220.204 196.379 243.013 194.004 266.209ZM188.719 288.042C187.298 286.122 186.099 284.027 185.176 281.825C185.04 281.498 184.729 281.113 184.315 281.169C181.97 281.483 181.198 283.722 181.241 285.842C182.278 293.742 185.844 301.283 190.429 307.744C175.696 292.721 170.409 271.582 166.709 251.489C170.523 252.544 174.275 254.047 178.229 254.465C180.539 273.273 194.65 278.904 195.114 292.56C194.446 295.404 189.44 288.992 188.719 288.042ZM329.419 229.947C329.384 229.956 329.351 229.968 329.319 229.987C329.289 230.005 329.261 230.023 329.232 230.041C329.179 229.963 329.123 229.887 329.064 229.814C329.182 229.858 329.3 229.904 329.419 229.947ZM346.007 234.976C345.539 235.049 345.086 235.041 344.675 234.903C344.769 234.813 344.861 234.721 344.955 234.632C345.024 234.567 345.196 234.386 345.407 234.188C345.515 234.512 345.725 234.8 346.007 234.976ZM395.205 237.89C395.127 237.181 394.613 236.775 393.902 236.897C392.113 237.203 390.331 237.425 388.547 237.574C390.889 236.151 395.937 233.307 391.575 230.871C390.229 230.37 388.63 230.899 387.273 231.119C381.639 232.064 375.922 232.46 370.222 231.984C372.299 230.246 374.45 228.596 376.478 226.798C377.556 225.843 378.779 224.569 377.567 223.142C375.431 221.114 370.715 222.608 368.245 223.499C361.431 227.389 354.862 231.524 347.549 234.517C347.472 233.473 347.825 232.208 346.837 231.506C343.94 230.115 340.374 230.522 337.29 230.151C333.697 229.602 330.502 228.795 326.943 227.827C324.615 226.017 324.269 221.229 320.547 221.825C323.843 213.371 317.745 205.097 315.857 197.002C313.501 188.717 312.263 180.113 312.23 171.498C312.208 157.709 304.367 147.123 293.04 140.047C292.85 139.891 292.661 139.731 292.472 139.572C291.983 139.057 291.503 138.527 291.036 137.982C290.049 136.831 289.095 135.651 288.094 134.513C287.638 133.803 287.156 133.112 286.592 132.48C286.093 131.863 285.533 131.306 284.816 130.87C284.76 130.836 284.702 130.806 284.645 130.773C283.449 129.956 282.097 129.386 280.668 129.103C279.992 126.497 279.271 123.903 278.684 121.276C278.415 120.615 278.066 115.825 277.342 116.357C276.434 118.659 277.263 139.483 281.696 136.763C282.132 142.179 282.218 149.961 276.247 152.356C265.786 155.615 252.326 132.212 247.996 124.297C249.191 124.759 250.206 121.977 250.714 119.115C250.926 118.437 251.1 117.746 251.242 117.051C251.394 116.308 251.611 115.526 251.438 114.778C251.381 114.533 251.193 114.37 250.973 114.302C250.893 113.85 250.758 113.549 250.56 113.469C250.401 113.822 250.273 114.189 250.162 114.565C250.153 114.579 250.143 114.592 250.135 114.608C249.824 115.203 249.792 115.886 249.663 116.542C249.549 117.001 249.424 117.456 249.264 117.895C248.858 119.012 248.284 120.007 247.724 121.02C246.646 119.852 244.947 119.262 243.343 119.08C241.794 118.904 240.212 118.893 238.656 118.844C237.16 118.796 235.552 118.736 234.097 119.114C234.025 119.133 234.012 119.203 234.04 119.256C201.888 120.992 169.223 169.083 161.291 195.765C158.269 206.193 156.575 217.209 157.696 228.059C156.935 227.945 153.562 227.406 153.611 228.492C153.776 233.214 154.629 237.882 154.864 242.601C154.63 248.852 161.004 249.605 165.607 251.147C165.324 269.283 171.79 287.424 181.91 302.333C184.368 305.266 189.079 314.171 193.567 310.115C194.096 309.485 193.976 308.735 193.328 308.256C192.269 307.472 191.518 306.204 190.789 305.125C188.297 301.929 180.583 286.293 183.816 283.133C185.443 286.608 191.346 297.025 195.977 294.725C196.673 294.11 196.972 293.281 197.045 292.366C197.228 292.411 197.411 292.454 197.596 292.491C199.212 293.924 203.957 296.043 205.674 295.894C206.247 296.176 206.82 296.459 207.392 296.743C208.977 297.637 210.55 298.55 212.113 299.48C213.35 300.301 214.621 301.06 215.913 301.785C216.661 302.247 217.407 302.714 218.15 303.183C218.727 304.682 219.738 306.118 220.533 307.415C221.029 308.225 221.584 309.229 222.25 310.107C222.982 311.292 223.799 312.42 224.637 313.476C225.746 314.872 227.131 316.103 228.115 317.589C229.213 319.25 229.058 321.067 228.48 322.892C227.879 324.787 227.021 326.612 226.259 328.446C225.435 330.429 224.611 332.413 223.788 334.397C222.186 338.254 220.584 342.111 218.983 345.969C218.068 348.17 217.169 350.38 216.284 352.594C215.981 353.352 215.705 354.117 215.444 354.886C198.742 394.126 180.926 448.012 162.725 485.863C160.927 488.203 169.635 491.81 174.446 493.751C174.467 493.818 174.486 493.884 174.506 493.95C173.786 495.501 173.428 497.329 173.012 498.952C172.49 500.987 171.956 503.019 171.411 505.049C170.864 507.08 170.319 509.122 169.797 511.17C169.093 512.972 168.384 514.766 167.637 516.527C167.608 516.601 167.578 516.676 167.548 516.751C166.588 516.805 165.748 517.211 165.11 517.854C165.035 517.877 164.963 517.925 164.903 518.002C161.244 522.905 160.03 529.329 159.723 535.32C159.894 537.114 159.206 540.677 160.604 542.09C160.259 542.495 160.065 543.011 159.966 543.577C159.116 544.63 159.295 546.462 159.876 547.643C162.098 554.152 212.32 554.395 220.814 554.312C227.742 554.185 234.622 553.777 241.52 553.134C242.589 552.907 242.801 552.01 242.606 551.005C242.818 549.815 242.384 548.264 241.444 547.401C241.646 547.078 241.72 546.666 241.576 546.189C237.24 533.551 221.208 534.406 211.723 527.656C211.853 527.58 211.969 527.51 212.077 527.444C212.285 527.372 212.494 527.304 212.705 527.243C213.701 526.957 213.269 525.38 212.277 525.69C211.509 525.93 210.771 526.23 210.073 526.587C208.751 525.688 207.467 524.705 206.262 523.64C206.619 523.415 206.981 523.199 207.346 522.987C207.87 522.889 208.413 522.838 208.976 522.835C209.694 522.831 209.892 522.12 209.614 521.652C209.671 521.617 209.728 521.585 209.784 521.549C209.702 521.536 209.615 521.531 209.525 521.53C209.398 521.386 209.215 521.281 208.976 521.258C207.412 521.104 205.948 521.469 204.643 522.174C203.098 520.655 201.69 518.831 199.609 518.184C201.281 517.573 202.064 515.723 199.949 515.188C199.018 515.104 198.061 515.452 197.161 515.833C198.458 510.518 199.434 505.083 200.21 499.681C200.431 499.719 200.65 499.743 200.865 499.749C201.74 499.771 202.329 499.103 202.753 498.31C202.8 498.303 202.847 498.296 202.892 498.289C204.481 497.62 205.218 495.787 206.316 494.541C209.75 489.803 212.639 484.675 215.096 479.369C224.13 453.411 237.599 410.23 248.511 385.716C252.004 377.866 255.123 370.715 258.753 362.92C285.046 406.581 272.24 460.162 288.459 506.719C289.163 508.086 290.473 513.118 292.283 511.942C292.294 511.95 292.304 511.958 292.317 511.966C292.656 512.157 292.996 512.39 293.365 512.517C293.539 512.576 293.694 512.516 293.803 512.405C293.966 513.064 293.93 513.83 293.961 514.474C294.004 515.35 294.027 516.227 294.037 517.104C294.057 518.84 294.013 520.577 293.899 522.31C293.738 523.784 293.549 525.255 293.319 526.723C292.463 526.882 291.673 527.32 291.103 528.029C290.267 529.072 289.971 530.404 289.772 531.696C289.723 532.01 289.683 532.321 289.662 532.625C288.593 536.727 287.565 542.71 287.431 543.627C287.428 545.515 285.83 549.72 287.289 550.842C285.187 551.719 284.844 554.958 286.322 556.624C290.712 562.637 312.109 560.984 320.003 561.992C329.985 561.74 374.43 565.548 377.329 555.898C377.906 553.695 376.917 550.914 374.908 550.066C375.712 548.154 373.786 546.306 372.608 544.964C365.66 537.599 355.486 535.089 346.236 531.884C346.58 531.524 348.67 530.217 348.396 529.879C346.876 529.946 345.402 530.431 344.02 531.095C342.202 530.427 340.395 529.714 338.633 528.899C343.651 524.768 340.718 526.041 337.243 528.23C336.861 528.029 336.477 527.829 336.093 527.629C336.131 527.461 336.092 527.278 335.939 527.135C335.452 526.679 334.819 526.497 334.222 526.22C333.582 525.923 332.96 525.583 332.362 525.209C331.255 524.517 330.325 523.417 329.168 522.842C328.992 522.754 328.81 522.703 328.629 522.68C327.881 522.004 326.073 522.645 325.23 523.266C325.216 523.259 325.204 523.254 325.191 523.249C323.074 519.435 321.496 515.367 320.077 511.254C322.696 510.426 328.592 510.114 329.762 507.47C333.522 506.185 330.792 500.483 330.013 497.876C307.972 441.677 328.983 374.832 296.452 321.789C302.315 318.368 308.869 310.19 303.491 303.844C303.341 303.549 303.176 303.261 303.009 302.984C302.201 301.643 301.331 300.346 300.537 298.996C300.496 298.825 300.461 298.652 300.436 298.473C300.389 298.147 300.185 297.986 299.944 297.947C299.147 296.482 298.438 294.978 297.767 293.45C293.618 273.854 292.501 253.774 295.264 233.858C298.553 246.703 309.238 256.384 320.769 262.253C325.269 264.145 331.212 268.051 336.153 266.819C340.612 265.475 348.711 256.146 349.666 251.665C362.665 253.24 376.162 251.976 388.585 247.812C390.18 247.197 393.288 246.265 392.795 243.959C392.303 242.001 389.973 242.416 388.465 242.779C390.769 241.477 395.251 241.294 395.205 237.89Z" fill="black"/>
<path fill-rule="evenodd" clip-rule="evenodd" d="M277.45 58.1953C256.896 57.4436 237.257 71.287 230.644 90.854C230.164 92.3888 231.659 93.8226 233.168 93.5631C231.625 101.349 234.997 111.83 243.781 112.935C245.581 113.162 247.389 113.031 249.191 113.197C250.797 113.344 259.54 118.273 262.814 119.428C269.707 121.841 287.051 121.399 293.951 119.428C294.202 120.001 299.561 97.9787 300.781 91.1509C301.226 88.1926 297.16 86.0024 297.46 82.9539C297.845 79.038 302.415 74.2635 301.015 70.5355C297.324 61.0471 286.612 58.3995 277.45 58.1953Z" fill="#EDB98A"/>
<path fill-rule="evenodd" clip-rule="evenodd" d="M267.242 40.9468C268.166 41.0238 269.094 41.1544 270.007 41.3263C272.78 40.8717 275.65 41.3764 278.34 42.2515C284.639 44.3008 290.702 47.8588 295.449 52.5031C297.892 54.8942 299.89 57.6486 301.121 60.8522C301.746 62.4773 302.097 64.2115 302.199 65.9494L302.21 66.16C302.239 66.7365 302.252 67.4279 302.183 68.1128C302.403 69.4953 302.599 70.8892 302.614 72.2875C302.621 72.9352 302.579 73.5818 302.5 74.2242L302.527 74.2852C302.413 75.0521 302.277 75.8158 302.122 76.5755L302.083 76.6258C302.062 76.7803 302.038 76.9344 302.015 77.0885C301.93 77.479 301.842 77.8686 301.749 78.2568C301.547 79.0974 301.323 79.9325 301.082 80.7626C301.04 80.9081 301.08 81.0228 301.159 81.0982C300.984 81.7299 300.792 82.3571 300.579 82.9774C300.683 83.5202 300.789 84.0629 300.901 84.6037C301.485 87.4172 301.98 90.2485 302.644 93.0459C303.99 98.7229 306.037 104.309 306.6 110.145C307.037 114.671 306.31 119.62 303.503 123.317C301.083 126.503 297.443 128.384 293.513 128.885C291.632 129.127 289.703 129.016 287.864 128.54L287.664 128.487C286.742 128.238 285.57 127.849 284.714 127.223C283.785 126.895 282.908 126.29 282.38 125.699C281.658 124.892 280.87 123.512 281.067 122.365C279.994 122.453 278.913 122.478 277.851 122.474C275.232 122.469 272.591 122.261 270.073 121.499C267.826 120.819 265.208 119.682 263.88 117.631C263.817 117.535 263.921 117.395 264.03 117.433C265.103 117.81 266.107 118.32 267.214 118.609C268.303 118.891 269.393 119.158 270.516 119.274C272.712 119.501 274.941 119.471 277.145 119.362L277.901 119.322C280.259 119.196 282.696 119.015 284.901 118.131C285.766 117.784 286.567 117.3 287.297 116.724L287.412 116.633C287.803 116.314 288.207 116.046 288.618 115.792C288.677 115.716 288.735 115.641 288.794 115.564C289.728 114.363 290.732 113.205 291.573 111.936C293.245 109.418 293.889 106.802 293.977 103.799C294.069 100.629 294.079 97.4543 294.117 94.2834L294.131 93.2266C294.179 89.6006 294.186 85.9621 294.465 82.3451C294.593 80.6646 294.776 78.992 295.056 77.3315L295.118 76.9759L295.572 74.4148C295.681 73.7979 295.745 73.1621 295.884 72.5479C295.727 72.2902 295.546 72.0421 295.336 71.8059C295.142 71.5881 294.945 71.3767 294.749 71.1668L294.607 71.0415C294.284 70.7521 294.006 70.4759 293.745 70.0778L293.682 69.9793C293.402 69.6409 293.138 69.2868 292.905 68.8979L292.862 68.8224C292.804 68.7492 292.746 68.6758 292.686 68.6035C292.499 68.3782 292.303 68.1654 292.1 67.9615C291.389 69.3379 290.383 70.53 288.96 71.2752C288.445 71.5448 287.817 71.3139 287.648 70.7405C287.222 69.2929 286.575 67.9469 285.719 66.7279C284.29 69.1115 282.024 70.9758 279.353 71.8855C278.686 72.1128 278.098 71.4113 278.255 70.7847C278.737 68.8587 278.832 66.9002 278.549 64.9641C277.541 65.6861 276.501 66.366 275.434 66.9963C273.058 68.8367 270.541 70.4929 267.772 71.6822C267.132 71.9571 266.17 71.4952 266.46 70.6717C266.705 69.9784 266.906 69.2735 267.035 68.5495L267.064 68.3821C267.065 68.3771 267.065 68.3721 267.066 68.3669C260.653 77.2318 245.103 85.7744 243.909 85.8566L243.877 85.8569C244.622 86.5704 245.224 87.4521 245.617 88.4652C246.031 89.5293 244.345 89.9927 243.909 88.9752L243.895 88.9411C243.225 87.2147 241.566 85.9773 239.761 85.6847C238.671 85.8832 237.64 86.4103 236.936 87.2096C235.552 88.7827 235.54 90.6798 236.484 92.4696L236.623 92.7303C237.134 93.6864 237.673 94.6447 237.961 95.6947C238.313 96.9833 238.047 98.2898 238.277 99.5766L238.29 99.6448C238.399 100.217 238.635 100.868 239.315 100.711C239.367 100.699 239.418 100.683 239.469 100.665C239.612 100.78 239.785 100.875 240 100.937C240.526 101.091 241.108 101.017 241.632 100.892C242.138 100.772 242.629 100.584 243.102 100.364C243.155 100.494 243.187 100.629 243.19 100.76C243.206 101.425 242.931 101.973 242.508 102.419C243.183 103.274 243.76 104.216 244.41 105.089C245.344 106.342 246.299 107.568 247.316 108.754C248.373 109.991 249.525 111.16 250.719 112.264C251.557 113.037 252.941 113.864 253.466 114.986C254.07 115.174 254.582 115.638 254.77 116.4C255.111 117.782 255.211 121.019 254.943 122.424C254.677 123.817 253.663 124.685 252.541 125.418C252.23 125.623 251.879 125.601 251.593 125.449C251.341 125.694 251.057 125.92 250.732 126.12C249.532 126.863 248.137 127.133 246.755 127.289C244.889 127.887 242.876 128.044 240.886 127.672C240.236 127.749 239.586 127.819 238.934 127.876C232.266 128.457 225.487 127.962 218.983 126.371C215.998 125.64 213.181 124.313 210.555 122.609C206.03 119.67 204.115 111.423 206.74 103.539L206.948 102.917C208.132 99.3952 209.407 95.8915 211.118 92.6056L211.322 92.2147C212.894 89.2177 214.623 86.2239 216.92 83.7232C218.07 82.4721 219.406 81.3357 220.915 80.541C221.488 80.2396 222.157 80.0306 222.81 79.7934L222.824 79.6295L222.838 79.4658C222.881 78.9406 222.936 78.4164 223.006 77.8935C223.27 75.9377 223.643 74.0107 224.172 72.108C224.702 70.2028 225.353 68.3297 226.137 66.5142C227.445 63.4853 229.087 60.612 230.983 57.916C231.118 57.6375 231.256 57.3601 231.396 57.0848C232.995 53.9546 235.064 50.9693 237.734 48.6588C240.799 46.0064 244.49 44.3598 248.342 43.2037C252.337 42.0064 256.506 41.1867 260.669 40.911C262.86 40.7661 265.055 40.7643 267.242 40.9468ZM238.025 91.2348C240.031 89.9193 242.763 90.8212 243.779 92.9583C244.513 94.5064 242.086 95.378 241.702 93.8353C241.32 92.2889 239.679 91.1811 238.102 91.4173C237.993 91.4352 237.925 91.2992 238.025 91.2348Z" fill="black"/>
<path fill-rule="evenodd" clip-rule="evenodd" d="M266.932 100.905C268.886 99.7276 276.192 100.59 281.931 100.905C286.489 101.154 289.744 100.66 290.786 101.361C293.14 102.945 291.996 110.606 287.94 111.654C283.884 112.702 268.849 114.165 266.257 111.654C263.664 109.143 263.425 103.016 266.932 100.905Z" fill="white"/>
<path fill-rule="evenodd" clip-rule="evenodd" d="M269.463 98.8783C272.531 98.506 275.505 99.4452 278.504 99.9187C280.087 100.169 281.673 100.355 283.275 100.424C283.598 100.439 283.92 100.447 284.243 100.453C284.273 100.169 284.432 99.9087 284.776 99.7525C285.482 99.4326 286.046 99.2883 286.821 99.3192C287.531 99.3471 288.242 99.4201 288.941 99.5479C290.209 99.7805 291.483 100.308 292.411 101.225C294.558 103.346 294.231 106.754 292.572 109.064C289.145 113.839 282.889 114.061 277.531 113.998L277.037 113.992C272.158 113.922 265.178 114.65 262.962 109.099C262.147 107.058 262.26 104.692 263.258 102.734C264.448 100.399 266.954 99.1829 269.463 98.8783ZM284.702 106.828L284.658 106.83C282.409 106.916 280.16 106.977 277.91 107.017C277.977 107.595 278.046 108.173 278.124 108.75C278.186 109.204 278.252 109.657 278.321 110.11C278.35 110.302 278.457 110.599 278.426 110.789L278.416 110.864C278.531 110.917 278.636 111.001 278.714 111.123C278.741 111.165 278.761 111.208 278.78 111.25C280.528 111.264 282.408 111.23 284.189 110.912L284.193 110.874C284.225 110.646 284.32 110.493 284.445 110.388C284.57 109.662 284.559 108.889 284.607 108.169C284.638 107.722 284.67 107.275 284.702 106.828ZM276.191 107.048C274.57 107.075 272.948 107.097 271.327 107.077L270.591 107.066C270.746 107.899 270.916 108.73 271.056 109.569C271.203 110.444 270.433 111 269.767 110.978C269.841 110.99 269.916 111.002 269.991 111.013C272.073 111.307 274.234 111.229 276.347 111.227C276.233 110.564 276.279 109.815 276.262 109.261L276.259 109.176C276.226 108.466 276.204 107.757 276.191 107.048ZM265.179 106.895C265.235 107.328 265.345 107.753 265.508 108.148C266.2 109.816 267.787 110.595 269.465 110.923C269.174 110.823 268.943 110.581 268.885 110.167C268.739 109.138 268.687 108.092 268.683 107.047C267.513 107.036 266.335 107.011 265.179 106.895ZM290.803 106.539C289.97 106.735 289.002 106.645 288.185 106.682C287.419 106.717 286.653 106.747 285.888 106.778C285.924 107.301 285.959 107.823 285.997 108.346C286.046 109.021 286.051 109.734 286.18 110.407C287.721 109.881 289.102 109.037 290.137 107.689C290.396 107.353 290.627 106.959 290.803 106.539ZM269.111 101.616C267.725 101.945 266.413 102.638 265.707 103.907C265.289 104.66 265.105 105.552 265.14 106.432C266.312 106.295 267.504 106.243 268.69 106.201C268.694 105.987 268.699 105.774 268.706 105.561L268.724 105.015C268.756 103.974 268.772 102.667 269.111 101.616ZM276.288 101.743L275.677 101.675C273.982 101.482 272.288 101.279 270.592 101.395C270.347 101.412 270.098 101.439 269.848 101.475C270.148 102.557 270.123 103.827 270.248 104.897C270.296 105.311 270.357 105.722 270.425 106.131L270.719 106.117C272.538 106.018 274.359 105.958 276.18 105.885C276.18 105.544 276.182 105.201 276.187 104.859L276.194 104.517C276.215 103.643 276.158 102.659 276.288 101.743ZM284.801 101.605C283.026 101.891 281.191 101.952 279.446 101.954C278.75 101.955 278.054 101.912 277.358 101.851C277.403 102.221 277.427 102.596 277.461 102.961C277.529 103.7 277.608 104.437 277.693 105.174L277.769 105.818C280.007 105.717 282.245 105.607 284.482 105.494L284.798 105.477L284.886 104.238C284.947 103.412 285.013 102.586 285.106 101.764L285.036 101.739C284.954 101.705 284.875 101.658 284.801 101.605ZM285.572 101.912C285.67 103.08 285.724 104.253 285.796 105.422L287.271 105.344C287.517 105.33 287.763 105.317 288.009 105.302C288.964 105.247 290.192 104.958 291.137 105.228C291.209 104.369 290.964 103.532 290.189 102.955C288.828 101.941 287.095 102.302 285.572 101.912ZM280.533 91.4719C282.73 90.2141 288.24 88.9285 288.589 92.8811C288.75 94.7 287.397 96.2071 285.818 96.8796L285.759 96.9044C284.278 97.5133 281.653 98.2009 280.372 96.8806C279.305 95.7817 280.72 93.8114 282.045 94.7117C282.726 95.1741 284.16 94.8334 284.92 94.6133L284.968 94.5994C285.788 94.3584 286.881 93.5868 286.542 92.5769C286.242 91.6834 284.965 91.5202 284.165 91.4912C282.971 91.4484 281.81 91.7257 280.627 91.8159C280.439 91.8302 280.381 91.5589 280.533 91.4719ZM289.631 85.1161C292.611 84.9765 294.466 88.2313 293.78 90.8982C293.662 91.3583 293.147 91.81 292.65 91.7583L292.525 91.7468C292.461 91.7407 292.398 91.7326 292.339 91.7164C291.867 91.5858 291.444 91.095 291.479 90.5864L291.488 90.4382C291.557 89.1784 291.421 87.7269 289.924 87.4218C288.654 87.163 287.945 88.3852 287.93 89.5102C287.927 89.71 287.703 89.8494 287.526 89.742C286.608 89.1834 286.449 88.0722 286.8 87.1152C287.244 85.9027 288.356 85.1757 289.631 85.1161ZM267.51 85.8142C269.68 85.0904 272.02 86.2468 273.07 88.1646C273.439 88.2713 273.807 88.5553 273.755 88.9902C273.682 89.6159 273.57 90.0104 273.136 90.4848C272.458 91.2271 271.187 90.8476 270.905 89.9339L270.893 89.8926C270.573 88.7116 269.273 87.9323 268.089 88.3458C266.705 88.8286 266.745 90.2898 265.775 91.141C265.661 91.241 265.524 91.2569 265.387 91.1909C264.357 90.6928 264.542 89.1937 264.909 88.3357C265.391 87.2098 266.328 86.2085 267.51 85.8142ZM264.556 79.2266C266.314 77.433 270.897 75.6973 272.1 79.0096C272.329 79.6404 271.841 80.4911 271.184 80.6219C270.109 80.836 269.155 80.369 268.086 80.4528C267.221 80.521 266.319 80.81 265.628 81.3459C263.712 82.8299 263.291 85.34 261.956 87.2289C261.891 87.3209 261.765 87.2822 261.753 87.1738C261.449 84.4238 262.631 81.1911 264.556 79.2266ZM287.48 77.4609C288.647 77.0489 289.968 77.0842 291.14 77.4496C292.322 77.818 293.406 78.5174 294.241 79.4312C294.62 79.8461 294.971 80.3039 295.252 80.7912C295.402 81.0495 295.559 81.583 295.729 81.9007C296.648 82.4312 297.041 83.6402 296.218 84.5003L296.181 84.538L296.071 84.6472C295.628 85.085 294.962 85.2747 294.358 85.0998C293.007 84.709 292.843 83.645 292.375 82.5156C292.067 81.7697 291.537 81.1096 290.896 80.6248C289.379 79.4794 286.893 79.1144 285.067 79.6542C284.97 79.683 284.856 79.5592 284.925 79.4693C285.271 79.0212 285.471 78.6534 285.934 78.2919C286.404 77.925 286.917 77.6599 287.48 77.4609Z" fill="black"/>
<path fill-rule="evenodd" clip-rule="evenodd" d="M298.409 88.6691C297.903 90.0465 297.133 91.4804 296.191 92.6396C292.38 95.8668 288.677 94.08 286.797 89.706C286.083 86.615 287.98 83.2854 289.99 81.0116C292.892 78.102 297.63 79.629 298.964 83.0878C299.046 83.536 299.095 83.983 299.118 84.4287C299.09 85.8767 298.916 87.1143 298.409 88.4901M261.779 85.8912C266.799 79.9194 276.191 79.6001 275.951 88.7913C274.873 100.425 256.713 97.5697 261.779 85.8912ZM299.988 80.9094C299.812 80.6115 299.617 80.3231 299.404 80.0473C299.325 80.0004 299.28 79.5845 298.99 79.5537C295.12 75.2836 288.321 77.7064 285.864 81.9613C285.415 82.4993 285.049 83.1291 284.779 83.7945C282.359 83.3505 279.536 83.4367 277.285 84.3511C275.053 78.5216 268.294 78.0011 263.84 80.4919C261.07 81.8544 259.274 84.7078 256.58 86.2752C250.246 86.7311 243.449 85.312 237.23 86.9007C232.325 87.9205 236.425 90.4041 237.248 88.7467C243.111 87.0142 250.058 88.4782 256.146 88.0879C256.779 89.1587 257.992 90.0349 259.202 89.9975C260.509 101.581 277.4 99.6601 277.983 89.3632C278.644 88.3182 279.466 87.3181 280.642 86.667C281.093 86.5738 281.528 86.4526 281.926 86.265C282.605 86.1691 283.653 86.4572 284.278 87.0232C286.42 99.8763 298.761 98.3793 300.966 87.1194C301.01 87.0747 301.132 86.9068 301.226 86.6375C301.981 85.6393 303.829 85.2683 303.534 83.5833C303.271 81.8979 301.143 81.918 299.988 80.9094Z" fill="black"/>
</svg>
