<svg width="108" height="27" viewBox="0 0 108 27" fill="none" xmlns="http://www.w3.org/2000/svg">
<path d="M23.02 13.22C23.02 15.716 22.48 17.936 21.4 19.88C20.344 21.8 18.808 23.3 16.792 24.38C14.8 25.46 12.448 26 9.736 26H0.124V0.547999H9.736C12.472 0.547999 14.836 1.076 16.828 2.132C18.82 3.188 20.344 4.676 21.4 6.596C22.48 8.516 23.02 10.724 23.02 13.22ZM9.196 20.492C11.596 20.492 13.456 19.856 14.776 18.584C16.12 17.312 16.792 15.524 16.792 13.22C16.792 10.916 16.12 9.128 14.776 7.856C13.456 6.584 11.596 5.948 9.196 5.948H6.28V20.492H9.196ZM45.6063 15.416C45.6063 15.92 45.5463 16.472 45.4263 17.072H31.4943C31.5663 18.584 31.9503 19.676 32.6463 20.348C33.3423 20.996 34.2303 21.32 35.3103 21.32C36.2223 21.32 36.9783 21.092 37.5783 20.636C38.1783 20.18 38.5743 19.592 38.7663 18.872H45.2823C45.0183 20.288 44.4423 21.56 43.5543 22.688C42.6663 23.792 41.5383 24.668 40.1703 25.316C38.8023 25.94 37.2783 26.252 35.5983 26.252C33.6303 26.252 31.8783 25.844 30.3423 25.028C28.8303 24.188 27.6423 22.988 26.7783 21.428C25.9143 19.868 25.4823 18.044 25.4823 15.956C25.4823 13.844 25.9023 12.02 26.7423 10.484C27.6063 8.924 28.8063 7.736 30.3423 6.92C31.8783 6.08 33.6303 5.66 35.5983 5.66C37.5903 5.66 39.3423 6.068 40.8543 6.884C42.3663 7.7 43.5303 8.852 44.3463 10.34C45.1863 11.804 45.6063 13.496 45.6063 15.416ZM39.3783 14.48C39.4023 13.16 39.0423 12.176 38.2983 11.528C37.5783 10.856 36.6783 10.52 35.5983 10.52C34.4703 10.52 33.5343 10.856 32.7903 11.528C32.0463 12.2 31.6263 13.184 31.5303 14.48H39.3783ZM64.0794 12.896C65.6154 13.256 66.8274 14 67.7154 15.128C68.6274 16.256 69.0834 17.564 69.0834 19.052C69.0834 21.236 68.3514 22.94 66.8874 24.164C65.4474 25.388 63.3714 26 60.6594 26H48.8154V0.547999H60.3714C62.9634 0.547999 64.9674 1.112 66.3834 2.24C67.7994 3.368 68.5074 4.976 68.5074 7.064C68.5074 8.6 68.0994 9.884 67.2834 10.916C66.4674 11.924 65.3994 12.584 64.0794 12.896ZM54.9714 10.952H59.0034C61.1394 10.952 62.2074 10.04 62.2074 8.216C62.2074 6.392 61.1154 5.48 58.9314 5.48H54.9714V10.952ZM59.3634 20.996C61.6434 20.996 62.7834 20.06 62.7834 18.188C62.7834 17.276 62.4834 16.568 61.8834 16.064C61.2834 15.536 60.4314 15.272 59.3274 15.272H54.9714V20.996H59.3634ZM92.3149 5.912V26H86.1229V22.364C85.5469 23.54 84.6829 24.476 83.5309 25.172C82.4029 25.868 81.0829 26.216 79.5709 26.216C77.2669 26.216 75.4309 25.448 74.0629 23.912C72.7189 22.376 72.0469 20.264 72.0469 17.576V5.912H78.1669V16.82C78.1669 18.188 78.5149 19.256 79.2109 20.024C79.9309 20.768 80.8909 21.14 82.0909 21.14C83.3389 21.14 84.3229 20.744 85.0429 19.952C85.7629 19.16 86.1229 18.032 86.1229 16.568V5.912H92.3149ZM107.934 20.708V26H105.162C102.81 26 100.974 25.424 99.6536 24.272C98.3576 23.096 97.7096 21.164 97.7096 18.476V11.096H95.0096V5.912H97.7096V0.979998H103.866V5.912H107.898V11.096H103.866V18.584C103.866 19.376 104.022 19.928 104.334 20.24C104.67 20.552 105.222 20.708 105.99 20.708H107.934Z" fill="#1D244B"/>
</svg>
