<svg width="274" height="91" viewBox="0 0 274 91" fill="none" xmlns="http://www.w3.org/2000/svg">
<path fill-rule="evenodd" clip-rule="evenodd" d="M105.306 27.7886C103.475 29.7271 103.469 29.6971 105.929 30.9721C107.358 31.7129 107.564 32.2386 107.23 34.2879C106.875 36.4621 107.07 36.8457 109.051 37.865C111.13 38.935 111.318 38.9229 112.057 37.6814C114.381 33.7757 113.301 29.8771 109.197 27.365L106.984 26.0107L105.306 27.7886ZM158.843 27.7986C157.701 29.5343 157.729 29.6564 159.632 31.2857C161.417 32.8136 161.522 33.1571 160.734 34.8793C159.914 36.6707 159.999 36.8414 162.196 37.7721C165.08 38.995 166.175 38.1757 166.803 34.3243C167.197 31.9057 166.976 31.4314 164.236 28.8386C162.588 27.2771 160.965 26 160.633 26C160.3 26 159.495 26.8093 158.843 27.7986ZM229.087 27.755C227.97 29.4507 228.001 29.5936 229.832 31.16C231.502 32.59 231.648 33.0407 230.997 34.7471C230.321 36.515 230.448 36.8007 232.348 37.7779C233.501 38.3714 234.614 38.8571 234.821 38.8571C235.476 38.8571 237.387 34.7 237.387 33.275C237.387 31.4493 234.877 28.3657 232.32 27.05C230.355 26.0386 230.194 26.0736 229.087 27.755ZM144.262 37.2779L141.941 39.2071L147.283 44.5679C150.221 47.5164 153.114 51.1021 153.711 52.5364C154.729 54.9793 154.705 55.2614 153.33 57.0007C150.789 60.215 148.878 59.5193 142.004 52.8764C138.601 49.5871 135.11 46.5336 134.248 46.0907C131.521 44.6907 128.225 45.1714 124.575 47.5014C120.728 49.9579 111.051 59.8893 111.051 61.3807C111.051 61.9036 112.065 63.05 113.305 63.9286L115.559 65.5257L117.053 63.4414C121.023 57.9043 128.666 51 130.825 51C131.081 51 134.408 53.9907 138.219 57.6457C145.355 64.4907 148.587 66.4729 151.415 65.7386C154.264 64.9979 157.676 62.5171 159.148 60.1136C162.346 54.8957 160.308 49.3143 152.192 41.0564L146.583 35.3486L144.262 37.2779ZM213.03 45.7357C210.996 47.555 208.845 49.9814 208.249 51.1279C207.251 53.0486 207.28 53.3979 208.616 55.5486C210.355 58.3486 218.278 66 219.439 66C220.721 66 226.258 61.9914 228.283 59.5979C230.997 56.3879 231.242 54.8907 229.511 52.1029C227.237 48.4429 220.321 42.4286 218.385 42.4286C217.423 42.4286 215.174 43.8171 213.03 45.7357ZM179.128 46.73C176.291 48.2214 168.365 55.69 165.803 59.2857L164.225 61.5L166.409 63.5714L168.594 65.6429L171.55 62.0714C175.644 57.1229 181.206 51.8707 182.926 51.3279C185.111 50.6379 189.397 53.8493 194.419 59.9379C196.845 62.8793 199.026 65.2757 199.266 65.2629C199.506 65.2507 200.621 64.4364 201.744 63.4529L203.787 61.6657L200.717 57.7057C197.717 53.8364 192.323 48.9193 188.421 46.4957C185.883 44.92 182.406 45.0071 179.128 46.73ZM246.951 48.3864C244.623 50.0921 241.264 53.2257 239.488 55.3507C233.902 62.03 234.124 61.4429 236.422 63.4536C237.545 64.4364 238.66 65.2507 238.9 65.2629C239.14 65.2757 241.321 62.8793 243.747 59.9379C248.915 53.6721 253.041 50.6336 255.378 51.3714C257.187 51.9429 265.605 60.3021 267.377 63.2864C268.865 65.7936 269.651 65.7929 272.069 63.2807L274 61.2757L270.732 57.3879C264.385 49.8371 258.031 45.2857 253.836 45.2857C251.836 45.2857 250.143 46.0479 246.951 48.3864ZM221.921 51.7707C224.334 54.4293 224.478 54.8164 223.567 56.1829C223.017 57.0071 221.894 58.1257 221.071 58.6693C219.709 59.5693 219.347 59.4293 216.996 57.0907C214.014 54.1229 213.811 52.8064 215.978 50.51C218.115 48.2464 218.865 48.4057 221.921 51.7707ZM182.717 60.0821C180.804 62.2957 180.531 63.1757 181.423 64.2457C182.705 65.7821 183.951 65.5179 185.336 63.4143C186.511 61.6293 186.505 61.4786 185.194 60.1743C183.877 58.8643 183.773 58.86 182.717 60.0821ZM252.448 60.6571C251.081 62.105 250.878 62.75 251.486 63.7107C252.66 65.565 254.113 65.4621 255.6 63.4186C256.916 61.6107 256.915 61.5421 255.563 60.1964C254.199 58.84 254.159 58.8457 252.448 60.6571Z" fill="black"/>
<path d="M84 3V57H3L84 3Z" fill="#E9000D"/>
<path d="M38.7791 3.00005L84 3L55.6748 21.8834L38.7791 3.00005Z" fill="#E9000D"/>
<path d="M84 3V57H3L84 3ZM84 3L38.7791 3.00005L55.6748 21.8834L84 3Z" stroke="black" stroke-width="5" stroke-linejoin="round"/>
<path d="M3 57H84V88H3V57Z" fill="#E9000D" stroke="black" stroke-width="5" stroke-linejoin="round"/>
</svg>
