<svg width="1004" height="400" viewBox="0 0 1004 400" fill="none" xmlns="http://www.w3.org/2000/svg">
<g clip-path="url(#clip0)">
<path fill-rule="evenodd" clip-rule="evenodd" d="M484.23 0L438.93 354.38H32.8L0 76.38L484.23 0ZM98.45 287.17C99.84 288.38 101.39 288.99 103.12 288.99H171.94C197.56 288.99 217.04 283.19 230.37 271.59C243.87 259.82 251.06 241.9 251.93 217.83C252.1 212.98 252.19 206.4 252.19 198.09C252.19 189.78 252.1 183.11 251.93 178.09C251.24 155.06 243.88 137.49 229.85 125.37C215.83 113.25 196.09 107.19 170.64 107.19H103.12C101.39 107.19 99.83 107.8 98.45 109.01C97.24 110.22 96.63 111.78 96.63 113.68V282.5C96.63 284.23 97.24 285.79 98.45 287.17ZM195.84 243.54C190.47 248.91 182.08 251.59 170.65 251.59H143.38V144.59H169.35C180.78 144.59 189.35 147.36 195.06 152.9C200.95 158.44 204.06 167.01 204.41 178.61C204.76 183.46 204.93 189.86 204.93 197.83C204.93 205.8 204.76 212.29 204.41 217.31C204.06 229.26 201.2 238 195.84 243.54ZM278.63 274.7C290.58 285.95 306.94 291.58 327.71 291.58C340.87 291.58 352.3 289.41 361.99 285.09C371.69 280.76 379.04 275.65 384.07 269.77C389.26 263.88 391.86 258.69 391.86 254.19C391.86 252.63 391.25 251.42 390.04 250.55C389 249.51 387.7 248.99 386.14 248.99H353.94C351.86 248.99 350.31 249.25 349.27 249.77C348.4 250.12 347.19 251.24 345.63 253.15C343.38 255.75 340.87 258 338.1 259.9C335.33 261.63 331.78 262.5 327.45 262.5C320.52 262.5 315.24 259.99 311.61 254.97C307.97 249.95 305.98 243.37 305.64 235.23V233.41H388.74C390.64 233.41 392.2 232.81 393.41 231.59C394.62 230.21 395.23 228.65 395.23 226.91V220.68C395.23 207.18 392.63 195.23 387.44 184.84C382.42 174.45 374.8 166.31 364.59 160.43C354.55 154.37 342.17 151.34 327.45 151.34C307.19 151.34 291 157.14 278.89 168.74C266.94 180.17 260.62 196.1 259.93 216.53V225.62C260.45 247.09 266.69 263.45 278.63 274.7ZM349.53 207.18V207.7H305.64V207.18C305.64 198.7 307.54 192.03 311.35 187.18C315.33 182.16 320.7 179.65 327.45 179.65C334.37 179.65 339.74 182.16 343.55 187.18C347.54 192.03 349.53 198.7 349.53 207.18Z" fill="#3639A6"/>
<path fill-rule="evenodd" clip-rule="evenodd" d="M405.78 70.3401V400.38L1003.64 359.8V70.3401H405.78ZM504.23 311.52C505.62 312.73 507.17 313.34 508.91 313.34H590.46C611.58 313.34 627.86 308.49 639.28 298.8C650.71 289.1 656.42 275.6 656.42 258.29C656.42 249.29 654 241.15 649.15 233.88C644.3 226.61 638.33 221.33 631.23 218.04C636.77 215.27 641.71 210.94 646.03 205.05C650.53 198.99 652.78 191.63 652.78 182.98C652.78 166.53 647.41 153.89 636.68 145.06C626.12 136.06 609.93 131.55 588.12 131.55H508.91C507.18 131.55 505.62 132.16 504.23 133.37C503.02 134.58 502.41 136.14 502.41 138.04V306.84C502.41 308.58 503.02 310.13 504.23 311.52ZM598.76 198.55C595.12 202.01 589.84 203.74 582.92 203.74H549.16V165.3H582.92C589.84 165.3 595.12 167.03 598.76 170.49C602.4 173.95 604.21 178.54 604.21 184.25C604.22 190.15 602.4 194.91 598.76 198.55ZM601.88 273.34C597.9 277.49 592.36 279.57 585.26 279.57H549.16V236.72H585.26C592.36 236.72 597.9 238.8 601.88 242.95C605.86 246.93 607.85 252.04 607.85 258.27C607.85 264.17 605.86 269.19 601.88 273.34ZM680.85 300.61C690.2 310.82 702.49 315.93 717.73 315.93C737.47 315.93 751.84 309.61 760.84 296.97V306.84C760.84 308.57 761.45 310.13 762.66 311.52C764.05 312.73 765.6 313.34 767.34 313.34H797.46C799.36 313.34 800.92 312.73 802.13 311.52C803.34 310.13 803.95 308.58 803.95 306.84V184.78C803.95 182.88 803.34 181.32 802.13 180.1C800.92 178.89 799.36 178.28 797.46 178.28H765C763.27 178.28 761.71 178.89 760.33 180.1C759.12 181.31 758.51 182.87 758.51 184.78V255.68C758.51 263.64 756.43 269.88 752.28 274.38C748.13 278.88 742.41 281.13 735.14 281.13C720.08 281.13 712.55 272.65 712.55 255.68V184.78C712.55 182.88 711.86 181.32 710.47 180.1C709.26 178.89 707.7 178.28 705.79 178.28H673.33C671.43 178.28 669.87 178.89 668.66 180.1C667.45 181.31 666.84 182.87 666.84 184.78V257.24C666.83 275.77 671.51 290.22 680.85 300.61ZM835.54 262.17C835.54 296.28 853.46 313.33 889.3 313.33H913.45C915.35 313.33 916.91 312.72 918.13 311.51C919.34 310.12 919.95 308.57 919.95 306.83V284.24C919.95 282.34 919.35 280.78 918.13 279.57C916.92 278.36 915.36 277.75 913.45 277.75H893.45C883.58 277.75 878.65 271.34 878.65 258.53V212.3H911.11C913.01 212.3 914.57 211.69 915.78 210.48C917.17 209.27 917.86 207.71 917.86 205.81V184.77C917.86 182.87 917.17 181.31 915.78 180.09C914.57 178.88 913.01 178.27 911.11 178.27H878.65V135.42C878.65 133.52 878.04 131.96 876.83 130.75C875.62 129.54 874.06 128.93 872.16 128.93H842.04C840.31 128.93 838.75 129.54 837.37 130.75C836.16 131.96 835.55 133.52 835.55 135.42V178.27H815.29C813.39 178.27 811.74 178.88 810.36 180.09C809.15 181.3 808.54 182.86 808.54 184.77V205.81C808.54 207.71 809.15 209.27 810.36 210.48C811.74 211.69 813.39 212.3 815.29 212.3H835.55V262.17H835.54Z" fill="#72E2EE"/>
</g>
<defs>
<clipPath id="clip0">
<rect width="1004" height="400" fill="white"/>
</clipPath>
</defs>
</svg>
