<svg width="315" height="91" viewBox="0 0 315 91" fill="none" xmlns="http://www.w3.org/2000/svg">
<path d="M84 3V57H3L84 3Z" fill="#E9000D"/>
<path d="M38.7791 3.00005L84 3L55.6748 21.8834L38.7791 3.00005Z" fill="#E9000D"/>
<path d="M84 3V57H3L84 3ZM84 3L38.7791 3.00005L55.6748 21.8834L84 3Z" stroke="black" stroke-width="5" stroke-linejoin="round"/>
<path d="M3 57H84V88H3V57Z" fill="#E9000D" stroke="black" stroke-width="5" stroke-linejoin="round"/>
<path d="M131.744 38.864C131.744 40.656 131.312 42.336 130.448 43.904C129.616 45.472 128.288 46.736 126.464 47.696C124.672 48.656 122.4 49.136 119.648 49.136H114.032V62H107.312V28.496H119.648C122.24 28.496 124.448 28.944 126.272 29.84C128.096 30.736 129.456 31.968 130.352 33.536C131.28 35.104 131.744 36.88 131.744 38.864ZM119.36 43.712C121.216 43.712 122.592 43.296 123.488 42.464C124.384 41.6 124.832 40.4 124.832 38.864C124.832 35.6 123.008 33.968 119.36 33.968H114.032V43.712H119.36ZM161.235 48.128C161.235 49.088 161.171 49.952 161.043 50.72H141.603C141.763 52.64 142.435 54.144 143.619 55.232C144.803 56.32 146.259 56.864 147.987 56.864C150.483 56.864 152.259 55.792 153.315 53.648H160.563C159.795 56.208 158.323 58.32 156.147 59.984C153.971 61.616 151.299 62.432 148.131 62.432C145.571 62.432 143.267 61.872 141.219 60.752C139.203 59.6 137.619 57.984 136.467 55.904C135.347 53.824 134.787 51.424 134.787 48.704C134.787 45.952 135.347 43.536 136.467 41.456C137.587 39.376 139.155 37.776 141.171 36.656C143.187 35.536 145.507 34.976 148.131 34.976C150.659 34.976 152.915 35.52 154.899 36.608C156.915 37.696 158.467 39.248 159.555 41.264C160.675 43.248 161.235 45.536 161.235 48.128ZM154.275 46.208C154.243 44.48 153.619 43.104 152.403 42.08C151.187 41.024 149.699 40.496 147.939 40.496C146.275 40.496 144.867 41.008 143.715 42.032C142.595 43.024 141.907 44.416 141.651 46.208H154.275ZM180.876 35.024C184.044 35.024 186.604 36.032 188.556 38.048C190.508 40.032 191.484 42.816 191.484 46.4V62H184.764V47.312C184.764 45.2 184.236 43.584 183.18 42.464C182.124 41.312 180.684 40.736 178.86 40.736C177.004 40.736 175.532 41.312 174.444 42.464C173.388 43.584 172.86 45.2 172.86 47.312V62H166.14V35.408H172.86V38.72C173.756 37.568 174.892 36.672 176.268 36.032C177.676 35.36 179.212 35.024 180.876 35.024ZM222.595 48.128C222.595 49.088 222.531 49.952 222.403 50.72H202.963C203.123 52.64 203.795 54.144 204.979 55.232C206.163 56.32 207.619 56.864 209.347 56.864C211.843 56.864 213.619 55.792 214.675 53.648H221.923C221.155 56.208 219.683 58.32 217.507 59.984C215.331 61.616 212.659 62.432 209.491 62.432C206.931 62.432 204.627 61.872 202.579 60.752C200.563 59.6 198.979 57.984 197.827 55.904C196.707 53.824 196.146 51.424 196.146 48.704C196.146 45.952 196.707 43.536 197.827 41.456C198.947 39.376 200.515 37.776 202.531 36.656C204.547 35.536 206.867 34.976 209.491 34.976C212.019 34.976 214.275 35.52 216.259 36.608C218.275 37.696 219.827 39.248 220.915 41.264C222.035 43.248 222.595 45.536 222.595 48.128ZM215.635 46.208C215.603 44.48 214.979 43.104 213.763 42.08C212.547 41.024 211.059 40.496 209.299 40.496C207.635 40.496 206.227 41.008 205.075 42.032C203.955 43.024 203.267 44.416 203.011 46.208H215.635ZM237.676 62.432C235.5 62.432 233.548 62.048 231.82 61.28C230.092 60.48 228.716 59.408 227.692 58.064C226.7 56.72 226.156 55.232 226.06 53.6H232.828C232.956 54.624 233.452 55.472 234.316 56.144C235.212 56.816 236.316 57.152 237.628 57.152C238.908 57.152 239.9 56.896 240.604 56.384C241.34 55.872 241.708 55.216 241.708 54.416C241.708 53.552 241.26 52.912 240.364 52.496C239.5 52.048 238.108 51.568 236.188 51.056C234.204 50.576 232.572 50.08 231.292 49.568C230.044 49.056 228.956 48.272 228.028 47.216C227.132 46.16 226.684 44.736 226.684 42.944C226.684 41.472 227.1 40.128 227.932 38.912C228.796 37.696 230.012 36.736 231.58 36.032C233.18 35.328 235.052 34.976 237.196 34.976C240.364 34.976 242.892 35.776 244.78 37.376C246.668 38.944 247.708 41.072 247.9 43.76H241.468C241.372 42.704 240.924 41.872 240.124 41.264C239.356 40.624 238.316 40.304 237.004 40.304C235.788 40.304 234.844 40.528 234.172 40.976C233.532 41.424 233.212 42.048 233.212 42.848C233.212 43.744 233.66 44.432 234.556 44.912C235.452 45.36 236.844 45.824 238.732 46.304C240.652 46.784 242.236 47.28 243.484 47.792C244.732 48.304 245.804 49.104 246.7 50.192C247.628 51.248 248.108 52.656 248.14 54.416C248.14 55.952 247.708 57.328 246.844 58.544C246.012 59.76 244.796 60.72 243.196 61.424C241.628 62.096 239.788 62.432 237.676 62.432ZM251.928 48.608C251.928 45.92 252.456 43.536 253.512 41.456C254.6 39.376 256.056 37.776 257.88 36.656C259.736 35.536 261.8 34.976 264.072 34.976C266.056 34.976 267.784 35.376 269.256 36.176C270.76 36.976 271.96 37.984 272.856 39.2V35.408H279.624V62H272.856V58.112C271.992 59.36 270.792 60.4 269.256 61.232C267.752 62.032 266.008 62.432 264.024 62.432C261.784 62.432 259.736 61.856 257.88 60.704C256.056 59.552 254.6 57.936 253.512 55.856C252.456 53.744 251.928 51.328 251.928 48.608ZM272.856 48.704C272.856 47.072 272.536 45.68 271.896 44.528C271.256 43.344 270.392 42.448 269.304 41.84C268.216 41.2 267.048 40.88 265.8 40.88C264.552 40.88 263.4 41.184 262.344 41.792C261.288 42.4 260.424 43.296 259.752 44.48C259.112 45.632 258.792 47.008 258.792 48.608C258.792 50.208 259.112 51.616 259.752 52.832C260.424 54.016 261.288 54.928 262.344 55.568C263.432 56.208 264.584 56.528 265.8 56.528C267.048 56.528 268.216 56.224 269.304 55.616C270.392 54.976 271.256 54.08 271.896 52.928C272.536 51.744 272.856 50.336 272.856 48.704ZM300.923 35.024C304.091 35.024 306.651 36.032 308.603 38.048C310.555 40.032 311.531 42.816 311.531 46.4V62H304.811V47.312C304.811 45.2 304.283 43.584 303.227 42.464C302.171 41.312 300.731 40.736 298.907 40.736C297.051 40.736 295.579 41.312 294.491 42.464C293.435 43.584 292.907 45.2 292.907 47.312V62H286.187V35.408H292.907V38.72C293.803 37.568 294.939 36.672 296.315 36.032C297.723 35.36 299.259 35.024 300.923 35.024Z" fill="white"/>
</svg>
