<svg width="1004" height="532" viewBox="0 0 1004 532" fill="none" xmlns="http://www.w3.org/2000/svg">
<path d="M51.91 477.51C51.91 474.55 51.39 471.9 50.35 469.54C49.36 467.18 47.91 465.16 46 463.46C44.14 461.76 41.84 460.48 39.1 459.6C36.42 458.67 33.41 458.2 30.07 458.2H7.39001V515.69H17.49V497.21H28.91C32.09 497.21 35.07 496.8 37.86 495.98C40.65 495.1 43.09 493.84 45.17 492.2C47.25 490.56 48.89 488.5 50.1 486.04C51.3 483.59 51.91 480.74 51.91 477.51ZM41.64 477.76C41.64 480.88 40.52 483.4 38.27 485.32C36.08 487.18 33.07 488.11 29.24 488.11H17.49V467.41H29.23C33.01 467.41 36.02 468.29 38.26 470.04C40.52 471.73 41.64 474.31 41.64 477.76ZM103.05 457.8H93.69L68.39 515.7H78.74L84.65 501.82H111.84L117.67 515.7H128.35L103.05 457.8ZM108.14 492.87H88.34L98.2 469.87L108.14 492.87ZM195.2 497.96L164.4 458.21H155.04V515.7H164.98V474.8L196.68 515.7H205.14V458.21H195.2V497.96V497.96ZM288.75 486.87C288.75 482.82 288.01 479.04 286.53 475.54C285.05 472.04 282.94 469 280.21 466.42C277.53 463.85 274.3 461.85 270.52 460.42C266.8 458.94 262.69 458.2 258.2 458.2H236.76V515.69H258.2C262.69 515.69 266.8 514.95 270.52 513.47C274.3 511.99 277.53 509.97 280.21 507.39C282.95 504.82 285.06 501.78 286.53 498.27C288.01 494.73 288.75 490.92 288.75 486.87ZM278.16 487.04C278.16 489.89 277.67 492.52 276.68 494.92C275.75 497.27 274.41 499.33 272.66 501.08C270.96 502.78 268.88 504.12 266.42 505.1C263.96 506.03 261.22 506.5 258.21 506.5H246.88V467.4H258.21C261.22 467.4 263.96 467.89 266.42 468.88C268.88 469.87 270.96 471.23 272.66 472.99C274.41 474.74 275.75 476.82 276.68 479.23C277.66 481.59 278.16 484.19 278.16 487.04ZM360.47 458.21H317.84V515.7H360.88V506.67H327.95V491.23H356.78V482.2H327.95V467.25H360.47V458.21ZM436.11 474.47V515.7H446.21V458.21H435.45L417.96 485.39L400.47 458.21H389.7V515.7H399.64V474.63L417.63 501.57H417.96L436.11 474.47ZM478.42 458.21V515.7H488.52V458.21H478.42V458.21ZM570.76 506.5L564.27 499.93C561.81 502.23 559.31 504.06 556.8 505.43C554.28 506.74 551.27 507.4 547.77 507.4C545.03 507.4 542.49 506.88 540.13 505.84C537.83 504.74 535.83 503.27 534.14 501.41C532.44 499.55 531.13 497.39 530.2 494.92C529.27 492.4 528.8 489.72 528.8 486.87C528.8 484.02 529.27 481.37 530.2 478.9C531.13 476.44 532.44 474.3 534.14 472.49C535.84 470.63 537.84 469.18 540.13 468.14C542.48 467.04 545.03 466.5 547.77 466.5C551.05 466.5 553.98 467.16 556.56 468.47C559.13 469.78 561.57 471.51 563.87 473.64L570.36 466.17C568.99 464.86 567.54 463.65 566.01 462.56C564.48 461.46 562.81 460.54 561 459.77C559.19 458.95 557.19 458.32 555 457.88C552.86 457.44 550.48 457.22 547.85 457.22C543.47 457.22 539.47 458.01 535.86 459.6C532.25 461.13 529.13 463.27 526.5 466.01C523.87 468.69 521.82 471.84 520.34 475.46C518.92 479.07 518.2 482.93 518.2 487.04C518.2 491.2 518.94 495.09 520.42 498.7C521.9 502.31 523.92 505.46 526.5 508.15C529.13 510.78 532.22 512.86 535.78 514.39C539.34 515.92 543.23 516.69 547.44 516.69C550.12 516.69 552.56 516.44 554.75 515.95C556.99 515.51 559.05 514.85 560.91 513.98C562.77 513.05 564.5 511.98 566.08 510.78C567.72 509.51 569.28 508.09 570.76 506.5ZM690.93 507.73V483.58H666.46V492.37H681.16V503.13C679.41 504.44 677.33 505.51 674.92 506.33C672.57 507.1 670.02 507.48 667.28 507.48C664.32 507.48 661.64 506.96 659.23 505.92C656.88 504.88 654.82 503.46 653.07 501.65C651.37 499.79 650.06 497.6 649.13 495.08C648.2 492.56 647.73 489.82 647.73 486.87C647.73 484.08 648.2 481.45 649.13 478.99C650.12 476.53 651.43 474.36 653.07 472.5C654.77 470.64 656.74 469.19 658.98 468.15C661.28 467.05 663.74 466.51 666.37 466.51C668.18 466.51 669.82 466.67 671.3 467C672.83 467.27 674.23 467.68 675.49 468.23C676.75 468.72 677.95 469.35 679.1 470.12C680.25 470.89 681.37 471.73 682.47 472.67L688.88 465.03C687.4 463.77 685.87 462.68 684.28 461.74C682.75 460.76 681.1 459.93 679.35 459.28C677.6 458.62 675.68 458.13 673.6 457.8C671.57 457.42 669.3 457.22 666.78 457.22C662.45 457.22 658.46 458.01 654.79 459.6C651.18 461.19 648.06 463.35 645.43 466.09C642.8 468.77 640.75 471.92 639.27 475.54C637.85 479.15 637.13 482.99 637.13 487.04C637.13 491.26 637.84 495.17 639.27 498.78C640.69 502.39 642.69 505.54 645.26 508.23C647.89 510.86 651.04 512.94 654.71 514.47C658.38 515.95 662.46 516.69 666.95 516.69C669.47 516.69 671.88 516.44 674.18 515.95C676.48 515.51 678.61 514.88 680.59 514.06C682.61 513.24 684.48 512.28 686.17 511.19C687.92 510.09 689.5 508.94 690.93 507.73ZM750.65 457.8H741.29L715.99 515.7H726.34L732.25 501.82H759.43L765.26 515.7H775.94L750.65 457.8ZM755.74 492.87H735.95L745.81 469.87L755.74 492.87ZM828.43 458.21H802.64V515.7H829.25C832.43 515.7 835.33 515.37 837.96 514.72C840.59 514.01 842.83 512.99 844.69 511.68C846.55 510.31 847.97 508.64 848.96 506.67C850 504.7 850.52 502.43 850.52 499.85C850.52 497.88 850.25 496.15 849.7 494.68C849.15 493.15 848.36 491.83 847.32 490.74C846.34 489.64 845.13 488.71 843.71 487.95C842.34 487.13 840.81 486.42 839.11 485.81C840.15 485.26 841.16 484.61 842.15 483.84C843.19 483.07 844.07 482.2 844.78 481.21C845.55 480.17 846.15 478.97 846.59 477.6C847.08 476.23 847.33 474.67 847.33 472.92C847.33 468.37 845.63 464.79 842.24 462.16C838.84 459.52 834.24 458.21 828.43 458.21ZM826.38 482.44H812.58V467.16H827.12C830.4 467.16 832.9 467.82 834.59 469.13C836.34 470.39 837.22 472.2 837.22 474.55C837.22 477.23 836.24 479.23 834.26 480.54C832.29 481.81 829.66 482.44 826.38 482.44ZM829.34 506.75H812.58V490.98H828.6C832.6 490.98 835.55 491.66 837.47 493.03C839.44 494.4 840.43 496.31 840.43 498.78C840.43 501.41 839.45 503.41 837.47 504.78C835.5 506.09 832.79 506.75 829.34 506.75ZM927.05 458.21H916.95V491.31C916.95 496.62 915.66 500.62 913.09 503.3C910.52 505.98 906.99 507.32 902.5 507.32C897.95 507.32 894.4 505.92 891.82 503.13C889.25 500.34 887.96 496.26 887.96 490.89V458.2H877.86V491.3C877.86 495.46 878.44 499.13 879.58 502.31C880.73 505.43 882.37 508.06 884.51 510.19C886.65 512.33 889.22 513.94 892.23 515.04C895.24 516.08 898.61 516.6 902.33 516.6C906.11 516.6 909.5 516.08 912.51 515.04C915.58 513.94 918.18 512.33 920.31 510.19C922.45 508 924.09 505.29 925.24 502.06C926.44 498.83 927.05 495.08 927.05 490.81V458.21V458.21ZM982.06 467.57H1000.29V458.21H953.64V467.57H971.87V515.7H982.05V467.57H982.06Z" fill="white"/>
<path fill-rule="evenodd" clip-rule="evenodd" d="M484.23 0L438.93 354.38H32.8L0 76.38L484.23 0ZM98.45 287.17C99.84 288.38 101.39 288.99 103.12 288.99H171.94C197.56 288.99 217.04 283.19 230.37 271.59C243.87 259.82 251.06 241.9 251.93 217.83C252.1 212.98 252.19 206.4 252.19 198.09C252.19 189.78 252.1 183.11 251.93 178.09C251.24 155.06 243.88 137.49 229.85 125.37C215.83 113.25 196.09 107.19 170.64 107.19H103.12C101.39 107.19 99.83 107.8 98.45 109.01C97.24 110.22 96.63 111.78 96.63 113.68V282.5C96.63 284.23 97.24 285.79 98.45 287.17ZM195.84 243.54C190.47 248.91 182.08 251.59 170.65 251.59H143.38V144.59H169.35C180.78 144.59 189.35 147.36 195.06 152.9C200.95 158.44 204.06 167.01 204.41 178.61C204.76 183.46 204.93 189.86 204.93 197.83C204.93 205.8 204.76 212.29 204.41 217.31C204.06 229.26 201.2 238 195.84 243.54ZM278.63 274.7C290.58 285.95 306.94 291.58 327.71 291.58C340.87 291.58 352.3 289.41 361.99 285.09C371.69 280.76 379.04 275.65 384.07 269.77C389.26 263.88 391.86 258.69 391.86 254.19C391.86 252.63 391.25 251.42 390.04 250.55C389 249.51 387.7 248.99 386.14 248.99H353.94C351.86 248.99 350.31 249.25 349.27 249.77C348.4 250.12 347.19 251.24 345.63 253.15C343.38 255.75 340.87 258 338.1 259.9C335.33 261.63 331.78 262.5 327.45 262.5C320.52 262.5 315.24 259.99 311.61 254.97C307.97 249.95 305.98 243.37 305.64 235.23V233.41H388.74C390.64 233.41 392.2 232.81 393.41 231.59C394.62 230.21 395.23 228.65 395.23 226.91V220.68C395.23 207.18 392.63 195.23 387.44 184.84C382.42 174.45 374.8 166.31 364.59 160.43C354.55 154.37 342.17 151.34 327.45 151.34C307.19 151.34 291 157.14 278.89 168.74C266.94 180.17 260.62 196.1 259.93 216.53V225.62C260.45 247.09 266.69 263.45 278.63 274.7ZM349.53 207.18V207.7H305.64V207.18C305.64 198.7 307.54 192.03 311.35 187.18C315.33 182.16 320.7 179.65 327.45 179.65C334.37 179.65 339.74 182.16 343.55 187.18C347.54 192.03 349.53 198.7 349.53 207.18Z" fill="white"/>
<path fill-rule="evenodd" clip-rule="evenodd" d="M405.78 70.3401V400.38L1003.64 359.8V70.3401H405.78ZM504.23 311.52C505.62 312.73 507.17 313.34 508.91 313.34H590.46C611.58 313.34 627.86 308.49 639.28 298.8C650.71 289.1 656.42 275.6 656.42 258.29C656.42 249.29 654 241.15 649.15 233.88C644.3 226.61 638.33 221.33 631.23 218.04C636.77 215.27 641.71 210.94 646.03 205.05C650.53 198.99 652.78 191.63 652.78 182.98C652.78 166.53 647.41 153.89 636.68 145.06C626.12 136.06 609.93 131.55 588.12 131.55H508.91C507.18 131.55 505.62 132.16 504.23 133.37C503.02 134.58 502.41 136.14 502.41 138.04V306.84C502.41 308.58 503.02 310.13 504.23 311.52ZM598.76 198.55C595.12 202.01 589.84 203.74 582.92 203.74H549.16V165.3H582.92C589.84 165.3 595.12 167.03 598.76 170.49C602.4 173.95 604.21 178.54 604.21 184.25C604.22 190.15 602.4 194.91 598.76 198.55ZM601.88 273.34C597.9 277.49 592.36 279.57 585.26 279.57H549.16V236.72H585.26C592.36 236.72 597.9 238.8 601.88 242.95C605.86 246.93 607.85 252.04 607.85 258.27C607.85 264.17 605.86 269.19 601.88 273.34ZM680.85 300.61C690.2 310.82 702.49 315.93 717.73 315.93C737.47 315.93 751.84 309.61 760.84 296.97V306.84C760.84 308.57 761.45 310.13 762.66 311.52C764.05 312.73 765.6 313.34 767.34 313.34H797.46C799.36 313.34 800.92 312.73 802.13 311.52C803.34 310.13 803.95 308.58 803.95 306.84V184.78C803.95 182.88 803.34 181.32 802.13 180.1C800.92 178.89 799.36 178.28 797.46 178.28H765C763.27 178.28 761.71 178.89 760.33 180.1C759.12 181.31 758.51 182.87 758.51 184.78V255.68C758.51 263.64 756.43 269.88 752.28 274.38C748.13 278.88 742.41 281.13 735.14 281.13C720.08 281.13 712.55 272.65 712.55 255.68V184.78C712.55 182.88 711.86 181.32 710.47 180.1C709.26 178.89 707.7 178.28 705.79 178.28H673.33C671.43 178.28 669.87 178.89 668.66 180.1C667.45 181.31 666.84 182.87 666.84 184.78V257.24C666.83 275.77 671.51 290.22 680.85 300.61ZM835.54 262.17C835.54 296.28 853.46 313.33 889.3 313.33H913.45C915.35 313.33 916.91 312.72 918.13 311.51C919.34 310.12 919.95 308.57 919.95 306.83V284.24C919.95 282.34 919.35 280.78 918.13 279.57C916.92 278.36 915.36 277.75 913.45 277.75H893.45C883.58 277.75 878.65 271.34 878.65 258.53V212.3H911.11C913.01 212.3 914.57 211.69 915.78 210.48C917.17 209.27 917.86 207.71 917.86 205.81V184.77C917.86 182.87 917.17 181.31 915.78 180.09C914.57 178.88 913.01 178.27 911.11 178.27H878.65V135.42C878.65 133.52 878.04 131.96 876.83 130.75C875.62 129.54 874.06 128.93 872.16 128.93H842.04C840.31 128.93 838.75 129.54 837.37 130.75C836.16 131.96 835.55 133.52 835.55 135.42V178.27H815.29C813.39 178.27 811.74 178.88 810.36 180.09C809.15 181.3 808.54 182.86 808.54 184.77V205.81C808.54 207.71 809.15 209.27 810.36 210.48C811.74 211.69 813.39 212.3 815.29 212.3H835.55V262.17H835.54Z" fill="white"/>
</svg>
