<svg width="552" height="330" viewBox="0 0 552 330" fill="none" xmlns="http://www.w3.org/2000/svg">
<mask id="mask0_43_1415" style="mask-type:alpha" maskUnits="userSpaceOnUse" x="0" y="0" width="552" height="330">
<rect width="552" height="330" rx="30" fill="#D3DCFB"/>
</mask>
<g mask="url(#mask0_43_1415)">
<rect width="552" height="330" rx="30" fill="#F79595"/>
<path fill-rule="evenodd" clip-rule="evenodd" d="M364.247 179.148L361.145 186.823L362.854 211.15L364.126 211.348C377.556 213.432 386.682 214.485 391.504 214.506L391.654 214.506C396.509 214.506 402.328 213.421 409.11 211.249L409.419 211.15L410.201 192.934H408.355L405.016 185.098L405.019 185.095C405.055 185.158 405.094 185.219 405.134 185.278C406.526 187.339 407.333 185.675 410.604 186.404C414.52 187.277 416.259 191.238 419.707 194.199C421.308 195.574 424.668 196.222 426.276 197.167L427.965 198.16C433.257 201.285 439.34 205.08 442.534 210.024C446.278 215.82 448.859 221.321 451.242 227.769C456.379 241.666 459.944 255.848 462.492 270.433C465.074 285.215 466.626 300.18 467.811 315.133C468.36 322.063 468.826 328.998 469.212 335.939L469.307 337.674C469.51 341.45 469.334 345.145 465.903 347.471C463.446 349.137 460.184 349.39 457.3 349.561L457.143 349.571C435.824 350.822 414.504 352.064 393.184 353.309L361.205 355.181C355.883 355.493 350.562 355.802 345.241 356.11L332.253 356.861C326.131 357.21 320.002 357.512 313.872 357.476C306.16 357.431 298.481 356.861 290.839 355.832L290.165 355.74C285.358 355.076 278.388 353.395 277.524 347.624C277.4 346.796 278.129 346.278 278.741 346.397C278.539 345.458 278.414 344.517 278.295 343.7C277.783 340.209 277.461 336.695 277.302 333.17C276.983 326.116 277.252 319.029 277.956 312.007C279.122 300.388 280.756 288.789 282.444 277.231L282.82 274.663C284.616 262.418 286.753 250.193 290.099 238.265C293.189 227.246 298.011 215.783 304.644 208.815C311.278 201.848 320.737 195.794 330.455 192.086C331.297 191.765 348.019 188.101 349.146 188.634L349.348 188.475C352.682 185.841 357.438 181.213 362.335 182.671L362.346 182.652C362.462 182.44 362.914 181.018 363.539 179.148L364.247 179.148Z" fill="#4F66AF"/>
<path fill-rule="evenodd" clip-rule="evenodd" d="M367.784 168.933C371.834 163.793 376.104 162.16 382.412 162.543C386.69 162.39 390.957 163.501 394.58 165.956C397.899 167.692 400.842 170.082 402.943 173.158C404.74 175.788 403.375 182.286 405.016 185.098C405 185.404 404.992 185.683 404.992 185.935C404.992 188.368 406.684 191.083 410.067 194.081L410.202 194.199V211.88C404.513 213.631 397.47 214.506 389.073 214.506C380.801 214.506 372.197 213.116 363.261 210.336L362.855 210.209L361.146 190.992L362.855 185.675L362.854 181.221L363.515 179.229C364.684 175.726 366.474 170.595 367.784 168.933Z" fill="#E8B796"/>
<path fill-rule="evenodd" clip-rule="evenodd" d="M362.854 210.209C362.854 210.209 377.874 214.586 388.128 214.586C398.382 214.586 409.419 210.209 409.419 210.209L407.628 354.317L378.809 354.669L362.854 210.209Z" fill="white"/>
<path fill-rule="evenodd" clip-rule="evenodd" d="M313.412 273.131C313.301 272.923 313.558 272.736 313.729 272.886C317.611 276.296 319.644 281.772 320.07 286.834C320.522 292.201 319.881 297.759 319.637 303.124C319.364 309.1 319.12 315.079 318.787 321.052C318.45 327.113 318.086 333.171 317.775 339.233L317.074 352.869C316.999 354.323 317.161 356.11 316.604 357.466C315.74 359.569 313.175 359.243 312.636 357.486L312.619 357.428L312.57 357.466C312.095 355.882 312.45 354.002 312.531 352.364L313.266 337.466C313.784 326.935 314.247 316.404 314.805 305.876L314.994 302.366C315.255 297.642 315.454 292.929 315.615 288.206L315.667 286.632C315.819 281.889 315.698 277.413 313.412 273.131ZM407.521 185.71C409.684 185.505 411.317 186.222 413.28 186.979C414.136 187.308 414.946 187.688 415.767 188.082C416.794 188.575 417.455 189.447 418.087 190.368L418.425 190.865C421.06 194.728 422.832 199.185 424.831 203.391C427.17 208.311 429.533 213.22 431.822 218.164L432.951 220.599C433.516 221.817 434.079 223.035 434.634 224.258L435.592 226.385C436.555 228.543 437.418 230.825 436.046 233.051C434.77 235.121 432.508 236.723 430.717 238.323C429.222 239.658 427.728 240.993 426.233 242.328C429.323 245.425 431.398 249.325 432.617 253.507C434.35 252.785 436.464 252.647 438.256 252.334C440.763 251.896 441.07 255.696 438.704 255.65C436.956 255.615 434.906 255.794 433.113 255.426C433.424 256.8 433.65 258.195 433.794 259.594C434.547 266.926 432.901 274.301 431.184 281.395L431.043 281.978C429.178 289.656 427.41 297.355 425.829 305.097C424.243 312.856 422.817 320.647 421.551 328.464C420.263 336.421 419.351 344.422 418.371 352.421C418.223 353.631 417.462 354.669 416.125 354.669C415.012 354.669 413.739 353.629 413.879 352.421C414.89 343.71 416.324 335.045 417.749 326.394C420.202 311.495 423.291 296.727 426.843 282.055L427.464 279.5C429.062 272.873 430.512 266.045 429.711 259.21C429.058 253.644 426.733 247.709 422.137 244.252L421.997 244.148C420.924 243.361 420.511 241.854 421.568 240.816C422.241 240.156 422.914 239.496 423.588 238.837L427.634 234.884L428.449 234.086C429.129 233.421 429.812 232.761 430.516 232.121C430.942 231.733 432.097 230.995 432.181 230.358C432.236 229.942 431.744 229.212 431.545 228.829L430.632 226.985C430.114 225.933 429.611 224.873 429.105 223.816C428.056 221.624 426.991 219.439 425.965 217.237L419.799 204.014C418.06 200.283 416.51 196.345 414.236 192.896L413.788 192.223C413.414 191.657 413.083 191.112 412.846 190.42C412.619 189.754 412.334 189.023 411.913 188.454C410.928 187.12 409.046 186.363 407.471 186.084C407.243 186.044 407.326 185.729 407.521 185.71ZM360.099 182.237C360.236 182.237 360.256 182.433 360.13 182.471C358.23 183.043 356.414 183.965 354.932 185.298C354.223 185.935 353.51 186.659 353.072 187.517C352.905 187.845 352.812 188.192 352.744 188.552L352.722 188.672C352.609 189.322 352.448 189.684 352.118 190.204L352.061 190.292C350.178 193.202 348.859 196.435 347.652 199.671L345.025 206.729L342.399 213.787C341.553 216.061 340.707 218.335 339.86 220.609C339.393 221.865 338.912 223.115 338.432 224.365C338.224 224.907 338 225.445 337.81 225.993C337.784 226.068 337.701 226.519 337.638 226.629L337.66 226.666C338.189 227.558 339.602 228.303 340.402 228.951L343.159 231.182C345.125 232.772 347.141 234.319 349.047 235.98C350.245 237.024 349.5 238.892 348.164 239.328C345.926 240.058 343.733 240.931 341.529 241.757C340.638 242.09 339.711 242.381 338.831 242.748L338.295 242.98C338.086 243.074 338.186 243.073 338.195 243.46C338.203 243.865 338.318 244.288 338.384 244.686C339.126 249.18 339.913 253.667 340.744 258.145C343.683 273.982 347.194 289.703 351.198 305.303C353.221 313.182 355.39 321.021 357.457 328.887C359.519 336.733 362.232 344.466 364.822 352.15C365.553 354.317 362.12 355.25 361.408 353.092C358.422 344.055 355.691 334.939 352.87 325.851C347.859 309.702 343.911 293.202 340.418 276.663C338.687 268.466 337.104 260.237 335.67 251.983C335.398 250.42 335.132 248.857 334.871 247.292L334.491 244.991C334.231 243.35 334.082 241.642 335.356 240.344C336.6 239.077 338.735 238.628 340.372 238.033L340.491 237.99C341.532 237.601 342.582 237.226 343.627 236.839C342.087 235.626 340.567 234.387 339.031 233.174C337.793 232.196 336.534 231.238 335.313 230.238C334.307 229.413 333.486 228.353 333.381 227.012C333.274 225.64 333.861 224.367 334.334 223.11L334.38 222.988C334.845 221.732 335.311 220.477 335.789 219.226L338.748 211.482C340.628 206.561 342.429 201.6 344.406 196.717C345.189 194.785 346.041 192.883 347.049 191.057C347.534 190.176 348.055 189.314 348.621 188.483C349.256 187.55 349.832 187.096 350.814 186.582C352.386 185.759 353.619 184.38 355.198 183.533C356.747 182.7 358.34 182.256 360.099 182.237ZM365.2 173.458C365.261 173.354 365.42 173.4 365.422 173.518C365.463 175.963 364.882 178.463 364.525 180.881C364.166 183.308 364.051 185.869 363.532 188.27C363.522 188.382 363.5 188.492 363.469 188.601L363.445 188.683C363.226 189.356 362.656 189.926 361.957 190.104C362.177 191.323 362.384 192.544 362.558 193.772C362.857 195.882 363.13 197.995 363.399 200.109L363.72 202.646C364.024 205.037 364.319 207.429 364.611 209.821C365.353 210.131 366.11 210.387 366.885 210.61C368.671 211.121 370.501 211.329 372.344 211.51C376.097 211.879 379.88 212.049 383.646 212.259L384.453 212.304C388.688 212.547 392.946 212.59 397.17 212.155C399.265 211.939 401.343 211.578 403.386 211.065C404.423 210.804 405.432 210.415 406.468 210.16C406.812 210.076 407.119 209.881 407.463 209.673C407.616 209.479 407.83 209.333 408.11 209.276L408.185 209.263L408.26 209.252L408.286 209.241L408.284 209.249C408.496 209.22 408.697 209.22 408.887 209.246C408.963 207.381 409.045 205.516 409.147 203.651C409.423 198.643 410.184 193.419 409.168 188.455C409.134 188.288 409.361 188.229 409.42 188.385C411.413 193.641 411.189 199.387 411.29 204.919C411.388 210.328 411.328 215.741 411.301 221.151C411.689 221.316 412.034 221.54 412.307 221.853C412.854 222.48 413.011 223.57 412.307 224.175C411.996 224.443 411.651 224.629 411.285 224.758C411.265 229.459 411.232 234.159 411.185 238.86C412.078 239.55 412.161 241.19 411.151 241.871C410.983 257.093 410.706 272.316 410.477 287.535L409.997 319.467C409.933 323.721 409.827 327.975 409.789 332.229L409.819 332.241L409.926 332.29C410.105 332.375 410.371 332.511 410.426 332.65C410.441 332.686 410.444 332.711 410.443 332.73C410.736 332.771 411.026 332.91 411.277 333.148C411.897 333.738 411.771 334.627 411.277 335.227L411.145 335.388C410.837 335.762 410.252 335.906 409.775 335.83C409.779 338.485 409.796 341.141 409.788 343.796C409.785 344.607 409.773 345.418 409.759 346.229L409.726 348.173C409.703 349.283 409.605 350.693 408.47 351.191C407.189 351.754 406.04 351.293 405.521 349.991C405.381 349.638 405.411 349.309 405.462 348.961C405.446 348.437 405.364 347.83 405.374 347.343L405.417 345.316C405.423 345.004 405.436 344.691 405.445 344.379L405.408 344.382C400.856 344.604 396.272 344.496 391.713 344.493L389.685 344.496C387.993 344.497 386.298 344.488 384.608 344.424L383.975 344.397C382.71 344.337 381.38 344.318 380.069 344.205C380.236 345.552 380.392 346.9 380.531 348.25C380.663 349.529 379.344 350.617 378.167 350.617C376.769 350.617 375.969 349.517 375.802 348.25C375.012 342.272 374.688 336.239 373.934 330.258C373.258 324.901 372.672 319.532 372.076 314.164L371.877 312.375C369.696 292.842 367.579 273.302 365.555 253.753L364.612 244.614C363.66 235.403 362.702 226.191 361.894 216.966C361.432 211.692 361.007 206.417 360.606 201.138C360.312 197.26 360.128 193.403 360.008 189.532C359.534 189.045 359.296 188.332 359.506 187.596C359.629 187.167 359.772 186.74 359.922 186.313C359.913 185.894 359.903 185.476 359.895 185.056C359.887 184.659 360.29 184.455 360.612 184.521C361.198 183.102 361.843 181.695 362.381 180.289C363.252 178.014 363.97 175.562 365.2 173.458ZM316.551 198.046C325.658 192.334 336.497 188.224 347.354 188.667C347.601 188.677 347.67 189.053 347.414 189.11C341.623 190.405 335.768 191.981 330.286 194.275C324.787 196.576 319.559 199.674 314.903 203.398C306.312 210.267 299.634 219.203 295.237 229.275C292.661 235.175 290.856 241.404 289.28 247.635C287.611 254.23 286.237 260.896 285.093 267.602C282.836 280.848 281.521 294.24 280.822 307.655C280.11 321.301 280.403 334.957 279.896 348.605C279.808 350.97 276.431 350.924 276.26 348.605C275.11 333.088 275.747 317.323 276.81 301.817C277.766 287.877 279.436 273.967 282.125 260.252L282.36 259.063C284.874 246.374 287.906 233.377 293.983 221.886C299.172 212.075 307.182 203.924 316.551 198.046ZM443.005 258.692C443.052 258.556 443.232 258.558 443.28 258.692C444.318 261.601 444.355 264.883 444.631 267.948L444.653 268.184C444.917 270.98 445.117 273.78 445.302 276.582L445.371 277.633C446.114 289.065 447.044 300.484 448.444 311.855C449.84 323.183 451.727 334.433 453.768 345.66C453.995 346.91 453.442 348.183 452.132 348.543C450.978 348.861 449.496 348.149 449.251 346.907C447.985 340.462 446.96 334.009 446.046 327.509C444.437 316.063 443.237 304.565 442.465 293.032C442.077 287.239 441.839 281.449 441.744 275.644C441.7 272.951 441.77 270.251 441.913 267.561L441.948 266.94C442.106 264.19 442.09 261.315 443.005 258.692ZM344.606 331.504C344.728 331.438 344.879 331.574 344.802 331.699C343.038 334.568 340.653 337.041 338.347 339.478C335.937 342.026 333.587 344.651 331.128 347.149C329.351 348.953 326.493 346.042 328.368 344.387C331.005 342.059 333.76 339.848 336.443 337.572L337.617 336.576C339.817 334.716 342.082 332.872 344.606 331.504ZM428.355 330.068C428.223 329.817 428.524 329.613 428.728 329.779C430.151 330.937 431.425 332.318 432.799 333.539C434.159 334.749 435.57 335.878 437.019 336.979C438.475 338.084 439.962 339.145 441.489 340.15C442.756 340.982 444.061 341.649 445.388 342.341C446.002 342.42 446.571 342.722 447.027 343.294C447.747 344.199 447.823 345.905 446.825 346.691L446.645 346.832C445.48 347.748 444.096 347.86 442.949 346.832C441.668 345.683 440.457 344.42 439.227 343.207L438.858 342.844C437.536 341.558 436.246 340.231 435.03 338.844L433.93 337.59C431.888 335.26 429.762 332.748 428.355 330.068ZM421.804 195.698C421.567 195.541 421.713 195.119 422.005 195.22L422.54 195.405C424.779 196.183 427.082 197.047 429.114 198.245C431.298 199.533 433.314 201.067 435.24 202.713C439.227 206.119 442.619 210.309 445.502 214.675C451.286 223.437 454.864 233.471 457.752 243.511C460.831 254.216 463.202 265.152 465.138 276.119C467.105 287.264 468.623 298.509 469.62 309.783C470.111 315.337 470.441 320.894 470.607 326.466C470.693 329.333 470.69 332.198 470.666 335.066C470.66 335.804 470.665 336.541 470.673 337.278L470.701 339.49C470.716 340.888 470.883 342.358 470.551 343.724C470.017 345.923 466.384 345.513 466.503 343.265C466.394 342.517 466.39 341.744 466.418 340.97C466.401 340.87 466.382 340.768 466.361 340.665C466.302 340.367 466.352 340.092 466.469 339.856C466.488 339.484 466.505 339.115 466.511 338.752C466.535 337.276 466.533 335.805 466.492 334.329C466.406 331.216 466.283 328.104 466.158 324.993C465.908 318.776 465.561 312.556 465.057 306.355C463.305 284.768 459.606 263.058 453.393 242.291C450.507 232.647 446.528 223.179 440.823 214.846C438.29 211.146 435.433 207.729 432.265 204.557C429.077 201.366 425.564 198.191 421.804 195.698ZM378.81 334.855L379.24 337.972C379.456 339.531 379.669 341.09 379.871 342.651C381.245 342.463 382.651 342.384 383.976 342.266C386.294 342.061 388.629 341.961 390.954 341.865C395.763 341.667 400.595 341.322 405.409 341.346C405.458 341.347 405.505 341.35 405.551 341.354L405.79 335.203L402.408 335.198C399.543 335.193 396.678 335.169 393.813 335.144C391.232 335.122 388.651 335.118 386.071 335.065L384.965 335.038C383.008 334.986 380.848 335.094 378.81 334.855ZM406.073 325.927C405.935 325.943 405.795 325.957 405.646 325.963C404.976 325.992 404.301 325.972 403.63 325.978C402.203 325.99 400.776 326 399.348 325.999C396.494 325.999 393.639 326.016 390.785 326.051C387.847 326.086 384.911 326.137 381.972 326.143C380.548 326.146 379.129 326.108 377.706 326.068C377.936 328.093 378.177 330.115 378.442 332.133C380.653 331.835 383.03 331.985 385.19 331.965L385.47 331.961C388.418 331.91 391.369 331.948 394.318 331.951C397.352 331.955 400.385 331.965 403.419 331.99L405.911 332.01L405.916 331.885C405.989 329.901 406.036 327.914 406.073 325.927ZM376.61 316.242C376.886 318.632 377.145 321.026 377.41 323.419C377.585 323.391 377.763 323.368 377.945 323.349C379.37 323.2 380.793 323.072 382.224 322.983C385.076 322.806 387.929 322.713 390.785 322.636C393.723 322.557 396.662 322.497 399.6 322.455C401.028 322.435 402.455 322.437 403.883 322.447C404.552 322.452 405.229 322.431 405.898 322.476C405.977 322.481 406.053 322.489 406.129 322.498L406.179 318.905C406.188 318.307 406.197 317.708 406.207 317.109C404 317.246 401.756 317.194 399.551 317.194L399.043 317.195C396.272 317.208 393.501 317.17 390.73 317.113C387.872 317.053 385.02 316.959 382.168 316.776C381.012 316.702 379.864 316.604 378.715 316.477L378.14 316.411C377.64 316.352 377.124 316.304 376.61 316.242ZM406.434 306.104C401.119 306.526 395.833 306.703 390.505 306.755L389.705 306.762C384.996 306.798 380.248 306.992 375.528 306.867C375.81 309.316 376.092 311.765 376.376 314.214C377.051 314.182 377.731 314.182 378.391 314.158C379.735 314.11 381.075 314.097 382.419 314.094C385.189 314.088 387.96 314.112 390.73 314.106C393.585 314.1 396.44 314.052 399.295 313.998C401.609 313.955 403.948 313.781 406.269 313.787L406.434 306.104ZM406.659 295.656C406.043 295.861 405.316 295.874 404.519 295.91L402.461 296.013C401.508 296.06 400.554 296.104 399.6 296.139C396.421 296.255 393.241 296.364 390.061 296.465C386.803 296.569 383.529 296.629 380.27 296.526C378.673 296.476 377.09 296.392 375.499 296.259C375.105 296.226 374.704 296.204 374.302 296.176C374.673 299.42 375.044 302.665 375.418 305.909C380.115 305.332 384.849 304.972 389.541 304.376L393.783 303.833C398.023 303.292 402.26 302.76 406.516 302.312L406.659 295.656ZM406.886 285.093C405.982 285.316 404.952 285.305 404.084 285.36L403.924 285.371C402.28 285.496 400.631 285.558 398.983 285.599C395.753 285.678 392.522 285.718 389.291 285.738L387.348 285.75C384.758 285.765 382.169 285.772 379.579 285.711C377.917 285.673 376.259 285.591 374.598 285.508C374.101 285.483 373.592 285.467 373.082 285.441C373.429 288.513 373.78 291.584 374.13 294.655C374.675 294.569 375.223 294.503 375.746 294.414C377.084 294.188 378.42 294.007 379.768 293.846C382.688 293.495 385.622 293.243 388.556 293.031C391.567 292.812 394.581 292.628 397.593 292.416L399.726 292.266C400.437 292.216 401.148 292.169 401.859 292.125C403.074 292.05 404.486 292.135 405.691 291.87C406.017 291.734 406.38 291.703 406.742 291.78L406.886 285.093ZM407.159 272.728C406.846 273.126 406.379 273.334 405.823 273.406C402.923 273.783 399.948 273.843 397.023 274.021L396.508 274.053C393.488 274.252 390.467 274.409 387.445 274.569C384.34 274.734 381.236 274.869 378.13 274.977C376.811 275.023 375.485 275.028 374.164 275.011L373.598 275.003C373.056 274.994 372.487 274.995 371.918 274.977C372.233 277.849 372.551 280.721 372.874 283.593C373.455 283.529 374.035 283.481 374.598 283.422C376.258 283.246 377.915 283.072 379.578 282.941C382.73 282.693 385.884 282.543 389.042 282.387C392.272 282.227 395.505 282.12 398.736 281.969C400.303 281.896 401.869 281.805 403.43 281.661C404.525 281.56 405.825 281.187 406.968 281.324C407.03 278.459 407.095 275.593 407.159 272.728ZM407.413 261.652C407.364 261.729 407.306 261.803 407.236 261.872C405.959 263.134 404.386 263.037 402.694 263.169L402.59 263.178C400.932 263.317 399.273 263.45 397.613 263.57C394.294 263.81 390.969 263.977 387.646 264.127C384.245 264.28 380.822 264.385 377.418 264.316C375.238 264.271 372.955 264.279 370.731 264.066C371.073 267.23 371.416 270.393 371.762 273.556C372.388 273.438 373.017 273.348 373.613 273.254C375.115 273.017 376.619 272.779 378.129 272.605C381.148 272.258 384.168 271.932 387.193 271.639C389.779 271.388 392.365 271.133 394.954 270.903L396.508 270.769C399.596 270.509 402.724 270.08 405.822 270.017C406.333 270.006 406.911 270.284 407.203 270.723C407.272 267.699 407.343 264.676 407.413 261.652ZM407.628 252.685C406.839 252.781 405.989 252.726 405.262 252.75C403.421 252.81 401.581 252.866 399.74 252.921L388.697 253.247C384.937 253.358 381.163 253.441 377.402 253.388C375.747 253.364 374.085 253.362 372.431 253.272L371.88 253.238C371.199 253.193 370.364 253.187 369.548 253.104L370.511 262.032C372.724 261.712 375.005 261.593 377.199 261.405L377.668 261.364C380.904 261.069 384.155 260.873 387.397 260.654C390.722 260.428 394.043 260.155 397.364 259.875C399.023 259.735 400.683 259.596 402.342 259.443L402.546 259.423C404.113 259.259 405.586 258.911 406.974 259.836C407.177 259.971 407.336 260.151 407.445 260.353C407.505 257.797 407.565 255.241 407.628 252.685ZM407.886 242.265C401.16 242.536 394.433 242.741 387.703 242.832C383.914 242.883 380.13 242.847 376.342 242.768C374.699 242.733 373.043 242.654 371.402 242.529L370.787 242.479C370.007 242.413 369.187 242.366 368.371 242.287C368.708 245.357 369.043 248.427 369.375 251.498C370.178 251.349 371.017 251.28 371.721 251.19L371.881 251.169C373.629 250.928 375.394 250.787 377.151 250.633C380.573 250.331 384.011 250.137 387.442 249.971C390.955 249.802 394.47 249.659 397.983 249.502L401.497 249.345C402.083 249.319 402.668 249.293 403.254 249.269C404.091 249.233 404.928 249.2 405.764 249.165C406.177 249.148 406.606 249.092 407.019 249.113L407.137 249.097C407.191 249.09 407.239 249.085 407.283 249.08C407.395 248.995 407.516 248.923 407.644 248.87L407.722 248.839L407.886 242.265ZM367.267 232.39C367.58 235.154 367.889 237.918 368.193 240.683C369.153 240.573 370.123 240.512 371.039 240.43C372.886 240.264 374.742 240.119 376.594 240.034L380.297 239.862C382.765 239.747 385.233 239.637 387.702 239.547C394.462 239.3 401.221 239.017 407.976 238.672C408.024 236.797 408.073 234.922 408.123 233.047C407.799 233.394 407.33 233.623 406.715 233.621C399.623 233.602 392.525 233.643 385.434 233.527C381.885 233.468 378.339 233.382 374.794 233.2C373.059 233.111 371.314 232.929 369.593 232.69C368.858 232.589 368.055 232.516 367.267 232.39ZM366.133 222.542C366.466 225.373 366.793 228.205 367.115 231.037C367.996 230.88 368.906 230.796 369.727 230.684C371.493 230.444 373.269 230.253 375.048 230.152C378.508 229.956 381.97 229.857 385.435 229.784C392.525 229.633 399.623 229.634 406.715 229.578C407.382 229.573 407.876 229.837 408.201 230.23C408.25 228.463 408.302 226.695 408.356 224.927C407.671 224.854 406.992 224.752 406.363 224.708C404.431 224.573 402.499 224.45 400.566 224.339C396.532 224.107 392.494 223.909 388.457 223.733C384.419 223.558 380.38 223.386 376.341 223.236L374.575 223.172C371.766 223.067 368.909 222.935 366.133 222.542ZM364.863 211.88C365.21 214.747 365.551 217.615 365.892 220.483L365.996 221.371C369.374 220.714 372.934 220.521 376.341 220.376C380.381 220.204 384.414 220.116 388.457 220.128C392.496 220.14 396.53 220.236 400.566 220.403C402.582 220.486 404.599 220.582 406.614 220.692C407.169 220.722 407.818 220.706 408.487 220.716C408.502 220.265 408.514 219.814 408.53 219.364C408.591 217.538 408.651 215.713 408.714 213.888C407.35 214.589 405.578 214.871 404.208 215.17L404.052 215.204C401.789 215.713 399.48 216.043 397.171 216.244C392.636 216.64 388.054 216.492 383.524 216.109L382.731 216.041C378.753 215.695 374.628 215.258 370.772 214.272C368.935 213.803 367.036 213.147 365.39 212.195C365.219 212.096 365.042 211.991 364.863 211.88ZM403.167 177.808C403.206 177.653 403.438 177.617 403.514 177.762C404.05 178.781 404.249 180.003 404.621 181.095C405.022 182.268 405.395 183.45 405.837 184.609C406.759 187.031 407.848 189.358 409.145 191.602C410.43 193.823 406.832 195.409 405.886 192.977C404.91 190.467 404.108 187.872 403.622 185.22C403.385 183.926 403.174 182.615 403.106 181.3C403.046 180.171 402.888 178.909 403.167 177.808Z" fill="black"/>
<path fill-rule="evenodd" clip-rule="evenodd" d="M384.542 75.7724C398.907 75.7724 417.449 84.8105 419.03 94.0671C420.894 104.976 430.872 146.834 428.618 160.257C426.365 173.68 414.223 183.344 394.795 183.344C375.366 183.344 360.864 172.716 357.534 169.067C354.205 165.418 348.034 152.39 348.034 152.39C348.034 152.39 337.631 151.003 337.582 142.497C337.533 133.992 344.345 130.897 344.345 130.897C344.345 130.897 341.916 97.3314 348.034 88.5924C354.152 79.8534 370.177 75.7724 384.542 75.7724Z" fill="#E8B796"/>
<path fill-rule="evenodd" clip-rule="evenodd" d="M418.151 92.5736C418.141 92.3784 418.424 92.3556 418.477 92.5282C421.576 102.797 423.486 110.8 425.497 121.329L426.091 124.426C427.678 132.686 429.282 140.959 430.636 149.259L430.715 149.755C431.394 154.051 431.785 158.39 430.934 162.695C430.14 166.72 427.969 170.409 425.151 173.348C419.704 179.027 412.135 182.574 404.52 184.16C400.67 184.962 396.698 185.272 392.774 184.992C390.818 184.855 388.865 184.579 386.95 184.17L386.739 184.125C384.808 183.707 383.095 183.208 382.07 181.386C381.812 180.927 381.916 180.141 382.457 179.905C383.479 179.463 384.231 179.278 385.346 179.405C386.411 179.526 387.451 179.849 388.503 180.049C390.515 180.432 392.559 180.625 394.605 180.671C398.625 180.76 402.656 180.255 406.498 179.052C413.101 176.984 419.811 173.028 423.669 167.111C428.207 160.149 426.4 151.701 425.197 144.013L425.161 143.781C423.943 135.923 422.74 128.065 421.571 120.203L421.073 116.832C419.762 107.928 418.525 101.572 418.151 92.5736ZM351.113 70.779C354.408 68.6004 358.504 68.065 362.374 68.0951L362.859 68.1012C367.815 68.177 392.764 68.7725 401.117 68.9557L403.104 68.9977C405.734 69.0475 411.039 69.0995 413.772 69.1496L413.929 69.1525C415.27 69.1779 416.611 69.188 417.952 69.2312L418.148 69.2383C419.153 69.2813 419.989 69.432 420.775 70.1421C421.175 70.502 421.331 71.0509 421.295 71.5738L421.289 71.6418L423.28 71.8169C424.632 71.9367 425.347 73.1529 424.81 74.3836L424.783 74.4432C423.829 76.4834 423.1 82.4211 422.589 84.6161C422.321 85.7706 422.106 86.943 421.979 88.1229C421.878 89.0519 421.868 89.9829 421.352 90.8C420.251 92.5433 417.155 92.528 417.099 90.059C417.097 89.9804 417.099 89.9042 417.107 89.8307C409.315 89.4881 398.677 89.5211 390.895 89.988C383.627 90.4244 376.391 91.4141 369.27 92.929C367.466 93.3121 365.667 93.7308 363.881 94.185C362.416 94.5555 360.618 94.7763 359.307 95.5705C357.84 96.4637 357.868 98.0649 358.027 99.5899C358.198 101.206 358.483 100.373 358.888 101.847L358.913 101.94C359.33 103.538 359.846 105.119 360.529 106.621C360.919 107.479 361.546 108.304 361.308 109.291C361.174 109.847 360.736 110.44 360.334 110.829C358.502 112.592 355.406 111.468 354.161 113.884C352.859 116.41 352.826 119.832 352.716 122.627L352.709 122.79C352.629 124.716 352.651 126.647 352.778 128.568C352.891 130.319 353.357 132.052 352.76 133.735C352.325 134.958 350.903 135.072 350.159 134.077C350.074 133.963 349.996 133.846 349.922 133.728L349.851 133.61L349.846 133.613C349.916 133.724 349.982 133.839 350.045 133.955C350.114 134.085 349.944 134.227 349.84 134.115C348.09 132.205 345.532 132.585 343.551 133.922C341.545 135.283 340.753 137.866 340.649 140.183C340.533 142.753 340.761 145.765 341.828 148.14C342.279 149.145 342.921 150.069 343.986 150.452C344.47 150.624 344.93 150.601 345.433 150.642C345.957 150.682 346.587 150.947 347.095 150.911C347.756 150.864 348.349 151.62 348.162 152.254L348.148 152.297C348.138 152.327 348.128 152.357 348.118 152.385C348.143 152.408 348.168 152.436 348.186 152.477C350.109 156.417 352.745 159.924 355.659 163.177C357.119 164.804 358.738 166.298 360.43 167.681C361.265 168.364 362.146 169.047 363.074 169.597C363.383 169.777 363.666 169.899 364.013 169.998C364.175 170.044 364.359 170.067 364.516 170.12L364.679 170.176C364.69 170.18 364.701 170.183 364.711 170.186C365.176 170.239 365.569 170.549 365.723 171.033C366.125 172.297 365.394 173.414 364.144 173.761C362.79 174.141 361.514 173.474 360.441 172.709L360.37 172.657C358.181 171.077 356.165 169.303 354.42 167.232C350.966 163.144 348.803 158.412 347.802 153.177C347.553 153.712 347.22 154.179 346.64 154.504C345.74 155.012 344.664 155.012 343.678 154.842C341.692 154.504 339.999 153.289 338.868 151.644C337.694 149.939 337.257 147.869 336.991 145.851C336.728 143.831 336.599 141.804 336.862 139.779C337.239 136.871 338.456 133.996 340.821 132.402C339.051 128.533 338.739 124.194 338.866 119.956C339.02 114.739 339.918 109.463 340.609 104.294L342.572 89.5997L342.653 89.0073C343.127 85.5504 343.703 82.0751 344.993 78.8179C346.266 75.6079 348.199 72.705 351.113 70.779ZM342.851 140.297C346.094 138.718 349.598 140.172 351.344 143.235C352.861 145.898 348.349 147.658 347.596 144.913L347.574 144.829C347.078 142.75 345.059 140.954 342.952 140.675C342.778 140.65 342.648 140.396 342.851 140.297Z" fill="black"/>
<path fill-rule="evenodd" clip-rule="evenodd" d="M406.982 164.813C405.114 165.355 403.11 165.403 401.206 164.844C399.479 164.337 397.707 163.221 396.436 161.744C395.307 160.432 394.576 158.837 394.604 157.135C394.608 156.941 394.677 156.779 394.784 156.653C394.899 156.517 395.06 156.424 395.232 156.384C395.409 156.342 395.596 156.357 395.755 156.429C395.899 156.495 396.023 156.606 396.1 156.769C396.295 157.026 396.49 157.279 396.685 157.525C398.255 159.466 399.776 160.916 402.137 161.436C403.418 161.718 404.698 161.593 405.872 161.163C407.129 160.701 408.265 159.891 409.155 158.853C409.557 158.385 410.032 158.193 410.497 158.19C411.023 158.186 411.543 158.431 411.935 158.822C412.321 159.207 412.578 159.73 412.602 160.276C412.622 160.756 412.466 161.257 412.05 161.704C410.68 163.177 408.904 164.256 406.982 164.813ZM406.925 140.506C408.839 141.671 411.756 144.387 409.697 147.274C407.273 149.82 403.782 146.901 402.062 145.581C400.468 144.558 398.676 147.189 400.155 148.384C412.584 157.594 417.628 140.811 407.893 139.137C406.821 138.952 406.423 140.146 406.925 140.506ZM389.017 135.381C388.401 134.987 387.677 134.852 386.875 135.217C386.248 135.503 385.149 136.454 384.384 137.704C383.86 138.56 383.489 139.563 383.566 140.609C383.584 140.851 383.495 141.03 383.353 141.163C383.242 141.267 383.08 141.344 382.891 141.368C382.73 141.388 382.55 141.37 382.404 141.324C382.125 141.237 381.978 141.057 381.923 140.909C381.387 139.485 381.618 137.896 382.218 136.462C383.028 134.527 384.5 132.906 385.464 132.384C387.114 131.489 389.06 131.448 390.712 132.359C392.119 133.135 392.998 134.387 393.873 135.664C394.059 135.935 394.243 136.204 394.434 136.469C394.816 136.999 394.854 137.525 394.706 137.976C394.542 138.475 394.124 138.897 393.601 139.118C393.118 139.321 392.557 139.35 392.061 139.141C391.642 138.964 391.257 138.619 391.013 138.033C390.603 137.047 389.92 135.959 389.017 135.381ZM420.266 137.575C419.845 137.794 419.515 137.861 419.048 137.72C418.789 137.643 418.534 137.494 418.334 137.294C418.135 137.095 417.992 136.848 417.937 136.575C417.8 135.899 417.431 135.267 416.904 134.855C416.455 134.502 415.887 134.315 415.257 134.421C414.578 134.534 413.93 134.971 413.484 135.485C413.335 135.657 413.218 135.852 413.101 136.046C412.881 136.41 412.668 136.747 412.365 137.014C412.25 137.115 412.077 137.185 411.909 137.185C411.841 137.185 411.772 137.174 411.706 137.154C411.03 136.474 410.9 135.959 410.921 135.447C410.944 134.911 411.155 134.369 411.497 133.862C412.297 132.674 413.817 131.7 414.843 131.479C416.247 131.177 417.642 131.54 418.761 132.325C419.912 133.133 420.764 134.387 421.03 135.801C421.094 136.142 421.067 136.509 420.937 136.828C420.811 137.139 420.59 137.406 420.266 137.575ZM392.114 122.714C391.271 123.536 390.273 123.664 389.264 123.777C388.703 123.841 388.255 123.892 387.815 123.991C386.604 124.265 385.407 124.677 384.315 125.27C383.174 125.891 381.93 126.639 381.035 127.597C380.822 127.825 380.621 128.065 380.42 128.305C380.237 128.523 380.061 128.734 379.875 128.937C379.661 129.17 379.458 129.414 379.257 129.658C379.132 129.864 379.107 129.914 379.082 129.967C379.044 130.046 379 130.135 378.95 130.23C378.881 130.36 378.801 130.502 378.716 130.631C378.576 130.867 378.501 130.932 378.436 130.962C378.327 131.01 378.225 131.033 378.126 131.021C378.033 131.009 377.945 130.964 377.858 130.89C377.425 130.524 377.298 129.924 377.311 129.286C377.331 128.319 377.687 127.248 378.016 126.589C378.78 125.059 379.84 123.468 381.114 122.327C382.568 121.023 384.159 120.036 385.987 119.356C387.122 118.933 388.437 118.545 389.674 118.594C390.565 118.63 391.415 118.895 392.117 119.556C392.548 119.963 392.755 120.54 392.755 121.118C392.755 121.707 392.54 122.299 392.114 122.714ZM421.981 130.242C421.927 130.33 421.853 130.391 421.771 130.427C421.684 130.465 421.587 130.476 421.495 130.46C421.402 130.445 421.315 130.403 421.245 130.339C421.178 130.278 421.128 130.196 421.105 130.097C420.545 127.636 419.458 125.806 417.139 124.625C415.998 124.045 414.686 123.676 413.444 123.382C413.083 123.296 412.702 123.241 412.318 123.185C411.114 123.009 409.902 122.807 409.117 121.834C408.644 121.247 408.446 120.497 408.558 119.811C408.664 119.165 409.041 118.572 409.726 118.217C411.433 117.334 413.554 118.201 415.278 118.939C415.406 118.994 415.531 119.048 415.654 119.1C417.34 119.812 418.877 120.752 420.141 122.096C421.143 123.162 422.072 124.739 422.446 126.361C422.758 127.71 422.685 129.088 421.981 130.242Z" fill="black"/>
<path fill-rule="evenodd" clip-rule="evenodd" d="M407.203 150.392C404.384 149.121 399.321 150.231 397.483 150.672C393.21 151.697 388.911 153.914 387.583 157.386C386.086 161.3 389.073 162.532 389.512 162.331C392.47 162.539 395.993 160.678 399.093 160.198C401.609 159.804 404.264 159.461 406.621 158.123C408.343 159.07 412.231 159.583 415.369 160.412C418.041 161.117 419.199 162.647 421.676 162.321C424.646 161.932 423.43 155.681 420.121 153.149C416.499 150.378 410.374 149.254 407.203 150.392ZM412.786 177.119C410.319 177.721 410.154 172.31 409.877 170.398C409.661 168.904 408.444 165.053 405.357 165.219C402.27 165.385 401.11 168.612 401.266 170.619C401.368 171.921 402.566 178.514 398.741 179.348C396.303 179.339 393.482 179.174 390.917 178.701C387.9 178.017 383.975 175.622 382.939 180.339C382.566 182.036 395.86 187.08 401.759 187.536C407.741 188.75 414.741 186.884 419.001 182.303C419.97 181.261 422.699 176.935 422.893 175.875C423.302 173.649 422.356 172.216 419.603 173.001C417.659 174.04 414.372 176.732 412.786 177.119Z" fill="black"/>
<path fill-rule="evenodd" clip-rule="evenodd" d="M424.715 144.827C420.91 146.661 415.602 143.956 413.043 141.122C412.112 140.09 411.394 137.138 411.752 135.266C412.722 130.196 416.368 127.153 420.216 126.114C425.551 124.673 430.921 128.323 430.295 132.63C429.701 136.712 428.802 142.634 424.715 144.827ZM398.817 135.088C398.512 140.613 394.079 145.449 388.78 146.882C380.243 149.266 376.024 143.26 374.113 136.789C373.923 136.146 373.477 134.183 374.675 132.5C379.386 125.878 390.848 127.007 396.573 128.825C398.249 130.429 398.934 132.744 398.817 135.088ZM428.849 125.557C428.846 125.561 428.843 125.564 428.841 125.567C428.821 125.555 428.802 125.543 428.782 125.531C428.804 125.54 428.827 125.548 428.849 125.557ZM435.992 126.196C435.496 120.57 417.86 122.725 415.798 123.186C410.171 124.842 405.311 129.349 399.019 127.368C392.5 120.094 370.548 122.18 365.946 125.885C365.075 125.543 364.016 125.727 362.894 126.049C357.13 125.841 330.819 127.83 336.201 135.192C337.017 135.759 337.833 135.182 337.856 134.014C365.911 123.878 363.192 133.372 366.519 132.263C367.027 132.41 367.557 132.502 368.021 132.6C370.596 133.429 371.471 133.173 371.81 136.066C374.14 158.409 403.867 150.698 401.429 132.371C403.843 132.238 405.955 131.193 408.507 132.213C410.28 149.478 424.16 150.175 428.337 144.19C431.487 140.036 430.238 133.767 434.568 130.499C436.278 131.931 436.388 127.099 435.992 126.196Z" fill="black"/>
<path fill-rule="evenodd" clip-rule="evenodd" d="M290.721 216.445C287.251 216.786 283.782 217.127 280.313 217.468C263.697 218.739 247.088 221.394 230.6 222.988C230.19 222.319 229.386 222.429 228.898 222.894C227.253 222.749 225.409 221.49 223.919 222.8C223.87 222.793 223.822 222.785 223.773 222.781C221.119 217.68 219.285 212.24 217.505 206.792C216.369 203.443 214.84 200.201 212.015 197.952C207.194 194.6 196.147 187.804 190.486 188.09C190.392 187.075 189.919 186.028 189.143 185.352C190.853 182.433 184.016 180.528 183.534 180.866C183.843 171.112 179.262 162.642 169.159 160.699C160.109 158.811 147.237 158.493 142.369 167.965C141.834 167.905 136.365 167.877 135.836 167.936C135.013 166.892 125.977 176.781 129.681 180.224C96.5721 194.891 77.7466 193.141 68.5827 234.375C67.3438 238.249 67.2536 242.488 65.9454 246.275C61.2912 257.158 57.5162 268.748 56.5767 280.59C54.3076 281.172 54.0467 285.179 56.675 285.759C57.6789 285.98 58.5185 286.283 59.2505 286.857C58.6782 296.562 61.022 318.731 62.4987 318.663C65.5098 328.26 78.9409 330.968 88.4497 327.596C86.8105 330.684 88.4497 332.626 88.4497 334.276C122.665 335.572 160.075 334.826 194.281 336.604C198.656 336.541 203.258 337.68 207.574 337.025C210.206 336.393 210.21 332.248 207.541 331.736L219.206 329.199C218.945 329.1 224.014 325.723 227.845 319.414C231.411 312.355 228.984 303.835 230.6 296.157C243.221 295.123 256.05 294.681 268.532 292.541C270.234 297.64 277.601 291.542 279.943 289.088C279.94 289.084 279.937 289.081 279.934 289.077C281.067 288.766 281.976 287.703 282.007 286.443C282.801 285.306 282.968 283.703 282.206 282.604C285.699 262.417 291.025 241.805 292.95 221.428C293.631 221.277 294.271 220.978 294.815 220.518L294.771 220.474C295.691 219.446 295.87 217.672 294.336 216.799C293.098 216.094 292.064 216.313 290.721 216.445Z" fill="#E8B796"/>
<path fill-rule="evenodd" clip-rule="evenodd" d="M158.775 292.001L161.447 293.704L183.314 300.76L196.676 302.463L207.609 300.76V319.495L209.796 337.014C208.824 338.798 199.592 338.798 182.099 337.014C170.947 335.876 130.192 335.324 120.913 335.082L120.387 335.067C109.484 334.752 98.7125 334.752 88.0741 335.067V328.498L118.444 313.412L145.655 298.083L158.775 292.001ZM143.281 166.434L145.289 167.936L140.905 175.15L162.264 192.452V206.272L169.026 212.678L172.891 206.272L178.338 199.019L182.208 187.261L180.89 179.515L183.54 179.265C183.553 179.794 183.551 180.328 183.534 180.866C184.016 180.528 190.853 182.433 189.144 185.352C189.919 186.028 190.392 187.075 190.486 188.09C196.147 187.804 207.194 194.6 212.015 197.952C214.84 200.201 216.369 203.443 217.505 206.792L217.773 207.609L218.049 208.448L218.327 209.286C219.865 213.893 221.525 218.459 223.773 222.781C223.822 222.785 223.87 222.793 223.919 222.8C225.409 221.49 227.253 222.749 228.898 222.894C229.375 222.44 230.153 222.324 230.571 222.942L230.6 222.988L210.102 227.032L196.579 274.537L184.802 264.964L178.48 265.905L161.787 271.935L142.372 276.986L98.0488 289.223H92.4044L59.5603 281.28L56.6003 280.302C57.5778 268.559 61.3292 257.07 65.9455 246.275C67.2537 242.488 67.344 238.249 68.5828 234.375C77.7467 193.141 96.5723 194.891 129.681 180.224C125.977 176.781 135.013 166.892 135.836 167.936L135.888 167.931L136 167.925L136.144 167.92C137.436 167.883 141.889 167.911 142.369 167.965C142.648 167.423 142.952 166.914 143.281 166.434Z" fill="black"/>
<path fill-rule="evenodd" clip-rule="evenodd" d="M293.997 217.887L293.386 221.295C293.241 221.343 293.094 221.383 292.944 221.416C292.752 223.447 292.526 225.481 292.272 227.516L288.487 248.646C287.834 252.384 287.214 256.13 286.599 259.877L285.783 263.902L285.278 266.404C284.188 271.822 283.129 277.222 282.2 282.592C282.34 282.794 282.449 283.013 282.528 283.244L282.457 283.546L282.407 283.748L282.356 283.948C281.623 286.77 280.347 289.507 277.341 290.338C275.073 290.964 272.585 291.021 270.243 291.268L269.983 291.296L229.006 295.911C224.055 296.469 219.106 297.043 214.157 297.623L209.868 298.127C203.888 298.821 197.875 299.366 191.984 300.622C191.767 300.668 191.588 300.754 191.442 300.868C192.628 296.371 193.763 291.88 194.793 287.337C195.951 282.224 197.05 277.102 198.29 272.007C200.786 261.744 203.584 251.549 206.647 241.441C207.29 239.319 207.948 237.202 208.62 235.09L209.091 233.613L209.454 232.437C210.016 230.643 210.711 228.799 212.358 227.809C214.286 226.651 216.914 226.459 219.1 226.058L220.581 225.78C222.795 225.366 225.013 224.968 227.234 224.585C237.864 222.754 248.556 221.285 259.286 220.182C270.452 219.033 281.657 218.287 292.875 217.923L293.997 217.887ZM192.291 288.337L192.395 288.346L190.865 300.599C190.62 300.428 190.309 300.323 189.93 300.324C184.909 300.339 180.096 298.732 175.441 296.965L174.733 296.694L172.756 295.934C170.747 295.163 168.727 294.409 166.67 293.784L165.838 293.532L165.416 293.407C163.858 292.952 162.219 292.538 160.599 292.435L160.378 292.423L160.85 292.175C160.919 292.139 160.979 292.098 161.033 292.054C161.925 292.12 162.819 292.102 163.759 291.933C165.529 291.614 167.249 290.997 168.829 290.139L169.534 289.756L169.823 289.603L170.014 289.504L170.204 289.408C171.56 288.73 172.858 288.306 174.571 288.667C176.515 289.077 178.22 290.126 179.973 291.013L180.284 291.168L180.493 291.27L180.706 291.37L180.922 291.469C183.293 292.537 187.065 293.69 187.974 290.462C188.339 289.165 188.054 287.951 187.42 286.886C188.601 286.784 190.71 288.178 192.291 288.337ZM251.3 247.965L251.328 248.112C251.663 249.919 250.823 251.648 249.551 252.908C248.507 253.942 246.66 254.516 246.137 256.003C245.839 256.849 246.156 257.651 246.768 258.211L246.627 258.28L246.489 258.351L246.355 258.422L246.224 258.494L246.096 258.566C244.018 259.762 242.325 261.706 244.2 264.055C246.326 266.719 250.769 266.806 253.899 266.597L254.11 266.582C257.146 266.355 260.741 265.333 262.387 262.527C263.142 261.239 263.059 259.682 262.007 258.58C261.372 257.915 260.239 257.232 259.201 257.152C259.246 256.566 259.177 256 258.971 255.522C258.526 254.49 257.341 253.795 256.199 253.77C256.291 251.577 254.538 249.414 253.247 247.661L253.115 247.481L252.988 247.304C252.395 246.479 251.128 246.942 251.3 247.965ZM253.032 250.298L254.208 254.71L254.188 254.747C253.773 255.534 254.859 256.429 255.504 255.767L255.568 255.697C256.333 254.906 257.507 255.969 257.521 256.811C257.542 257.995 256.772 258.911 255.854 259.516L255.79 259.558L255.621 259.663C254.868 260.162 255.438 261.204 256.266 261.077C257.29 260.92 258.129 260.106 258.647 259.091C259.2 259.249 259.829 259.23 260.412 259.556C261.879 260.378 261.035 261.816 260.079 262.685L260.041 262.72L259.963 262.788C258.21 264.285 255.823 264.805 253.572 264.917L253.443 264.923C251.17 265.02 248.209 265.053 246.261 263.714C245.048 262.881 244.697 261.699 245.723 260.58C246.304 259.948 246.889 259.31 247.492 258.694C248.395 259.125 249.201 258.95 250.124 258.542C250.242 258.489 250.177 258.308 250.061 258.308C249.552 258.307 247.683 257.361 247.592 256.756C247.508 256.196 248.542 255.724 249.045 255.453L249.117 255.413L249.181 255.377C249.706 255.058 250.201 254.686 250.654 254.269C251.802 253.211 252.636 251.883 253 250.43L253.032 250.298Z" fill="white"/>
<path fill-rule="evenodd" clip-rule="evenodd" d="M143 165.766C144.031 163.171 147.516 164.18 147.127 166.905C146.895 168.538 146.002 170.262 145.2 171.693C144.547 172.858 143.802 173.995 142.792 174.868C144.59 176.548 146.456 178.166 148.369 179.703C150.457 181.38 152.653 182.925 154.922 184.345C156.912 185.591 158.992 186.695 160.868 188.116C162.612 189.438 164.201 191.027 165.01 193.102C165.871 195.311 165.497 197.593 164.863 199.801L164.79 200.05C164.142 202.238 163.02 204.875 164.576 206.935C165.367 207.985 166.518 208.728 167.512 209.566C168.396 210.312 169.225 211.123 169.985 211.993C171.644 213.892 172.992 216.028 173.843 218.408L173.92 218.624C174.649 220.731 175.182 223.312 174.196 225.381C173.914 225.974 173.002 225.781 172.843 225.204C172.485 223.896 172.504 222.526 172.203 221.199C171.891 219.82 171.371 218.51 170.692 217.271C169.378 214.874 167.599 212.827 165.496 211.096L164.867 210.584C163.227 209.236 161.72 207.806 161.387 205.575C161.031 203.188 161.986 200.915 162.6 198.656C163.028 197.082 163.168 195.573 162.705 194.15C162.14 195.073 161.37 195.95 160.76 196.732C159.546 198.289 158.321 199.837 157.098 201.388C155.845 202.978 154.623 204.594 153.459 206.251C152.938 206.992 152.423 207.738 151.91 208.484C151.524 209.045 150.985 209.606 150.564 210.178C150.667 210.484 150.659 210.837 150.474 211.088C148.242 214.107 145.067 207.807 144.239 206.215C142.553 202.974 141.298 199.53 139.607 196.289C137.854 192.929 135.857 189.659 133.633 186.592C132.287 184.737 130.779 182.994 129.548 181.08C126.647 183.713 122.831 185.479 119.326 187.08C115.474 188.839 111.473 190.275 107.524 191.801L106.358 192.255C99.5536 194.914 92.5833 197.836 86.9279 202.559C80.2823 208.11 76.3508 215.846 73.4239 223.858C70.0545 233.081 67.2671 242.552 64.6686 252.018C63.3389 256.861 62.0772 261.726 60.8911 266.607C59.8459 270.907 58.9795 275.249 57.7696 279.505C60.2235 279.418 63.0221 280.369 65.1171 280.644C74.6651 281.896 84.0846 283.891 93.0991 287.345C94.2125 287.772 94.5347 288.885 94.2922 289.788C94.9344 289.607 95.576 289.423 96.2182 289.242C95.5146 288.163 95.8504 286.233 95.9057 285.036L95.9091 284.954C95.966 283.359 96.1387 281.763 96.2507 280.172C96.464 277.138 96.7417 274.126 97.1108 271.11L97.2051 270.355C97.6234 267.074 97.9327 263.773 98.3892 260.496L98.4432 260.121C98.2243 259.283 97.9694 258.455 97.7019 257.631C96.9891 255.435 95.983 253.368 95.1013 251.241C94.9973 250.991 95.3535 250.847 95.5199 250.997C97.0131 252.342 98.1992 254.049 99.1521 255.834C99.1686 255.75 99.1832 255.665 99.2005 255.581L99.3092 255.045C99.5773 253.738 99.9035 252.363 100.704 251.303C100.789 251.19 100.958 251.166 101.039 251.303C101.805 252.601 101.891 254.246 102.009 255.724C102.142 257.395 102.159 259.088 102.135 260.764C102.089 264.04 101.859 267.325 101.675 270.595C101.495 273.809 101.141 276.982 100.685 280.164L100.598 280.761C100.375 282.275 100.193 283.809 99.8987 285.313L99.8156 285.723C99.6584 286.469 99.5617 287.52 99.2488 288.394C107.3 286.145 115.363 283.948 123.442 281.789C129.281 280.228 135.126 278.691 140.969 277.144C141.277 276.587 141.661 276.068 142.14 275.603C143.719 274.072 145.811 273.389 147.729 274.568C147.885 274.664 147.898 274.909 147.729 275.001C147.362 275.202 146.993 275.409 146.632 275.624L150.14 274.672C152.762 273.961 155.416 273.071 158.1 272.575C163.043 270.132 168.36 268.364 173.568 266.616L174.181 266.408C176.848 265.498 179.606 264.479 182.361 263.974C184.377 263.604 186.745 264.05 187.556 266.119C188.582 266.797 189.548 267.593 190.481 268.377C191.155 268.943 191.801 269.544 192.458 270.13L192.579 270.237C193.116 270.703 193.541 271.016 193.673 271.759C193.741 272.142 193.498 272.661 193.025 272.61C191.579 272.455 190.404 270.777 189.423 269.775C188.666 269 187.902 268.199 187.21 267.348C186.807 267.567 186.255 267.528 185.998 267.041C184.668 264.518 181.023 266.267 179.007 266.865L176.118 267.721C174.674 268.15 173.23 268.581 171.789 269.019C167.828 270.224 163.886 271.572 159.889 272.678C160.246 273.072 160.197 273.772 159.518 274.039C156.389 275.268 152.956 275.904 149.706 276.748C147.654 277.281 145.602 277.817 143.552 278.356C143.201 278.927 142.948 279.572 142.841 280.323C142.45 283.085 143.205 286.271 143.94 288.942L144.05 289.341C144.655 291.488 145.544 294.121 147.394 295.477C147.845 295.808 148.421 296.038 149 296.09C152.622 294.223 156.244 292.356 159.867 290.493C160.539 290.148 161.159 290.615 161.309 291.171C162.587 290.961 163.862 290.63 165.023 290.235C166.974 289.572 168.497 288.306 170.326 287.431C173.865 285.738 177.479 287.818 180.648 289.399L181.378 289.758C182.799 290.449 185.755 291.775 186.437 289.887C187.096 288.06 185.011 286.108 183.665 285.285C182.06 284.305 180.191 283.781 178.377 283.344C177.342 283.094 176.293 282.89 175.238 282.742C174.042 282.573 172.806 282.598 171.655 282.21C171.082 282.017 170.994 281.106 171.655 280.956C173.428 280.552 175.544 280.993 177.394 281.443L178.361 281.682C180.226 282.14 182.108 282.715 183.806 283.629C185.041 284.294 186.344 285.303 187.195 286.539C187.934 285.852 188.855 285.875 189.813 286.13L190.333 286.275C191.192 286.513 191.889 286.677 192.725 286.512C192.836 285.903 192.95 285.294 193.071 284.685C194.262 278.696 195.568 272.73 197.01 266.796C199.496 256.56 202.373 246.437 205.617 236.417L205.943 235.415C206.691 233.124 207.293 230.627 208.499 228.521C209.639 226.531 211.467 225.384 213.638 224.776C216.102 224.087 218.691 223.727 221.205 223.261C221.766 223.158 222.328 223.059 222.889 222.957C222.415 222.1 222.061 221.126 221.742 220.379L221.686 220.25C221.001 218.685 220.386 217.093 219.791 215.492L219.347 214.289C218.274 211.391 217.166 208.54 215.658 205.83C214.07 202.977 211.963 200.645 209.337 198.715C203.983 194.779 197.529 192.771 192.336 188.565C192.123 188.393 192.396 188.098 192.612 188.207C196.118 189.972 199.904 191.171 203.551 192.608L204.271 192.892C207.153 194.037 210.081 195.283 212.576 197.136C215.358 199.202 217.549 201.768 219.196 204.819C220.819 207.827 221.857 211.194 223.002 214.406L223.308 215.262C223.77 216.546 224.247 217.826 224.794 219.075C225.228 220.067 226.038 221.199 226.406 222.332C227.413 222.157 228.419 221.982 229.428 221.813C251.261 218.162 273.339 216.017 295.466 215.39C296.332 215.365 296.78 216.192 296.652 216.949C294.529 229.523 292.641 242.141 290.571 254.725C289.667 260.218 288.745 265.706 287.802 271.191C287.324 273.97 286.772 276.739 286.319 279.522C285.954 281.77 285.688 284.035 285.061 286.231C284.498 288.199 283.635 290.098 282.217 291.6C280.688 293.219 278.554 294.002 276.407 294.373C270.954 295.312 265.362 295.696 259.866 296.322L230.602 299.656C231.03 303.549 231.062 307.381 230.865 311.319L230.754 313.469C230.662 315.198 230.553 316.93 230.305 318.641C229.994 320.788 229.013 322.606 227.569 324.209C226.243 325.682 224.631 326.938 223.064 328.142C221.437 329.392 219.756 330.599 217.843 331.372L217.595 331.47C215.917 332.127 212.769 333.143 210.475 332.771C210.775 334.276 211.355 335.893 210.841 337.382C210.602 338.073 209.7 338.418 209.147 337.83C208.051 336.664 207.966 335.124 207.706 333.604C207.436 332.021 207.204 330.433 206.997 328.841C206.597 325.763 206.286 322.656 206.191 319.552C206.093 316.364 206.131 313.172 206.302 309.988C206.391 308.352 206.5 306.718 206.707 305.093C206.796 304.4 206.886 303.707 206.989 303.015C207.027 302.763 207.069 302.513 207.114 302.262L204.487 302.559C200.46 303.009 196.43 303.416 192.374 303.479C191.894 303.486 191.524 303.267 191.283 302.948C191.026 303.368 190.578 303.668 189.936 303.666C184.272 303.645 178.997 301.79 173.846 299.604C171.249 298.502 168.692 297.309 166.092 296.216C163.664 295.196 161.069 294.468 158.701 293.319L152.476 296.589C152.43 296.75 152.372 296.902 152.31 297.029C151.904 297.857 151.105 298.307 150.289 298.645C149.506 298.971 148.695 299.072 147.904 298.99C143.184 301.467 138.462 303.942 133.737 306.412L129.011 308.879C119.595 313.789 110.216 318.779 100.74 323.573L100.043 323.925C96.7699 325.569 93.2556 327.235 89.6236 328.478C89.5589 329.398 89.5997 330.294 89.6768 331.268L89.6953 331.481C89.8036 332.632 90.0358 334.075 89.1133 334.895C88.6335 335.321 87.7763 335.323 87.4501 334.68C86.858 333.514 87.3896 331.677 87.5771 330.41C87.6437 329.96 87.7248 329.497 87.8449 329.048C83.681 330.289 79.3911 330.891 75.154 330.194C71.0285 329.516 67.8334 326.913 65.2576 323.729C62.5391 320.37 60.6073 316.455 59.5709 312.258C58.3913 307.482 58.3143 302.55 58.342 297.658C58.3714 292.449 58.5638 287.214 59.1965 282.04C58.5033 281.877 57.7346 281.736 57.0342 281.785C56.6872 282.341 56.0142 282.575 55.4061 282.502C54.0837 283.963 57.438 285.456 58.5099 285.829C58.8821 285.959 58.8423 286.565 58.413 286.547L58.1425 286.534C56.4862 286.445 54.775 286.162 53.8011 284.621C53.0208 283.385 53.2552 281.921 54.1855 280.914C54.7999 275.096 56.2689 269.43 57.636 263.755C58.9776 258.184 60.4696 252.649 62.051 247.142L62.76 244.677C65.2499 236.042 67.8524 227.338 71.287 219.046C73.0021 214.906 74.9778 210.842 77.6559 207.232C80.1523 203.867 83.0997 200.987 86.4875 198.528C92.8031 193.942 100.214 191.171 107.495 188.532L107.821 188.414C111.595 187.047 115.359 185.664 119.089 184.182C122.388 182.873 125.549 181.212 128.833 179.883C128.726 179.689 128.623 179.493 128.524 179.294L128.463 179.345C128.453 179.354 128.442 179.362 128.431 179.369C128.101 179.598 127.615 179.486 127.343 179.229C126.574 178.503 126.834 177.697 127.347 176.944L127.414 176.848C128.041 175.968 128.601 175.037 129.18 174.125L129.542 173.555C130.514 172.032 131.535 170.498 132.831 169.239C133.431 168.655 134.088 168.219 134.784 167.893C134.725 167.767 135.247 167.51 135.395 167.639C137.6 166.831 140.137 167 142.541 167.223M229.186 299.817L226.12 300.166C222.747 300.551 219.372 300.923 215.997 301.291L208.667 302.088C208.648 302.507 208.597 302.916 208.588 303.232C208.54 304.862 208.504 306.492 208.47 308.122C208.403 311.389 208.477 314.659 208.692 317.92C208.9 321.08 209.174 324.24 209.6 327.379L209.687 328.006L209.738 328.336C210.086 328.369 210.427 328.535 210.711 328.875C211.331 329.616 213.576 328.896 214.453 328.583C215.895 328.069 217.253 327.201 218.506 326.331C219.73 325.48 220.831 324.489 221.89 323.445L222.756 322.587C223.618 321.729 224.481 320.816 225.009 319.737C225.725 318.274 225.817 316.479 226.027 314.885C226.286 312.926 226.594 310.966 226.919 309.017M140.177 279.247L139.859 279.331C128.306 282.405 116.771 285.57 105.182 288.509C99.4475 289.963 93.6856 291.312 87.9437 292.738L87.0141 292.971C82.4844 294.118 77.9004 295.498 74.4316 298.788C74.3036 298.909 74.1177 298.723 74.2382 298.594C77.9766 294.609 83.2935 292.922 88.3986 291.459C89.3422 291.189 90.2871 290.925 91.231 290.656C84.2882 288.177 77.2359 286.021 70.0207 284.483C68.1628 284.087 66.2833 283.796 64.4269 283.398C63.1322 283.121 61.8678 282.72 60.5868 282.387L59.5791 282.133L59.5658 285.323C59.549 289.84 59.557 294.353 59.7871 298.87L59.8307 299.706C60.0992 304.732 60.5182 309.863 62.2993 314.602C63.7466 318.453 66.0535 322.081 69.0703 324.887C70.5968 326.306 72.238 327.411 74.2667 327.956C76.1503 328.463 78.1239 328.522 80.0602 328.387C89.3483 327.738 97.6161 322.685 105.684 318.502C118.881 311.659 132.079 304.82 145.289 298.003C144.932 297.759 144.596 297.477 144.29 297.16C142.519 295.328 141.584 292.82 140.97 290.391C140.317 287.806 139.926 285.035 139.881 282.365M156.986 300.645C157.102 300.582 157.238 300.66 157.243 300.792C157.284 301.803 156.726 302.799 156.31 303.709L156.265 303.807C155.759 304.934 155.205 306.047 154.632 307.142C153.486 309.329 152.296 311.493 151.054 313.627C148.555 317.919 145.778 322.031 142.497 325.768C141.755 326.612 140.536 325.53 141.012 324.621C143.305 320.239 145.979 316.101 148.731 312C150.109 309.946 151.486 307.891 152.877 305.846C153.458 304.993 154.046 304.143 154.65 303.306L155.014 302.806M294.003 217.899C282.41 218.25 270.83 219.007 259.292 220.194C248.562 221.297 237.871 222.766 227.24 224.597C225.019 224.98 222.802 225.378 220.587 225.792L219.258 226.042C217.043 226.462 214.336 226.636 212.364 227.821C210.285 229.07 209.723 231.682 209.031 233.835C208.217 236.367 207.425 238.907 206.653 241.453C203.59 251.561 200.792 261.756 198.296 272.019C197.057 277.114 195.957 282.236 194.799 287.349C193.77 291.892 192.634 296.383 191.448 300.88C191.594 300.766 191.773 300.68 191.99 300.634C197.881 299.378 203.895 298.833 209.874 298.139L210.452 298.072C216.638 297.343 222.823 296.62 229.012 295.923L269.989 291.308C272.406 291.036 274.995 290.999 277.347 290.35C281.345 289.245 282.283 284.768 282.953 281.203L282.974 281.095C284.996 270.323 286.606 259.457 288.493 248.658M192.401 288.358C190.81 288.253 188.633 286.794 187.426 286.898C188.06 287.963 188.346 289.177 187.98 290.474C186.964 294.083 182.368 292.216 180.154 291.113C178.339 290.209 176.586 289.103 174.577 288.679C172.3 288.2 170.758 289.106 168.835 290.151C167.255 291.009 165.535 291.626 163.766 291.945C162.825 292.114 161.931 292.132 161.039 292.066C160.986 292.11 160.925 292.151 160.856 292.187L160.384 292.435C162.518 292.533 164.691 293.192 166.676 293.796C168.734 294.421 170.753 295.175 172.762 295.946L174.739 296.706C179.614 298.576 184.66 300.351 189.936 300.336C190.315 300.335 190.626 300.44 190.871 300.611M183.5 277.05C185.072 276.858 186.523 277.064 187.779 278.089C189.293 279.324 190.311 281.373 192.488 281.508C193.123 281.547 193.27 282.441 192.639 282.628C191.019 283.108 189.706 282.23 188.602 281.09L187.86 280.313C186.769 279.182 185.762 278.307 183.91 278.375C181.927 278.447 179.941 278.906 177.971 279.139C175.739 279.404 173.508 279.629 171.269 279.823C171.165 279.832 171.147 279.668 171.245 279.644L173.752 279.019M181.983 270.615L182.242 270.589C184.525 270.368 186.612 270.359 188.65 271.588L189.041 271.825C190.879 272.944 192.879 274.262 194.028 276.073C194.216 276.369 193.906 276.718 193.591 276.643C191.382 276.112 189.768 274.489 187.91 273.274C185.826 271.911 183.672 272.136 181.295 272.348C178.994 272.553 176.694 272.834 174.415 273.219C172.274 273.579 170.126 274.149 167.963 274.33L167.964 274.326C167.717 274.325 167.576 273.954 167.828 273.828C170.023 272.73 172.565 272.211 174.952 271.709M251.315 248.025C251.094 246.968 252.392 246.478 252.994 247.317L253.122 247.493C254.421 249.276 256.301 251.514 256.205 253.782C257.347 253.807 258.532 254.502 258.977 255.534C259.183 256.012 259.252 256.578 259.207 257.164C260.245 257.244 261.378 257.927 262.013 258.592C263.065 259.694 263.148 261.251 262.393 262.539C260.747 265.346 257.152 266.367 254.116 266.595L254.008 266.602C250.873 266.819 246.356 266.761 244.206 264.067C242.132 261.469 244.424 259.365 246.774 258.223C246.162 257.663 245.846 256.861 246.143 256.015C246.667 254.528 248.513 253.954 249.557 252.92C250.829 251.66 251.669 249.931 251.334 248.124M253.038 250.31C252.692 251.815 251.843 253.191 250.66 254.281C250.207 254.698 249.712 255.07 249.187 255.389L249.124 255.425C248.657 255.688 247.51 256.179 247.598 256.768C247.689 257.373 249.558 258.319 250.067 258.32C250.183 258.32 250.248 258.501 250.13 258.554C249.207 258.962 248.401 259.137 247.498 258.706C246.895 259.322 246.31 259.96 245.729 260.592C244.703 261.711 245.054 262.893 246.267 263.726C248.215 265.065 251.176 265.032 253.449 264.935C255.737 264.837 258.182 264.326 259.969 262.8L260.047 262.732C261.018 261.867 261.905 260.401 260.418 259.568C259.835 259.242 259.206 259.261 258.653 259.103C258.136 260.119 257.296 260.932 256.272 261.089C255.444 261.216 254.874 260.174 255.627 259.675L255.796 259.57C256.742 258.966 257.549 258.035 257.527 256.823C257.513 255.981 256.339 254.918 255.575 255.709L255.54 255.747C254.9 256.469 253.773 255.559 254.194 254.759L254.214 254.722M103.833 208.465C103.83 208.284 104.084 208.217 104.173 208.373C105.657 210.989 106.434 214.197 107.225 217.079C108.053 220.099 108.722 223.149 109.323 226.221C110.54 232.443 111.188 238.629 111.232 244.97C111.238 245.876 109.766 246.117 109.622 245.189C108.665 239.021 107.749 232.846 106.785 226.68C106.3 223.578 105.735 220.488 105.195 217.396M118.534 213.022C118.424 212.661 118.949 212.541 119.083 212.871C122.063 220.197 123.072 228.499 121.159 236.228C120.866 237.41 119.137 236.898 119.358 235.73M156.974 206.513C156.959 206.243 157.309 206.2 157.441 206.386C158.853 208.378 159.439 211.047 161.916 212.077C163.153 212.591 164.545 212.501 165.638 213.369C166.368 213.95 166.929 214.867 166.38 215.747C166.203 216.031 165.708 216.173 165.468 215.864C165.118 215.415 164.932 214.876 164.457 214.539C163.785 214.063 162.88 214.033 162.11 213.81C161.115 213.521 160.237 213.015 159.518 212.263M180.565 173.28C180.71 173.206 180.85 173.253 180.943 173.379C181.076 173.559 181.06 173.733 180.897 173.857C181.114 174.302 181.371 175.416 181.408 175.579C181.556 176.237 181.715 176.891 181.88 177.544C182.214 178.862 182.506 180.191 182.84 181.509C183.195 182.907 183.617 184.289 184.086 185.652C184.117 185.74 184.15 185.831 184.185 185.922L184.238 186.06L184.252 186.039C184.347 185.888 184.546 185.994 184.522 186.153C184.5 186.299 184.471 186.443 184.446 186.589L184.495 186.719C184.803 187.547 185.013 188.419 184.449 189.15C184.238 189.423 184.006 189.585 183.717 189.633C183.254 191.164 182.672 192.666 182.049 194.108L181.867 194.529C180.951 196.634 179.974 198.711 178.516 200.503C176.923 202.459 174.733 203.795 173.346 205.938C172.701 206.936 172.252 207.984 171.887 209.11L171.75 209.537C171.491 210.334 171.193 211.106 170.447 211.573C170.209 211.722 169.852 211.675 169.66 211.471C168.13 209.851 169.732 206.824 170.654 205.255C171.937 203.073 173.793 201.677 175.651 200.031C177.654 198.257 178.932 195.883 180.168 193.544C180.925 192.112 181.656 190.648 182.425 189.209C181.621 188.498 181.364 187.084 181.092 186.102L181.067 186.014C180.617 184.44 180.259 182.826 180.033 181.205C179.816 179.646 179.725 178.11 179.782 176.542L179.799 176.143M183.554 180.699C183.376 180.455 183.67 180.179 183.914 180.23C185.395 180.537 186.844 181.435 188.174 182.161L188.316 182.238C189.377 182.811 190.445 183.514 191.002 184.627C191.609 185.838 191.559 187.232 191.476 188.547L191.468 188.67C191.367 190.248 191.351 191.887 191.017 193.436C190.847 194.228 190.13 194.452 189.517 194.264C188.787 196.571 186.739 198.27 185.242 200.09C183.334 202.41 183.693 205.543 183.892 208.337C183.973 209.469 182.568 209.79 181.844 209.187L180.176 207.799C179.898 207.568 179.621 207.336 179.344 207.103C179.107 206.903 178.872 206.702 178.639 206.498L178.292 206.19C178.137 206.052 177.457 205.291 177.258 205.259C176.776 205.183 175.631 206.455 175.239 206.854L175.189 206.903C174.452 207.628 173.785 208.407 173.164 209.234C173.05 209.385 172.827 209.259 172.909 209.084C173.465 207.891 174.112 206.75 174.88 205.682L175.035 205.47C175.546 204.78 176.232 203.562 177.133 203.359C178.235 203.11 179.334 204.216 180.135 204.83L180.186 204.869C180.567 205.155 180.944 205.446 181.32 205.74C181.281 203.659 181.543 201.557 182.616 199.764C183.372 198.5 184.506 197.563 185.475 196.476C186.555 195.266 187.118 193.779 188.095 192.519C188.221 192.357 188.395 192.27 188.583 192.242C188.62 191.229 188.769 190.206 188.884 189.204L188.918 188.904C189.034 187.815 189.309 186.485 188.777 185.465C188.274 184.502 187.12 183.822 186.266 183.169L185.568 182.627M135.469 169.186C135.023 169.444 134.606 169.766 134.227 170.167C133.037 171.432 132.185 173.007 131.357 174.521C130.911 175.337 130.481 176.161 130.031 176.975C129.835 177.329 129.634 177.679 129.431 178.029C129.337 178.19 129.058 178.51 128.919 178.707C129.073 178.923 129.232 179.136 129.394 179.346C129.456 179.426 133.728 184.086 135.217 185.91C137.496 188.703 139.534 191.654 141.277 194.812C142.983 197.905 144.282 201.179 145.862 204.332C146.653 205.91 147.536 207.478 148.663 208.844C148.706 208.897 148.752 208.947 148.796 209C149.226 207.837 150.327 206.592 150.868 205.877L150.919 205.81C152.146 204.154 153.441 202.548 154.765 200.969C155.974 199.527 157.213 198.116 158.483 196.729L158.961 196.21C159.845 195.253 160.969 193.821 162.264 193.137C162.125 192.89 161.964 192.645 161.78 192.403C160.567 190.815 158.851 189.663 157.159 188.623L156.061 187.954C151.924 185.43 147.852 182.788 144.26 179.507C142.36 177.771 140.486 175.953 138.889 173.929L138.324 173.213M142.372 167.936C140.434 168.099 138.342 168.06 136.552 168.692C138.143 170.199 139.656 171.826 141.211 173.358C141.349 172.322 141.632 171.298 141.871 170.288" fill="black"/>
<path fill-rule="evenodd" clip-rule="evenodd" d="M162.062 72.1082C175.828 72.1082 190.067 82.8169 195.113 89.6504C200.948 97.552 205.551 135.484 203.392 148.355C201.232 161.226 190.507 175.255 171.887 175.255C153.268 175.255 141.937 172.953 141.482 169.61C141.028 166.267 129.202 147.658 129.202 147.658C129.202 147.658 117.106 144.244 117.059 136.089C117.011 127.933 123.54 124.966 123.54 124.966C123.54 124.966 121.212 92.7804 127.075 84.4009C132.938 76.0214 148.296 72.1082 162.062 72.1082Z" fill="#E8B796"/>
<path fill-rule="evenodd" clip-rule="evenodd" d="M152.78 51.3257C154.632 49.1391 157.897 51.2059 157.823 53.5953C158.563 53.7961 159.434 54.4888 159.771 55.392C160.498 55.3446 161.232 55.4897 161.893 55.869L162.032 55.6968C164.322 52.8911 167.352 50.4834 170.479 52.5496C171.33 53.1119 171.711 54.0412 171.524 55.0485L171.509 55.1198L171.578 54.8088C171.649 54.5133 171.544 55.1046 171.504 55.2297L171.499 55.2439C171.417 55.4545 171.334 55.5606 171.259 55.7199C174.461 53.4373 179.335 54.7734 176.767 59.1919L177.811 58.7831C181.425 57.3815 185.919 55.8764 189.213 58.3964C190.686 59.8181 189.051 61.7137 187.551 62.1733L187.809 62.13C190.688 61.6393 196.695 60.4264 197.553 64.1882C197.862 65.5418 196.962 66.531 195.826 67.0756C198.229 67.0668 200.599 67.4643 202.678 68.6411C204.656 70.0517 203.058 72.3859 200.989 72.2841C201.631 73.0799 201.843 74.4266 201.224 75.2862C202.4 75.5959 203.484 75.9942 204.484 76.615L204.758 76.6505C206.756 76.9006 209.035 77.0495 210.134 79.0186C211.752 83.2912 205.992 83.1211 203.52 81.6204C203.667 81.8597 203.775 82.121 203.836 82.4L204.637 82.6256C207.66 83.4692 211.08 84.4012 213.026 86.9539C213.918 88.423 212.677 90.9195 210.812 90.4734C215.865 92.8886 213.929 99.2511 208.986 95.9413C208.755 96.156 208.474 96.3156 208.18 96.386L209.223 96.9533C211.871 98.4086 215.057 100.401 214.504 103.705C213.978 105.454 211.561 105.134 210.332 104.465C212.479 106.317 214.504 108.323 216.344 110.491L216.853 111.099C218.284 112.82 220.773 115.988 218.076 117.643C214.752 119.341 213.096 114.328 211.162 112.538C212.708 116.188 207.683 118.734 205.929 115.057C205.634 115.109 205.338 115.114 205.047 115.075C206.56 116.684 210.65 127.692 205.562 125.278C204.752 124.418 204.041 123.477 203.387 122.491C204.204 128.797 204.802 135.134 205.188 141.475L205.325 143.774C205.466 146.158 205.572 148.552 205.305 150.929C204.997 153.695 204.205 156.291 203.005 158.797C201.899 161.109 200.473 163.25 198.842 165.218C197.969 166.272 197.043 167.296 195.903 168.067C194.996 168.681 193.937 169.085 192.916 169.474C191.256 171.138 189.125 172.396 187.042 173.401C183.609 175.053 179.887 175.966 176.122 176.423C172.272 176.887 168.383 176.776 164.565 176.112C160.916 175.479 157.005 173.861 154.758 170.778C154.564 170.513 154.925 170.262 155.163 170.372C161.685 173.401 169.013 174.192 176.122 173.236C179.439 172.79 182.702 171.871 185.73 170.442C188.286 169.238 190.441 167.486 192.734 165.9C193.181 165.304 193.631 164.717 194.146 164.172L194.948 163.328C195.547 162.694 196.136 162.051 196.672 161.357C198.325 159.218 199.695 156.792 200.599 154.24C202.359 149.272 201.883 143.879 201.572 138.701L201.545 138.245C201.225 132.707 200.703 127.188 199.981 121.69C199.681 119.401 199.347 117.117 198.981 114.837C198.394 113.879 197.767 112.952 197.066 112.084C197.637 114.31 195.661 117.404 193.237 115.935C190.462 113.555 190.597 109.712 188.271 106.797C185.86 103.06 169.227 95.7917 164.281 94.7711C165.078 95.9343 166.533 96.7445 166.873 98.1173C172.955 103.51 163.041 106.381 159.945 98.6953C160.014 101.254 160.272 103.791 160.839 106.288C161.665 108.582 162.314 115.228 158.172 113.222C156.189 113.797 154.677 112.102 154.428 110.19C152.996 114.511 154.35 121.415 151.724 124.6C150.918 125.438 149.674 124.88 149.255 123.924C146.826 123.285 147.033 120.444 146.739 118.41C144.523 126.517 141.751 132.145 141.369 140.602C143.083 143.051 139.323 144.852 137.71 142.89C135.445 139.606 137.533 135.116 138.066 131.522C137.429 131.489 136.798 131.205 136.272 130.585C135.986 131.713 136.15 133.199 136.247 134.423C134.811 140.058 129.351 136.448 129.577 131.877C129.341 133.167 129.162 134.47 129.049 135.782C130.103 137 130.885 138.457 131.347 140.004C131.68 141.121 130.548 141.792 129.684 141.629C129.224 143.204 127.229 144.34 125.918 142.835C124.622 141.519 124.396 139.618 124.293 137.725C124.112 137.532 124.002 137.28 124.021 136.975C124.037 136.688 124.107 136.444 124.219 136.24C124.197 135.853 124.169 135.473 124.127 135.106C123.124 138.239 123.777 141.521 123.864 144.73C125.637 145.732 127.66 146.16 129.693 146.583L129.987 146.644C130.615 146.775 130.814 147.714 130.341 148.109C131.6 149.345 132.686 150.819 133.745 152.179C135.152 153.984 136.497 155.86 137.806 157.74L138.574 158.844C140.818 162.051 143.921 166.396 142.531 170.347C142.342 170.89 141.552 171.085 141.244 170.515C140.233 168.642 139.668 166.579 138.708 164.683C137.765 162.824 136.592 161.102 135.428 159.379L134.756 158.381C133.638 156.713 132.531 155.028 131.505 153.311L130.79 152.122C130.119 150.999 129.454 149.838 128.959 148.632C127.197 149.058 125.352 148.752 123.662 148.015L123.64 148.133L123.597 148.345C123.356 149.364 121.954 150.062 121.058 149.395C118.915 147.772 118.042 145.358 117.815 142.777C117.382 142.048 117.016 141.278 116.718 140.481C116.577 142.071 115.965 143.612 114.082 143.564C110.815 143.295 110.494 140.198 111.377 137.117C107.509 138.303 107.056 132.812 108.276 129.919C107.823 129.783 107.403 129.512 107.163 129.147L106.963 129.5C106.219 130.791 105.376 132.046 104.202 132.716C102.56 133.653 100.174 132.493 100.283 130.43C100.635 127.069 103.571 124.508 105.358 121.814C105.04 121.859 104.709 121.848 104.385 121.787C100.812 123.787 99.107 119.08 100.365 116.353C101.287 113.903 102.956 111.796 104.745 109.938L104.221 110.253C103.275 110.812 102.219 111.352 101.179 111.132C94.3734 115.62 92.1396 108.072 99.7767 105.713L99.7741 105.678V105.678C99.0076 104.936 98.675 103.762 99.271 102.589C96.4697 103.577 92.4703 101.342 94.9396 98.289C96.5503 96.767 98.4502 95.4577 100.557 94.7726C100.452 94.2123 100.418 93.6421 100.461 93.0683L100.335 93.0855C99.0056 93.2776 97.366 93.8226 96.5459 92.3855C96.13 91.6618 96.1788 90.4693 96.8607 89.9067C99.2084 87.9695 101.887 86.3582 104.797 85.7049C104.903 85.3495 105.015 84.996 105.132 84.6443C102.65 84.598 99.8636 81.2895 102.715 79.4148C105.221 78.1332 107.803 77.3088 110.633 77.3852C108.974 75.7433 109.954 72.7669 112.16 72.3094C110.715 69.2217 114.285 67.6286 116.948 68.1155C116.85 66.7437 117.582 65.2147 118.99 64.8703C118.251 60.5293 122.831 60.94 125.701 61.969C124.74 60.2953 125.728 58.3265 127.423 57.7396C130.199 57.1089 132.856 59.7629 134.97 61.3904C134.249 59.6925 134.857 58.127 136.574 57.4505C138.342 56.7559 140.247 58.0981 141.723 59.0101C142.526 57.9989 143.896 57.6692 145.125 57.7318C145.256 57.352 145.448 57.0352 145.696 56.7848C145.689 54.4448 149.659 53.1583 151.044 55.338C151.28 53.8224 151.901 52.364 152.78 51.3257ZM202.447 93.7679L202.492 94.0198V94.0198C202.551 94.072 202.606 94.1269 202.663 94.1804C202.84 94.2224 203.011 94.2667 203.173 94.312C202.937 94.1204 202.694 93.9429 202.447 93.7679ZM205.511 87.6269L205.457 87.7018C205.448 87.7142 205.439 87.7264 205.429 87.7381C205.578 87.795 205.728 87.8531 205.876 87.9131L206.099 88.0045L206.178 88.0391C205.956 87.8999 205.734 87.7619 205.511 87.6269ZM169.775 56.7121L169.641 56.7455C169.599 56.7559 169.558 56.7656 169.521 56.7744C169.508 56.778 169.495 56.7795 169.482 56.7845L169.518 56.777V56.777C169.454 56.8253 169.371 56.8823 169.302 56.9279C169.37 56.9223 169.437 56.9157 169.506 56.9119C169.595 56.8451 169.685 56.7785 169.775 56.7121Z" fill="black"/>
<path fill-rule="evenodd" clip-rule="evenodd" d="M155.518 139.836C156.363 137.926 160.167 134.96 160.167 134.96C160.167 134.96 161.322 141.523 160.427 143.548C159.688 145.217 157.03 148.228 155.081 147.381C153.132 146.535 154.129 142.977 155.518 139.836Z" fill="white"/>
<path fill-rule="evenodd" clip-rule="evenodd" d="M202.81 138.108C202.116 136.493 198.989 133.986 198.989 133.986C198.989 133.986 198.039 139.534 198.775 141.244C199.382 142.655 201.567 145.2 203.17 144.484C204.772 143.769 203.952 140.762 202.81 138.108Z" fill="white"/>
<path fill-rule="evenodd" clip-rule="evenodd" d="M170.425 147.528H191.766L193.043 151.06C193.043 151.06 177.118 154.762 171.526 152.379L170.425 147.528Z" fill="white"/>
<path fill-rule="evenodd" clip-rule="evenodd" d="M186.168 140.669C188.141 137.9 185.346 135.296 183.511 134.179C183.03 133.834 183.412 132.689 184.439 132.866C193.768 134.471 188.934 150.564 177.024 141.733C175.606 140.588 177.323 138.064 178.851 139.045C178.929 139.105 179.01 139.168 179.094 139.233L179.095 139.233C180.812 140.563 183.954 142.996 186.168 140.669ZM167.391 112.801L166.935 112.88C165.459 113.137 163.999 113.698 162.664 114.373C160.164 115.638 157.668 117.713 156.38 120.239C156.241 120.513 156.54 120.888 156.832 120.692C159.063 119.193 161.192 117.828 163.804 117.08C164.995 116.739 166.183 116.535 167.419 116.464C167.802 116.442 168.178 116.451 168.546 116.46C169.618 116.487 170.623 116.512 171.555 115.756C172.266 115.18 172.084 114.06 171.555 113.457C170.557 112.321 168.802 112.556 167.391 112.801ZM191.727 111.82L191.378 111.749C190.967 111.666 190.554 111.701 190.192 111.849C189.836 111.994 189.526 112.246 189.31 112.611C189.022 113.095 188.983 113.502 189.117 114.04C189.22 114.455 189.446 114.768 189.742 114.993C190.054 115.231 190.449 115.37 190.859 115.418C192.753 115.641 194.618 116.058 196.431 116.65C197.28 116.928 198.082 117.304 198.877 117.694L199.562 118.032C200.193 118.341 200.846 118.639 201.67 118.856C201.735 118.873 201.799 118.889 201.863 118.904C202.064 118.841 202.118 118.765 202.162 118.705L202.162 118.705L202.173 118.69L202.179 118.682L202.198 118.657C202.257 118.583 202.33 118.47 202.261 117.941C200.462 114.204 195.526 112.616 191.727 111.82ZM171.962 130.203C171.224 130.635 170.435 130.425 169.806 129.924C169.417 129.615 169.122 129.218 168.827 128.821C168.48 128.356 168.132 127.889 167.631 127.559C166.846 127.041 165.794 127.014 164.891 127.163C163.535 127.388 162.365 128.028 161.192 128.671C160.527 129.034 159.861 129.399 159.16 129.689C158.888 129.801 158.729 129.452 158.821 129.246C159.995 126.603 162.447 124.245 165.364 123.773C168.414 123.279 171.715 125.291 172.779 128.191C173.048 128.923 172.602 129.829 171.962 130.203ZM200.943 127.122C201.006 127.145 201.069 127.074 201.051 127.014C200.28 124.501 197.375 123.444 194.937 123.653C193.428 123.783 192.041 124.336 190.897 125.344C189.806 126.307 188.957 128.128 189.944 129.459C190.959 130.828 193.043 130.385 193.162 128.586C193.239 127.42 195.244 126.7 196.259 126.52C197.836 126.241 199.468 126.574 200.943 127.122ZM172.704 151.221C173.419 151.504 179.459 151.782 183.025 151.619C185.457 151.51 191.766 150.034 191.766 149.4C191.766 148.767 191.497 148.194 191.266 148.218C190.328 148.32 182.853 148.402 177.59 148.46C175.264 148.486 173.37 148.507 172.663 148.523C172.316 148.53 171.951 148.523 171.582 148.513C171.326 149.306 171.99 150.938 172.704 151.221ZM184.796 146.611H184.796H184.796C187.604 146.586 191.013 146.557 193.443 146.7C194.311 146.751 194.738 147.992 194.799 148.581C195.375 154.053 191.011 158.418 186.193 160.109C181.723 161.679 175.819 161.976 171.832 159.044C170.1 157.771 168.788 156.007 167.933 154.044C167.471 152.985 167.133 151.888 166.946 150.749C166.929 150.641 166.909 150.529 166.888 150.413C166.745 149.595 166.57 148.604 166.849 147.856C167.253 146.78 168.322 146.768 169.304 146.757C169.385 146.756 169.466 146.755 169.546 146.754C169.941 146.746 170.337 146.737 170.732 146.729L170.733 146.729C171.775 146.706 172.818 146.683 173.858 146.671C176.099 146.646 178.34 146.639 180.58 146.633C181.359 146.63 182.137 146.628 182.916 146.625C183.494 146.622 184.126 146.617 184.793 146.611L184.794 146.611L184.796 146.611ZM159.606 142.633C159.241 144.037 158.473 145.669 157.17 146.433C156.473 146.843 155.439 146.994 155.037 146.153C154.287 144.583 155.338 142.163 155.977 140.751C156.512 139.566 157.187 138.436 158.004 137.425C158.453 136.87 158.95 136.36 159.45 135.853C159.548 135.753 159.654 135.661 159.758 135.57L159.758 135.57C159.904 135.443 160.048 135.317 160.167 135.175C159.801 135.998 159.786 137.072 159.783 137.886C159.781 138.326 159.797 138.765 159.814 139.204C159.857 140.355 159.901 141.5 159.606 142.633ZM162.004 134.733C161.944 134.254 161.51 133.935 161.045 134.181C160.774 134.325 160.565 134.527 160.398 134.765C160.401 134.754 160.405 134.744 160.409 134.733C160.416 134.712 160.424 134.691 160.429 134.669C160.438 134.63 160.418 134.577 160.373 134.571C159.297 134.409 157.919 135.901 157.161 136.722L157.16 136.722C157.107 136.78 157.056 136.835 157.009 136.885C155.938 138.034 154.981 139.357 154.324 140.788C153.485 142.613 152.579 145.372 153.732 147.263C155.334 149.894 158.692 147.909 159.965 146.092C161.032 144.569 161.583 142.713 161.645 140.864C161.664 140.32 161.642 139.777 161.621 139.233V139.233C161.6 138.719 161.58 138.204 161.593 137.689C161.604 137.257 161.707 136.823 161.809 136.39C161.941 135.831 162.073 135.275 162.004 134.733ZM200.401 143.576C201.153 144.265 202.458 144.52 203.331 143.87C204.492 143.007 203.492 141.419 202.852 140.404C202.787 140.302 202.726 140.205 202.672 140.116C201.791 138.674 200.924 137.225 200.063 135.772C199.907 135.508 199.723 135.232 199.531 134.948C199.47 135.358 199.392 135.76 199.321 136.129C199.259 136.451 199.201 136.749 199.164 137.004C198.849 139.155 198.626 141.949 200.401 143.576ZM203.544 137.385C204.395 138.729 205.289 140.139 205.678 141.62C206.432 144.493 203.943 146.601 201.183 145.984C198.304 145.34 197.235 141.987 197.296 139.368C197.324 138.162 197.574 136.94 197.818 135.752C197.851 135.589 197.884 135.427 197.917 135.265C197.983 134.936 198.031 134.595 198.08 134.252C198.147 133.774 198.215 133.291 198.334 132.832C198.199 132.458 198.119 132.08 198.133 131.701C198.156 131.1 198.758 130.78 199.282 131.042C200.025 131.414 200.412 132.104 200.805 132.806C200.886 132.95 200.967 133.094 201.051 133.236L202.773 136.142C203.014 136.55 203.277 136.964 203.544 137.385Z" fill="black"/>
<rect x="1.5" y="1.5" width="549" height="327" rx="28.5" stroke="black" stroke-width="3"/>
</g>
</svg>
