<svg width="552" height="330" viewBox="0 0 552 330" fill="none" xmlns="http://www.w3.org/2000/svg">
<mask id="mask0" mask-type="alpha" maskUnits="userSpaceOnUse" x="0" y="0" width="552" height="330">
<rect width="552" height="330" rx="30" fill="#D3DCFB"/>
</mask>
<g mask="url(#mask0)">
<rect width="552" height="330" rx="30" fill="#D3DCFB"/>
<path fill-rule="evenodd" clip-rule="evenodd" d="M193.285 218.018C191.076 217.23 188.947 216.32 187.007 214.982C181.414 210.819 177.768 204.555 174.322 198.619C169.469 189.986 166.011 180.788 163.621 171.192C162.594 167.069 162.245 162.289 159.912 158.633C154.622 150.98 139.112 151.971 130.875 153.315C125.36 154.291 124.22 160.463 122.967 165.03C121.924 168.825 121.241 172.663 120.668 176.552C119.305 177.449 117.765 178.177 116.298 178.811C100.307 183.715 97.4959 192.806 91.388 206.848C81.0718 227.259 53.0787 235.25 48.8503 259.406C46.1259 275.353 53.8732 290.356 61.8606 303.613C69.2993 318.094 79.6842 325.045 96.2226 321.623C111.735 318.144 126.643 312.323 141.882 307.824C149.263 306.01 156.632 301.29 164.396 302.935C180.394 306.528 196.831 308.218 213.226 307.751C236.246 308.682 236.242 286.588 233.879 269.479C232.225 242.853 218.795 225.756 193.285 218.018Z" fill="#E8B796"/>
<path fill-rule="evenodd" clip-rule="evenodd" d="M194.824 256.546C196.748 257.818 198.365 259.746 199.664 261.776C194.242 261.212 188.83 260.562 183.43 259.821C184.137 259.37 184.85 258.928 185.58 258.51C188.243 257.01 191.851 254.58 194.824 256.546ZM104.744 272.573C103.751 272.184 103.366 270.669 102.979 269.801C101.765 267.078 100.657 264.308 99.5044 261.559C103.881 260.312 108.137 258.927 112.671 258.262C117.546 257.548 122.493 257.375 127.413 257.536C137.379 257.861 147.253 259.489 157.051 261.236C166.837 262.98 176.623 264.656 186.478 265.972C196.134 267.26 205.819 268.203 215.523 269.031C217.409 269.192 220.552 269.87 222.069 268.386C223.269 267.211 223.308 265.044 221.806 264.089C220.87 263.493 219.514 263.484 218.445 263.347C217.099 263.174 215.747 263.059 214.393 262.969C213.841 262.932 213.289 262.899 212.737 262.865C217.168 261.195 221.796 260.284 226.6 260.537C226.871 262.188 228.095 263.886 228.765 265.247C229.935 267.623 230.847 270.028 231.445 272.611C232.696 278.012 232.751 283.617 232.398 289.125C232.073 293.717 231.376 298.797 227.773 302.05C225.046 304.513 221.198 305.424 217.628 305.711C213.478 306.044 209.265 305.688 205.151 305.132C199.38 304.352 193.582 303.32 187.925 301.937C176.967 299.259 166.465 294.997 156.775 289.219C152.049 286.402 147.54 283.232 142.75 280.521C137.869 277.759 132.675 275.616 127.221 274.286C121.118 272.797 114.737 272.161 108.464 272.529C107.376 272.592 105.803 272.987 104.744 272.573ZM97.671 269.808C98.3123 271.889 98.8031 274.265 100.172 276.014C101.528 277.747 103.574 278.359 105.693 278.513C108.248 278.698 110.833 278.579 113.394 278.675C118.646 278.87 123.826 279.723 128.847 281.288C133.526 282.746 137.869 285.021 142.053 287.545C145.922 289.878 149.678 292.384 153.548 294.711C152.518 295.183 151.5 295.694 150.476 296.139C148.328 297.071 146.167 297.971 143.996 298.849C139.716 300.578 135.418 302.266 131.075 303.835C122.319 306.997 113.419 309.759 104.412 312.112C100.117 313.235 95.7597 314.546 91.2967 314.732C87.3392 314.898 83.6736 313.779 80.4819 311.426C73.8618 306.546 68.5949 299.501 64.3373 292.553C61.8078 288.425 59.6003 284.087 57.7745 279.602C56.851 277.334 56.0135 275.031 55.2597 272.701C54.9061 271.608 54.5708 270.507 54.2533 269.402C54.1137 268.916 53.9798 268.429 53.8473 267.941C60.6167 265.875 67.4664 264.011 74.477 262.975C78.22 262.423 82.0128 262.143 85.7968 262.183C87.6751 262.204 89.5523 262.305 91.4206 262.499C92.4263 262.603 93.4278 262.737 94.4251 262.904C94.8372 262.972 95.2608 263.074 95.6856 263.148C96.3346 265.372 96.9889 267.594 97.671 269.808ZM237.603 260.966C237.967 260.228 238.121 259.502 238.252 258.699C238.352 258.086 238.616 257.223 238.385 256.427C238.125 255.536 237.418 254.739 236.911 253.979C236.35 253.139 235.79 252.298 235.231 251.457C234.113 249.775 232.996 248.092 231.882 246.407C227.332 239.528 222.812 232.629 218.286 225.734C214.269 219.615 210.319 213.442 206.18 207.405C202.641 202.244 198.783 197.167 193.938 193.152C187.812 188.077 180.518 185.685 172.899 183.82C172.067 182.956 170.955 182.484 169.767 182.58C168.089 180.676 166.754 179.347 166.15 176.926C165.86 175.766 165.951 172.508 164.822 171.822C163.48 171.007 162.779 172.085 162.41 173.301C161.172 177.369 162.592 182.838 165.861 186.913C164.484 191.673 162.658 198.438 159.4 202.252C155.912 206.335 151.088 207.606 145.883 207.69C135.957 207.85 126.041 204.161 118.47 197.767C116.168 195.824 114.031 193.654 112.097 191.345C110.647 189.614 108.931 186.941 107.797 184.921C107.797 184.134 106.867 183.311 116.329 182.675C125.791 182.039 126.509 169.083 126.719 167.32C126.89 165.888 127.617 163.665 126.608 162.498C126.18 162.002 125.302 161.922 124.759 162.259C123.735 162.895 123.399 164.52 123.077 165.624C122.626 167.171 121.152 176.769 118.36 177.88C117.052 178.4 115.553 178.41 114.17 178.506C112.462 178.625 110.751 178.713 109.05 178.911C108.423 178.984 107.738 179.188 107.119 179.193C106.716 179.197 106.301 179.002 105.912 178.864C104.598 178.4 103.285 178.748 101.932 178.93C89.9659 180.538 77.645 184.208 67.4384 190.812C58.4423 196.633 52.1044 205.004 47.9223 214.792C43.6552 224.78 41.2094 235.581 39.1597 246.214C38.4731 249.777 37.8735 253.356 37.3583 256.948C36.8604 260.418 36.2377 263.966 36.0886 267.471C36.0296 268.858 36.361 270.147 36.8711 271.414C37.4455 272.84 38.8033 273.402 40.1056 274.068C42.9643 275.53 45.9799 276.664 49.087 277.467C50.985 280.92 52.5824 284.508 53.8661 288.232C53.3899 289.175 53.38 290.585 53.2884 291.502C53.0612 293.785 52.964 296.081 52.9437 298.375C52.9027 302.974 53.1793 307.567 53.396 312.159C53.6158 316.815 54.3464 335.188 54.4655 337.432C54.5581 339.174 54.4335 341.612 55.3516 343.16C56.7625 345.538 60.2447 345.458 61.8576 343.53C101.932 352.145 177.26 349.55 207.599 345.215C211.546 344.651 210.307 345.277 211.311 344.28C212.064 343.531 212.705 342.248 212.913 341.218C213.192 339.842 212.742 338.597 211.955 337.483C211.127 336.313 210.976 334.418 210.668 333.026C209.941 329.737 209.579 315.289 209.239 313.688C209.134 313.189 209.031 312.662 208.907 312.134C214.472 312.661 220.271 312.661 225.565 310.8C228.568 309.745 231.368 308.087 233.523 305.719C236.132 302.853 237.584 299.245 238.331 295.478C239.294 290.621 239.499 285.591 239.31 280.653C239.047 274.818 238.079 268.901 235.677 263.544C236.467 262.81 237.13 261.924 237.603 260.966Z" fill="black"/>
<path fill-rule="evenodd" clip-rule="evenodd" d="M120.587 62.0406C159.065 60.1443 185.173 90.5538 186.296 102.68C187.076 111.098 186.547 122.324 186.547 129.846C186.547 133.685 188.48 145.355 186.296 150.951C181.435 163.407 175.944 173.163 160.728 173.163C145.512 173.163 122.316 165.26 114.351 155.066C112.897 153.205 94.8254 139.582 94.8254 128.874C94.8254 106.027 93.1312 63.3936 120.587 62.0406Z" fill="#E8B796"/>
<path fill-rule="evenodd" clip-rule="evenodd" d="M94.3374 37.3648C96.5302 36.6779 97.9298 37.6668 98.9282 39.1988C99.1483 39.1558 99.3613 39.1586 99.5985 39.2159C99.6571 39.2301 99.799 39.2838 99.9064 39.326C99.9894 39.3609 100.064 39.4031 100.136 39.4479L100.179 39.4252C100.344 39.2454 100.517 39.0813 100.703 38.949C101.123 38.6519 101.555 38.5654 101.965 38.6264L102.155 38.5565C103.778 37.9896 105.538 38.2527 106.638 39.6539C106.851 39.9246 107.023 40.2261 107.17 40.5441C107.5 40.6525 107.81 40.8092 108.077 41.002C108.264 40.9138 108.462 40.8395 108.674 40.7848C109.872 40.4769 111.13 40.7675 112.106 41.5032C112.581 41.8611 112.93 42.3094 113.195 42.8213C113.497 42.8922 113.796 43.02 114.075 43.1914C114.315 43.0716 114.559 42.9592 114.809 42.8821C115.723 42.6007 116.704 42.4972 117.656 42.5681C119.706 42.7205 121.689 45.0673 120.319 47.0826L120.276 47.1436C120.102 47.3865 119.951 47.6376 119.811 47.8928C120.301 48.1067 120.774 48.3929 121.211 48.7517C123.347 50.5058 123.539 53.2101 123.139 55.7611L123.122 55.8673H123.127C124.262 55.9753 125.242 57.163 124.572 58.2802L124.539 58.3325C123.631 59.7375 122.853 61.2897 121.987 62.7682C119.587 63.635 117.274 64.7025 115.095 65.9959C113.738 67.187 112.447 68.4463 111.31 69.8473C110.743 70.5469 110.221 71.2874 109.742 72.0552C110.125 72.2397 110.599 72.2303 110.999 71.8588C114.558 68.5539 118.858 66.2345 123.436 64.6801C123.766 64.5679 123.982 64.3567 124.104 64.1069C126.136 63.5266 128.204 63.0766 130.293 62.7581C130.869 62.2083 131.472 61.6827 132.045 61.1352C132.777 60.4366 133.694 60.4468 134.379 60.8857C134.719 60.7303 135.067 60.5931 135.42 60.4698L135.639 60.3949C135.731 60.3649 135.818 60.33 135.908 60.3026C138.359 59.5517 140.6 59.8305 143.011 60.4474L143.32 60.528C144.444 60.8268 145.151 60.779 146.239 60.504L146.362 60.4725C147.518 60.1703 148.755 59.9464 149.937 60.2647C151.174 60.5978 151.994 61.3385 152.837 62.2335L152.921 62.3235C153.314 62.745 153.541 62.7909 154.056 62.7807L154.607 62.7643C156.687 62.7072 158.724 62.7951 160.282 64.4074C160.858 65.0036 161.476 65.8475 161.847 66.6177L161.901 66.7326C161.918 66.77 161.933 66.8013 161.948 66.8293C162.171 66.7932 162.519 66.6515 162.684 66.6191C164.951 66.1785 166.843 66.8575 168.299 68.6478C168.617 69.0395 169.098 69.8088 169.432 70.2317C169.548 70.3309 169.659 70.4372 169.763 70.5489C170.309 70.8987 171.084 70.8766 171.697 70.9992C173.367 71.3325 175.152 71.969 176.001 73.5618C176.356 74.2266 176.487 74.9539 176.637 75.6805C177.199 76.0501 177.639 76.5828 177.98 77.1596C178.396 77.8597 178.572 78.7173 179.051 79.3785C179.398 79.8588 179.929 80.1152 180.434 80.4088L180.627 80.5223C182.123 81.4152 183.295 82.4062 183.787 84.1557L183.83 84.3113C183.91 84.5793 184.19 85.3441 183.946 85.2292C184.156 85.3455 184.514 85.3865 184.706 85.4501C185.744 85.7943 186.646 86.3504 187.199 87.327C187.62 88.0704 187.696 88.8452 187.817 89.6647L187.868 89.9955C187.881 90.0755 187.897 90.1685 187.913 90.2587L187.929 90.3473L187.932 90.3493C188.121 90.4308 188.305 90.519 188.487 90.6142C189.347 91.1217 189.935 92.0027 189.935 93.0226C189.935 93.5177 189.781 93.9034 189.556 94.2476C189.738 94.5233 189.879 94.8172 189.985 95.1446C190.194 95.7839 190.208 96.483 190.138 97.1445C190.054 97.9382 189.85 98.661 189.611 99.4191C189.519 99.7116 189.482 100.12 189.343 100.4C189.599 100.727 189.752 101.127 189.704 101.522C189.636 102.087 189.379 102.747 188.869 103.064C188.619 104.298 188.082 105.559 187.553 106.567C187.492 106.684 187.419 106.789 187.337 106.875C187.411 110.902 187.117 114.958 187.096 118.98C187.073 123.358 187.165 127.739 187.317 132.112C187.573 139.36 188.49 146.855 186.355 153.922C184.608 159.707 181.11 164.673 176.419 168.438C171.616 172.29 165.825 174.519 159.676 174.867C156.549 175.042 153.368 174.686 150.342 173.875L150.018 173.787C147.091 172.981 143.7 171.749 141.545 169.593C140.408 168.453 141.558 166.039 143.226 166.703C144.879 167.362 146.361 168.336 148.001 169.023C149.466 169.636 150.994 170.107 152.543 170.453C155.647 171.153 158.94 171.305 162.096 170.87C173.489 169.308 182.367 159.827 184.118 148.584C184.603 145.471 184.594 142.307 184.561 139.161L184.525 135.714C184.498 132.83 184.487 129.945 184.593 127.062C184.728 123.353 184.989 119.646 185.339 115.952L185.522 114.03C185.739 111.782 185.983 109.516 186.403 107.297C186.059 107.315 183.341 102.656 181.832 100.052C181.281 99.6145 180.817 99.0708 180.637 98.3674C180.6 98.2206 180.581 98.0725 180.569 97.9242C180.241 97.4085 179.896 96.9061 179.531 96.4186L179.452 96.383C179.391 96.355 179.343 96.3317 179.315 96.3159C178.519 95.8638 177.855 95.1789 177.4 94.3852C177.247 94.1176 177.121 93.8382 177.019 93.5525C176.371 92.9148 175.692 92.3062 174.979 91.7356C174.909 91.6796 174.837 91.6272 174.766 91.572C173.859 91.2326 173.062 90.7213 172.481 89.9848C172.239 89.8342 171.994 89.6866 171.748 89.5421C171.008 89.5353 170.26 89.3625 169.533 89.0631C168.203 88.5156 167.141 87.4336 165.804 86.9322C164.391 86.4023 162.902 87.6066 161.401 87.3894C161.017 87.3339 160.637 87.2171 160.284 87.0477C159.438 87.9452 158.541 88.7914 157.551 89.532C156.115 90.6071 154.647 91.0983 152.982 91.584C152.158 92.3683 151.234 93.1287 150.12 93.2404C147.543 95.3051 144.786 97.0468 141.885 98.6638C141.419 98.9238 140.955 99.041 140.515 99.0441C139.605 99.6165 138.612 100.057 137.563 100.362C137.234 100.457 136.895 100.477 136.562 100.436L135.651 101.179C135.018 101.696 134.342 101.943 133.695 101.959C133.302 102.261 132.894 102.547 132.474 102.822C132.025 103.117 131.442 103.239 130.856 103.203C129.961 104.08 128.801 104.172 127.829 103.768C127.695 103.847 127.558 103.921 127.403 103.994C127.194 104.093 126.975 104.177 126.752 104.245C125.738 105.34 124.255 105.914 122.769 105.764C121.659 106.445 120.367 106.799 119.104 106.72C118.911 107.689 118.752 108.663 118.617 109.639L118.603 110.355C118.602 110.471 118.601 110.561 118.603 110.621L118.604 110.644C118.727 113.781 118.795 116.919 118.917 120.056L118.928 120.304C119.067 123.044 119.74 128.041 115.72 127.932C114.222 127.892 112.736 126.786 111.569 125.877L111.405 125.749C111.316 125.679 111.224 125.608 111.132 125.535C110.26 125.422 109.4 125.209 108.52 125.177C107.433 125.139 106.291 125.251 105.232 125.497C103.364 125.932 101.557 126.785 100.338 128.329C100.231 128.464 100.132 128.606 100.038 128.749C99.9521 129.041 99.8048 129.311 99.6094 129.545C98.4568 132.142 99.1222 135.575 100.396 137.95C101.915 140.781 104.317 142.737 107.338 143.723L107.489 143.771C109.553 144.417 110.343 145.669 111.465 147.409C112.516 149.042 113.722 150.564 115.016 152.009C117.522 154.805 121.038 157.112 122.495 160.651C122.79 161.363 121.947 162.035 121.294 161.852C118.738 161.132 116.946 159.308 115.087 157.494C113.801 156.238 112.565 154.931 111.404 153.559C111.161 153.671 110.893 153.747 110.614 153.781C109.383 153.932 108.113 153.869 107.035 153.204C106.538 153.249 106.02 153.077 105.636 152.724C105.284 152.399 104.979 152.048 104.722 151.674C104.332 151.709 103.949 151.719 103.583 151.658C103.406 151.642 103.236 151.595 103.079 151.519C102.788 151.404 102.512 151.226 102.259 150.954C101.745 150.402 101.549 149.622 101.643 148.88C101.542 148.859 101.441 148.833 101.341 148.799C100.658 148.567 100.132 148.107 99.796 147.481C99.1946 147.143 98.6531 146.684 98.2431 146.197C97.7437 145.605 97.367 144.937 97.1456 144.199C96.9169 144.093 96.6947 143.969 96.482 143.825C94.9576 142.791 94.0848 140.851 94.6834 139.056L94.7037 139C94.7341 138.919 94.7891 138.782 94.8565 138.626C94.8469 138.5 94.8367 138.373 94.8299 138.247L94.8088 137.864L94.5034 137.734C92.9802 137.127 91.9505 136.308 91.7675 134.591C91.7294 134.235 91.867 133.873 92.0841 133.57L92.083 133.475C91.984 133.424 91.8898 133.371 91.8068 133.318C90.9764 132.787 90.4662 131.834 90.5233 130.849C90.5758 129.951 91.0721 129.236 91.6302 128.574L91.7896 128.388C91.8028 128.373 91.8176 128.356 91.8335 128.338L91.4646 128.222C91.2252 128.145 91.006 128.069 90.8482 127.981C90.238 127.638 89.7206 127.175 89.4015 126.586C89.355 126.513 89.3078 126.442 89.2651 126.364C88.8531 125.61 88.7993 124.645 89.0651 123.836C89.0966 123.741 89.1372 123.651 89.1788 123.562C88.0567 123.166 87.1928 122.346 87.0888 120.837C87.0479 120.243 87.1776 119.651 87.4597 119.145C87.3972 118.804 87.3843 118.45 87.4246 118.1C87.0299 117.727 86.7232 117.276 86.5861 116.727C86.3269 115.689 86.8014 114.702 87.5066 113.797C87.2456 113.081 87.2322 112.273 87.5302 111.552C87.4155 111.193 87.3502 110.812 87.3467 110.422C87.3388 109.557 87.6046 108.835 88.0339 108.22C87.4305 107.481 87.1439 106.499 87.5003 105.578C87.7539 104.924 88.0438 104.325 88.3779 103.77C88.2025 103.349 88.1004 102.876 88.1004 102.347C88.1004 101.396 88.4563 100.642 89.0009 100.025C88.7645 98.8983 89.2451 97.5261 90.2925 97.03C90.6873 96.8427 91.2158 96.6474 91.7982 96.4952C92.0168 95.8109 92.245 95.1293 92.4859 94.4526C92.8655 93.3874 93.2737 92.337 93.7063 91.2988C93.4572 91.5173 93.196 91.7211 92.9259 91.9058C92.0716 92.9941 90.9391 93.9369 89.9874 94.501C88.1007 95.6193 85.9428 94.9558 85.0114 93.0847C84.1361 93.7395 83.0856 94.1272 81.9648 93.9947C80.6939 93.8443 79.532 93.0196 79.2146 91.7331C79.1687 91.5468 79.141 91.3456 79.1382 91.1431C78.4094 91.6631 77.6468 92.1416 76.8103 92.4156C75.7448 92.7647 74.6573 91.9274 74.5166 90.8844C74.461 90.471 74.5382 90.1056 74.7024 89.797L74.5984 89.756C74.5811 89.7488 74.5639 89.7412 74.5468 89.7332C73.9881 89.4709 73.5542 88.9901 73.3481 88.4355C72.1382 88.9046 70.7531 88.3548 70.3692 87.0215C69.9123 85.4366 69.8846 83.8313 70.2423 82.2873C68.9603 81.3537 68.1251 79.784 67.9829 78.1431C67.8791 76.9652 68.1596 75.8779 68.6539 74.8725C67.4414 74.4181 67.0246 72.8256 67.6008 71.6782C66.8354 71.2391 66.3363 70.3082 66.3252 69.4021C65.9832 68.8831 65.8738 68.2148 66.1574 67.4658C66.5313 66.479 67.2929 65.6534 68.1649 65.006C67.7846 64.3425 67.5021 63.619 67.3267 62.8713C66.6042 62.6594 66.021 62.0737 65.9022 61.1943C65.7535 60.0917 66.4777 59.157 67.4526 58.9102C67.5607 58.5744 67.6927 58.246 67.856 57.9305C67.3736 56.7857 67.4447 55.3382 68.0667 54.0865C68.6176 52.9798 69.5137 52.3031 70.5926 51.835C70.3185 50.8937 70.6815 49.955 71.5954 49.2554C72.7111 48.4003 73.9348 47.7468 75.2206 47.285C75.1063 45.7528 75.7456 44.1836 77.2563 43.6493C77.6602 43.5066 78.0806 43.454 78.5079 43.4557C78.8181 42.7798 79.3357 42.2303 80.0113 41.7439C81.0335 41.0081 82.9439 41.4576 83.5108 42.6114L83.5385 42.6707C83.5674 42.736 83.5986 42.7958 83.6283 42.8592C83.7426 42.299 84.0096 41.7698 84.4389 41.3361C85.512 40.2515 86.645 40.2312 87.7354 40.695C87.9354 40.1979 88.1776 39.7252 88.4721 39.2929C89.5411 37.7248 91.3072 37.5251 92.6004 38.3743C93.1188 37.9176 93.6974 37.5656 94.3374 37.3648ZM101.98 131.664C104.133 130.82 106.745 131.069 108.872 131.88L109.028 131.941C110.907 132.686 113.96 134.342 114.328 136.46C114.518 137.556 113.478 138.505 112.421 137.928C111.502 137.426 110.987 136.416 110.256 135.684C109.533 134.959 108.723 134.376 107.839 133.865C105.996 132.799 104.059 132.384 101.98 132.077C101.747 132.044 101.81 131.73 101.98 131.664Z" fill="black"/>
<path fill-rule="evenodd" clip-rule="evenodd" d="M169.32 147.251C169.497 147.203 169.652 147.44 169.506 147.57C168.907 148.102 168.527 149.092 168.09 149.767C167.674 150.409 167.273 151.044 166.908 151.716C166.498 152.47 166.102 153.22 165.783 154.017L165.72 154.178C165.816 154.405 165.89 154.63 165.945 154.777L165.961 154.819C166.506 156.21 165.362 157.757 164.072 158.146C161.866 158.811 159.972 156.999 159.92 154.844C159.878 153.148 161.027 151.638 162.195 150.517C163.216 149.537 164.36 148.703 165.64 148.091C166.204 147.822 166.791 147.596 167.403 147.466C168.03 147.332 168.706 147.417 169.32 147.251ZM165.162 153.395C165.324 153.471 165.462 153.658 165.579 153.876C165.521 153.691 165.401 153.507 165.162 153.395ZM166.543 129.839C168.464 131.007 171.391 133.73 169.324 136.625C166.892 139.177 163.389 136.25 161.663 134.927C160.063 133.901 158.265 136.539 159.75 137.737C172.221 146.971 177.283 130.144 167.514 128.466C166.439 128.281 166.039 129.478 166.543 129.839ZM150.751 118.626L151.09 118.598C152.563 118.468 154.053 118.27 155.505 118.603C157.456 119.051 157.313 121.889 155.505 122.41C153.912 122.87 152.147 122.671 150.502 122.687C150.244 122.69 149.985 122.696 149.727 122.7C149.676 123.315 149.474 123.846 149.165 124.375C148.944 124.755 148.662 125.116 148.384 125.454C147.724 126.256 146.166 126.238 145.499 125.454C145.006 124.873 144.614 124.206 144.607 123.42C144.606 123.218 144.63 123.005 144.678 122.795L143.781 122.81C141.584 122.844 139.37 122.829 137.213 122.48C136.446 122.639 135.818 121.254 136.877 120.84C139.756 119.714 142.973 119.382 146.028 119.044C147.598 118.87 149.176 118.75 150.751 118.626ZM175.278 117.463L175.357 117.455C177.262 117.26 179.362 116.922 181.271 117.116C184.121 117.406 184.116 121.259 181.271 121.547C180.226 121.653 179.126 121.602 178.028 121.501C178.589 122.691 177.924 124.112 176.572 124.294C175.316 124.462 174.014 123.242 174.426 121.933L174.446 121.875C174.526 121.648 174.598 121.394 174.684 121.143L174.229 121.105C172.871 120.985 170.985 120.739 170.485 119.667C170.334 119.343 170.369 119.043 170.601 118.767C171.553 117.633 173.901 117.596 175.278 117.463ZM155.019 108.641C156.398 108.14 157.831 109.313 158.01 110.634C158.216 112.156 157.118 113.159 155.726 113.34L155.656 113.349C152.584 113.687 149.535 114.306 146.459 114.656C145.062 114.814 143.654 114.919 142.248 114.956L141.242 114.979C140.011 115.01 138.69 115.038 137.553 114.614L137.557 114.606C137.255 114.519 137.116 114.083 137.452 113.845C138.663 112.989 140.295 112.665 141.704 112.259C143.121 111.849 144.549 111.472 145.98 111.118C148.985 110.374 152.107 109.699 155.019 108.641ZM167.736 108.996C168.101 107.07 170.829 106.864 171.832 108.265C172.479 108.488 173.429 108.72 174.017 108.894C175.043 109.198 176.069 109.5 177.097 109.793C179.226 110.4 181.304 111.168 183.398 111.885C183.613 111.959 183.554 112.233 183.347 112.26C180.425 112.64 177.552 112.817 174.612 112.695L174.01 112.668C171.419 112.567 167.022 112.76 167.736 108.996Z" fill="black"/>
<path fill-rule="evenodd" clip-rule="evenodd" d="M499.077 299.146C498.083 293.548 497.172 287.934 496.345 282.309C495.952 279.639 495.569 276.965 495.224 274.288C494.983 272.412 494.615 270.267 495.894 268.877C497.694 266.922 499.33 265.248 499.55 262.447C499.757 259.811 498.864 256.938 498.305 254.38C497.134 249.015 495.676 243.716 494.065 238.468C492.428 233.135 490.633 227.853 488.812 222.581C487.11 217.652 485.474 212.678 483.257 207.949C479.049 198.974 471.931 192.327 463.133 187.889C460.945 186.785 456.483 182.845 454.197 181.963C452.096 181.152 452.103 183.52 450.035 182.628C448.381 181.915 446.842 180.964 445.916 179.371C444.911 177.642 442.39 175.223 442.007 173.21C441.193 168.943 442.074 165.311 439.022 162.099C436.312 159.247 432.67 157.293 428.901 156.245C420.611 153.937 409.554 155.55 404.552 163.237C402.163 166.907 401.328 171.344 398.104 174.34C395.289 176.956 395.919 178.744 392.273 180.092C392.067 180.169 386.47 178.971 386.263 179.047C382.275 178.196 378.463 180.58 374.804 181.963C369.348 184.025 364.154 186.709 359.275 189.899C349.436 196.331 341.009 204.683 334.061 214.135C327.056 223.664 321.621 234.345 317.751 245.509C316.811 248.22 315.967 250.965 315.222 253.736C314.806 255.287 314.36 256.896 314.868 258.484C315.283 259.783 316.206 260.75 317.29 261.529C318.76 262.586 321.708 263.273 321.651 265.398C321.607 267.014 321.058 268.714 320.789 270.311C320.47 272.213 320.208 274.125 319.946 276.035C318.753 284.729 317.824 293.471 317.414 302.238C317.009 310.87 316.674 319.679 317.274 328.309C317.314 328.878 317.484 329.401 317.758 329.842C317.502 329.94 317.482 330.416 317.801 330.484C318.024 330.531 318.247 330.578 318.471 330.625C318.934 330.975 319.513 331.19 320.179 331.211C320.63 331.225 321.081 331.246 321.532 331.269C326.289 332.261 331.046 333.198 335.865 333.908C341.723 334.77 347.599 335.474 353.493 336.046C365.603 337.22 377.619 336.831 389.746 336.197C401.854 335.565 413.954 335.417 426.075 335.732C438.206 336.047 450.333 336.573 462.467 336.789C476.023 337.029 489.558 336.66 503.075 335.585C504.929 335.437 506.075 333.966 505.71 332.13C503.52 321.126 501.038 310.196 499.077 299.146Z" fill="#E8B796"/>
<path fill-rule="evenodd" clip-rule="evenodd" d="M374.949 182.245L375.215 182.134C378.799 180.617 382.531 178.17 386.43 179.073C386.568 179.018 389.106 179.578 390.844 179.933L389.194 181.799L386.283 182.405C396.326 200.36 408.205 209.338 421.918 209.338C435.632 209.338 446.038 200.36 453.137 182.405L454.105 182.115C454.225 182.145 454.352 182.188 454.488 182.245C456.779 183.204 461.249 187.489 463.441 188.69C472.255 193.517 479.386 200.746 483.602 210.507C485.749 215.48 487.352 220.7 488.997 225.886L489.167 226.422C490.991 232.156 492.79 237.901 494.429 243.701C495.973 249.161 497.377 254.672 498.523 260.247L498.678 261.008C499.237 263.79 500.132 266.915 499.925 269.782C499.846 270.867 499.587 271.797 499.206 272.641L479.341 280.383L488.805 350.299C480.136 350.702 471.459 350.806 462.774 350.639C450.617 350.405 438.468 349.832 426.315 349.489C414.54 349.158 402.784 349.299 391.022 349.935L388.034 350.1C376.524 350.724 365.105 351.042 353.599 349.831L352.815 349.747L352.815 339.52L356.857 282.571L336.375 278.395L316.27 267.818C315.662 267.16 315.175 266.392 314.904 265.471C314.433 263.872 314.781 262.253 315.166 260.682L315.259 260.308C316.005 257.293 316.851 254.308 317.792 251.359C321.669 239.218 327.114 227.6 334.132 217.236C341.092 206.956 349.535 197.872 359.392 190.876C364.281 187.406 369.484 184.487 374.949 182.245Z" fill="#EDB98A"/>
<path fill-rule="evenodd" clip-rule="evenodd" d="M382.481 178.776C383.734 178.722 385.012 178.925 386.263 179.047C386.372 179.058 386.413 179.226 386.291 179.251C384.052 179.718 381.839 180.356 379.641 181.004L378.699 181.282C376.221 182.014 373.814 182.768 371.415 183.744C366.632 185.689 362.09 188.314 357.909 191.33C341.811 202.942 330.16 220.524 322.808 238.728C320.811 243.671 319.119 248.738 317.749 253.89C317.415 255.143 317.102 256.402 316.805 257.664C316.717 258.034 316.337 258.982 316.545 259.361C316.73 259.695 317.447 259.902 317.78 260.076L318.904 260.658C321.097 261.785 324.75 263.639 325.116 263.82L325.687 264.1C335.031 268.671 345.015 272.546 355.531 272.815L355.613 271.919C356.082 266.966 356.697 261.986 358.04 257.185C358.112 256.927 358.441 257.014 358.471 257.244C359.219 262.927 358.98 268.655 358.719 274.365C358.257 284.478 357.643 294.585 357.098 304.694C356.825 309.751 356.472 314.804 356.153 319.858C355.834 324.923 355.73 330.109 355.002 335.131C354.839 336.251 353.525 336.859 352.53 336.741C351.428 336.611 350.581 335.643 350.576 334.533C350.563 331.608 350.931 328.647 351.136 325.728C351.331 322.955 351.539 320.184 351.753 317.412C352.535 307.297 353.435 297.194 354.266 287.083C354.561 283.497 354.88 279.915 355.207 276.332C344.068 275.974 333.662 271.857 323.734 267.047C323.59 270.303 323.243 273.552 322.907 276.794C321.97 285.84 321.143 294.883 320.524 303.958C320.211 308.541 319.984 313.13 319.785 317.719C319.688 319.975 319.609 322.231 319.548 324.488C319.527 325.24 319.509 325.993 319.493 326.745L319.459 328.468C319.431 329.56 319.32 330.572 318.399 331.367C317.464 332.174 316.2 332.217 315.274 331.367C314.035 330.228 314.254 328.677 314.291 327.148C314.322 325.858 314.358 324.568 314.401 323.279C314.486 320.7 314.596 318.122 314.728 315.545C315.193 306.535 316.122 297.562 317.336 288.624L317.81 285.174C318.695 278.76 319.666 272.201 321.645 266.022C320.874 265.64 320.106 265.255 319.341 264.869C317.984 264.183 316.581 263.54 315.262 262.783C314.215 262.183 313.313 261.359 313.021 260.144C312.696 258.79 313.193 257.31 313.523 255.989L313.552 255.873C313.876 254.543 314.224 253.219 314.592 251.901C316.083 246.555 317.927 241.313 320.085 236.199C324.406 225.96 329.983 216.234 336.795 207.44C342.927 199.523 350.171 192.344 358.662 186.96C362.812 184.328 367.236 182.166 371.914 180.638C374.1 179.924 376.479 179.303 378.768 179.047C380.003 178.909 381.24 178.83 382.481 178.776ZM404.691 162.553C406.181 160.957 409.141 162.609 408.426 164.722C406.743 169.694 404.064 174.23 399.883 177.497C395.952 180.569 391.265 182.564 386.218 182.138C386.179 182.134 386.145 182.125 386.116 182.111L386.551 182.699C389.965 187.308 393.568 191.853 397.91 195.62C406.757 203.296 418.802 207.436 430.434 204.491C439.585 202.174 447.647 194.954 450.018 185.752C449.679 185.904 449.275 185.956 448.831 185.86C446.934 185.449 445.056 183.458 443.832 182.031C442.509 180.487 441.475 178.82 440.717 176.935C439.331 173.486 438.886 169.044 440.779 165.703C441.013 165.291 441.552 165.522 441.598 165.924L441.67 166.552C442.035 169.683 442.49 172.712 443.969 175.567C444.693 176.964 445.562 178.327 446.618 179.497C447.184 180.123 447.797 180.721 448.458 181.246C449.103 181.757 449.884 182.127 450.462 182.714L450.568 182.826L450.571 182.806C450.717 181.566 451.588 181.02 452.441 181.054C453.266 181.087 454.235 181.45 454.61 181.623L454.646 181.64C460.402 184.397 465.703 187.99 470.691 191.977C481.008 200.221 488.738 210.998 492.483 223.69C494.321 229.919 495.376 236.337 496.489 242.726L497.175 246.64C498.214 252.538 499.375 258.551 501.721 264.037C502.328 265.457 501.86 266.788 500.372 267.346C498.514 268.042 496.649 268.717 494.781 269.384C495.699 273.309 496.258 277.371 496.945 281.316C498.406 289.702 500.195 298.034 501.73 306.409C502.514 310.691 503.222 314.987 504.006 319.269C504.384 321.332 504.777 323.391 505.16 325.452C505.367 326.564 505.554 327.679 505.751 328.792L505.785 328.977C505.898 329.564 506.04 330.171 505.878 330.759C505.693 331.429 505.169 331.903 504.701 332.383C504.316 332.779 503.759 332.781 503.287 332.565L503.131 332.494C502.288 332.1 501.628 331.708 501.329 330.759C501.14 330.158 501.071 329.481 500.948 328.862C500.71 327.676 500.485 326.488 500.273 325.296C499.848 322.913 499.433 320.527 499.028 318.14L498.649 315.904C497.35 308.2 496.116 300.448 495.493 292.662C495.216 289.208 494.923 285.757 494.627 282.305L494.405 279.716C494.124 276.439 493.781 273.079 493.732 269.758L492.615 270.154L487.165 272.076C485.814 272.552 484.094 273.529 482.639 273.351C481.928 273.264 481.385 273.041 480.966 272.634C481.468 279.7 482.147 286.754 483.052 293.772C483.876 300.158 484.789 306.535 485.868 312.883C486.402 316.026 486.951 319.167 487.547 322.299C487.845 323.865 488.153 325.429 488.47 326.992C488.628 327.771 488.816 328.552 488.939 329.338C489.08 330.238 488.831 330.791 488.327 331.532C487.914 332.14 487.086 332.452 486.414 332.033C485.526 331.476 485.062 330.994 484.801 329.981C484.563 329.06 484.419 328.099 484.235 327.167C483.895 325.446 483.567 323.723 483.25 321.997C482.588 318.389 481.978 314.772 481.432 311.144C479.511 298.364 478.292 285.477 477.676 272.568C477.372 266.2 477.279 259.825 477.332 253.45C477.36 250.182 477.467 246.905 477.699 243.645C477.933 240.346 478.421 237.112 478.857 233.844C478.872 233.729 479.035 233.723 479.042 233.844C479.248 237.508 479.572 241.168 479.73 244.841C479.882 248.346 479.948 251.857 480.068 255.363C480.226 259.972 480.445 264.584 480.735 269.193C481.261 268.619 482.052 268.289 482.844 268.418C483.992 268.178 485.227 267.577 486.322 267.212L490.446 265.838C492.614 265.115 494.783 264.397 496.959 263.701C495.013 257.171 493.681 250.544 492.543 243.82L492.035 240.796C491.031 234.844 489.947 228.888 488.128 223.124C486.215 217.064 483.352 211.43 479.555 206.328C475.811 201.3 471.257 196.872 466.568 192.731C462.554 189.186 458.259 185.985 454.165 182.537C454.208 182.765 454.217 183.017 454.179 183.293C453.309 189.65 449.985 195.57 445.353 199.974C436.047 208.82 422.272 210.655 410.362 206.507C398.841 202.494 388.654 192.991 385.055 181.232C384.994 181.031 385.264 180.951 385.372 181.099C385.572 181.372 385.773 181.645 385.974 181.918C385.96 181.809 386.016 181.691 386.151 181.64C390.35 180.022 394.473 177.728 397.62 174.482C399.155 172.9 400.493 171.108 401.55 169.175C402.057 168.249 402.511 167.29 402.874 166.299L402.966 166.043C403.406 164.802 403.774 163.536 404.691 162.553Z" fill="black"/>
<path fill-rule="evenodd" clip-rule="evenodd" d="M380.409 75.4488C381.685 74.0802 383.316 73.0606 385.099 72.7348C383.469 73.549 381.876 74.3977 380.409 75.4488ZM377.91 87.2491C377.685 86.2061 377.533 85.1531 377.486 84.1003C377.771 84.5336 378.226 84.823 378.737 84.9726C378.407 85.7121 378.126 86.4739 377.91 87.2491ZM463.263 103.601C461.791 97.4737 454.922 85.6873 453.298 83.4188C451.535 77.8017 461.151 73.297 455.921 68.9045C453.554 66.9226 450.425 66.2213 447.489 65.5184C427.166 60.6383 405.33 63.0995 386.481 72.0735C383.614 71.4702 380.626 72.6492 378.541 74.7199C368.746 84.5637 382.095 102.325 385.014 113.422C390.023 125.796 379.706 127.878 380.812 138.348C381.672 143.756 387.151 145.186 391.775 146.003C392.516 146.177 393.507 146.203 393.746 146.986C394.495 151.558 397.063 155.915 400.511 158.872C400.21 159.765 400.44 160.849 401.503 161.634C411.137 168.792 423.284 172.374 435.3 171.73C449.619 170.963 457.024 162.757 458.811 160.644C468.691 147.303 467.51 129.702 465.495 113.803C464.091 102.728 465.871 114.456 463.263 103.601Z" fill="#E8B796"/>
<path fill-rule="evenodd" clip-rule="evenodd" d="M419.111 52.6127C419.561 51.2061 420.835 50.3601 422.294 50.5347C423.585 50.6872 424.967 51.9684 424.81 53.3825C424.78 53.6554 424.741 53.9112 424.694 54.1522L424.701 54.1544L424.707 54.1547L424.675 54.2481C424.579 54.6982 424.446 55.1015 424.249 55.4827C423.998 56.213 423.757 56.9459 423.519 57.6812C423.863 57.6665 424.215 57.6861 424.571 57.7525C424.94 56.8082 425.312 55.8663 425.681 54.9195C426.077 53.9087 426.355 52.6103 427.137 51.8282C428.138 50.8298 429.874 50.6232 431.094 51.3364C432.383 52.0889 432.843 53.4267 432.563 54.8605C432.42 55.5918 431.931 56.1007 431.327 56.4205L431.261 56.4541L430.797 57.5558C430.939 57.4943 431.087 57.4377 431.247 57.391C431.498 57.3172 431.744 57.2705 431.985 57.2508C432.649 56.0483 433.379 54.8801 434.134 53.7341C435.003 52.416 436.7 51.8553 438.124 52.689C439.398 53.4341 440.082 55.3917 439.169 56.6778C438.475 57.6542 437.819 58.6501 437.172 59.656C437.283 59.6756 437.393 59.7002 437.499 59.7322C437.548 59.6658 437.6 59.5994 437.654 59.533C438.36 58.6575 439.181 58.0009 440.025 57.273C440.815 56.5893 441.179 55.5146 442.217 54.9957C443.523 54.344 445.097 54.6564 445.874 55.9548C447.542 58.7362 444.743 60.7675 442.952 62.4521C444.509 61.4807 446.13 60.5929 447.792 59.8257C448.727 59.3953 449.676 58.9797 450.641 58.6206C452.07 58.0894 453.226 58.2594 454.399 59.2477C454.923 59.6904 455.183 60.6571 454.942 61.3012C454.475 62.5357 453.737 63.2858 452.443 63.6424C451.533 63.8932 450.601 64.0629 449.691 64.326C448.166 64.7638 446.686 65.2974 445.249 65.9639C445.352 66.0278 445.451 66.0967 445.542 66.1754C446.614 65.8286 447.706 65.5286 448.803 65.2729C450.623 64.8463 452.474 64.5581 454.334 64.3779L454.952 64.3204C457.182 64.1064 459.863 63.7116 461.232 65.8458C461.682 66.5492 461.731 67.7099 461.232 68.4059C460.277 69.7437 459.328 70.0093 457.749 70.0339C459.303 70.1987 460.855 70.4028 462.4 70.6413C463.465 70.8037 464.529 70.9876 465.589 71.1918L466.119 71.2955C467.41 71.5537 468.851 71.7037 469.961 72.4513C472.381 74.0843 471.245 77.2641 468.564 77.6034C467.267 77.7657 465.829 77.2173 464.557 76.9616C463.322 76.7132 462.083 76.4943 460.838 76.3025C460.194 76.2017 459.549 76.1131 458.902 76.032C460.218 76.2213 461.524 76.4894 462.796 76.8681L463.149 76.9747C465.607 77.7238 468.926 78.9169 469.693 81.5431C470.157 83.1392 468.886 84.5311 467.346 84.6245C465.915 84.7106 464.722 83.8572 463.507 83.2277C462.621 82.7703 461.721 82.4284 460.767 82.1358C459.78 81.8333 458.774 81.5825 457.761 81.3783C458.617 81.8501 459.452 82.3685 460.252 82.9485L460.62 83.2204C462.748 84.8056 465.993 87.26 465.243 90.2316C465.007 91.1685 463.962 92.0637 462.958 91.9678C460.346 91.7243 458.905 88.9429 456.935 87.4526C456.421 87.0641 455.857 86.6804 455.267 86.3066C458.253 89.8676 460.629 93.9844 462.437 98.2364C466.41 107.591 467.629 116.254 467.658 126.312L467.658 126.623C467.663 132.171 467.538 137.82 466.997 143.344C466.495 148.446 465.575 153.483 463.261 158.104C459.382 165.853 451.824 171.888 443.488 174.185C434.213 176.742 423.846 174.743 416.248 168.841C414.31 167.336 416.88 164.068 418.86 165.457C426.768 171.003 436.995 172.758 446.071 169.006C453.27 166.03 459.067 159.629 461.524 152.258C463.088 147.569 463.544 142.57 464.101 137.683L464.139 137.358C464.729 132.248 465.071 127.103 465.066 121.958C465.059 112.404 463.686 104.539 459.483 95.873C457.505 91.7907 454.94 88.0161 451.875 84.7032C450.946 84.8926 449.957 84.627 449.017 84.5262C448.538 84.4745 448.058 84.4253 447.578 84.3811C448.068 84.6978 448.549 85.0272 449.021 85.3642L449.641 85.8108C451.579 87.1989 454.039 88.78 453.54 91.4636C453.405 92.1891 452.682 92.8556 451.981 93.0203C449.44 93.6253 447.694 91.1562 445.977 89.6905C444.484 88.4167 442.922 87.2756 441.331 86.132C440.969 85.8738 440.605 85.6156 440.239 85.3598C440.583 85.7612 440.918 86.1688 441.245 86.5802L441.728 87.1924C443.19 89.0209 445.297 91.3976 443.995 93.7679C443.626 94.4369 442.839 94.882 442.076 94.8672C439.454 94.8131 438.412 91.8375 437.182 89.9586C436.124 88.3478 434.975 86.8305 433.787 85.3131C433.46 84.8975 433.131 84.4819 432.796 84.0663C427.289 84.3516 421.802 85.0795 416.41 86.2427C412.706 87.042 409.064 88.0775 405.448 89.211L405.148 89.3066C403.191 89.9365 401.175 90.7427 399.764 92.1252C399.563 93.0777 399.717 94.0822 399.91 95.0335L400.06 95.7616C400.679 98.8063 401.1 101.795 400.785 104.921C400.458 108.145 399.486 111.044 398.301 114.039C397.74 115.451 397.159 115.195 396.96 116.71C396.807 117.864 396.902 119.055 397.006 120.219L397.093 121.205C397.312 123.789 397.422 126.606 395.728 128.738C395.465 129.065 394.901 128.935 394.714 128.608C394.641 128.478 394.562 128.352 394.476 128.232C393.659 127.049 392.407 126.375 390.976 126.114C390.794 126.082 390.865 125.839 391.018 125.819C392.228 125.676 393.374 125.979 394.348 126.604C393.886 125.007 390.31 125.783 389.135 126.094L389.094 126.104C387.628 126.498 386.241 127.137 385.019 128.042C382.559 129.862 381.138 132.7 381.209 135.757C381.28 138.762 382.832 141.538 385.498 142.977C386.785 143.671 388.248 144.005 389.704 143.99C391.224 143.976 392.577 143.309 394.1 143.403C394.98 143.457 395.654 144.401 395.145 145.225C394.805 145.776 394.363 146.209 393.851 146.541C395.098 149.415 396.69 152.157 398.524 154.688C399.54 156.092 400.691 157.388 401.958 158.571C402.947 159.496 405.089 160.566 404.968 162.107C404.927 162.663 404.639 163.003 404.132 163.209C402.557 163.853 400.642 161.636 399.588 160.567L399.503 160.482C398.19 159.174 396.992 157.728 395.949 156.193C394.1 153.468 392.951 150.397 392.476 147.17C389.95 147.93 386.605 147.217 384.544 146.285C378.066 143.358 375.948 134.635 379.886 128.827C380.648 127.703 381.602 126.741 382.69 125.964C382.451 125.834 382.227 125.667 382.028 125.455C380.926 124.285 380.147 122.757 379.373 121.349L379.281 121.181C378.594 119.942 377.946 118.683 377.339 117.404L377.114 116.924C375.758 114.01 374.57 112.736 373.604 109.672C372.674 106.716 371.941 103.703 371.466 100.639L371.34 99.828C371.066 98.0499 370.806 96.1486 371.006 94.3434C369.627 94.7934 368.239 95.0713 366.874 94.395C365.974 93.9499 365.477 92.6515 365.785 91.7194C366.009 91.0333 366.382 90.4947 366.857 90.0717C366.574 89.9291 366.309 89.7471 366.075 89.5454L365.871 89.3686C365.044 88.6503 364.985 87.2854 365.487 86.3853C365.536 86.2993 365.586 86.2107 365.632 86.1247C366.109 85.2713 367.096 84.7131 368.07 84.7278C368.227 84.7303 368.385 84.7303 368.544 84.7278C368.089 84.627 367.644 84.4721 367.221 84.2114C365.313 83.0383 365.554 79.8585 367.863 79.2978C368.832 79.0642 369.902 79.1601 370.97 79.411C370.93 79.3888 370.891 79.3667 370.852 79.3421C370.045 78.8478 369.368 77.8813 369.445 76.8903C369.528 75.7934 369.882 75.0114 370.852 74.4359C371.693 73.9392 372.883 73.8925 373.719 74.4359C374.445 74.9106 375.156 75.4344 375.84 75.9976C375.153 75.154 374.558 74.2367 374.317 73.2629C374.019 72.0505 374.516 70.7299 375.608 70.0905C376.479 69.5814 377.399 69.638 378.22 70.0315C378.176 69.3945 378.331 68.7453 378.754 68.1698C379.62 66.9896 381.194 66.3106 382.564 67.1714C382.744 67.2845 382.985 67.4788 383.218 67.7173C382.763 66.2688 383.174 64.749 384.726 64.0949C385.673 63.694 386.954 63.8957 387.776 64.5867C387.255 61.766 391.419 59.6929 393.037 62.607C393.404 63.2672 393.768 63.9624 394.093 64.6735L394.213 64.9409L394.225 64.9359L394.142 64.7404L394.058 64.5449C393.608 63.4997 393.035 62.4128 392.877 61.2791C392.646 59.6019 393.394 58.0107 395.219 57.7648C396.161 57.6369 397.208 58.0648 397.841 58.8127C397.499 56.2106 400.406 54.3194 402.499 56.2622C403.49 57.182 404.019 58.5272 404.649 59.7076C405.005 60.3741 405.369 61.0381 405.726 61.707C405.817 61.5988 405.915 61.4906 406.019 61.3848C405.49 59.8011 405.079 58.178 404.732 56.545C404.403 55.0056 405.173 53.4071 406.762 52.972C408.205 52.5734 410.013 53.4639 410.335 55.0009C410.562 56.0827 410.83 57.1527 411.125 58.2173C411.327 58.1681 411.526 58.1337 411.723 58.1091C411.739 57.9091 411.757 57.708 411.778 57.508L411.856 56.7966C412.028 55.1712 412.201 53.3157 413.051 51.934C414.499 49.5731 418.213 50.5519 418.253 53.3431C418.275 54.7867 417.687 56.218 417.483 57.6468C417.394 58.269 417.343 58.8985 417.313 59.5281C417.709 57.4377 418.253 55.3745 418.882 53.3431C418.956 53.0997 419.035 52.8562 419.111 52.6127ZM387.067 133.221C390.326 132.717 393.305 134.534 395.236 137.08C395.587 137.545 395.356 138.201 395.039 138.592C394.81 138.88 394.503 138.914 394.156 138.959C393.757 139.01 393.253 138.688 393.079 138.341C391.836 135.862 389.62 134.296 387.067 133.332C387.021 133.315 387.006 133.231 387.067 133.221ZM391.583 88.8065L391.682 88.7006C392.342 88.0166 391.299 86.972 390.639 87.6574C389.943 88.3789 389.48 89.2554 389.036 90.1436C388.612 90.9906 389.884 91.7387 390.31 90.8885L390.504 90.5021C390.808 89.9013 391.132 89.3077 391.583 88.8065ZM382.432 87.4028C383.367 87.2454 382.971 85.8232 382.04 85.9801C380.834 86.1832 379.633 86.4142 378.427 86.6175C377.493 86.7749 377.889 88.1971 378.82 88.0404C380.026 87.8371 381.227 87.6061 382.432 87.4028ZM438.109 77.6934C437.206 77.3921 436.819 78.8168 437.717 79.1163C438.958 79.5302 440.189 79.9544 441.366 80.5291C442.216 80.9443 442.965 79.6721 442.11 79.255C440.818 78.6242 439.471 78.1479 438.109 77.6934ZM382.219 75.7813C381.337 75.4287 380.954 76.8553 381.827 77.2042L385.014 78.4789C385.896 78.8315 386.279 77.4052 385.407 77.0562L382.219 75.7813ZM449.239 72.3166L449.123 72.2432C448.324 71.7253 447.583 73.0022 448.378 73.5174C448.845 73.8197 449.412 74.0247 449.84 74.3848L449.929 74.4644C450.619 75.1161 451.665 74.0749 450.972 73.421C450.466 72.943 449.825 72.6769 449.239 72.3166Z" fill="black"/>
<path fill-rule="evenodd" clip-rule="evenodd" d="M426.008 151.281C427.98 147.346 446.069 149.115 446.069 149.115L447.597 161.622C447.597 161.622 438.869 164.421 433.674 163.834C428.478 163.248 424.036 155.216 426.008 151.281Z" fill="white"/>
<path fill-rule="evenodd" clip-rule="evenodd" d="M427.283 157.85C426.658 156.516 439.59 152.879 443.593 155.365C447.597 157.85 446.345 161.24 446.345 161.24C446.345 161.24 429.505 165.073 427.283 157.85Z" fill="#FF8181"/>
<path fill-rule="evenodd" clip-rule="evenodd" d="M424.886 148.952C427.905 145.453 432.988 145.209 437.199 146.084C439.902 146.646 442.533 147.581 445.278 147.928C446.56 148.09 447.855 148.139 449.147 148.115C450.415 148.091 451.685 147.836 452.949 147.884C453.144 147.891 453.217 148.146 453.049 148.249C451.315 149.312 448.979 149.653 446.931 149.86C446.937 150.012 446.946 150.159 446.967 150.284C447.023 150.618 447.074 150.95 447.115 151.286C447.208 152.043 447.312 152.798 447.416 153.555C447.621 155.043 447.685 156.578 448.045 158.041L448.107 158.284C448.191 158.591 448.21 158.868 448.182 159.118L448.265 159.081L448.528 158.953L448.701 158.872C449.33 158.581 449.931 158.369 450.671 158.44C451.234 158.493 451.707 158.877 451.711 159.477C451.725 162.171 448.086 163.037 446.004 163.553L445.394 163.703C442.744 164.348 440.039 164.913 437.314 165.048C432.941 165.265 428.027 164.061 425.167 160.522C422.497 157.22 422.008 152.289 424.886 148.952ZM444.745 160.272C444.286 156.216 439.29 155.993 437.853 158.565C437.215 154.98 427.781 158.255 428.519 158.968C431.315 161.669 435.558 161.913 439.206 161.413C441.064 161.158 442.923 160.744 444.745 160.272ZM439.201 149.641L437.945 149.46L437.45 149.392C434.337 148.976 430.835 148.761 428.275 150.753C427.341 151.48 426.815 152.428 426.618 153.447C429.04 153.089 431.472 152.816 433.91 152.588L434.575 152.527C436.101 152.39 437.626 152.245 439.15 152.093L440.233 151.984L441.316 151.872C441.697 151.832 444.265 151.701 444.748 151.789C444.8 151.356 444.867 150.419 444.976 149.998C443.151 150.06 441.335 149.925 439.521 149.684L439.201 149.641ZM444.983 131.511C446.844 132.64 449.68 135.272 447.678 138.07C445.321 140.538 441.927 137.709 440.255 136.429C438.705 135.438 436.963 137.988 438.401 139.146C450.485 148.072 455.388 131.806 445.924 130.184C444.882 130.005 444.495 131.162 444.983 131.511ZM448.313 136.267L448.403 136.218L448.433 136.2C448.486 136.166 448.452 136.169 448.333 136.211L448.244 136.243V136.306C448.267 136.292 448.291 136.281 448.313 136.267ZM424.476 126.238L424.476 126.182C424.479 124.614 425.395 121.034 427.657 121.034C429.071 121.034 429.929 123.47 430.078 125.982L430.083 126.085C430.148 127.647 429.719 131.06 427.657 131.06C425.574 131.06 424.497 127.827 424.476 126.238ZM457.789 125.746L457.789 125.69C457.786 124.122 456.87 120.542 454.608 120.542C453.23 120.542 452.379 122.858 452.2 125.302L452.187 125.49C452.098 126.999 452.5 130.568 454.608 130.568C456.691 130.568 457.768 127.335 457.789 125.746ZM425.767 110.341C427.614 110.061 430.059 110.593 430.92 112.467C431.303 113.302 430.849 114.225 429.882 114.271C427.545 114.382 425.45 113.864 423.398 115.38C422.516 116.032 421.773 116.936 421.151 117.837L420.915 118.18L420.72 118.463C420.297 119.083 419.896 119.757 419.959 120.505C419.977 120.727 419.75 120.937 419.535 120.928C418.191 120.873 418.046 119.192 418.223 118.182C418.551 116.307 419.461 114.548 420.721 113.13C422.044 111.642 423.792 110.641 425.767 110.341ZM451.201 112.616C452.475 111.8 454.103 111.486 455.595 111.606C458.536 111.842 463.47 114.337 462.821 117.921C462.621 119.027 461.08 119.61 460.172 118.997C459.195 118.338 458.958 117.313 458.231 116.451C457.651 115.763 456.917 115.265 456.13 114.84C455.354 114.422 454.457 114.168 453.577 114.076L453.431 114.062C452.901 114.017 450.226 114.029 450.619 115.025C450.696 115.22 450.405 115.375 450.271 115.227C449.451 114.322 450.38 113.143 451.201 112.616Z" fill="black"/>
<path fill-rule="evenodd" clip-rule="evenodd" d="M263.247 179.148L260.145 186.823L261.854 211.15L263.126 211.348C276.556 213.432 285.682 214.485 290.504 214.506L290.654 214.506C295.509 214.506 301.328 213.421 308.11 211.249L308.419 211.15L309.201 192.934H307.355L304.016 185.098L304.019 185.095C304.055 185.158 304.094 185.219 304.134 185.278C305.526 187.339 306.333 185.675 309.604 186.404C313.52 187.277 315.259 191.238 318.707 194.199C320.308 195.574 323.668 196.222 325.276 197.167L326.965 198.16C332.257 201.285 338.34 205.08 341.534 210.024C345.278 215.82 347.859 221.321 350.242 227.769C355.379 241.666 358.944 255.848 361.492 270.433C364.074 285.215 365.626 300.18 366.811 315.133C367.36 322.063 367.826 328.998 368.212 335.939L368.307 337.674C368.51 341.45 368.334 345.145 364.903 347.471C362.446 349.137 359.184 349.39 356.3 349.561L356.143 349.571C334.824 350.822 313.504 352.064 292.184 353.309L260.205 355.181C254.883 355.493 249.562 355.802 244.241 356.11L231.253 356.861C225.131 357.21 219.002 357.512 212.872 357.476C205.16 357.431 197.481 356.861 189.839 355.832L189.165 355.74C184.358 355.076 177.388 353.395 176.524 347.624C176.4 346.796 177.129 346.278 177.741 346.397C177.539 345.458 177.414 344.517 177.295 343.7C176.783 340.209 176.461 336.695 176.302 333.17C175.983 326.116 176.252 319.029 176.956 312.007C178.122 300.388 179.756 288.789 181.444 277.231L181.82 274.663C183.616 262.418 185.753 250.193 189.099 238.265C192.189 227.246 197.011 215.783 203.644 208.815C210.278 201.848 219.737 195.794 229.455 192.086C230.297 191.765 247.019 188.101 248.146 188.634L248.348 188.475C251.682 185.841 256.438 181.213 261.335 182.671L261.346 182.652C261.462 182.44 261.914 181.018 262.539 179.148L263.247 179.148Z" fill="#4F66AF"/>
<path fill-rule="evenodd" clip-rule="evenodd" d="M266.784 168.933C270.834 163.793 275.104 162.16 281.412 162.543C285.69 162.39 289.957 163.501 293.58 165.956C296.899 167.692 299.842 170.082 301.943 173.158C303.74 175.788 302.375 182.286 304.016 185.098C304 185.404 303.992 185.683 303.992 185.935C303.992 188.368 305.684 191.083 309.067 194.081L309.202 194.199V211.88C303.513 213.631 296.47 214.506 288.073 214.506C279.801 214.506 271.197 213.116 262.261 210.336L261.855 210.209L260.146 190.992L261.855 185.675L261.854 181.221L262.515 179.229C263.684 175.726 265.474 170.595 266.784 168.933Z" fill="#E8B796"/>
<path fill-rule="evenodd" clip-rule="evenodd" d="M261.854 210.209C261.854 210.209 276.874 214.586 287.128 214.586C297.382 214.586 308.419 210.209 308.419 210.209L306.628 354.317L277.809 354.669L261.854 210.209Z" fill="white"/>
<path fill-rule="evenodd" clip-rule="evenodd" d="M212.412 273.131C212.301 272.923 212.558 272.736 212.729 272.886C216.611 276.296 218.644 281.772 219.07 286.834C219.522 292.201 218.881 297.759 218.637 303.124C218.364 309.1 218.12 315.079 217.787 321.052C217.45 327.113 217.086 333.171 216.775 339.233L216.074 352.869C215.999 354.323 216.161 356.11 215.604 357.466C214.74 359.569 212.175 359.243 211.636 357.486L211.619 357.428L211.57 357.466C211.095 355.882 211.45 354.002 211.531 352.364L212.266 337.466C212.784 326.935 213.247 316.404 213.805 305.876L213.994 302.366C214.255 297.642 214.454 292.929 214.615 288.206L214.667 286.632C214.819 281.889 214.698 277.413 212.412 273.131ZM306.521 185.71C308.684 185.505 310.317 186.222 312.28 186.979C313.136 187.308 313.946 187.688 314.767 188.082C315.794 188.575 316.455 189.447 317.087 190.368L317.425 190.865C320.06 194.728 321.832 199.185 323.831 203.391C326.17 208.311 328.533 213.22 330.822 218.164L331.951 220.599C332.516 221.817 333.079 223.035 333.634 224.258L334.592 226.385C335.555 228.543 336.418 230.825 335.046 233.051C333.77 235.121 331.508 236.723 329.717 238.323C328.222 239.658 326.728 240.993 325.233 242.328C328.323 245.425 330.398 249.325 331.617 253.507C333.35 252.785 335.464 252.647 337.256 252.334C339.763 251.896 340.07 255.696 337.704 255.65C335.956 255.615 333.906 255.794 332.113 255.426C332.424 256.8 332.65 258.195 332.794 259.594C333.547 266.926 331.901 274.301 330.184 281.395L330.043 281.978C328.178 289.656 326.41 297.355 324.829 305.097C323.243 312.856 321.817 320.647 320.551 328.464C319.263 336.421 318.351 344.422 317.371 352.421C317.223 353.631 316.462 354.669 315.125 354.669C314.012 354.669 312.739 353.629 312.879 352.421C313.89 343.71 315.324 335.045 316.749 326.394C319.202 311.495 322.291 296.727 325.843 282.055L326.464 279.5C328.062 272.873 329.512 266.045 328.711 259.21C328.058 253.644 325.733 247.709 321.137 244.252L320.997 244.148C319.924 243.361 319.511 241.854 320.568 240.816C321.241 240.156 321.914 239.496 322.588 238.837L326.634 234.884L327.449 234.086C328.129 233.421 328.812 232.761 329.516 232.121C329.942 231.733 331.097 230.995 331.181 230.358C331.236 229.942 330.744 229.212 330.545 228.829L329.632 226.985C329.114 225.933 328.611 224.873 328.105 223.816C327.056 221.624 325.991 219.439 324.965 217.237L318.799 204.014C317.06 200.283 315.51 196.345 313.236 192.896L312.788 192.223C312.414 191.657 312.083 191.112 311.846 190.42C311.619 189.754 311.334 189.023 310.913 188.454C309.928 187.12 308.046 186.363 306.471 186.084C306.243 186.044 306.326 185.729 306.521 185.71ZM259.099 182.237C259.236 182.237 259.256 182.433 259.13 182.471C257.23 183.043 255.414 183.965 253.932 185.298C253.223 185.935 252.51 186.659 252.072 187.517C251.905 187.845 251.812 188.192 251.744 188.552L251.722 188.672C251.609 189.322 251.448 189.684 251.118 190.204L251.061 190.292C249.178 193.202 247.859 196.435 246.652 199.671L244.025 206.729L241.399 213.787C240.553 216.061 239.707 218.335 238.86 220.609C238.393 221.865 237.912 223.115 237.432 224.365C237.224 224.907 237 225.445 236.81 225.993C236.784 226.068 236.701 226.519 236.638 226.629L236.66 226.666C237.189 227.558 238.602 228.303 239.402 228.951L242.159 231.182C244.125 232.772 246.141 234.319 248.047 235.98C249.245 237.024 248.5 238.892 247.164 239.328C244.926 240.058 242.733 240.931 240.529 241.757C239.638 242.09 238.711 242.381 237.831 242.748L237.295 242.98C237.086 243.074 237.186 243.073 237.195 243.46C237.203 243.865 237.318 244.288 237.384 244.686C238.126 249.18 238.913 253.667 239.744 258.145C242.683 273.982 246.194 289.703 250.198 305.303C252.221 313.182 254.39 321.021 256.457 328.887C258.519 336.733 261.232 344.466 263.822 352.15C264.553 354.317 261.12 355.25 260.408 353.092C257.422 344.055 254.691 334.939 251.87 325.851C246.859 309.702 242.911 293.202 239.418 276.663C237.687 268.466 236.104 260.237 234.67 251.983C234.398 250.42 234.132 248.857 233.871 247.292L233.491 244.991C233.231 243.35 233.082 241.642 234.356 240.344C235.6 239.077 237.735 238.628 239.372 238.033L239.491 237.99C240.532 237.601 241.582 237.226 242.627 236.839C241.087 235.626 239.567 234.387 238.031 233.174C236.793 232.196 235.534 231.238 234.313 230.238C233.307 229.413 232.486 228.353 232.381 227.012C232.274 225.64 232.861 224.367 233.334 223.11L233.38 222.988C233.845 221.732 234.311 220.477 234.789 219.226L237.748 211.482C239.628 206.561 241.429 201.6 243.406 196.717C244.189 194.785 245.041 192.883 246.049 191.057C246.534 190.176 247.055 189.314 247.621 188.483C248.256 187.55 248.832 187.096 249.814 186.582C251.386 185.759 252.619 184.38 254.198 183.533C255.747 182.7 257.34 182.256 259.099 182.237ZM264.2 173.458C264.261 173.354 264.42 173.4 264.422 173.518C264.463 175.963 263.882 178.463 263.525 180.881C263.166 183.308 263.051 185.869 262.532 188.27C262.522 188.382 262.5 188.492 262.469 188.601L262.445 188.683C262.226 189.356 261.656 189.926 260.957 190.104C261.177 191.323 261.384 192.544 261.558 193.772C261.857 195.882 262.13 197.995 262.399 200.109L262.72 202.646C263.024 205.037 263.319 207.429 263.611 209.821C264.353 210.131 265.11 210.387 265.885 210.61C267.671 211.121 269.501 211.329 271.344 211.51C275.097 211.879 278.88 212.049 282.646 212.259L283.453 212.304C287.688 212.547 291.946 212.59 296.17 212.155C298.265 211.939 300.343 211.578 302.386 211.065C303.423 210.804 304.432 210.415 305.468 210.16C305.812 210.076 306.119 209.881 306.463 209.673C306.616 209.479 306.83 209.333 307.11 209.276L307.185 209.263L307.26 209.252L307.286 209.241L307.284 209.249C307.496 209.22 307.697 209.22 307.887 209.246C307.963 207.381 308.045 205.516 308.147 203.651C308.423 198.643 309.184 193.419 308.168 188.455C308.134 188.288 308.361 188.229 308.42 188.385C310.413 193.641 310.189 199.387 310.29 204.919C310.388 210.328 310.328 215.741 310.301 221.151C310.689 221.316 311.034 221.54 311.307 221.853C311.854 222.48 312.011 223.57 311.307 224.175C310.996 224.443 310.651 224.629 310.285 224.758C310.265 229.459 310.232 234.159 310.185 238.86C311.078 239.55 311.161 241.19 310.151 241.871C309.983 257.093 309.706 272.316 309.477 287.535L308.997 319.467C308.933 323.721 308.827 327.975 308.789 332.229L308.819 332.241L308.926 332.29C309.105 332.375 309.371 332.511 309.426 332.65C309.441 332.686 309.444 332.711 309.443 332.73C309.736 332.771 310.026 332.91 310.277 333.148C310.897 333.738 310.771 334.627 310.277 335.227L310.145 335.388C309.837 335.762 309.252 335.906 308.775 335.83C308.779 338.485 308.796 341.141 308.788 343.796C308.785 344.607 308.773 345.418 308.759 346.229L308.726 348.173C308.703 349.283 308.605 350.693 307.47 351.191C306.189 351.754 305.04 351.293 304.521 349.991C304.381 349.638 304.411 349.309 304.462 348.961C304.446 348.437 304.364 347.83 304.374 347.343L304.417 345.316C304.423 345.004 304.436 344.691 304.445 344.379L304.408 344.382C299.856 344.604 295.272 344.496 290.713 344.493L288.685 344.496C286.993 344.497 285.298 344.488 283.608 344.424L282.975 344.397C281.71 344.337 280.38 344.318 279.069 344.205C279.236 345.552 279.392 346.9 279.531 348.25C279.663 349.529 278.344 350.617 277.167 350.617C275.769 350.617 274.969 349.517 274.802 348.25C274.012 342.272 273.688 336.239 272.934 330.258C272.258 324.901 271.672 319.532 271.076 314.164L270.877 312.375C268.696 292.842 266.579 273.302 264.555 253.753L263.612 244.614C262.66 235.403 261.702 226.191 260.894 216.966C260.432 211.692 260.007 206.417 259.606 201.138C259.312 197.26 259.128 193.403 259.008 189.532C258.534 189.045 258.296 188.332 258.506 187.596C258.629 187.167 258.772 186.74 258.922 186.313C258.913 185.894 258.903 185.476 258.895 185.056C258.887 184.659 259.29 184.455 259.612 184.521C260.198 183.102 260.843 181.695 261.381 180.289C262.252 178.014 262.97 175.562 264.2 173.458ZM215.551 198.046C224.658 192.334 235.497 188.224 246.354 188.667C246.601 188.677 246.67 189.053 246.414 189.11C240.623 190.405 234.768 191.981 229.286 194.275C223.787 196.576 218.559 199.674 213.903 203.398C205.312 210.267 198.634 219.203 194.237 229.275C191.661 235.175 189.856 241.404 188.28 247.635C186.611 254.23 185.237 260.896 184.093 267.602C181.836 280.848 180.521 294.24 179.822 307.655C179.11 321.301 179.403 334.957 178.896 348.605C178.808 350.97 175.431 350.924 175.26 348.605C174.11 333.088 174.747 317.323 175.81 301.817C176.766 287.877 178.436 273.967 181.125 260.252L181.36 259.063C183.874 246.374 186.906 233.377 192.983 221.886C198.172 212.075 206.182 203.924 215.551 198.046ZM342.005 258.692C342.052 258.556 342.232 258.558 342.28 258.692C343.318 261.601 343.355 264.883 343.631 267.948L343.653 268.184C343.917 270.98 344.117 273.78 344.302 276.582L344.371 277.633C345.114 289.065 346.044 300.484 347.444 311.855C348.84 323.183 350.727 334.433 352.768 345.66C352.995 346.91 352.442 348.183 351.132 348.543C349.978 348.861 348.496 348.149 348.251 346.907C346.985 340.462 345.96 334.009 345.046 327.509C343.437 316.063 342.237 304.565 341.465 293.032C341.077 287.239 340.839 281.449 340.744 275.644C340.7 272.951 340.77 270.251 340.913 267.561L340.948 266.94C341.106 264.19 341.09 261.315 342.005 258.692ZM243.606 331.504C243.728 331.438 243.879 331.574 243.802 331.699C242.038 334.568 239.653 337.041 237.347 339.478C234.937 342.026 232.587 344.651 230.128 347.149C228.351 348.953 225.493 346.042 227.368 344.387C230.005 342.059 232.76 339.848 235.443 337.572L236.617 336.576C238.817 334.716 241.082 332.872 243.606 331.504ZM327.355 330.068C327.223 329.817 327.524 329.613 327.728 329.779C329.151 330.937 330.425 332.318 331.799 333.539C333.159 334.749 334.57 335.878 336.019 336.979C337.475 338.084 338.962 339.145 340.489 340.15C341.756 340.982 343.061 341.649 344.388 342.341C345.002 342.42 345.571 342.722 346.027 343.294C346.747 344.199 346.823 345.905 345.825 346.691L345.645 346.832C344.48 347.748 343.096 347.86 341.949 346.832C340.668 345.683 339.457 344.42 338.227 343.207L337.858 342.844C336.536 341.558 335.246 340.231 334.03 338.844L332.93 337.59C330.888 335.26 328.762 332.748 327.355 330.068ZM320.804 195.698C320.567 195.541 320.713 195.119 321.005 195.22L321.54 195.405C323.779 196.183 326.082 197.047 328.114 198.245C330.298 199.533 332.314 201.067 334.24 202.713C338.227 206.119 341.619 210.309 344.502 214.675C350.286 223.437 353.864 233.471 356.752 243.511C359.831 254.216 362.202 265.152 364.138 276.119C366.105 287.264 367.623 298.509 368.62 309.783C369.111 315.337 369.441 320.894 369.607 326.466C369.693 329.333 369.69 332.198 369.666 335.066C369.66 335.804 369.665 336.541 369.673 337.278L369.701 339.49C369.716 340.888 369.883 342.358 369.551 343.724C369.017 345.923 365.384 345.513 365.503 343.265C365.394 342.517 365.39 341.744 365.418 340.97C365.401 340.87 365.382 340.768 365.361 340.665C365.302 340.367 365.352 340.092 365.469 339.856C365.488 339.484 365.505 339.115 365.511 338.752C365.535 337.276 365.533 335.805 365.492 334.329C365.406 331.216 365.283 328.104 365.158 324.993C364.908 318.776 364.561 312.556 364.057 306.355C362.305 284.768 358.606 263.058 352.393 242.291C349.507 232.647 345.528 223.179 339.823 214.846C337.29 211.146 334.433 207.729 331.265 204.557C328.077 201.366 324.564 198.191 320.804 195.698ZM277.81 334.855L278.24 337.972C278.456 339.531 278.669 341.09 278.871 342.651C280.245 342.463 281.651 342.384 282.976 342.266C285.294 342.061 287.629 341.961 289.954 341.865C294.763 341.667 299.595 341.322 304.409 341.346C304.458 341.347 304.505 341.35 304.551 341.354L304.79 335.203L301.408 335.198C298.543 335.193 295.678 335.169 292.813 335.144C290.232 335.122 287.651 335.118 285.071 335.065L283.965 335.038C282.008 334.986 279.848 335.094 277.81 334.855ZM305.073 325.927C304.935 325.943 304.795 325.957 304.646 325.963C303.976 325.992 303.301 325.972 302.63 325.978C301.203 325.99 299.776 326 298.348 325.999C295.494 325.999 292.639 326.016 289.785 326.051C286.847 326.086 283.911 326.137 280.972 326.143C279.548 326.146 278.129 326.108 276.706 326.068C276.936 328.093 277.177 330.115 277.442 332.133C279.653 331.835 282.03 331.985 284.19 331.965L284.47 331.961C287.418 331.91 290.369 331.948 293.318 331.951C296.352 331.955 299.385 331.965 302.419 331.99L304.911 332.01L304.916 331.885C304.989 329.901 305.036 327.914 305.073 325.927ZM275.61 316.242C275.886 318.632 276.145 321.026 276.41 323.419C276.585 323.391 276.763 323.368 276.945 323.349C278.37 323.2 279.793 323.072 281.224 322.983C284.076 322.806 286.929 322.713 289.785 322.636C292.723 322.557 295.662 322.497 298.6 322.455C300.028 322.435 301.455 322.437 302.883 322.447C303.552 322.452 304.229 322.431 304.898 322.476C304.977 322.481 305.053 322.489 305.129 322.498L305.179 318.905C305.188 318.307 305.197 317.708 305.207 317.109C303 317.246 300.756 317.194 298.551 317.194L298.043 317.195C295.272 317.208 292.501 317.17 289.73 317.113C286.872 317.053 284.02 316.959 281.168 316.776C280.012 316.702 278.864 316.604 277.715 316.477L277.14 316.411C276.64 316.352 276.124 316.304 275.61 316.242ZM305.434 306.104C300.119 306.526 294.833 306.703 289.505 306.755L288.705 306.762C283.996 306.798 279.248 306.992 274.528 306.867C274.81 309.316 275.092 311.765 275.376 314.214C276.051 314.182 276.731 314.182 277.391 314.158C278.735 314.11 280.075 314.097 281.419 314.094C284.189 314.088 286.96 314.112 289.73 314.106C292.585 314.1 295.44 314.052 298.295 313.998C300.609 313.955 302.948 313.781 305.269 313.787L305.434 306.104ZM305.659 295.656C305.043 295.861 304.316 295.874 303.519 295.91L301.461 296.013C300.508 296.06 299.554 296.104 298.6 296.139C295.421 296.255 292.241 296.364 289.061 296.465C285.803 296.569 282.529 296.629 279.27 296.526C277.673 296.476 276.09 296.392 274.499 296.259C274.105 296.226 273.704 296.204 273.302 296.176C273.673 299.42 274.044 302.665 274.418 305.909C279.115 305.332 283.849 304.972 288.541 304.376L292.783 303.833C297.023 303.292 301.26 302.76 305.516 302.312L305.659 295.656ZM305.886 285.093C304.982 285.316 303.952 285.305 303.084 285.36L302.924 285.371C301.28 285.496 299.631 285.558 297.983 285.599C294.753 285.678 291.522 285.718 288.291 285.738L286.348 285.75C283.758 285.765 281.169 285.772 278.579 285.711C276.917 285.673 275.259 285.591 273.598 285.508C273.101 285.483 272.592 285.467 272.082 285.441C272.429 288.513 272.78 291.584 273.13 294.655C273.675 294.569 274.223 294.503 274.746 294.414C276.084 294.188 277.42 294.007 278.768 293.846C281.688 293.495 284.622 293.243 287.556 293.031C290.567 292.812 293.581 292.628 296.593 292.416L298.726 292.266C299.437 292.216 300.148 292.169 300.859 292.125C302.074 292.05 303.486 292.135 304.691 291.87C305.017 291.734 305.38 291.703 305.742 291.78L305.886 285.093ZM306.159 272.728C305.846 273.126 305.379 273.334 304.823 273.406C301.923 273.783 298.948 273.843 296.023 274.021L295.508 274.053C292.488 274.252 289.467 274.409 286.445 274.569C283.34 274.734 280.236 274.869 277.13 274.977C275.811 275.023 274.485 275.028 273.164 275.011L272.598 275.003C272.056 274.994 271.487 274.995 270.918 274.977C271.233 277.849 271.551 280.721 271.874 283.593C272.455 283.529 273.035 283.481 273.598 283.422C275.258 283.246 276.915 283.072 278.578 282.941C281.73 282.693 284.884 282.543 288.042 282.387C291.272 282.227 294.505 282.12 297.736 281.969C299.303 281.896 300.869 281.805 302.43 281.661C303.525 281.56 304.825 281.187 305.968 281.324C306.03 278.459 306.095 275.593 306.159 272.728ZM306.413 261.652C306.364 261.729 306.306 261.803 306.236 261.872C304.959 263.134 303.386 263.037 301.694 263.169L301.59 263.178C299.932 263.317 298.273 263.45 296.613 263.57C293.294 263.81 289.969 263.977 286.646 264.127C283.245 264.28 279.822 264.385 276.418 264.316C274.238 264.271 271.955 264.279 269.731 264.066C270.073 267.23 270.416 270.393 270.762 273.556C271.388 273.438 272.017 273.348 272.613 273.254C274.115 273.017 275.619 272.779 277.129 272.605C280.148 272.258 283.168 271.932 286.193 271.639C288.779 271.388 291.365 271.133 293.954 270.903L295.508 270.769C298.596 270.509 301.724 270.08 304.822 270.017C305.333 270.006 305.911 270.284 306.203 270.723C306.272 267.699 306.343 264.676 306.413 261.652ZM306.628 252.685C305.839 252.781 304.989 252.726 304.262 252.75C302.421 252.81 300.581 252.866 298.74 252.921L287.697 253.247C283.937 253.358 280.163 253.441 276.402 253.388C274.747 253.364 273.085 253.362 271.431 253.272L270.88 253.238C270.199 253.193 269.364 253.187 268.548 253.104L269.511 262.032C271.724 261.712 274.005 261.593 276.199 261.405L276.668 261.364C279.904 261.069 283.155 260.873 286.397 260.654C289.722 260.428 293.043 260.155 296.364 259.875C298.023 259.735 299.683 259.596 301.342 259.443L301.546 259.423C303.113 259.259 304.586 258.911 305.974 259.836C306.177 259.971 306.336 260.151 306.445 260.353C306.505 257.797 306.565 255.241 306.628 252.685ZM306.886 242.265C300.16 242.536 293.433 242.741 286.703 242.832C282.914 242.883 279.13 242.847 275.342 242.768C273.699 242.733 272.043 242.654 270.402 242.529L269.787 242.479C269.007 242.413 268.187 242.366 267.371 242.287C267.708 245.357 268.043 248.427 268.375 251.498C269.178 251.349 270.017 251.28 270.721 251.19L270.881 251.169C272.629 250.928 274.394 250.787 276.151 250.633C279.573 250.331 283.011 250.137 286.442 249.971C289.955 249.802 293.47 249.659 296.983 249.502L300.497 249.345C301.083 249.319 301.668 249.293 302.254 249.269C303.091 249.233 303.928 249.2 304.764 249.165C305.177 249.148 305.606 249.092 306.019 249.113L306.137 249.097C306.191 249.09 306.239 249.085 306.283 249.08C306.395 248.995 306.516 248.923 306.644 248.87L306.722 248.839L306.886 242.265ZM266.267 232.39C266.58 235.154 266.889 237.918 267.193 240.683C268.153 240.573 269.123 240.512 270.039 240.43C271.886 240.264 273.742 240.119 275.594 240.034L279.297 239.862C281.765 239.747 284.233 239.637 286.702 239.547C293.462 239.3 300.221 239.017 306.976 238.672C307.024 236.797 307.073 234.922 307.123 233.047C306.799 233.394 306.33 233.623 305.715 233.621C298.623 233.602 291.525 233.643 284.434 233.527C280.885 233.468 277.339 233.382 273.794 233.2C272.059 233.111 270.314 232.929 268.593 232.69C267.858 232.589 267.055 232.516 266.267 232.39ZM265.133 222.542C265.466 225.373 265.793 228.205 266.115 231.037C266.996 230.88 267.906 230.796 268.727 230.684C270.493 230.444 272.269 230.253 274.048 230.152C277.508 229.956 280.97 229.857 284.435 229.784C291.525 229.633 298.623 229.634 305.715 229.578C306.382 229.573 306.876 229.837 307.201 230.23C307.25 228.463 307.302 226.695 307.356 224.927C306.671 224.854 305.992 224.752 305.363 224.708C303.431 224.573 301.499 224.45 299.566 224.339C295.532 224.107 291.494 223.909 287.457 223.733C283.419 223.558 279.38 223.386 275.341 223.236L273.575 223.172C270.766 223.067 267.909 222.935 265.133 222.542ZM263.863 211.88C264.21 214.747 264.551 217.615 264.892 220.483L264.996 221.371C268.374 220.714 271.934 220.521 275.341 220.376C279.381 220.204 283.414 220.116 287.457 220.128C291.496 220.14 295.53 220.236 299.566 220.403C301.582 220.486 303.599 220.582 305.614 220.692C306.169 220.722 306.818 220.706 307.487 220.716C307.502 220.265 307.514 219.814 307.53 219.364C307.591 217.538 307.651 215.713 307.714 213.888C306.35 214.589 304.578 214.871 303.208 215.17L303.052 215.204C300.789 215.713 298.48 216.043 296.171 216.244C291.636 216.64 287.054 216.492 282.524 216.109L281.731 216.041C277.753 215.695 273.628 215.258 269.772 214.272C267.935 213.803 266.036 213.147 264.39 212.195C264.219 212.096 264.042 211.991 263.863 211.88ZM302.167 177.808C302.206 177.653 302.438 177.617 302.514 177.762C303.05 178.781 303.249 180.003 303.621 181.095C304.022 182.268 304.395 183.45 304.837 184.609C305.759 187.031 306.848 189.358 308.145 191.602C309.43 193.823 305.832 195.409 304.886 192.977C303.91 190.467 303.108 187.872 302.622 185.22C302.385 183.926 302.174 182.615 302.106 181.3C302.046 180.171 301.888 178.909 302.167 177.808Z" fill="black"/>
<path fill-rule="evenodd" clip-rule="evenodd" d="M283.542 75.7724C297.907 75.7724 316.449 84.8105 318.03 94.0671C319.894 104.976 329.872 146.834 327.618 160.257C325.365 173.68 313.223 183.344 293.795 183.344C274.366 183.344 259.864 172.716 256.534 169.067C253.205 165.418 247.034 152.39 247.034 152.39C247.034 152.39 236.631 151.003 236.582 142.497C236.533 133.992 243.345 130.897 243.345 130.897C243.345 130.897 240.916 97.3314 247.034 88.5924C253.152 79.8534 269.177 75.7724 283.542 75.7724Z" fill="#E8B796"/>
<path fill-rule="evenodd" clip-rule="evenodd" d="M317.151 92.5736C317.141 92.3784 317.424 92.3556 317.477 92.5282C320.576 102.797 322.486 110.8 324.497 121.329L325.091 124.426C326.678 132.686 328.282 140.959 329.636 149.259L329.715 149.755C330.394 154.051 330.785 158.39 329.934 162.695C329.14 166.72 326.969 170.409 324.151 173.348C318.704 179.027 311.135 182.574 303.52 184.16C299.67 184.962 295.698 185.272 291.774 184.992C289.818 184.855 287.865 184.579 285.95 184.17L285.739 184.125C283.808 183.707 282.095 183.208 281.07 181.386C280.812 180.927 280.916 180.141 281.457 179.905C282.479 179.463 283.231 179.278 284.346 179.405C285.411 179.526 286.451 179.849 287.503 180.049C289.515 180.432 291.559 180.625 293.605 180.671C297.625 180.76 301.656 180.255 305.498 179.052C312.101 176.984 318.811 173.028 322.669 167.111C327.207 160.149 325.4 151.701 324.197 144.013L324.161 143.781C322.943 135.923 321.74 128.065 320.571 120.203L320.073 116.832C318.762 107.928 317.525 101.572 317.151 92.5736ZM250.113 70.779C253.408 68.6004 257.504 68.065 261.374 68.0951L261.859 68.1012C266.815 68.177 291.764 68.7725 300.117 68.9557L302.104 68.9977C304.734 69.0475 310.039 69.0995 312.772 69.1496L312.929 69.1525C314.27 69.1779 315.611 69.188 316.952 69.2312L317.148 69.2383C318.153 69.2813 318.989 69.432 319.775 70.1421C320.175 70.502 320.331 71.0509 320.295 71.5738L320.289 71.6418L322.28 71.8169C323.632 71.9367 324.347 73.1529 323.81 74.3836L323.783 74.4432C322.829 76.4834 322.1 82.4211 321.589 84.6161C321.321 85.7706 321.106 86.943 320.979 88.1229C320.878 89.0519 320.868 89.9829 320.352 90.8C319.251 92.5433 316.155 92.528 316.099 90.059C316.097 89.9804 316.099 89.9042 316.107 89.8307C308.315 89.4881 297.677 89.5211 289.895 89.988C282.627 90.4244 275.391 91.4141 268.27 92.929C266.466 93.3121 264.667 93.7308 262.881 94.185C261.416 94.5555 259.618 94.7763 258.307 95.5705C256.84 96.4637 256.868 98.0649 257.027 99.5899C257.198 101.206 257.483 100.373 257.888 101.847L257.913 101.94C258.33 103.538 258.846 105.119 259.529 106.621C259.919 107.479 260.546 108.304 260.308 109.291C260.174 109.847 259.736 110.44 259.334 110.829C257.502 112.592 254.406 111.468 253.161 113.884C251.859 116.41 251.826 119.832 251.716 122.627L251.709 122.79C251.629 124.716 251.651 126.647 251.778 128.568C251.891 130.319 252.357 132.052 251.76 133.735C251.325 134.958 249.903 135.072 249.159 134.077C249.074 133.963 248.996 133.846 248.922 133.728L248.851 133.61L248.846 133.613C248.916 133.724 248.982 133.839 249.045 133.955C249.114 134.085 248.944 134.227 248.84 134.115C247.09 132.205 244.532 132.585 242.551 133.922C240.545 135.283 239.753 137.866 239.649 140.183C239.533 142.753 239.761 145.765 240.828 148.14C241.279 149.145 241.921 150.069 242.986 150.452C243.47 150.624 243.93 150.601 244.433 150.642C244.957 150.682 245.587 150.947 246.095 150.911C246.756 150.864 247.349 151.62 247.162 152.254L247.148 152.297C247.138 152.327 247.128 152.357 247.118 152.385C247.143 152.408 247.168 152.436 247.186 152.477C249.109 156.417 251.745 159.924 254.659 163.177C256.119 164.804 257.738 166.298 259.43 167.681C260.265 168.364 261.146 169.047 262.074 169.597C262.383 169.777 262.666 169.899 263.013 169.998C263.175 170.044 263.359 170.067 263.516 170.12L263.679 170.176C263.69 170.18 263.701 170.183 263.711 170.186C264.176 170.239 264.569 170.549 264.723 171.033C265.125 172.297 264.394 173.414 263.144 173.761C261.79 174.141 260.514 173.474 259.441 172.709L259.37 172.657C257.181 171.077 255.165 169.303 253.42 167.232C249.966 163.144 247.803 158.412 246.802 153.177C246.553 153.712 246.22 154.179 245.64 154.504C244.74 155.012 243.664 155.012 242.678 154.842C240.692 154.504 238.999 153.289 237.868 151.644C236.694 149.939 236.257 147.869 235.991 145.851C235.728 143.831 235.599 141.804 235.862 139.779C236.239 136.871 237.456 133.996 239.821 132.402C238.051 128.533 237.739 124.194 237.866 119.956C238.02 114.739 238.918 109.463 239.609 104.294L241.572 89.5997L241.653 89.0073C242.127 85.5504 242.703 82.0751 243.993 78.8179C245.266 75.6079 247.199 72.705 250.113 70.779ZM241.851 140.297C245.094 138.718 248.598 140.172 250.344 143.235C251.861 145.898 247.349 147.658 246.596 144.913L246.574 144.829C246.078 142.75 244.059 140.954 241.952 140.675C241.778 140.65 241.648 140.396 241.851 140.297Z" fill="black"/>
<path fill-rule="evenodd" clip-rule="evenodd" d="M305.982 164.813C304.114 165.355 302.11 165.403 300.206 164.844C298.479 164.337 296.707 163.221 295.436 161.744C294.307 160.432 293.576 158.837 293.604 157.135C293.608 156.941 293.677 156.779 293.784 156.653C293.899 156.517 294.06 156.424 294.232 156.384C294.409 156.342 294.596 156.357 294.755 156.429C294.899 156.495 295.023 156.606 295.1 156.769C295.295 157.026 295.49 157.279 295.685 157.525C297.255 159.466 298.776 160.916 301.137 161.436C302.418 161.718 303.698 161.593 304.872 161.163C306.129 160.701 307.265 159.891 308.155 158.853C308.557 158.385 309.032 158.193 309.497 158.19C310.023 158.186 310.543 158.431 310.935 158.822C311.321 159.207 311.578 159.73 311.602 160.276C311.622 160.756 311.466 161.257 311.05 161.704C309.68 163.177 307.904 164.256 305.982 164.813ZM305.925 140.506C307.839 141.671 310.756 144.387 308.697 147.274C306.273 149.82 302.782 146.901 301.062 145.581C299.468 144.558 297.676 147.189 299.155 148.384C311.584 157.594 316.628 140.811 306.893 139.137C305.821 138.952 305.423 140.146 305.925 140.506ZM288.017 135.381C287.401 134.987 286.677 134.852 285.875 135.217C285.248 135.503 284.149 136.454 283.384 137.704C282.86 138.56 282.489 139.563 282.566 140.609C282.584 140.851 282.495 141.03 282.353 141.163C282.242 141.267 282.08 141.344 281.891 141.368C281.73 141.388 281.55 141.37 281.404 141.324C281.125 141.237 280.978 141.057 280.923 140.909C280.387 139.485 280.618 137.896 281.218 136.462C282.028 134.527 283.5 132.906 284.464 132.384C286.114 131.489 288.06 131.448 289.712 132.359C291.119 133.135 291.998 134.387 292.873 135.664C293.059 135.935 293.243 136.204 293.434 136.469C293.816 136.999 293.854 137.525 293.706 137.976C293.542 138.475 293.124 138.897 292.601 139.118C292.118 139.321 291.557 139.35 291.061 139.141C290.642 138.964 290.257 138.619 290.013 138.033C289.603 137.047 288.92 135.959 288.017 135.381ZM319.266 137.575C318.845 137.794 318.515 137.861 318.048 137.72C317.789 137.643 317.534 137.494 317.334 137.294C317.135 137.095 316.992 136.848 316.937 136.575C316.8 135.899 316.431 135.267 315.904 134.855C315.455 134.502 314.887 134.315 314.257 134.421C313.578 134.534 312.93 134.971 312.484 135.485C312.335 135.657 312.218 135.852 312.101 136.046C311.881 136.41 311.668 136.747 311.365 137.014C311.25 137.115 311.077 137.185 310.909 137.185C310.841 137.185 310.772 137.174 310.706 137.154C310.03 136.474 309.9 135.959 309.921 135.447C309.944 134.911 310.155 134.369 310.497 133.862C311.297 132.674 312.817 131.7 313.843 131.479C315.247 131.177 316.642 131.54 317.761 132.325C318.912 133.133 319.764 134.387 320.03 135.801C320.094 136.142 320.067 136.509 319.937 136.828C319.811 137.139 319.59 137.406 319.266 137.575ZM291.114 122.714C290.271 123.536 289.273 123.664 288.264 123.777C287.703 123.841 287.255 123.892 286.815 123.991C285.604 124.265 284.407 124.677 283.315 125.27C282.174 125.891 280.93 126.639 280.035 127.597C279.822 127.825 279.621 128.065 279.42 128.305C279.237 128.523 279.061 128.734 278.875 128.937C278.661 129.17 278.458 129.414 278.257 129.658C278.132 129.864 278.107 129.914 278.082 129.967C278.044 130.046 278 130.135 277.95 130.23C277.881 130.36 277.801 130.502 277.716 130.631C277.576 130.867 277.501 130.932 277.436 130.962C277.327 131.01 277.225 131.033 277.126 131.021C277.033 131.009 276.945 130.964 276.858 130.89C276.425 130.524 276.298 129.924 276.311 129.286C276.331 128.319 276.687 127.248 277.016 126.589C277.78 125.059 278.84 123.468 280.114 122.327C281.568 121.023 283.159 120.036 284.987 119.356C286.122 118.933 287.437 118.545 288.674 118.594C289.565 118.63 290.415 118.895 291.117 119.556C291.548 119.963 291.755 120.54 291.755 121.118C291.755 121.707 291.54 122.299 291.114 122.714ZM320.981 130.242C320.927 130.33 320.853 130.391 320.771 130.427C320.684 130.465 320.587 130.476 320.495 130.46C320.402 130.445 320.315 130.403 320.245 130.339C320.178 130.278 320.128 130.196 320.105 130.097C319.545 127.636 318.458 125.806 316.139 124.625C314.998 124.045 313.686 123.676 312.444 123.382C312.083 123.296 311.702 123.241 311.318 123.185C310.114 123.009 308.902 122.807 308.117 121.834C307.644 121.247 307.446 120.497 307.558 119.811C307.664 119.165 308.041 118.572 308.726 118.217C310.433 117.334 312.554 118.201 314.278 118.939C314.406 118.994 314.531 119.048 314.654 119.1C316.34 119.812 317.877 120.752 319.141 122.096C320.143 123.162 321.072 124.739 321.446 126.361C321.758 127.71 321.685 129.088 320.981 130.242Z" fill="black"/>
<path fill-rule="evenodd" clip-rule="evenodd" d="M306.203 150.392C303.384 149.121 298.321 150.231 296.483 150.672C292.21 151.697 287.911 153.914 286.583 157.386C285.086 161.3 288.073 162.532 288.512 162.331C291.47 162.539 294.993 160.678 298.093 160.198C300.609 159.804 303.264 159.461 305.621 158.123C307.343 159.07 311.231 159.583 314.369 160.412C317.041 161.117 318.199 162.647 320.676 162.321C323.646 161.932 322.43 155.681 319.121 153.149C315.499 150.378 309.374 149.254 306.203 150.392ZM311.786 177.119C309.319 177.721 309.154 172.31 308.877 170.398C308.661 168.904 307.444 165.053 304.357 165.219C301.27 165.385 300.11 168.612 300.266 170.619C300.368 171.921 301.566 178.514 297.741 179.348C295.303 179.339 292.482 179.174 289.917 178.701C286.9 178.017 282.975 175.622 281.939 180.339C281.566 182.036 294.86 187.08 300.759 187.536C306.741 188.75 313.741 186.884 318.001 182.303C318.97 181.261 321.699 176.935 321.893 175.875C322.302 173.649 321.356 172.216 318.603 173.001C316.659 174.04 313.372 176.732 311.786 177.119Z" fill="black"/>
<path fill-rule="evenodd" clip-rule="evenodd" d="M323.715 144.827C319.91 146.661 314.602 143.956 312.043 141.122C311.112 140.09 310.394 137.138 310.752 135.266C311.722 130.196 315.368 127.153 319.216 126.114C324.551 124.673 329.921 128.323 329.295 132.63C328.701 136.712 327.802 142.634 323.715 144.827ZM297.817 135.088C297.512 140.613 293.079 145.449 287.78 146.882C279.243 149.266 275.024 143.26 273.113 136.789C272.923 136.146 272.477 134.183 273.675 132.5C278.386 125.878 289.848 127.007 295.573 128.825C297.249 130.429 297.934 132.744 297.817 135.088ZM327.849 125.557C327.846 125.561 327.843 125.564 327.841 125.567C327.821 125.555 327.802 125.543 327.782 125.531C327.804 125.54 327.827 125.548 327.849 125.557ZM334.992 126.196C334.496 120.57 316.86 122.725 314.798 123.186C309.171 124.842 304.311 129.349 298.019 127.368C291.5 120.094 269.548 122.18 264.946 125.885C264.075 125.543 263.016 125.727 261.894 126.049C256.13 125.841 229.819 127.83 235.201 135.192C236.017 135.759 236.833 135.182 236.856 134.014C264.911 123.878 262.192 133.372 265.519 132.263C266.027 132.41 266.557 132.502 267.021 132.6C269.596 133.429 270.471 133.173 270.81 136.066C273.14 158.409 302.867 150.698 300.429 132.371C302.843 132.238 304.955 131.193 307.507 132.213C309.28 149.478 323.16 150.175 327.337 144.19C330.487 140.036 329.238 133.767 333.568 130.499C335.278 131.931 335.388 127.099 334.992 126.196Z" fill="black"/>
<rect x="1.5" y="1.5" width="549" height="327" rx="28.5" stroke="black" stroke-width="3"/>
</g>
</svg>
